<svg width="232" height="207" viewBox="0 0 232 207" fill="none" xmlns="http://www.w3.org/2000/svg">
<path d="M226.768 182.83C233.056 186.874 232.417 194.97 224.924 197.264C210.665 201.624 196.042 204.691 181.233 206.429C89.9212 176.923 24.2433 107.049 0.390897 14.1622C-0.25886 11.355 1.90001 9.37538 3.82832 10.9256C10.7837 16.6154 18.1154 21.8295 25.7734 26.5324C26.4118 26.9621 27.1386 27.2433 27.9002 27.355C28.6617 27.4668 29.4387 27.4064 30.1738 27.1783C30.9089 26.9501 31.5835 26.56 32.1477 26.0367C32.712 25.5134 33.1516 24.8703 33.4342 24.1547C36.8839 16.4259 40.8617 8.94346 45.3394 1.76054C46.5027 -0.156264 49.217 0.524568 49.741 2.80797C69.5272 78.0661 121.686 133.612 195.664 157.954C205.222 167.349 215.723 175.237 226.768 182.83Z" fill="#FCB03E" fill-opacity="0.5"/>
</svg>
