<svg width="232" height="207" viewBox="0 0 232 207" fill="none" xmlns="http://www.w3.org/2000/svg">
<path d="M5.27349 24.117C-1.01449 20.0739 -0.375199 11.9772 7.11797 9.68336C21.3768 5.32342 35.9995 2.25601 50.8089 0.518311C142.131 29.9826 207.799 99.8989 231.651 192.775C232.301 195.582 230.142 197.562 228.214 196.011C221.258 190.322 213.927 185.108 206.269 180.405C205.63 179.975 204.903 179.694 204.142 179.582C203.38 179.47 202.603 179.531 201.868 179.759C201.133 179.987 200.458 180.377 199.894 180.9C199.33 181.424 198.89 182.067 198.608 182.782C195.167 190.525 191.196 198.021 186.724 205.218C185.56 207.135 182.846 206.454 182.322 204.171C162.546 128.902 110.377 73.3569 36.4095 49.0145C26.8308 39.5876 16.3298 31.7004 5.27349 24.117Z" fill="#C42730" fill-opacity="0.5"/>
</svg>
