<svg width="207" height="232" viewBox="0 0 207 232" fill="none" xmlns="http://www.w3.org/2000/svg">
<path d="M182.52 4.6916C186.565 -1.59301 194.666 -0.95406 196.961 6.5351C201.323 20.7863 204.392 35.4012 206.131 50.2026C176.609 141.476 106.697 207.108 13.7612 230.948C10.9526 231.597 8.97186 229.44 10.5229 227.512C16.2157 220.561 21.4326 213.233 26.1381 205.579C26.5681 204.941 26.8493 204.215 26.9612 203.453C27.073 202.692 27.0126 201.916 26.7843 201.181C26.556 200.446 26.1657 199.772 25.6421 199.208C25.1186 198.644 24.4751 198.205 23.7591 197.922C16.0267 194.481 8.54029 190.513 1.35294 186.044C-0.564896 184.882 0.116301 182.169 2.40093 181.645C77.6994 161.87 133.275 109.739 157.63 35.8004C167.031 26.2373 174.922 15.742 182.52 4.6916Z" fill="#0373BA" fill-opacity="0.5"/>
</svg>
