<svg width="25" height="25" viewBox="0 0 25 25" fill="none" xmlns="http://www.w3.org/2000/svg">
<path d="M12.6042 18.5679C12.882 18.5679 13.1164 18.4724 13.3073 18.2814C13.4983 18.0904 13.5938 17.8561 13.5938 17.5783C13.5938 17.3005 13.4983 17.0661 13.3073 16.8752C13.1164 16.6842 12.882 16.5887 12.6042 16.5887C12.3264 16.5887 12.0921 16.6842 11.9011 16.8752C11.7101 17.0661 11.6146 17.3005 11.6146 17.5783C11.6146 17.8561 11.7101 18.0904 11.9011 18.2814C12.0921 18.4724 12.3264 18.5679 12.6042 18.5679ZM11.6927 14.7658H13.2292C13.2292 14.3144 13.2856 13.9021 13.3985 13.5288C13.5113 13.1555 13.8629 12.7259 14.4532 12.2397C14.9914 11.7884 15.3733 11.3456 15.599 10.9116C15.8247 10.4776 15.9375 10.0002 15.9375 9.47933C15.9375 8.55919 15.6381 7.82134 15.0391 7.26579C14.4401 6.71023 13.6459 6.43246 12.6563 6.43246C11.8056 6.43246 11.0547 6.64513 10.4037 7.07048C9.75265 7.49582 9.27956 8.08176 8.98442 8.82829L10.3646 9.34912C10.5556 8.86301 10.8421 8.48541 11.224 8.21631C11.6059 7.94721 12.0573 7.81266 12.5782 7.81266C13.1684 7.81266 13.6459 7.97325 14.0105 8.29443C14.375 8.61561 14.5573 9.02794 14.5573 9.53141C14.5573 9.91336 14.4445 10.2736 14.2188 10.6121C13.9931 10.9507 13.6632 11.3022 13.2292 11.6668C12.7084 12.1182 12.3221 12.5653 12.0704 13.008C11.8186 13.4507 11.6927 14.0366 11.6927 14.7658ZM12.5 22.9168C11.0417 22.9168 9.67886 22.6521 8.4115 22.1226C7.14414 21.593 6.04171 20.8595 5.10421 19.922C4.16671 18.9845 3.42886 17.8821 2.89067 16.6147C2.35247 15.3474 2.08337 13.9759 2.08337 12.5002C2.08337 11.0418 2.35247 9.67898 2.89067 8.41162C3.42886 7.14426 4.16671 6.04183 5.10421 5.10433C6.04171 4.16683 7.14414 3.42898 8.4115 2.89079C9.67886 2.35259 11.0417 2.0835 12.5 2.0835C13.941 2.0835 15.2952 2.35259 16.5625 2.89079C17.8299 3.42898 18.9323 4.16683 19.8698 5.10433C20.8073 6.04183 21.5495 7.14426 22.0964 8.41162C22.6433 9.67898 22.9167 11.0418 22.9167 12.5002C22.9167 13.9759 22.6433 15.3474 22.0964 16.6147C21.5495 17.8821 20.8073 18.9845 19.8698 19.922C18.9323 20.8595 17.8299 21.593 16.5625 22.1226C15.2952 22.6521 13.941 22.9168 12.5 22.9168ZM12.5 21.3543C14.948 21.3543 17.0356 20.4863 18.7631 18.7502C20.4905 17.0141 21.3542 14.9307 21.3542 12.5002C21.3542 10.0696 20.4905 7.98627 18.7631 6.25016C17.0356 4.51405 14.948 3.646 12.5 3.646C10.0174 3.646 7.92105 4.51405 6.21098 6.25016C4.50091 7.98627 3.64587 10.0696 3.64587 12.5002C3.64587 14.9307 4.50091 17.0141 6.21098 18.7502C7.92105 20.4863 10.0174 21.3543 12.5 21.3543Z" fill="#0053C2"/>
</svg>
