<svg width="23" height="22" viewBox="0 0 23 22" fill="none" xmlns="http://www.w3.org/2000/svg">
<path d="M2.8335 4.334H0.666504V19.503C0.666504 20.6949 1.64165 21.67 2.8335 21.67H18.0025V19.503H2.8335V4.334ZM20.1695 0H7.1675C5.97565 0 5.0005 0.97515 5.0005 2.167V15.169C5.0005 16.3609 5.97565 17.336 7.1675 17.336H20.1695C21.3614 17.336 22.3365 16.3609 22.3365 15.169V2.167C22.3365 0.97515 21.3614 0 20.1695 0ZM20.1695 15.169H7.1675V2.167H20.1695V15.169ZM9.3345 7.5845H18.0025V9.7515H9.3345V7.5845ZM9.3345 10.835H13.6685V13.002H9.3345V10.835ZM9.3345 4.334H18.0025V6.501H9.3345V4.334Z" fill="#0053C2"/>
</svg>
