<svg width="25" height="25" viewBox="0 0 25 25" fill="none" xmlns="http://www.w3.org/2000/svg">
<mask id="mask0_2469_26112" style="mask-type:alpha" maskUnits="userSpaceOnUse" x="0" y="0" width="25" height="25">
<rect x="0.839844" y="0.00195312" width="24" height="24" fill="#D9D9D9"/>
</mask>
<g mask="url(#mask0_2469_26112)">
<path d="M5.83984 21.002C5.28984 21.002 4.81884 20.8063 4.42684 20.415C4.03551 20.023 3.83984 19.552 3.83984 19.002V5.00195C3.83984 4.45195 4.03551 3.98095 4.42684 3.58895C4.81884 3.19762 5.28984 3.00195 5.83984 3.00195H12.8398V5.00195H5.83984V19.002H12.8398V21.002H5.83984ZM16.8398 17.002L15.4648 15.552L18.0148 13.002H9.83984V11.002H18.0148L15.4648 8.45195L16.8398 7.00195L21.8398 12.002L16.8398 17.002Z" fill="#0053C2"/>
</g>
</svg>
