<svg width="26" height="26" viewBox="0 0 26 26" fill="none" xmlns="http://www.w3.org/2000/svg">
<path d="M4.33329 6.49984H2.16663V21.6665C2.16663 22.8582 3.14163 23.8332 4.33329 23.8332H19.5V21.6665H4.33329V6.49984ZM21.6666 2.1665H8.66663C7.47496 2.1665 6.49996 3.1415 6.49996 4.33317V17.3332C6.49996 18.5248 7.47496 19.4998 8.66663 19.4998H21.6666C22.8583 19.4998 23.8333 18.5248 23.8333 17.3332V4.33317C23.8333 3.1415 22.8583 2.1665 21.6666 2.1665ZM21.6666 17.3332H8.66663V4.33317H21.6666V17.3332ZM14.6358 11.0065C15.08 10.2157 15.9141 9.74984 16.4016 9.0565C16.9216 8.31984 16.6291 6.95484 15.1666 6.95484C14.2133 6.95484 13.7366 7.68067 13.5416 8.28734L12.0575 7.66984C12.4691 6.4565 13.5633 5.4165 15.1558 5.4165C16.4883 5.4165 17.4091 6.02317 17.875 6.7815C18.2758 7.4315 18.5033 8.65567 17.8858 9.56567C17.2033 10.5732 16.5533 10.8765 16.1958 11.5265C16.055 11.7865 16.0008 11.9598 16.0008 12.8048H14.3541C14.365 12.3607 14.2891 11.6348 14.6358 11.0065ZM14.0291 15.1123C14.0291 14.4732 14.5383 13.9857 15.1666 13.9857C15.8058 13.9857 16.2933 14.4732 16.2933 15.1123C16.2933 15.7407 15.8166 16.2498 15.1666 16.2498C14.5383 16.2498 14.0291 15.7407 14.0291 15.1123Z" fill="#0053C2"/>
</svg>
