<svg width="252" height="260" viewBox="0 0 252 260" fill="none" xmlns="http://www.w3.org/2000/svg">
<path d="M1.396 74.5862C2.09656 77.3606 1.75162 72.2536 3.12486 66.0055C4.49868 59.7567 6.84974 62.2913 6.84974 62.2913" stroke="#263238" stroke-width="0.758667" stroke-miterlimit="10" stroke-linecap="round" stroke-linejoin="round"/>
<path d="M0.9646 68.2031L5.26953 66.4375" stroke="#263238" stroke-width="0.758667" stroke-miterlimit="10" stroke-linecap="round" stroke-linejoin="round"/>
<path d="M8.82997 64.3229C8.82997 64.3229 6.25627 69.6442 10.1361 71.9062" stroke="#263238" stroke-width="0.758667" stroke-miterlimit="10" stroke-linecap="round" stroke-linejoin="round"/>
<path d="M12.48 62.8248C12.48 62.8248 16.7279 65.1848 14.0669 70.293" stroke="#263238" stroke-width="0.758667" stroke-miterlimit="10" stroke-linecap="round" stroke-linejoin="round"/>
<path d="M9.56934 66.1235L12.6127 68.3457" stroke="#263238" stroke-width="0.758667" stroke-miterlimit="10" stroke-linecap="round" stroke-linejoin="round"/>
<path d="M11.9558 65.1467L9.57446 68.9375" stroke="#263238" stroke-width="0.758667" stroke-miterlimit="10" stroke-linecap="round" stroke-linejoin="round"/>
<path d="M23.021 126.209C20.1154 128.296 16.0693 127.632 13.9825 124.726C11.8962 121.821 12.5599 117.774 15.4655 115.688C18.3705 113.602 22.4172 114.265 24.504 117.171C26.5903 120.076 25.9266 124.123 23.021 126.209Z" stroke="#263238" stroke-width="0.758667" stroke-miterlimit="10" stroke-linecap="round" stroke-linejoin="round"/>
<path d="M32.2314 129.316C29.0076 131.631 24.5169 130.895 22.202 127.671C19.8872 124.447 20.6234 119.957 23.8472 117.641C27.0716 115.326 31.5617 116.063 33.8766 119.287C36.192 122.511 35.4552 127.001 32.2314 129.316Z" stroke="#263238" stroke-width="0.758667" stroke-miterlimit="10" stroke-linecap="round" stroke-linejoin="round"/>
<path d="M25.1449 118.28L22.1592 119.346" stroke="#263238" stroke-width="0.758667" stroke-miterlimit="10" stroke-linecap="round" stroke-linejoin="round"/>
<path d="M25.5597 119.511L21.2732 121.061" stroke="#263238" stroke-width="0.758667" stroke-miterlimit="10" stroke-linecap="round" stroke-linejoin="round"/>
<path d="M25.7181 120.993L20.9341 122.833" stroke="#263238" stroke-width="0.758667" stroke-miterlimit="10" stroke-linecap="round" stroke-linejoin="round"/>
<path d="M25.3784 123.018L21.0171 125.011" stroke="#263238" stroke-width="0.758667" stroke-miterlimit="10" stroke-linecap="round" stroke-linejoin="round"/>
<path d="M24.6104 124.577L21.2922 125.953" stroke="#263238" stroke-width="0.758667" stroke-miterlimit="10" stroke-linecap="round" stroke-linejoin="round"/>
<path d="M22.3716 111.085C22.184 110.522 20.0847 110.123 19.9826 111.677C19.8798 113.231 22.1983 111.94 22.8478 111.112C22.8478 111.112 21.6556 112.713 22.1614 113.029" stroke="#263238" stroke-width="0.758667" stroke-miterlimit="10" stroke-linecap="round" stroke-linejoin="round"/>
<path d="M33.9981 113.021L32.1333 116.896C32.1333 116.896 33.066 114.959 34.0634 115.137C35.2924 115.355 34.4755 117.365 32.99 116.625" stroke="#263238" stroke-width="0.758667" stroke-miterlimit="10" stroke-linecap="round" stroke-linejoin="round"/>
<path d="M236.879 176.318L239.809 179.089" stroke="#263238" stroke-width="0.758667" stroke-miterlimit="10" stroke-linecap="round" stroke-linejoin="round"/>
<path d="M239.808 175.595L237.356 179.259" stroke="#263238" stroke-width="0.758667" stroke-miterlimit="10" stroke-linecap="round" stroke-linejoin="round"/>
<path d="M242.689 176.646L245.619 175.556" stroke="#263238" stroke-width="0.758667" stroke-miterlimit="10" stroke-linecap="round" stroke-linejoin="round"/>
<path d="M247.024 172.503L248.805 174.079" stroke="#263238" stroke-width="0.758667" stroke-miterlimit="10" stroke-linecap="round" stroke-linejoin="round"/>
<path d="M250.171 170.607L247.915 178.351" stroke="#263238" stroke-width="0.758667" stroke-miterlimit="10" stroke-linecap="round" stroke-linejoin="round"/>
<path d="M113.542 132.833L121.42 127.413L131.854 128.144L132.505 141.369L124.847 146.845L115.397 146.155L113.542 132.833Z" stroke="#263238" stroke-width="0.758667" stroke-miterlimit="10" stroke-linecap="round" stroke-linejoin="round"/>
<path d="M115.397 146.156L123.024 140.665L132.505 141.369" stroke="#263238" stroke-width="0.758667" stroke-miterlimit="10" stroke-linecap="round" stroke-linejoin="round"/>
<path d="M123.024 140.664L121.42 127.413" stroke="#263238" stroke-width="0.758667" stroke-miterlimit="10" stroke-linecap="round" stroke-linejoin="round"/>
<path d="M113.542 132.833L123.953 134.038L131.854 128.144" stroke="#263238" stroke-width="0.758667" stroke-miterlimit="10" stroke-linecap="round" stroke-linejoin="round"/>
<path d="M123.953 134.039L124.847 146.845" stroke="#263238" stroke-width="0.758667" stroke-miterlimit="10" stroke-linecap="round" stroke-linejoin="round"/>
<path d="M205.497 88.3943L202.007 99.2412L212.871 97.7754L205.497 88.3943Z" stroke="#263238" stroke-width="0.758667" stroke-miterlimit="10" stroke-linecap="round" stroke-linejoin="round"/>
<path d="M205.497 88.3945L207.439 98.4453" stroke="#263238" stroke-width="0.758667" stroke-miterlimit="10" stroke-linecap="round" stroke-linejoin="round"/>
<path d="M207.127 96.8344L208.398 96.6326L208.694 98.3389" stroke="#263238" stroke-width="0.758667" stroke-miterlimit="10" stroke-linecap="round" stroke-linejoin="round"/>
<path d="M68.6724 187.652L74.1012 190.318" stroke="#263238" stroke-width="0.758667" stroke-miterlimit="10" stroke-linecap="round" stroke-linejoin="round"/>
<path d="M72.348 185.618L70.7949 191.288" stroke="#263238" stroke-width="0.758667" stroke-miterlimit="10" stroke-linecap="round" stroke-linejoin="round"/>
<path d="M73.1013 182.856C73.1013 182.856 73.8666 182.165 74.4092 183.022C74.9519 183.88 73.8856 185.671 73.8856 185.671L76.0633 184.843" stroke="#263238" stroke-width="0.758667" stroke-miterlimit="10" stroke-linecap="round" stroke-linejoin="round"/>
<path d="M111.277 0.918851C116.458 3.83036 110.521 10.9548 110.521 15.1107C110.521 19.2666 116.458 18.6729 119.427 19.8603C120.614 19.8603 122.989 19.8603 122.925 22.8799" stroke="#263238" stroke-width="0.758667" stroke-miterlimit="10" stroke-linecap="round" stroke-linejoin="round"/>
<path d="M105.5 4.68168C106.402 9.59456 112.04 7.85146 115.488 8.97355C121.416 10.9019 118.129 17.0307 116.357 20.733C115.297 22.9469 114.242 26.0407 116.136 28.1406" stroke="#263238" stroke-width="0.758667" stroke-miterlimit="10" stroke-linecap="round" stroke-linejoin="round"/>
<path d="M106.259 6.58789L112.439 1.45356" stroke="#263238" stroke-width="0.758667" stroke-miterlimit="10" stroke-linecap="round" stroke-linejoin="round"/>
<path d="M108.683 8.12012L113.337 4.25927" stroke="#263238" stroke-width="0.758667" stroke-miterlimit="10" stroke-linecap="round" stroke-linejoin="round"/>
<path d="M111.418 12.0234L115.35 8.935" stroke="#263238" stroke-width="0.758667" stroke-miterlimit="10" stroke-linecap="round" stroke-linejoin="round"/>
<path d="M110.607 16.6465L118.289 11.1209" stroke="#263238" stroke-width="0.758667" stroke-miterlimit="10" stroke-linecap="round" stroke-linejoin="round"/>
<path d="M113.549 18.8018L118.904 14.8703" stroke="#263238" stroke-width="0.758667" stroke-miterlimit="10" stroke-linecap="round" stroke-linejoin="round"/>
<path d="M115.828 27.1553L122.521 21.7057" stroke="#263238" stroke-width="0.758667" stroke-miterlimit="10" stroke-linecap="round" stroke-linejoin="round"/>
<path d="M115.994 22.8672L120.36 19.7983" stroke="#263238" stroke-width="0.758667" stroke-miterlimit="10" stroke-linecap="round" stroke-linejoin="round"/>
<path d="M34.3981 185.918C30.618 191.652 22.9065 193.235 17.1725 189.456C11.4391 185.676 9.8551 177.964 13.6346 172.23C17.4147 166.496 25.1269 164.912 30.8609 168.693C36.5942 172.473 38.1777 180.185 34.3981 185.918Z" stroke="#263238" stroke-width="0.758667" stroke-miterlimit="10" stroke-linecap="round" stroke-linejoin="round"/>
<path d="M27.1445 167.04C31.4779 161.955 35.1631 159.072 36.5844 160.009C38.7425 161.432 34.865 171.12 27.924 181.648C20.9837 192.177 13.6075 199.559 11.4494 198.136C10.0281 197.199 11.225 192.676 14.1917 186.688" stroke="#263238" stroke-width="0.758667" stroke-miterlimit="10" stroke-linecap="round" stroke-linejoin="round"/>
<path d="M11.8472 181.621C5.80689 179.883 1.94723 177.853 2.18709 176.231C2.56528 173.674 12.9847 173.098 25.459 174.943C37.9339 176.788 47.74 180.357 47.3619 182.914C47.1 184.682 42.0358 185.503 34.811 185.231" stroke="#263238" stroke-width="0.758667" stroke-miterlimit="10" stroke-linecap="round" stroke-linejoin="round"/>
<path d="M13.4318 172.617C8.8734 164.39 6.59359 157.97 8.14018 156.969C10.1689 155.654 18.017 164.168 25.6692 175.984C33.3209 187.799 37.8793 198.443 35.85 199.758C34.5083 200.627 30.6201 197.196 25.9269 191.355" stroke="#263238" stroke-width="0.758667" stroke-miterlimit="10" stroke-linecap="round" stroke-linejoin="round"/>
<path d="M38.3333 165.39C37.7123 166.333 36.4441 166.593 35.5013 165.972C34.5591 165.351 34.2985 164.083 34.9201 163.14C35.5411 162.197 36.8093 161.937 37.7521 162.558C38.6943 163.18 38.9549 164.448 38.3333 165.39Z" fill="#263238"/>
<path d="M31.5698 196.673C30.9482 197.615 29.6806 197.875 28.7378 197.254C27.7956 196.633 27.535 195.365 28.156 194.422C28.7776 193.48 30.0457 193.22 30.9885 193.841C31.9307 194.462 32.1908 195.73 31.5698 196.673Z" fill="#263238"/>
<path d="M20.6617 175.459C20.0401 176.402 18.772 176.662 17.8298 176.04C16.887 175.419 16.6269 174.151 17.2479 173.209C17.8695 172.266 19.1377 172.006 20.0799 172.627C21.0227 173.248 21.2827 174.516 20.6617 175.459Z" fill="#263238"/>
<path d="M150.866 86.5859H157.861L161.358 80.5278L157.861 74.4697H150.866L147.368 80.5278L150.866 86.5859Z" stroke="#263238" stroke-width="0.758667" stroke-miterlimit="10" stroke-linecap="round" stroke-linejoin="round"/>
<path d="M149.849 99.875L146.352 93.8169H139.357" stroke="#263238" stroke-width="0.758667" stroke-miterlimit="10" stroke-linecap="round" stroke-linejoin="round"/>
<path d="M140.296 80.5283H147.291L150.789 74.4702L147.291 68.4121H140.296L136.799 74.4702L140.296 80.5283Z" stroke="#263238" stroke-width="0.758667" stroke-miterlimit="10" stroke-linecap="round" stroke-linejoin="round"/>
<path d="M150.866 74.4707H157.861L161.358 68.4126L157.861 62.3544H150.866L147.368 68.4126L150.866 74.4707Z" stroke="#263238" stroke-width="0.758667" stroke-miterlimit="10" stroke-linecap="round" stroke-linejoin="round"/>
<path d="M149.85 74.4703C149.85 73.9514 150.271 73.5305 150.789 73.5305C151.308 73.5305 151.729 73.9514 151.729 74.4703C151.729 74.9892 151.308 75.4102 150.789 75.4102C150.271 75.4102 149.85 74.9892 149.85 74.4703Z" fill="#263238"/>
<path d="M135.243 61.7545C135.243 61.2356 135.664 60.8147 136.182 60.8147C136.701 60.8147 137.122 61.2356 137.122 61.7545C137.122 62.2734 136.701 62.6943 136.182 62.6943C135.664 62.6943 135.243 62.2734 135.243 61.7545Z" fill="#263238"/>
<path d="M148.91 99.8762C148.91 99.3573 149.331 98.9364 149.849 98.9364C150.368 98.9364 150.789 99.3573 150.789 99.8762C150.789 100.395 150.368 100.815 149.849 100.815C149.331 100.815 148.91 100.395 148.91 99.8762Z" fill="#263238"/>
<path d="M138.417 93.817C138.417 93.2981 138.838 92.8772 139.357 92.8772C139.876 92.8772 140.297 93.2981 140.297 93.817C140.297 94.3359 139.876 94.7568 139.357 94.7568C138.838 94.7568 138.417 94.3359 138.417 93.817Z" fill="#263238"/>
<path d="M168.124 68.5709C168.124 68.052 168.544 67.6317 169.063 67.6317C169.582 67.6317 170.003 68.052 170.003 68.5709C170.003 69.0898 169.582 69.5107 169.063 69.5107C168.544 69.5107 168.124 69.0898 168.124 68.5709Z" fill="#263238"/>
<path d="M145.341 93.817C145.341 93.2981 145.762 92.8772 146.281 92.8772C146.799 92.8772 147.22 93.2981 147.22 93.817C147.22 94.3359 146.799 94.7568 146.281 94.7568C145.762 94.7568 145.341 94.3359 145.341 93.817Z" fill="#263238"/>
<path d="M160.419 68.5709C160.419 68.052 160.839 67.6317 161.358 67.6317C161.877 67.6317 162.298 68.052 162.298 68.5709C162.298 69.0898 161.877 69.5107 161.358 69.5107C160.839 69.5107 160.419 69.0898 160.419 68.5709Z" fill="#263238"/>
<path d="M149.85 86.5865C149.85 86.0676 150.271 85.6467 150.789 85.6467C151.308 85.6467 151.729 86.0676 151.729 86.5865C151.729 87.1054 151.308 87.5264 150.789 87.5264C150.271 87.5264 149.85 87.1054 149.85 86.5865Z" fill="#263238"/>
<path d="M161.358 68.5723H169.063" stroke="#263238" stroke-width="0.758667" stroke-miterlimit="10" stroke-linecap="round" stroke-linejoin="round"/>
<path d="M150.789 86.5871L146.281 93.8184" stroke="#263238" stroke-width="0.758667" stroke-miterlimit="10" stroke-linecap="round" stroke-linejoin="round"/>
<path d="M140.296 68.4121L136.182 61.7543" stroke="#263238" stroke-width="0.758667" stroke-miterlimit="10" stroke-linecap="round" stroke-linejoin="round"/>
<path d="M189.902 44.5389C191.482 39.1718 196.446 35.254 202.324 35.254C208.402 35.254 213.501 39.4426 214.895 45.0898" stroke="#263238" stroke-width="0.758667" stroke-miterlimit="10" stroke-linecap="round" stroke-linejoin="round"/>
<path d="M200.856 61.0654C194.397 60.3364 189.378 54.8553 189.378 48.2011" stroke="#263238" stroke-width="0.758667" stroke-miterlimit="10" stroke-linecap="round" stroke-linejoin="round"/>
<path d="M215.271 48.2006C215.271 55.3506 209.474 61.1475 202.324 61.1475" stroke="#263238" stroke-width="0.758667" stroke-miterlimit="10" stroke-linecap="round" stroke-linejoin="round"/>
<path d="M216.004 39.9929C220.054 39.4734 222.768 39.7555 223.187 40.9613C224.024 43.3741 215.362 48.5713 203.84 52.5699C192.318 56.5679 182.298 57.8539 181.461 55.4411C181.013 54.1515 183.28 52.0659 187.247 49.7932" stroke="#263238" stroke-width="0.758667" stroke-miterlimit="10" stroke-linecap="round" stroke-linejoin="round"/>
<path d="M146.281 31.1185L147.521 33.6322L150.296 34.0359L148.288 35.9922L148.762 38.7559L146.281 37.4509L143.799 38.7559L144.273 35.9922L142.266 34.0359L145.04 33.6322L146.281 31.1185Z" stroke="#263238" stroke-width="0.758667" stroke-miterlimit="10" stroke-linecap="round" stroke-linejoin="round"/>
<path d="M58.6295 24.4269C58.6295 26.8492 57.6083 29.0341 55.9756 30.5599C54.4676 31.9848 52.4371 32.8516 50.2108 32.8516C49.9377 32.8516 49.6705 32.8397 49.4093 32.8159C47.6578 32.6497 46.0667 31.9491 44.7962 30.8805C43.7097 29.9721 42.8548 28.7906 42.3442 27.4429C41.9821 26.5049 41.7861 25.4897 41.7861 24.4269C41.7861 19.7782 45.5561 16.0082 50.2108 16.0082C51.5169 16.0082 52.7577 16.3051 53.868 16.8454C55.1385 17.4569 56.2309 18.3771 57.0443 19.5111C58.0417 20.8944 58.6295 22.5924 58.6295 24.4269Z" stroke="#263238" stroke-width="0.758667" stroke-miterlimit="10" stroke-linecap="round" stroke-linejoin="round"/>
<path d="M57.2777 25.9513C57.2777 26.6703 56.6947 27.2539 55.9757 27.2539C55.2561 27.2539 54.6731 26.6703 54.6731 25.9513C54.6731 25.2324 55.2561 24.6493 55.9757 24.6493C56.6947 24.6493 57.2777 25.2324 57.2777 25.9513Z" stroke="#263238" stroke-width="0.758667" stroke-miterlimit="10" stroke-linecap="round" stroke-linejoin="round"/>
<path d="M45.5564 29.2591C45.5564 29.9121 45.2596 30.494 44.7965 30.8799C43.71 29.9715 42.8551 28.7901 42.3445 27.4423C42.6591 27.2464 43.0332 27.1396 43.431 27.1396C44.6065 27.1396 45.5564 28.0895 45.5564 29.2591Z" stroke="#263238" stroke-width="0.758667" stroke-miterlimit="10" stroke-linecap="round" stroke-linejoin="round"/>
<path d="M55.9755 30.5599C54.4675 31.9848 52.437 32.8516 50.2106 32.8516C49.9375 32.8516 49.6704 32.8397 49.4091 32.8159C49.3616 32.5903 49.3379 32.3588 49.3379 32.1213C49.3379 30.1858 50.9053 28.6125 52.8407 28.6125C54.2181 28.6125 55.4055 29.4081 55.9755 30.5599Z" stroke="#263238" stroke-width="0.758667" stroke-miterlimit="10" stroke-linecap="round" stroke-linejoin="round"/>
<path d="M50.1065 19.152C50.1065 20.2219 49.2391 21.0898 48.1687 21.0898C47.0988 21.0898 46.2314 20.2219 46.2314 19.152C46.2314 18.0822 47.0988 17.2148 48.1687 17.2148C49.2391 17.2148 50.1065 18.0822 50.1065 19.152Z" stroke="#263238" stroke-width="0.758667" stroke-miterlimit="10" stroke-linecap="round" stroke-linejoin="round"/>
<path d="M49.9614 24.6471C49.9614 25.1416 49.5601 25.543 49.0649 25.543C48.5704 25.543 48.1685 25.1416 48.1685 24.6471C48.1685 24.1519 48.5704 23.7506 49.0649 23.7506C49.5601 23.7506 49.9614 24.1519 49.9614 24.6471Z" stroke="#263238" stroke-width="0.758667" stroke-miterlimit="10" stroke-linecap="round" stroke-linejoin="round"/>
<path d="M57.0442 19.5102C56.8186 19.5874 56.5693 19.623 56.314 19.623C54.9484 19.623 53.8501 18.5188 53.8501 17.1532C53.8501 17.0464 53.856 16.9455 53.8679 16.8445C55.1384 17.456 56.2308 18.3763 57.0442 19.5102Z" stroke="#263238" stroke-width="0.758667" stroke-miterlimit="10" stroke-linecap="round" stroke-linejoin="round"/>
<path d="M244.409 121.046C243.098 120.463 242.508 118.929 243.091 117.618C243.674 116.308 245.209 115.718 246.519 116.301C247.83 116.883 248.42 118.419 247.836 119.729C247.254 121.039 245.719 121.629 244.409 121.046ZM250.617 122.189L251.525 120.146L250.054 119.335C250.107 118.971 250.117 118.607 250.084 118.25L251.594 117.515L250.791 115.429L249.178 115.894C248.963 115.606 248.712 115.343 248.43 115.109L248.979 113.521L246.937 112.612L246.125 114.083C245.761 114.031 245.398 114.021 245.04 114.054L244.305 112.544L242.219 113.346L242.685 114.959C242.397 115.173 242.134 115.425 241.898 115.707L240.311 115.159L239.402 117.2L240.873 118.013C240.821 118.376 240.81 118.739 240.843 119.097L239.334 119.832L240.136 121.918L241.749 121.452C241.964 121.74 242.215 122.004 242.497 122.239L241.948 123.827L243.991 124.735L244.803 123.264C245.166 123.317 245.53 123.327 245.888 123.294L246.623 124.803L248.708 124.001L248.243 122.388C248.531 122.173 248.794 121.922 249.029 121.64L250.617 122.189Z" stroke="#263238" stroke-width="0.758667" stroke-miterlimit="10" stroke-linecap="round" stroke-linejoin="round"/>
<path d="M231.335 131.117C229.556 130.326 228.754 128.242 229.546 126.462C230.337 124.682 232.423 123.881 234.202 124.673C235.982 125.464 236.783 127.549 235.991 129.329C235.2 131.108 233.115 131.909 231.335 131.117ZM239.767 132.669L241.001 129.896L239.003 128.793C239.074 128.299 239.089 127.805 239.043 127.32L241.094 126.322L240.005 123.488L237.814 124.121C237.522 123.729 237.181 123.372 236.797 123.053L237.543 120.896L234.769 119.663L233.666 121.66C233.173 121.59 232.68 121.575 232.193 121.621L231.196 119.571L228.362 120.659L228.994 122.85C228.603 123.142 228.246 123.483 227.927 123.867L225.77 123.121L224.536 125.895L226.534 126.998C226.463 127.491 226.449 127.984 226.494 128.471L224.444 129.468L225.533 132.301L227.723 131.67C228.015 132.061 228.356 132.418 228.74 132.737L227.995 134.893L230.768 136.127L231.871 134.129C232.364 134.201 232.858 134.215 233.345 134.17L234.341 136.22L237.175 135.131L236.543 132.94C236.935 132.648 237.291 132.307 237.61 131.924L239.767 132.669Z" stroke="#263238" stroke-width="0.758667" stroke-miterlimit="10" stroke-linecap="round" stroke-linejoin="round"/>
<path d="M116.691 106.347C115.865 107.912 114.945 109.395 113.94 110.789C108.533 118.31 100.681 123.337 92.0852 125.352C87.82 126.352 83.3679 126.608 78.9377 126.058C74.5674 125.519 70.2203 124.188 66.0935 122.013C65.2695 121.579 64.4656 121.114 63.689 120.628C62.9142 120.148 62.1638 119.64 61.4407 119.11C60.5602 118.472 59.7183 117.798 58.9097 117.09C58.9056 117.089 58.9038 117.083 58.8996 117.08C58.8504 117.039 58.8005 116.997 58.7554 116.947C58.7447 116.937 58.737 116.933 58.737 116.933C53.9903 112.743 50.4803 107.487 48.378 101.724C47.516 99.3618 46.8867 96.9075 46.5174 94.4062C45.3715 86.7902 46.5625 78.7491 50.4275 71.4169C56.1472 60.5664 66.4385 53.6854 77.679 51.893C85.3983 50.6587 93.5754 51.8241 101.024 55.7503C108.06 59.4591 113.43 65.0975 116.822 71.6734C122.255 82.1783 122.628 95.0842 116.691 106.347Z" fill="#0373BA"/>
<g opacity="0.600006">
<path d="M116.692 106.348C115.867 107.91 114.947 109.394 113.943 110.789L113.219 110.219L111.972 109.56L110.66 108.871L110.88 107.286L110.808 105.855C110.731 104.425 111.764 105.594 112.619 105.161C113.462 104.715 114.133 103.403 114.133 103.403C114.133 103.403 114.739 101.498 114.531 100.732C114.323 99.9659 113.403 98.1551 113.403 98.1551L111.277 101.106L109.526 100.969L107.781 100.055L107.561 97.7098L106.694 97.2586L106.332 95.9109L101.648 94.5988L101.113 93.6608C100.579 92.7227 98.4238 92.2418 98.4238 92.2418L98.9522 91.0188L99.7834 89.6533C100.621 88.2878 101.487 90.5557 101.487 90.5557L102.479 91.0722L104.319 89.5286L104.806 87.3141L107.804 87.4863C107.804 87.4863 107.591 86.3998 108.588 86.002C109.585 85.6102 109.146 83.4432 108.766 82.6417C108.374 81.8461 107.009 82.4873 107.009 82.4873C107.009 82.4873 105.483 80.1659 105.275 79.2397C105.067 78.3195 108.184 78.6223 109.52 77.7139C110.85 76.8115 110.399 74.9295 109.746 74.8879C109.099 74.8404 111.022 70.6726 114.733 71.8185C115.766 72.1391 116.419 72.0263 116.823 71.67C122.255 82.1786 122.629 95.0856 116.692 106.348Z" fill="white"/>
<path d="M90.7293 90.2882L89.4588 91.8853C89.4588 91.8853 88.9185 90.5969 88.1467 91.2975C87.3749 91.9981 86.983 92.3543 86.983 92.3543L86.1222 94.7647L84.5785 95.7621L83.6345 95.2694L82.744 94.7944L81.7763 94.2838L80.8501 96.0412L80.0961 97.4661C80.666 98.5763 81.4557 99.3956 81.4557 99.3956L83.0943 102.287L85.0476 103.314C86.2468 103.338 87.5233 103.611 87.5233 103.611L88.8947 104.329L88.4079 107.304C88.4079 107.304 87.3749 108.984 86.6862 108.521L85.9915 108.064L84.8635 111.97L84.816 114.119C84.816 114.119 84.1451 114.398 83.4683 114.624C82.7856 114.85 83.219 114.731 81.8 115.17C80.3811 115.61 80.4939 115.592 79.3421 115.918C78.1903 116.245 76.522 117.236 76.522 117.236L76.6229 119.302L73.9097 119.7L72.3898 118.893L72.7639 117.587L72.942 115.544L72.7342 114.018L72.0811 112.671L73.9097 111.014L73.506 109.975L72.467 107.909L70.2703 109.097L69.1423 109.702L66.5894 108.556L66.3103 107.007L65.4435 104.211L64.648 102.477L63.2349 100.565L62.8787 98.9206L63.6743 97.4126L64.0958 96.6171L62.7956 94.8656L62.4394 93.6189L60.2486 91.63C60.2486 91.63 60.8839 91.5884 60.7414 90.7038C60.5989 89.8192 61.9941 88.329 61.9941 88.329C62.7837 88.7446 65.1526 90.3951 65.1526 90.3951L67.2246 90.68C67.2484 90.68 67.6402 90.6682 68.0439 89.8964C68.4595 89.1067 69.6944 87.9193 69.6944 87.9193C69.6944 87.9193 68.7386 84.6005 69.4213 84.1553C70.0981 83.6981 70.7987 81.537 70.7987 81.537L71.3449 80.4981C71.3449 80.4981 70.0566 79.934 69.8132 79.2513C69.5697 78.5626 66.3934 79.4769 66.3934 79.4769L64.2027 80.9968L62.5284 82.3267L61.7804 83.7456C61.7804 83.7456 60.2546 81.9111 60.2486 82.9382C60.2427 83.9653 59.5599 86.0314 59.5599 86.0314C59.5599 86.0314 59.8746 86.1976 59.459 86.9932C59.0375 87.7828 58.5922 87.7472 57.6542 87.86C56.7161 87.9728 54.1157 87.6165 54.1157 87.6165C54.1157 87.6165 53.522 89.8132 53.9316 90.1932L54.3354 90.5613C54.3354 90.5613 53.7001 92.1584 53.0708 91.8259C52.4355 91.4875 51.539 91.0185 51.539 91.0185L49.3958 91.8853L47.0447 94.5094L46.5163 94.4026C45.3705 86.7913 46.5638 78.7466 50.4288 71.4144C56.1462 60.5675 66.4409 53.6865 77.6797 51.8935C77.8163 52.4991 77.9647 53.0453 77.9647 53.0453L77.3888 55.9782L76.6289 57.4268L75.9758 58.6676L75.0556 60.4131L77.3472 62.5861L76.8426 65.1568L75.5661 65.9583L75.198 67.8878L77.3888 72.1684L78.0063 73.8486C78.0063 73.8486 77.3235 75.3685 77.4779 76.4134C77.4779 76.4134 77.745 78.0164 78.9146 78.6516C80.0842 79.281 81.6219 80.035 81.6219 80.035L81.4972 82.4217L80.9688 83.0391L81.8475 85.598C84.5251 86.6488 84.2698 87.5275 84.5251 86.6488L84.7863 85.7761L86.609 85.1171L88.9304 87.8897C88.9304 87.8897 89.6487 87.7947 90.2959 88.614C90.949 89.4333 92.0057 88.6911 90.7293 90.2882Z" fill="white"/>
<path d="M59.2632 110.967C59.3285 111.81 58.2598 112.867 58.2598 112.867L59.1326 113.324L59.3997 115.675L58.7407 116.934C53.9911 112.742 50.4823 107.488 48.3806 101.723L48.8556 99.2057L50.9513 98.9088C50.9513 98.9088 52.8274 97.662 53.6586 97.9945C54.4898 98.3389 55.2497 100.352 55.2497 100.352C55.2497 100.352 55.8613 103.106 55.7663 103.053L55.7544 103.047L55.7188 103.071L55.7663 103.053L56.6212 103.504L56.8646 104.591L55.6713 106.847L53.7596 106.853C53.7596 106.853 53.3796 106.651 53.344 107.642C53.3083 108.64 54.3354 109.382 54.3354 109.382L56.4015 108.853L56.9537 106.716L58.9841 106.318C58.9841 106.318 58.6932 107.63 59.1682 107.88L59.6491 108.135L59.9341 109.702C59.9341 109.702 59.1979 110.124 59.2632 110.967Z" fill="white"/>
<path d="M69.0829 114.324C68.8995 113.819 68.8223 113.373 67.5571 112.707C66.2967 112.042 66.3602 112.28 65.871 112.831C65.3777 113.379 64.8101 113.688 63.9825 113.502C63.1548 113.317 63.5859 114.255 63.5859 114.255L63.7842 116.789L61.4414 119.108C62.1645 119.638 62.915 120.146 63.6898 120.626L64.1902 119.095L68.0855 120.253C67.2591 120.007 67.7465 118.878 67.7465 118.878L66.9142 118.439C66.9142 118.439 69.2682 114.826 69.0829 114.324Z" fill="white"/>
<path d="M93.6129 101.144L92.3364 99.8556L90.8789 100.318L90.2561 101.499L89.8066 102.351L90.4098 103.51L91.6067 104.95L92.2877 103.658C92.2877 103.658 94.1692 103.671 95.1535 102.571C96.1379 101.471 93.6129 101.144 93.6129 101.144Z" fill="white"/>
<path d="M89.8647 95.3328L92.2396 96.585L92.3322 96.0263C92.4242 95.4682 92.9757 94.8044 92.9757 94.8044L91.156 92.8838L89.8647 95.3328Z" fill="white"/>
<path d="M89.0547 122.97L88.3701 121.97L87.5775 121.552L85.1469 121.555L83.7648 124.176C83.7648 124.176 82.4432 123.996 80.7019 123.845C78.9623 123.69 79.3928 124.408 79.3928 124.408L78.938 126.055C83.3688 126.606 87.8204 126.349 92.0861 125.35C91.3861 124.854 90.53 124.392 90.53 124.392L89.0547 122.97Z" fill="white"/>
</g>
<path d="M116.691 106.347C115.865 107.912 114.945 109.395 113.94 110.789C108.533 118.31 100.681 123.337 92.0852 125.352C87.82 126.352 83.3679 126.608 78.9377 126.058C74.5674 125.519 70.2203 124.188 66.0935 122.013C65.2695 121.579 64.4656 121.114 63.689 120.628C62.9142 120.148 62.1638 119.64 61.4407 119.11C60.5602 118.472 59.7183 117.798 58.9097 117.09C58.9056 117.089 58.9038 117.083 58.8996 117.08C58.8504 117.039 58.8005 116.997 58.7554 116.947C58.7447 116.937 58.737 116.933 58.737 116.933C53.9903 112.743 50.4803 107.487 48.378 101.724C47.516 99.3618 46.8867 96.9075 46.5174 94.4062C45.3715 86.7902 46.5625 78.7491 50.4275 71.4169C56.1472 60.5664 66.4385 53.6854 77.679 51.893C85.3983 50.6587 93.5754 51.8241 101.024 55.7503C108.06 59.4591 113.43 65.0975 116.822 71.6734C122.255 82.1783 122.628 95.0842 116.691 106.347Z" stroke="#263238" stroke-width="0.758667" stroke-miterlimit="10" stroke-linecap="round" stroke-linejoin="round"/>
<path d="M92.0854 125.352C87.8196 126.352 83.3681 126.608 78.9373 126.058L79.392 124.41C79.392 124.41 78.9622 123.692 80.7011 123.847C82.4425 123.997 83.7641 124.178 83.7641 124.178L85.1462 121.556L87.5768 121.554L88.3694 121.972L89.0539 122.972L90.5293 124.394C90.5293 124.394 91.3854 124.856 92.0854 125.352V125.352Z" stroke="#263238" stroke-width="0.758667" stroke-miterlimit="10" stroke-linecap="round" stroke-linejoin="round"/>
<path d="M116.822 71.6717C116.419 72.0273 115.768 72.1389 114.734 71.8189C111.023 70.6707 109.096 74.8408 109.746 74.8871C110.399 74.9299 110.851 76.8096 109.519 77.7138C108.182 78.6203 105.068 78.3181 105.273 79.2396C105.482 80.1628 107.005 82.4847 107.005 82.4847C107.005 82.4847 108.371 81.8441 108.762 82.6439C109.148 83.4454 109.587 85.61 108.587 86.0036C107.59 86.399 107.804 87.4885 107.804 87.4885L104.802 87.3127L104.319 89.5284L102.477 91.0738L101.488 90.5526C101.488 90.5526 100.62 88.2894 99.7833 89.6537L98.9527 91.0162L98.4202 92.2393C98.4202 92.2393 100.576 92.7208 101.114 93.6594L101.649 94.5957L106.329 95.9125L106.695 97.256L107.56 97.7114L107.779 100.052L109.526 100.968L111.274 101.107L113.403 98.1531C113.403 98.1531 114.324 99.9681 114.53 100.731C114.74 101.497 114.135 103.402 114.135 103.402C114.135 103.402 113.463 104.715 112.616 105.159C111.766 105.596 110.731 104.426 110.805 105.856L110.875 107.285L110.66 108.869L111.973 109.561L113.217 110.217L113.94 110.787" stroke="#263238" stroke-width="0.758667" stroke-miterlimit="10" stroke-linecap="round" stroke-linejoin="round"/>
<path d="M46.5178 94.4048L47.0415 94.5069L49.3973 91.8821L51.537 91.0153C51.537 91.0153 52.437 91.4903 53.0699 91.8233C53.7022 92.157 54.3375 90.5635 54.3375 90.5635L53.9302 90.1907C53.5193 89.8155 54.1172 87.614 54.1172 87.614C54.1172 87.614 56.7141 87.9756 57.6539 87.8622C58.5931 87.7488 59.0396 87.7844 59.4576 86.9924C59.8755 86.1998 59.5591 86.033 59.5591 86.033C59.5591 86.033 60.2454 83.9651 60.249 82.9392C60.2525 81.9133 61.7777 83.7449 61.7777 83.7449L62.5264 82.3241L64.2048 80.9942L66.3908 79.4767C66.3908 79.4767 69.5677 78.5636 69.8141 79.2511C70.0557 79.9363 71.3452 80.4979 71.3452 80.4979L70.799 81.5345C70.799 81.5345 70.0991 83.6974 69.4193 84.1521C68.7377 84.601 69.6948 87.9186 69.6948 87.9186C69.6948 87.9186 68.4587 89.1084 68.0431 89.8968C67.6251 90.6894 67.2244 90.6823 67.2244 90.6823L65.15 90.3973C65.15 90.3973 62.7835 88.7456 61.9909 88.3276C61.9909 88.3276 60.601 89.8196 60.7399 90.7013C60.8807 91.5882 60.2501 91.6298 60.2501 91.6298L62.4397 93.6175L62.7953 94.8637L64.0979 96.6139L63.6758 97.4142L62.8808 98.9234L63.2317 100.566L64.6501 102.475L65.4444 104.208L66.3112 107.007L66.5897 108.556L69.1414 109.701L70.2695 109.094L72.465 107.909L73.5028 109.975L73.9118 111.014L72.0832 112.669L72.7321 114.018L72.9441 115.546L72.763 117.589L72.3866 118.894L73.9112 119.698L76.6197 119.305L76.5247 117.235C76.5247 117.235 78.1912 116.246 79.3418 115.917C80.496 115.59 80.3784 115.609 81.8003 115.172C83.2205 114.73 82.7829 114.851 83.4657 114.623C84.1425 114.397 84.814 114.122 84.814 114.122L84.8644 111.969L85.9883 108.062L86.6829 108.519C87.3752 108.982 88.407 107.306 88.407 107.306L88.8921 104.329L87.523 103.608C87.523 103.608 86.2478 103.339 85.0485 103.316L83.091 102.284L81.4572 99.3972C81.4572 99.3972 80.6676 98.5767 80.0964 97.4677L80.8474 96.0428L81.7736 94.286L82.7419 94.7966L83.6349 95.2668L84.5789 95.7649L86.1207 94.7616L86.9822 92.3517C86.9822 92.3517 87.374 91.9955 88.1458 91.2979C88.92 90.5962 89.4591 91.8827 89.4591 91.8827L90.7296 90.2868C92.0049 88.6934 90.9505 89.4313 90.2986 88.612C89.6461 87.7927 88.9295 87.8901 88.9295 87.8901L86.6069 85.1163L84.7855 85.7777L84.526 86.6486C84.2684 87.5255 84.526 86.6486 81.849 85.5948L80.9668 83.0383L81.4964 82.4221L81.624 80.0348C81.624 80.0348 80.0822 79.2832 78.9155 78.6533C77.7477 78.0168 77.4782 76.412 77.4782 76.412C77.3226 75.3689 78.0048 73.8508 78.0048 73.8508L77.3897 72.1659L75.1966 67.8853L75.5677 65.9581L76.84 65.156L77.344 62.5883L75.0535 60.4142L75.9732 58.6693L76.6274 57.4284L77.3909 55.9798L77.9621 53.0433C77.9621 53.0433 77.8178 52.5019 77.6795 51.8916" stroke="#263238" stroke-width="0.758667" stroke-miterlimit="10" stroke-linecap="round" stroke-linejoin="round"/>
<path d="M58.91 117.091C58.8506 117.019 58.7853 116.969 58.755 116.948C58.745 116.938 58.7372 116.933 58.7372 116.933L59.3998 115.677L59.1344 113.327L58.2617 112.867C58.2617 112.867 59.325 111.812 59.2621 110.97C59.1974 110.123 59.9306 109.702 59.9306 109.702L59.6468 108.135L59.17 107.884C58.6939 107.633 58.9836 106.318 58.9836 106.318L56.9532 106.715L56.3992 108.853L54.3355 109.381C54.3355 109.381 53.309 108.641 53.3429 107.646C53.3803 106.652 53.7608 106.853 53.7608 106.853L55.6714 106.848L56.8611 104.59L56.6231 103.509L55.7628 103.055" stroke="#263238" stroke-width="0.758667" stroke-miterlimit="10" stroke-linecap="round" stroke-linejoin="round"/>
<path d="M55.7549 103.05L55.7632 103.054C55.8588 103.104 55.2479 100.353 55.2479 100.353C55.2479 100.353 54.4903 98.3376 53.6574 97.9957C52.8268 97.6602 50.9501 98.9112 50.9501 98.9112L48.8549 99.208L48.3782 101.724" stroke="#263238" stroke-width="0.758667" stroke-miterlimit="10" stroke-linecap="round" stroke-linejoin="round"/>
<path d="M64.1895 119.097L63.689 120.629C62.9142 120.149 62.1638 119.641 61.4407 119.111L63.7834 116.791L63.5851 114.257C63.5851 114.257 63.1541 113.319 63.9817 113.505C64.8093 113.691 65.3769 113.381 65.8703 112.833C66.3595 112.283 66.296 112.045 67.5564 112.71C68.8216 113.376 68.8988 113.821 69.0822 114.327C69.268 114.829 66.9134 118.442 66.9134 118.442L67.7458 118.88C67.7458 118.88 67.2584 120.009 68.0848 120.255L64.1895 119.097Z" stroke="#263238" stroke-width="0.758667" stroke-miterlimit="10" stroke-linecap="round" stroke-linejoin="round"/>
<path d="M90.8778 100.32L92.3353 99.8586L93.6118 101.147C93.6118 101.147 96.1374 101.474 95.153 102.574C94.1687 103.674 92.2866 103.661 92.2866 103.661L91.6057 104.953L90.4088 103.513L89.8062 102.354L90.255 101.502L90.8778 100.32Z" stroke="#263238" stroke-width="0.758667" stroke-miterlimit="10" stroke-linecap="round" stroke-linejoin="round"/>
<path d="M92.9753 94.8054C92.9753 94.8054 92.4231 95.4686 92.3317 96.0273L92.2391 96.5859L89.8643 95.3338L91.1556 92.8842L92.9753 94.8054Z" stroke="#263238" stroke-width="0.758667" stroke-miterlimit="10" stroke-linecap="round" stroke-linejoin="round"/>
<path d="M221.812 234.846C218.629 237.494 194.117 254.319 159.135 251.608C157.253 235.685 150.075 170.265 158.238 160.011C158.238 160.011 178.044 150.566 196.288 154.531C214.533 158.497 221.634 162.297 222.934 165.586C223.919 168.074 222.512 214.393 221.812 234.846Z" fill="#263238"/>
<path d="M195.683 161.519C185.175 170.621 171.638 168.697 171.935 161.709C171.983 160.616 173.152 159.263 173.152 159.263C173.152 159.263 172.998 159.032 172.742 158.634C172.35 158.04 171.715 157.072 170.979 155.944C169.678 153.932 168.052 151.402 166.918 149.562C165.968 147.995 189.651 133.425 189.651 141.802C189.651 153.605 195.446 155.826 195.446 155.826C197.613 156.704 199.643 158.093 195.683 161.519Z" fill="white"/>
<path d="M195.683 161.519C185.175 170.621 171.638 168.697 171.935 161.709C171.983 160.616 173.152 159.263 173.152 159.263C173.152 159.263 172.998 159.032 172.742 158.634C172.35 158.04 171.715 157.072 170.979 155.944C169.678 153.932 168.052 151.402 166.918 149.562C165.968 147.995 189.651 133.425 189.651 141.802C189.651 153.605 195.446 155.826 195.446 155.826C197.613 156.704 199.643 158.093 195.683 161.519Z" stroke="#263238" stroke-width="0.758667" stroke-miterlimit="10" stroke-linecap="round" stroke-linejoin="round"/>
<path d="M202.324 179.544C202.324 179.544 200.206 186.808 201.212 188.892" stroke="white" stroke-width="0.758667" stroke-miterlimit="10" stroke-linecap="round" stroke-linejoin="round"/>
<path d="M199.851 158.442C199.851 165.456 178.934 172.323 172.804 165.29" stroke="white" stroke-width="0.758667" stroke-miterlimit="10" stroke-linecap="round" stroke-linejoin="round"/>
<path d="M182.645 150.352C182.645 150.352 181.238 155.634 174.719 159.764C174.719 159.764 174.387 159.039 173.312 158.652C173.122 158.583 172.92 158.646 172.742 158.634C172.35 158.04 171.715 157.072 170.979 155.945C174.31 153.529 182.645 150.352 182.645 150.352Z" fill="#263238"/>
<path d="M185.576 143.859C185.576 143.859 185.508 149.073 184.404 150.131C176.12 158.077 168.024 158.704 166.687 156.608C157.694 142.506 159.819 138.786 158.902 136.385C157.282 132.144 155.294 125.223 156.171 121.03C158.129 111.665 175.777 104.429 185.05 113.82C189.503 118.328 190.91 128.108 189.97 136.252" fill="white"/>
<path d="M185.576 143.859C185.576 143.859 185.508 149.073 184.404 150.131C176.12 158.077 168.024 158.704 166.687 156.608C157.694 142.506 159.819 138.786 158.902 136.385C157.282 132.144 155.294 125.223 156.171 121.03C158.129 111.665 175.777 104.429 185.05 113.82C189.503 118.328 190.91 128.108 189.97 136.252" stroke="#263238" stroke-width="0.758667" stroke-miterlimit="10" stroke-linecap="round" stroke-linejoin="round"/>
<path d="M160.024 132.022C160.024 132.022 157.552 130.912 157.016 132.236" stroke="#263238" stroke-width="0.758667" stroke-miterlimit="10" stroke-linecap="round" stroke-linejoin="round"/>
<path d="M166.029 132.08C166.029 132.08 171.177 129.924 173.49 132.539" stroke="#263238" stroke-width="0.758667" stroke-miterlimit="10" stroke-linecap="round" stroke-linejoin="round"/>
<path d="M171.723 135.756C171.807 136.529 171.43 137.203 170.88 137.263C170.33 137.324 169.816 136.746 169.732 135.973C169.648 135.2 170.025 134.526 170.574 134.466C171.124 134.406 171.638 134.983 171.723 135.756Z" fill="#263238"/>
<path d="M161.642 135.99C161.727 136.763 161.349 137.438 160.8 137.498C160.25 137.558 159.736 136.98 159.651 136.207C159.567 135.434 159.945 134.76 160.494 134.699C161.044 134.64 161.558 135.217 161.642 135.99Z" fill="#263238"/>
<path d="M161.9 133.963C162.619 135.12 162.225 137.095 161.279 139.806C160.332 142.515 161.167 143.5 164.808 143.773" fill="white"/>
<path d="M161.9 133.963C162.619 135.12 162.225 137.095 161.279 139.806C160.332 142.515 161.167 143.5 164.808 143.773" stroke="#263238" stroke-width="0.758667" stroke-miterlimit="10" stroke-linecap="round" stroke-linejoin="round"/>
<path d="M164.809 148.472C164.809 148.472 169.571 148.037 171.734 146.846" stroke="#263238" stroke-width="0.758667" stroke-miterlimit="10" stroke-linecap="round" stroke-linejoin="round"/>
<path d="M194.89 121.553C194.889 118.024 191.412 110.788 185.303 109.975C181.799 106.306 176.795 104.956 170.728 106.351C156.708 109.574 152.44 123.416 151.824 125.71C151.764 125.923 151.739 126.042 151.739 126.042L155.492 125.089L153.874 128.245L155.841 129.544L155.391 130.044L157.668 132.239L156.955 128.229C157.395 125.634 160.373 122.017 160.373 122.017C158.637 124.101 158.418 126.881 158.418 126.881C159.595 123.797 166.73 120.965 166.73 120.965C164.42 122.839 163.189 126.511 163.189 126.511C165.389 123.803 170.536 122.05 173.829 121.119C174.941 123.8 176.704 126.596 179.222 128.145C181.594 129.605 181.51 132.617 181.51 132.617C185.634 135.313 186.843 139.957 186.843 139.957L189.715 143.888C189.715 143.888 194.895 137.504 194.89 121.553Z" fill="#263238"/>
<path d="M182.807 133.603C181.845 131.54 185.337 125.963 187.809 126.654C189.199 127.042 191.015 129.576 191.368 132.24C191.722 134.903 189.84 139.934 187.833 141.054C186.559 141.765 185.51 139.828 185.51 139.828" fill="white"/>
<path d="M182.807 133.603C181.845 131.54 185.337 125.963 187.809 126.654C189.199 127.042 191.015 129.576 191.368 132.24C191.722 134.903 189.84 139.934 187.833 141.054C186.559 141.765 185.51 139.828 185.51 139.828" stroke="#263238" stroke-width="0.758667" stroke-miterlimit="10" stroke-linecap="round" stroke-linejoin="round"/>
<path d="M31.3406 234.372L98.42 218.69L238.344 234.847L202.324 259.486L31.3406 234.372Z" fill="white"/>
<path d="M31.3403 234.371L98.4197 218.689L238.343 234.846" fill="white"/>
<path d="M31.3403 234.371L98.4197 218.689L238.343 234.846" stroke="#263238" stroke-width="0.758667" stroke-miterlimit="10" stroke-linecap="round" stroke-linejoin="round"/>
<path d="M89.3931 237.518L116.549 225.517L150.88 227.289L135.614 240.344L89.3931 237.518Z" fill="white"/>
<path d="M89.3931 237.518L116.549 225.517L150.88 227.289L135.614 240.344L89.3931 237.518Z" stroke="#263238" stroke-width="0.758667" stroke-miterlimit="10" stroke-linecap="round" stroke-linejoin="round"/>
<path d="M159.564 159.426C150.854 162.988 148.975 170.995 134.178 202.643C134.178 202.643 127.602 203.993 124.079 211.98C120.555 219.965 126.428 226.271 133.239 226.054C133.239 226.054 135.961 228.42 141.529 228.185C147.096 227.95 171.83 190.159 171.83 190.159L159.564 159.426Z" fill="#263238"/>
<path d="M136.769 204.495C140.665 207.967 142.901 213.053 141.714 218.689" stroke="white" stroke-width="0.758667" stroke-miterlimit="10" stroke-linecap="round" stroke-linejoin="round"/>
<path d="M140.527 206.162C140.527 206.162 145.315 207.207 146.053 213.339" stroke="white" stroke-width="0.758667" stroke-miterlimit="10" stroke-linecap="round" stroke-linejoin="round"/>
<path d="M154.538 188.234C154.538 188.234 150.881 180.162 152.27 170.619" stroke="white" stroke-width="0.758667" stroke-miterlimit="10" stroke-linecap="round" stroke-linejoin="round"/>
<path d="M153.853 180.163C153.489 182.656 156.067 195.93 156.049 209.891" stroke="white" stroke-width="0.758667" stroke-miterlimit="10" stroke-linecap="round" stroke-linejoin="round"/>
<path d="M218.956 162.038C229.852 167.515 231.147 184.359 220.866 204.495C213.607 218.71 203.582 239.697 197.242 241.107C190.9 242.515 184.718 238.564 184.718 238.564C184.718 238.564 179.371 238.314 177.76 234.516C173.343 224.106 184.571 211.01 188.988 214.148C188.988 214.148 203.093 183.472 205.664 181.54" fill="#263238"/>
<path d="M176.749 228.203C175.287 221.04 186.561 212.585 188.988 214.15C188.988 214.15 197.365 214.62 198.618 220.414" stroke="white" stroke-width="0.758667" stroke-miterlimit="10" stroke-linecap="round" stroke-linejoin="round"/>
<path d="M207.438 229.733C212.343 221.082 220.865 204.496 220.865 204.496" stroke="white" stroke-width="0.758667" stroke-miterlimit="10" stroke-linecap="round" stroke-linejoin="round"/>
<path d="M188.988 214.147C188.988 214.147 194.861 210.637 199.244 213.959" stroke="white" stroke-width="0.758667" stroke-miterlimit="10" stroke-linecap="round" stroke-linejoin="round"/>
<path d="M190.968 209.891C190.968 209.891 194.211 202.779 197.513 196.218C200.816 189.655 208.326 180.014 211.458 179.545" stroke="white" stroke-width="0.758667" stroke-miterlimit="10" stroke-linecap="round" stroke-linejoin="round"/>
<path d="M129.093 222.688C128.41 222.652 127.728 222.48 127.075 222.135C116.964 216.869 109.133 208.166 104.407 201.92C101.124 197.58 99.3428 194.422 99.3428 194.422L101.765 184.044C101.765 184.044 104.045 189.957 113.206 195.817C122.361 201.676 133.249 203.577 136.77 209.448C139.887 214.649 134.395 222.955 129.093 222.688Z" fill="white"/>
<g opacity="0.399994">
<path d="M129.094 222.694C128.987 221.999 128.797 221.269 128.487 220.503C126.369 215.195 113.545 204.645 113.545 204.645C110.493 204.55 107.139 203.28 104.408 201.926C101.124 197.586 99.3433 194.428 99.3433 194.428L101.766 184.05C101.766 184.05 104.045 189.963 113.206 195.822C122.361 201.682 133.25 203.583 136.77 209.454C139.887 214.655 134.395 222.961 129.094 222.694Z" fill="#0373BA"/>
</g>
<path d="M129.094 222.691C128.411 222.655 127.728 222.483 127.075 222.138C116.964 216.872 109.133 208.169 104.408 201.923C101.124 197.583 99.3433 194.425 99.3433 194.425L101.766 184.047C101.766 184.047 104.045 189.96 113.206 195.819C122.361 201.679 133.25 203.58 136.77 209.451C139.887 214.652 134.395 222.958 129.094 222.691Z" stroke="#263238" stroke-width="0.758667" stroke-miterlimit="10" stroke-linecap="round" stroke-linejoin="round"/>
<path d="M106.235 193.816C106.235 193.816 104.983 199.354 101.682 198.113C99.8918 197.44 96.4673 192.119 95.8196 189.438L106.235 193.816Z" fill="white"/>
<path d="M106.235 193.816C106.235 193.816 104.983 199.354 101.682 198.113C99.8918 197.44 96.4673 192.119 95.8196 189.438L106.235 193.816Z" stroke="#263238" stroke-width="0.758667" stroke-miterlimit="10" stroke-linecap="round" stroke-linejoin="round"/>
<path d="M91.6853 159.749L94.3807 158.355C94.3807 158.355 101.999 158.423 106.725 162.264C111.017 165.752 113.192 171.223 113.192 171.223C113.192 171.223 129.872 162.013 146.901 167.298L153.853 206.016L121.917 208.123L101.985 189.17L91.6853 159.749Z" fill="white"/>
<path d="M91.6853 159.749L94.3807 158.355C94.3807 158.355 101.999 158.423 106.725 162.264C111.017 165.752 113.192 171.223 113.192 171.223C113.192 171.223 129.872 162.013 146.901 167.298L153.853 206.016L121.917 208.123L101.985 189.17L91.6853 159.749Z" stroke="#263238" stroke-width="0.758667" stroke-miterlimit="10" stroke-linecap="round" stroke-linejoin="round"/>
<path d="M156.047 207.562C156.047 207.562 152.301 207.45 147.29 207.615C139.714 207.853 129.247 208.708 124.463 211.492L124.237 211.415L119.856 209.889C119.856 209.889 119.825 209.848 119.767 209.759C118.959 208.559 112.446 199.22 103.155 195.415L89.9978 158.653C89.9978 158.653 103.659 159.264 111.116 171.584L114.862 172.937C114.862 172.937 137.156 166.336 149.635 168.711L156.047 207.562Z" fill="#0373BA"/>
<g opacity="0.300003">
<g opacity="0.699997">
<path d="M119.766 209.755C118.959 208.555 112.446 199.217 103.154 195.411L89.9978 158.649C89.9978 158.649 103.659 159.261 111.116 171.58L119.766 209.755Z" fill="black"/>
</g>
</g>
<g opacity="0.300003">
<g opacity="0.699997">
<path d="M147.29 207.612C139.714 207.85 129.247 208.705 124.463 211.489L124.237 211.412L115.486 174.27C115.486 174.27 122.644 172.662 124.848 173.475C124.848 173.475 139.401 184.217 147.29 207.612Z" fill="black"/>
</g>
</g>
<path d="M156.047 207.562C156.047 207.562 152.301 207.45 147.29 207.615C139.714 207.853 129.247 208.708 124.463 211.492L124.237 211.415L119.856 209.889C119.856 209.889 119.825 209.848 119.767 209.759C118.959 208.559 112.446 199.22 103.155 195.415L89.9978 158.653C89.9978 158.653 103.659 159.264 111.116 171.584L114.862 172.937C114.862 172.937 137.156 166.336 149.635 168.711L156.047 207.562Z" stroke="#263238" stroke-width="0.758667" stroke-miterlimit="10" stroke-linecap="round" stroke-linejoin="round"/>
<path d="M114.861 172.939L123.453 208.578" stroke="#263238" stroke-width="0.758667" stroke-miterlimit="10" stroke-linecap="round" stroke-linejoin="round"/>
<path d="M119.856 209.892L111.51 174.274" stroke="#263238" stroke-width="0.758667" stroke-miterlimit="10" stroke-linecap="round" stroke-linejoin="round"/>
<path d="M98.6488 194.478C96.7406 193.947 92.9005 182.493 94.6609 177.564C94.6609 177.564 96.7507 173.935 97.6009 173.687C98.9337 173.298 104.301 173.412 104.041 174.315C103.441 176.403 99.3238 176.368 99.3238 176.368L97.9874 178.813L98.045 180.163C98.045 180.163 99.9828 178.75 100.698 178.788C101.062 178.807 102.965 179.74 104.472 180.539C105.762 181.221 106.55 181.591 106.262 182.212C105.307 184.265 101.234 182.824 101.234 182.824L99.7061 185.129C99.7061 185.129 101.184 185.385 101.833 185.46C102.543 185.541 107.852 189.107 107.69 189.554C107.056 191.299 101.96 189.412 101.96 189.412L101.057 190.162C101.057 190.162 104.814 191.134 105.195 191.274C105.793 191.495 108.079 193.255 108.043 193.456C107.768 194.998 104.615 193.864 104.615 193.864L101.856 193.751C101.856 193.751 101.3 194.29 100.38 194.514" fill="white"/>
<path d="M98.6488 194.478C96.7406 193.947 92.9005 182.493 94.6609 177.564C94.6609 177.564 96.7507 173.935 97.6009 173.687C98.9337 173.298 104.301 173.412 104.041 174.315C103.441 176.403 99.3238 176.368 99.3238 176.368L97.9874 178.813L98.045 180.163C98.045 180.163 99.9828 178.75 100.698 178.788C101.062 178.807 102.965 179.74 104.472 180.539C105.762 181.221 106.55 181.591 106.262 182.212C105.307 184.265 101.234 182.824 101.234 182.824L99.7061 185.129C99.7061 185.129 101.184 185.385 101.833 185.46C102.543 185.541 107.852 189.107 107.69 189.554C107.056 191.299 101.96 189.412 101.96 189.412L101.057 190.162C101.057 190.162 104.814 191.134 105.195 191.274C105.793 191.495 108.079 193.255 108.043 193.456C107.768 194.998 104.615 193.864 104.615 193.864L101.856 193.751C101.856 193.751 101.3 194.29 100.38 194.514" stroke="#263238" stroke-width="0.758667" stroke-miterlimit="10" stroke-linecap="round" stroke-linejoin="round"/>
<path d="M98.0444 180.164C98.0444 180.164 96.2829 181.66 95.8025 182.091C95.3217 182.523 95.457 183.903 95.457 183.903" stroke="#263238" stroke-width="0.758667" stroke-miterlimit="10" stroke-linecap="round" stroke-linejoin="round"/>
<path d="M96.754 186.941C96.7427 188.453 97.7645 189.365 98.2293 189.852C98.6948 190.339 97.4854 191.664 98.8189 192.615" stroke="#263238" stroke-width="0.758667" stroke-miterlimit="10" stroke-linecap="round" stroke-linejoin="round"/>
<path d="M184.693 234.741C180.923 235.768 176.827 229.143 171.828 221.911V221.905C168.527 217.132 164.835 212.091 160.589 208.826C160.251 208.571 159.906 208.321 159.562 208.084L162.044 195.634C167.197 198.335 170.391 202.663 175.741 207.11C184.35 214.276 191.979 218.675 194.092 221.846C196.206 225.016 191.153 232.978 184.693 234.741Z" fill="white"/>
<g opacity="0.399994">
<path d="M171.828 221.905C168.527 217.132 164.834 212.091 160.589 208.826C161.349 208.814 161.931 208.737 162.234 208.577C162.234 208.577 168.943 214.039 171.828 221.905" fill="#0373BA"/>
</g>
<path d="M184.694 234.741C180.924 235.768 176.827 229.143 171.828 221.911V221.905C168.528 217.132 164.835 212.091 160.589 208.826C160.251 208.571 159.906 208.321 159.563 208.084L162.044 195.634C167.197 198.335 170.391 202.663 175.741 207.11C184.35 214.276 191.979 218.675 194.092 221.846C196.206 225.016 191.154 232.978 184.694 234.741Z" stroke="#263238" stroke-width="0.758667" stroke-miterlimit="10" stroke-linecap="round" stroke-linejoin="round"/>
<path d="M163.439 207.615C163.231 208.049 162.81 208.357 162.235 208.577C162.103 208.631 161.967 208.672 161.824 208.714C161.795 208.72 161.753 208.726 161.712 208.738C157.728 209.777 148.763 207.615 148.763 207.615C148.763 207.615 142.892 204.826 142.535 204.166C142.315 203.744 142.049 203.032 141.877 202.563C141.782 202.285 141.716 202.094 141.716 202.094C141.716 202.094 139.603 200.919 139.365 199.981C139.134 199.043 138.658 198.805 139.952 198.627C141.247 198.455 148.288 198.627 148.288 198.627L140.659 195.516C140.659 195.516 135.607 192.969 135.137 192.072C134.668 191.17 134.081 190.583 136.663 190.938C139.246 191.289 144.886 192.934 144.886 192.934L149.303 193.872L144.886 191.99C144.886 191.99 136.194 190.938 137.839 188.237H142.773C144.417 188.237 149.677 188.854 151.108 189.294C152.545 189.733 162.044 195.634 162.044 195.634" fill="white"/>
<g opacity="0.399994">
<path d="M161.711 208.735C157.727 209.774 148.763 207.612 148.763 207.612C148.763 207.612 142.891 204.823 142.535 204.164C142.315 203.742 142.048 203.03 141.876 202.561L149.083 203.368C149.083 203.368 148.217 204.775 149.083 206.324C149.885 207.761 159.016 209.221 161.711 208.735Z" fill="#0373BA"/>
</g>
<path d="M163.439 207.615C163.231 208.049 162.809 208.357 162.234 208.577C162.103 208.631 161.967 208.672 161.824 208.714C161.794 208.72 161.753 208.726 161.711 208.738C157.727 209.777 148.762 207.615 148.762 207.615C148.762 207.615 142.891 204.826 142.535 204.166C142.315 203.744 142.048 203.032 141.876 202.563C141.781 202.285 141.715 202.094 141.715 202.094C141.715 202.094 139.602 200.919 139.364 199.981C139.133 199.043 138.658 198.805 139.952 198.627C141.246 198.455 148.288 198.627 148.288 198.627L140.658 195.516C140.658 195.516 135.606 192.969 135.137 192.072C134.668 191.17 134.08 190.583 136.663 190.938C139.245 191.289 144.886 192.934 144.886 192.934L149.303 193.872L144.886 191.99C144.886 191.99 136.194 190.938 137.838 188.237H142.772C144.417 188.237 149.677 188.854 151.108 189.294C152.544 189.733 162.044 195.634 162.044 195.634" stroke="#263238" stroke-width="0.758667" stroke-miterlimit="10" stroke-linecap="round" stroke-linejoin="round"/>
<path d="M141.714 202.095L150.391 203.37" stroke="#263238" stroke-width="0.758667" stroke-miterlimit="10" stroke-linecap="round" stroke-linejoin="round"/>
<path d="M55.2512 228.655L76.9896 235.206L116.775 226.129C116.775 226.129 92.4745 219.213 92.2466 219.379C92.018 219.544 55.2512 228.655 55.2512 228.655Z" fill="#0373BA"/>
<g opacity="0.300003">
<g opacity="0.699997">
<path d="M55.2512 228.651L76.9896 235.202L116.775 226.125C116.775 226.125 92.4745 219.209 92.2466 219.375C92.018 219.54 55.2512 228.651 55.2512 228.651Z" fill="black"/>
</g>
</g>
<path d="M55.252 228.655L76.9903 235.206L116.775 226.129C116.775 226.129 92.4753 219.213 92.2473 219.379C92.0187 219.544 55.252 228.655 55.252 228.655Z" stroke="#263238" stroke-width="0.758667" stroke-miterlimit="10" stroke-linecap="round" stroke-linejoin="round"/>
<path d="M55.5645 220.998C54.041 221.104 53.6587 226.604 55.2522 228.654L90.3696 221.367L93.1873 214.703L55.5645 220.998Z" fill="#0373BA"/>
<g opacity="0.300003">
<g opacity="0.699997">
<path d="M55.5657 221.007C54.0422 221.113 53.6599 226.613 55.2534 228.663L90.3709 221.376L93.1886 214.712L55.5657 221.007Z" fill="black"/>
</g>
</g>
<path d="M55.5642 220.998C54.0408 221.104 53.6584 226.604 55.2519 228.654L90.3694 221.367L93.1871 214.703L55.5642 220.998Z" stroke="#263238" stroke-width="0.758667" stroke-miterlimit="10" stroke-linecap="round" stroke-linejoin="round"/>
<path d="M115.065 220.919C115.065 220.919 114.543 223.814 114.881 225.591L76.9478 234.179L56.9531 228.302C56.9531 228.302 54.8734 224.625 56.6848 221.779L93.223 215.578L115.065 220.919Z" fill="white"/>
<path d="M115.065 220.919C115.065 220.919 114.543 223.814 114.881 225.591L76.9478 234.179L56.9531 228.302C56.9531 228.302 54.8734 224.625 56.6848 221.779L93.223 215.578L115.065 220.919Z" stroke="#263238" stroke-width="0.758667" stroke-miterlimit="10" stroke-linecap="round" stroke-linejoin="round"/>
<path d="M55.5642 220.997L93.1871 214.703L116.549 220.623L77.2551 228.453L55.5642 220.997Z" fill="#0373BA"/>
<path d="M55.5642 220.997L93.1871 214.703L116.549 220.623L77.2551 228.453L55.5642 220.997Z" stroke="#263238" stroke-width="0.758667" stroke-miterlimit="10" stroke-linecap="round" stroke-linejoin="round"/>
<path d="M56.8984 224.512L76.794 230.435L109.356 223.881" stroke="#263238" stroke-width="0.758667" stroke-miterlimit="10" stroke-linecap="round" stroke-linejoin="round"/>
<path d="M114.772 224.488L79.7563 231.959" stroke="#263238" stroke-width="0.758667" stroke-miterlimit="10" stroke-linecap="round" stroke-linejoin="round"/>
<path d="M57.3713 226.844C57.6694 226.874 72.3677 231.4 72.3677 231.4" stroke="#263238" stroke-width="0.758667" stroke-miterlimit="10" stroke-linecap="round" stroke-linejoin="round"/>
<path d="M111.911 223.116L114.697 222.664" stroke="#263238" stroke-width="0.758667" stroke-miterlimit="10" stroke-linecap="round" stroke-linejoin="round"/>
<path d="M76.1443 232.498L74.6719 232.166" stroke="#263238" stroke-width="0.758667" stroke-miterlimit="10" stroke-linecap="round" stroke-linejoin="round"/>
<path d="M56.6852 221.778C56.6852 221.778 59.38 224.628 56.9529 228.301C56.9529 228.301 54.7064 225.307 56.6852 221.778Z" fill="#263238"/>
<g opacity="0.300003">
<g opacity="0.699997">
<path d="M56.6852 221.774C56.6852 221.774 59.38 224.624 56.9529 228.297C56.9529 228.297 54.7064 225.303 56.6852 221.774Z" fill="white"/>
</g>
</g>
<path d="M56.6852 221.777C56.6852 221.777 59.38 224.627 56.9529 228.3C56.9529 228.3 54.7064 225.306 56.6852 221.777Z" stroke="#263238" stroke-width="0.758667" stroke-miterlimit="10" stroke-linecap="round" stroke-linejoin="round"/>
<path d="M137.946 230.433L175.914 231.992L172.211 245.061L125.51 243.279L137.946 230.433Z" fill="white"/>
<g opacity="0.399994">
<path d="M137.947 230.432L175.915 231.991L172.212 245.06L125.51 243.278L137.947 230.432Z" fill="#0373BA"/>
</g>
<path d="M137.947 230.433L175.914 231.992L172.212 245.061L125.51 243.279L137.947 230.433Z" stroke="#263238" stroke-width="0.758667" stroke-miterlimit="10" stroke-linecap="round" stroke-linejoin="round"/>
</svg>
