<svg width="245" height="265" viewBox="0 0 245 265" fill="none" xmlns="http://www.w3.org/2000/svg">
<path d="M110.512 15.8547C111.325 19.0737 110.925 13.1482 112.518 5.89884C114.112 -1.35112 116.84 1.5894 116.84 1.5894" stroke="#1A2E35" stroke-width="0.601456" stroke-miterlimit="10" stroke-linecap="round" stroke-linejoin="round"/>
<path d="M110.013 8.44922L115.008 6.40066" stroke="#1A2E35" stroke-width="0.601456" stroke-miterlimit="10" stroke-linecap="round" stroke-linejoin="round"/>
<path d="M119.138 3.94544C119.138 3.94544 116.152 10.1194 120.654 12.7441" stroke="#1A2E35" stroke-width="0.601456" stroke-miterlimit="10" stroke-linecap="round" stroke-linejoin="round"/>
<path d="M123.374 2.20884C123.374 2.20884 128.302 4.94667 125.215 10.874" stroke="#1A2E35" stroke-width="0.601456" stroke-miterlimit="10" stroke-linecap="round" stroke-linejoin="round"/>
<path d="M119.996 6.03679L123.527 8.61523" stroke="#1A2E35" stroke-width="0.601456" stroke-miterlimit="10" stroke-linecap="round" stroke-linejoin="round"/>
<path d="M122.765 4.90135L120.002 9.2998" stroke="#1A2E35" stroke-width="0.601456" stroke-miterlimit="10" stroke-linecap="round" stroke-linejoin="round"/>
<path d="M15.1894 161.229C15.1894 161.229 6.81172 161.105 6.80029 168.338" stroke="#1A2E35" stroke-width="0.601456" stroke-miterlimit="10" stroke-linecap="round" stroke-linejoin="round"/>
<path d="M14.4968 165.782C14.3218 164.718 10.6727 163.401 10.0436 166.158C9.41389 168.914 13.9398 167.266 15.3424 165.968C15.3424 165.968 12.7466 168.496 13.5621 169.207" stroke="#1A2E35" stroke-width="0.601456" stroke-miterlimit="10" stroke-linecap="round" stroke-linejoin="round"/>
<path d="M15.0182 170.007C15.0182 170.007 13.9145 171.388 12.7236 170.733" stroke="#1A2E35" stroke-width="0.601456" stroke-miterlimit="10" stroke-linecap="round" stroke-linejoin="round"/>
<path d="M22.3371 165.159L16.0549 171.57C16.0549 171.57 19.1957 168.364 21.0488 169.383C23.3326 170.638 20.371 174.066 17.9297 171.608" stroke="#1A2E35" stroke-width="0.601456" stroke-miterlimit="10" stroke-linecap="round" stroke-linejoin="round"/>
<path d="M25.5138 166.905C25.5138 166.905 27.1768 174.541 18.5808 174.814" stroke="#1A2E35" stroke-width="0.601456" stroke-miterlimit="10" stroke-linecap="round" stroke-linejoin="round"/>
<path d="M137.722 37.1561L140.751 37.6547L140.796 44.542L147.433 32.4317L157.908 34.1548" stroke="#1A2E35" stroke-width="0.601456" stroke-miterlimit="10" stroke-linecap="round" stroke-linejoin="round"/>
<path d="M148.583 37.7343L153.191 45.8672" stroke="#1A2E35" stroke-width="0.601456" stroke-miterlimit="10" stroke-linecap="round" stroke-linejoin="round"/>
<path d="M154.373 38.6869L146.127 44.7051" stroke="#1A2E35" stroke-width="0.601456" stroke-miterlimit="10" stroke-linecap="round" stroke-linejoin="round"/>
<path d="M96.2985 49.4108C95.5226 48.4232 91.0556 49.1257 91.9608 52.2948C92.8654 55.4639 96.5626 51.2387 97.2669 49.1257C97.2669 49.1257 96.0345 53.1657 97.2669 53.4346" stroke="#1A2E35" stroke-width="0.601456" stroke-miterlimit="10" stroke-linecap="round" stroke-linejoin="round"/>
<path d="M99.7222 46.1592L98.7231 49.7324C98.7231 49.7324 99.2224 47.9461 100.097 47.9461C101.173 47.9461 100.783 49.7769 99.41 49.3728" stroke="#1A2E35" stroke-width="0.601456" stroke-miterlimit="10" stroke-linecap="round" stroke-linejoin="round"/>
<path d="M183.971 89.8982L181.864 97.5066L186.469 102.542" stroke="#1A2E35" stroke-width="0.601456" stroke-miterlimit="10" stroke-linecap="round" stroke-linejoin="round"/>
<path d="M186.605 92.9898L191.878 97.3984" stroke="#1A2E35" stroke-width="0.601456" stroke-miterlimit="10" stroke-linecap="round" stroke-linejoin="round"/>
<path d="M190.235 91.9046L187.955 97.5029" stroke="#1A2E35" stroke-width="0.601456" stroke-miterlimit="10" stroke-linecap="round" stroke-linejoin="round"/>
<path d="M193.939 96.782C193.939 96.782 193.986 98.3711 193.3 98.5762" stroke="#1A2E35" stroke-width="0.601456" stroke-miterlimit="10" stroke-linecap="round" stroke-linejoin="round"/>
<path d="M194.609 91.2375L197.786 93.6006" stroke="#1A2E35" stroke-width="0.601456" stroke-miterlimit="10" stroke-linecap="round" stroke-linejoin="round"/>
<path d="M198.969 89.2934L195.828 100.6" stroke="#1A2E35" stroke-width="0.601456" stroke-miterlimit="10" stroke-linecap="round" stroke-linejoin="round"/>
<path d="M199.121 85.368L204.222 91.1414L202.049 97.4561" stroke="#1A2E35" stroke-width="0.601456" stroke-miterlimit="10" stroke-linecap="round" stroke-linejoin="round"/>
<path d="M58.6592 234.359L66.036 212.396L74.9863 222.384L58.6592 234.359Z" stroke="#1A2E35" stroke-width="0.601456" stroke-miterlimit="10" stroke-linecap="round" stroke-linejoin="round"/>
<path d="M72.7952 223.991L70.906 221.83L72.9185 220.085" stroke="#1A2E35" stroke-width="0.601456" stroke-miterlimit="10" stroke-linecap="round" stroke-linejoin="round"/>
<path d="M19.6749 104.009C19.6749 108.159 16.3104 111.524 12.1603 111.524C8.0097 111.524 4.64575 108.159 4.64575 104.009C4.64575 99.8592 8.0097 96.4946 12.1603 96.4946C16.3104 96.4946 19.6749 99.8592 19.6749 104.009Z" stroke="#1A2E35" stroke-width="0.601456" stroke-miterlimit="10" stroke-linecap="round" stroke-linejoin="round"/>
<path d="M28.8371 97.4329C28.8371 102.038 25.1039 105.771 20.4985 105.771C15.8932 105.771 12.1599 102.038 12.1599 97.4329C12.1599 92.8275 15.8932 89.0943 20.4985 89.0943C25.1039 89.0943 28.8371 92.8275 28.8371 97.4329Z" stroke="#1A2E35" stroke-width="0.601456" stroke-miterlimit="10" stroke-linecap="round" stroke-linejoin="round"/>
<path d="M13.6398 96.642L12.6233 100.177" stroke="#1A2E35" stroke-width="0.601456" stroke-miterlimit="10" stroke-linecap="round" stroke-linejoin="round"/>
<path d="M15.0804 97.0839L13.6399 102.173" stroke="#1A2E35" stroke-width="0.601456" stroke-miterlimit="10" stroke-linecap="round" stroke-linejoin="round"/>
<path d="M16.5846 97.9373L15.0803 103.691" stroke="#1A2E35" stroke-width="0.601456" stroke-miterlimit="10" stroke-linecap="round" stroke-linejoin="round"/>
<path d="M18.2635 99.6285L17.1899 105.088" stroke="#1A2E35" stroke-width="0.601456" stroke-miterlimit="10" stroke-linecap="round" stroke-linejoin="round"/>
<path d="M19.2117 101.408L18.2632 105.467" stroke="#1A2E35" stroke-width="0.601456" stroke-miterlimit="10" stroke-linecap="round" stroke-linejoin="round"/>
<path d="M4.98144 94.3861C4.32345 94.1823 2.5263 95.8904 3.92228 97.0386C5.31766 98.1867 5.67011 95.1283 5.32969 93.9561C5.32969 93.9561 6.03158 96.1628 6.67153 95.9006" stroke="#1A2E35" stroke-width="0.601456" stroke-miterlimit="10" stroke-linecap="round" stroke-linejoin="round"/>
<path d="M14.675 84.7387L17.0652 89.1191C17.0652 89.1191 15.8701 86.9292 16.7122 86.1089C17.7503 85.0984 19.0921 87.2288 17.3894 88.1279" stroke="#1A2E35" stroke-width="0.601456" stroke-miterlimit="10" stroke-linecap="round" stroke-linejoin="round"/>
<path d="M58.6348 84.2202L62.033 87.4355" stroke="#1A2E35" stroke-width="0.601456" stroke-miterlimit="10" stroke-linecap="round" stroke-linejoin="round"/>
<path d="M62.033 83.3794L59.1875 87.6299" stroke="#1A2E35" stroke-width="0.601456" stroke-miterlimit="10" stroke-linecap="round" stroke-linejoin="round"/>
<path d="M65.375 84.5996L68.7744 83.3359" stroke="#1A2E35" stroke-width="0.601456" stroke-miterlimit="10" stroke-linecap="round" stroke-linejoin="round"/>
<path d="M70.405 79.7924L72.4716 81.6221" stroke="#1A2E35" stroke-width="0.601456" stroke-miterlimit="10" stroke-linecap="round" stroke-linejoin="round"/>
<path d="M74.056 77.5926L71.4385 86.5771" stroke="#1A2E35" stroke-width="0.601456" stroke-miterlimit="10" stroke-linecap="round" stroke-linejoin="round"/>
<path d="M222.589 75.785L222.449 68.9188H227.639C227.639 68.9188 224.763 70.503 226.083 74.2002C227.404 77.8973 229.539 75.785 229.539 75.785" stroke="#1A2E35" stroke-width="0.601456" stroke-miterlimit="10" stroke-linecap="round" stroke-linejoin="round"/>
<path d="M213.798 192.954L219.703 188.891L227.523 189.439L228.012 199.352L222.272 203.456L215.188 202.941L213.798 192.954Z" stroke="#1A2E35" stroke-width="0.601456" stroke-miterlimit="10" stroke-linecap="round" stroke-linejoin="round"/>
<path d="M215.188 202.939L220.905 198.822L228.012 199.351" stroke="#1A2E35" stroke-width="0.601456" stroke-miterlimit="10" stroke-linecap="round" stroke-linejoin="round"/>
<path d="M220.905 198.823L219.703 188.89" stroke="#1A2E35" stroke-width="0.601456" stroke-miterlimit="10" stroke-linecap="round" stroke-linejoin="round"/>
<path d="M213.798 192.953L221.602 193.856L227.523 189.438" stroke="#1A2E35" stroke-width="0.601456" stroke-miterlimit="10" stroke-linecap="round" stroke-linejoin="round"/>
<path d="M221.601 193.857L222.271 203.456" stroke="#1A2E35" stroke-width="0.601456" stroke-miterlimit="10" stroke-linecap="round" stroke-linejoin="round"/>
<path d="M214.873 118.505L214.621 131.724L226.201 126.463L214.873 118.505Z" stroke="#1A2E35" stroke-width="0.601456" stroke-miterlimit="10" stroke-linecap="round" stroke-linejoin="round"/>
<path d="M214.872 118.506L220.39 129.024" stroke="#1A2E35" stroke-width="0.601456" stroke-miterlimit="10" stroke-linecap="round" stroke-linejoin="round"/>
<path d="M219.506 127.337L220.849 126.689L221.748 128.485" stroke="#1A2E35" stroke-width="0.601456" stroke-miterlimit="10" stroke-linecap="round" stroke-linejoin="round"/>
<path d="M113.926 117.255L118.714 122.386" stroke="#1A2E35" stroke-width="0.601456" stroke-miterlimit="10" stroke-linecap="round" stroke-linejoin="round"/>
<path d="M118.752 116.564L114.729 122.072" stroke="#1A2E35" stroke-width="0.601456" stroke-miterlimit="10" stroke-linecap="round" stroke-linejoin="round"/>
<path d="M120.709 113.877C120.709 113.877 121.824 113.444 122.059 114.598C122.293 115.752 120.398 117.254 120.398 117.254H123.102" stroke="#1A2E35" stroke-width="0.601456" stroke-miterlimit="10" stroke-linecap="round" stroke-linejoin="round"/>
<path d="M39.3857 40.3848C39.8759 34.2415 43.4961 29.0972 48.5561 26.3931" stroke="#1A2E35" stroke-width="0.601456" stroke-miterlimit="10" stroke-linecap="round" stroke-linejoin="round"/>
<path d="M52.6889 58.7197C48.2087 57.6503 44.4496 54.871 42.072 51.1564" stroke="#1A2E35" stroke-width="0.601456" stroke-miterlimit="10" stroke-linecap="round" stroke-linejoin="round"/>
<path d="M74.1275 43.1583C73.3618 52.7521 64.9631 59.9083 55.3699 59.142" stroke="#1A2E35" stroke-width="0.601456" stroke-miterlimit="10" stroke-linecap="round" stroke-linejoin="round"/>
<path d="M58.1438 24.4012C66.4589 25.0652 72.9432 31.4629 74.0247 39.4033" stroke="#1A2E35" stroke-width="0.601456" stroke-miterlimit="10" stroke-linecap="round" stroke-linejoin="round"/>
<path d="M64.2738 55.1848C61.7038 56.6277 58.6917 57.3494 55.5335 57.0968C47.0692 56.4214 40.7557 49.012 41.4311 40.5483" stroke="#1A2E35" stroke-width="0.601456" stroke-miterlimit="10" stroke-linecap="round" stroke-linejoin="round"/>
<path d="M42.408 36.2396C44.7921 30.0494 51.0304 25.8921 57.9803 26.4467C66.444 27.1227 72.7574 34.532 72.082 42.9957C71.8041 46.4764 70.3877 49.5931 68.2273 52.0098" stroke="#1A2E35" stroke-width="0.601456" stroke-miterlimit="10" stroke-linecap="round" stroke-linejoin="round"/>
<path d="M55.2473 30.7087L56.757 41.7725L65.2646 39.1291" stroke="#1A2E35" stroke-width="0.601456" stroke-miterlimit="10" stroke-linecap="round" stroke-linejoin="round"/>
<path d="M189.367 63.2817C184.349 63.3292 179.633 60.2185 177.874 55.2216C176.215 50.5086 177.657 45.4563 181.133 42.2909" stroke="#1A2E35" stroke-width="0.601456" stroke-miterlimit="10" stroke-linecap="round" stroke-linejoin="round"/>
<path d="M200.671 55.108C199.517 58.484 196.884 61.3175 193.258 62.5938" stroke="#1A2E35" stroke-width="0.601456" stroke-miterlimit="10" stroke-linecap="round" stroke-linejoin="round"/>
<path d="M185.247 39.8363C191.531 37.6242 198.418 40.925 200.631 47.209" stroke="#1A2E35" stroke-width="0.601456" stroke-miterlimit="10" stroke-linecap="round" stroke-linejoin="round"/>
<path d="M195.209 42.3948C197.039 43.6284 198.502 45.4394 199.291 47.681C201.243 53.2252 198.33 59.3017 192.787 61.2535C188.629 62.7174 184.17 61.4453 181.378 58.3791" stroke="#1A2E35" stroke-width="0.601456" stroke-miterlimit="10" stroke-linecap="round" stroke-linejoin="round"/>
<path d="M179.214 54.749C177.262 49.2048 180.174 43.1283 185.718 41.1766C187.797 40.4446 189.952 40.3965 191.935 40.9149" stroke="#1A2E35" stroke-width="0.601456" stroke-miterlimit="10" stroke-linecap="round" stroke-linejoin="round"/>
<path d="M185.188 44.6416L189.253 51.2161L185.548 56.0254" stroke="#1A2E35" stroke-width="0.601456" stroke-miterlimit="10" stroke-linecap="round" stroke-linejoin="round"/>
<path d="M104.002 231.003C104.002 227.67 105.687 224.731 108.252 222.992" stroke="#1A2E35" stroke-width="0.601456" stroke-miterlimit="10" stroke-linecap="round" stroke-linejoin="round"/>
<path d="M120.689 237.668C118.926 239.521 116.436 240.677 113.676 240.677C109.424 240.677 105.812 237.932 104.515 234.119" stroke="#1A2E35" stroke-width="0.601456" stroke-miterlimit="10" stroke-linecap="round" stroke-linejoin="round"/>
<path d="M113.677 221.329C119.02 221.329 123.351 225.66 123.351 231.003" stroke="#1A2E35" stroke-width="0.601456" stroke-miterlimit="10" stroke-linecap="round" stroke-linejoin="round"/>
<path d="M113.676 239.538C108.962 239.538 105.141 235.716 105.141 231.003" stroke="#1A2E35" stroke-width="0.601456" stroke-miterlimit="10" stroke-linecap="round" stroke-linejoin="round"/>
<path d="M107.03 225.647C108.594 223.708 110.991 222.467 113.677 222.467C118.39 222.467 122.212 226.288 122.212 231.003C122.212 234.209 120.444 237.003 117.829 238.462" stroke="#1A2E35" stroke-width="0.601456" stroke-miterlimit="10" stroke-linecap="round" stroke-linejoin="round"/>
<path d="M112.352 236.804L113.676 231.002L111.826 226.261" stroke="#1A2E35" stroke-width="0.601456" stroke-miterlimit="10" stroke-linecap="round" stroke-linejoin="round"/>
<path d="M1 260.187H244.332" stroke="#1A2E35" stroke-width="0.601456" stroke-miterlimit="10" stroke-linecap="round" stroke-linejoin="round"/>
<path d="M124.462 133.354L120.5 208.823L70.2854 206.185L70.7034 198.186L74.2478 130.716L105.868 132.376L124.462 133.354Z" fill="white"/>
<g opacity="0.199997">
<g opacity="0.699997">
<path d="M108.791 177.569L97.4774 178.502L100.778 192.75L70.7036 198.186L74.248 130.716L105.868 132.375L108.791 177.569Z" fill="black"/>
</g>
</g>
<path d="M124.462 133.354L120.5 208.823L70.2854 206.185L70.7034 198.186L74.2478 130.716L105.868 132.376L124.462 133.354Z" stroke="#1A2E35" stroke-width="0.601456" stroke-miterlimit="10" stroke-linecap="round" stroke-linejoin="round"/>
<path d="M77.7932 135.878L90.8599 136.564" stroke="#1A2E35" stroke-width="1.20291" stroke-miterlimit="10" stroke-linecap="round" stroke-linejoin="round"/>
<path d="M77.6616 138.387L86.5469 138.854" stroke="#1A2E35" stroke-width="1.20291" stroke-miterlimit="10" stroke-linecap="round" stroke-linejoin="round"/>
<path d="M80.5344 144.477L118.122 146.451" stroke="#1A2E35" stroke-width="1.20291" stroke-miterlimit="10" stroke-linecap="round" stroke-linejoin="round"/>
<path d="M80.4026 146.985L117.99 148.959" stroke="#1A2E35" stroke-width="1.20291" stroke-miterlimit="10" stroke-linecap="round" stroke-linejoin="round"/>
<path d="M80.2488 149.912L112.307 151.596" stroke="#1A2E35" stroke-width="1.20291" stroke-miterlimit="10" stroke-linecap="round" stroke-linejoin="round"/>
<path d="M83.169 155.805L80.1094 155.644L80.27 152.584L83.3302 152.745L83.169 155.805Z" stroke="#1A2E35" stroke-width="0.601456" stroke-miterlimit="10" stroke-linecap="round" stroke-linejoin="round"/>
<path d="M88.7099 156.096L85.6497 155.935L85.8102 152.876L88.8705 153.035L88.7099 156.096Z" stroke="#1A2E35" stroke-width="0.601456" stroke-miterlimit="10" stroke-linecap="round" stroke-linejoin="round"/>
<path d="M94.2508 156.388L91.1912 156.227L91.3518 153.167L94.4114 153.328L94.2508 156.388Z" stroke="#1A2E35" stroke-width="0.601456" stroke-miterlimit="10" stroke-linecap="round" stroke-linejoin="round"/>
<path d="M99.7915 156.679L96.7319 156.518L96.8925 153.459L99.9521 153.619L99.7915 156.679Z" stroke="#1A2E35" stroke-width="0.601456" stroke-miterlimit="10" stroke-linecap="round" stroke-linejoin="round"/>
<path d="M78.5336 144.372C78.5114 144.794 78.1511 145.119 77.7289 145.097C77.3061 145.074 76.9813 144.714 77.0035 144.291C77.0258 143.869 77.386 143.545 77.8089 143.566C78.2317 143.589 78.5559 143.95 78.5336 144.372Z" fill="#1A2E35"/>
<path d="M79.7656 159.11L117.353 161.084" stroke="#1A2E35" stroke-width="1.20291" stroke-miterlimit="10" stroke-linecap="round" stroke-linejoin="round"/>
<path d="M79.6343 161.619L117.222 163.593" stroke="#1A2E35" stroke-width="1.20291" stroke-miterlimit="10" stroke-linecap="round" stroke-linejoin="round"/>
<path d="M79.4802 164.545L111.538 166.229" stroke="#1A2E35" stroke-width="1.20291" stroke-miterlimit="10" stroke-linecap="round" stroke-linejoin="round"/>
<path d="M82.4002 170.438L79.3406 170.278L79.5012 167.218L82.5608 167.379L82.4002 170.438Z" stroke="#1A2E35" stroke-width="0.601456" stroke-miterlimit="10" stroke-linecap="round" stroke-linejoin="round"/>
<path d="M87.9412 170.729L84.8816 170.568L85.0422 167.509L88.1024 167.669L87.9412 170.729Z" stroke="#1A2E35" stroke-width="0.601456" stroke-miterlimit="10" stroke-linecap="round" stroke-linejoin="round"/>
<path d="M93.4823 171.02L90.4221 170.859L90.5833 167.799L93.6429 167.96L93.4823 171.02Z" stroke="#1A2E35" stroke-width="0.601456" stroke-miterlimit="10" stroke-linecap="round" stroke-linejoin="round"/>
<path d="M99.0232 171.312L95.9636 171.151L96.1242 168.092L99.1838 168.252L99.0232 171.312Z" stroke="#1A2E35" stroke-width="0.601456" stroke-miterlimit="10" stroke-linecap="round" stroke-linejoin="round"/>
<path d="M77.7648 159.005C77.7426 159.427 77.3823 159.752 76.9595 159.729C76.5373 159.707 76.2125 159.346 76.2347 158.924C76.257 158.502 76.6172 158.177 77.0401 158.199C77.4629 158.222 77.7871 158.582 77.7648 159.005Z" fill="#1A2E35"/>
<path d="M78.9973 173.743L116.585 175.717" stroke="#1A2E35" stroke-width="1.20291" stroke-miterlimit="10" stroke-linecap="round" stroke-linejoin="round"/>
<path d="M78.8655 176.252L116.453 178.226" stroke="#1A2E35" stroke-width="1.20291" stroke-miterlimit="10" stroke-linecap="round" stroke-linejoin="round"/>
<path d="M78.7117 179.178L110.77 180.862" stroke="#1A2E35" stroke-width="1.20291" stroke-miterlimit="10" stroke-linecap="round" stroke-linejoin="round"/>
<path d="M81.6316 185.071L78.572 184.91L78.7326 181.851L81.7922 182.012L81.6316 185.071Z" stroke="#1A2E35" stroke-width="0.601456" stroke-miterlimit="10" stroke-linecap="round" stroke-linejoin="round"/>
<path d="M87.1726 185.363L84.113 185.202L84.2736 182.142L87.3332 182.303L87.1726 185.363Z" stroke="#1A2E35" stroke-width="0.601456" stroke-miterlimit="10" stroke-linecap="round" stroke-linejoin="round"/>
<path d="M92.7137 185.653L89.6541 185.492L89.8146 182.433L92.8749 182.593L92.7137 185.653Z" stroke="#1A2E35" stroke-width="0.601456" stroke-miterlimit="10" stroke-linecap="round" stroke-linejoin="round"/>
<path d="M98.2548 185.944L95.1946 185.783L95.3558 182.724L98.4154 182.884L98.2548 185.944Z" stroke="#1A2E35" stroke-width="0.601456" stroke-miterlimit="10" stroke-linecap="round" stroke-linejoin="round"/>
<path d="M76.9963 173.638C76.974 174.061 76.6137 174.385 76.1909 174.363C75.7687 174.341 75.4439 173.98 75.4662 173.558C75.4884 173.136 75.8487 172.811 76.2715 172.833C76.6943 172.855 77.0185 173.216 76.9963 173.638Z" fill="#1A2E35"/>
<path d="M78.2065 188.794L115.794 190.768" stroke="#1A2E35" stroke-width="1.20291" stroke-miterlimit="10" stroke-linecap="round" stroke-linejoin="round"/>
<path d="M78.075 191.302L115.662 193.276" stroke="#1A2E35" stroke-width="1.20291" stroke-miterlimit="10" stroke-linecap="round" stroke-linejoin="round"/>
<path d="M77.9211 194.23L109.979 195.914" stroke="#1A2E35" stroke-width="1.20291" stroke-miterlimit="10" stroke-linecap="round" stroke-linejoin="round"/>
<path d="M80.8413 200.123L77.7817 199.962L77.9423 196.903L81.0019 197.063L80.8413 200.123Z" stroke="#1A2E35" stroke-width="0.601456" stroke-miterlimit="10" stroke-linecap="round" stroke-linejoin="round"/>
<path d="M86.3819 200.415L83.3223 200.254L83.4829 197.195L86.5431 197.355L86.3819 200.415Z" stroke="#1A2E35" stroke-width="0.601456" stroke-miterlimit="10" stroke-linecap="round" stroke-linejoin="round"/>
<path d="M91.923 200.706L88.8628 200.545L89.024 197.486L92.0836 197.646L91.923 200.706Z" stroke="#1A2E35" stroke-width="0.601456" stroke-miterlimit="10" stroke-linecap="round" stroke-linejoin="round"/>
<path d="M97.4639 200.996L94.4043 200.836L94.5649 197.776L97.6245 197.936L97.4639 200.996Z" stroke="#1A2E35" stroke-width="0.601456" stroke-miterlimit="10" stroke-linecap="round" stroke-linejoin="round"/>
<path d="M76.2057 188.689C76.1835 189.112 75.8232 189.436 75.4004 189.414C74.9782 189.392 74.6534 189.031 74.6756 188.609C74.6979 188.186 75.0582 187.862 75.481 187.884C75.9032 187.906 76.228 188.267 76.2057 188.689Z" fill="#1A2E35"/>
<path d="M81.3037 153.86L81.7013 154.545L83.33 152.745" stroke="#1A2E35" stroke-width="1.20291" stroke-miterlimit="10" stroke-linecap="round" stroke-linejoin="round"/>
<path d="M91.627 168.893L92.0239 169.577L93.6527 167.778" stroke="#1A2E35" stroke-width="1.20291" stroke-miterlimit="10" stroke-linecap="round" stroke-linejoin="round"/>
<path d="M96.8049 184.335L97.2019 185.02L98.8306 183.22" stroke="#1A2E35" stroke-width="1.20291" stroke-miterlimit="10" stroke-linecap="round" stroke-linejoin="round"/>
<path d="M84.5354 198.12L84.9324 198.805L86.5611 197.005" stroke="#1A2E35" stroke-width="1.20291" stroke-miterlimit="10" stroke-linecap="round" stroke-linejoin="round"/>
<path d="M91.0965 187.465L42.6497 200.928L22.4167 128.111L42.4753 122.538L70.8635 114.652L89.2211 180.718L91.0965 187.465Z" fill="white"/>
<g opacity="0.199997">
<g opacity="0.699997">
<path d="M89.2202 180.723L51.7602 183.146L42.4744 122.543L70.8631 114.656L89.2202 180.723Z" fill="black"/>
</g>
</g>
<path d="M91.0964 187.465L42.6497 200.928L22.4167 128.111L42.4753 122.538L70.8635 114.652L89.2211 180.718L91.0964 187.465Z" stroke="#1A2E35" stroke-width="0.601456" stroke-miterlimit="10" stroke-linecap="round" stroke-linejoin="round"/>
<path d="M27.417 131.879L40.0235 128.376" stroke="#1A2E35" stroke-width="1.20291" stroke-miterlimit="10" stroke-linecap="round" stroke-linejoin="round"/>
<path d="M28.0896 134.3L36.6628 131.917" stroke="#1A2E35" stroke-width="1.20291" stroke-miterlimit="10" stroke-linecap="round" stroke-linejoin="round"/>
<path d="M32.749 139.16L69.0138 129.083" stroke="#1A2E35" stroke-width="1.20291" stroke-miterlimit="10" stroke-linecap="round" stroke-linejoin="round"/>
<path d="M33.4214 141.58L69.6868 131.503" stroke="#1A2E35" stroke-width="1.20291" stroke-miterlimit="10" stroke-linecap="round" stroke-linejoin="round"/>
<path d="M34.2063 144.403L65.1368 135.809" stroke="#1A2E35" stroke-width="1.20291" stroke-miterlimit="10" stroke-linecap="round" stroke-linejoin="round"/>
<path d="M38.8485 149.064L35.896 149.885L35.0762 146.932L38.0281 146.112L38.8485 149.064Z" stroke="#1A2E35" stroke-width="0.601456" stroke-miterlimit="10" stroke-linecap="round" stroke-linejoin="round"/>
<path d="M44.1942 147.578L41.2417 148.398L40.4219 145.446L43.3738 144.626L44.1942 147.578Z" stroke="#1A2E35" stroke-width="0.601456" stroke-miterlimit="10" stroke-linecap="round" stroke-linejoin="round"/>
<path d="M49.5404 146.092L46.5879 146.912L45.7681 143.96L48.72 143.14L49.5404 146.092Z" stroke="#1A2E35" stroke-width="0.601456" stroke-miterlimit="10" stroke-linecap="round" stroke-linejoin="round"/>
<path d="M54.8863 144.607L51.9338 145.427L51.114 142.475L54.066 141.654L54.8863 144.607Z" stroke="#1A2E35" stroke-width="0.601456" stroke-miterlimit="10" stroke-linecap="round" stroke-linejoin="round"/>
<path d="M30.8186 139.697C30.9317 140.104 30.6935 140.527 30.2857 140.64C29.8779 140.753 29.4557 140.515 29.342 140.107C29.229 139.7 29.4677 139.277 29.8755 139.164C30.2827 139.051 30.7055 139.289 30.8186 139.697Z" fill="#1A2E35"/>
<path d="M36.6724 153.278L72.9372 143.202" stroke="#1A2E35" stroke-width="1.20291" stroke-miterlimit="10" stroke-linecap="round" stroke-linejoin="round"/>
<path d="M37.345 155.698L73.6098 145.621" stroke="#1A2E35" stroke-width="1.20291" stroke-miterlimit="10" stroke-linecap="round" stroke-linejoin="round"/>
<path d="M38.1296 158.522L69.0595 149.928" stroke="#1A2E35" stroke-width="1.20291" stroke-miterlimit="10" stroke-linecap="round" stroke-linejoin="round"/>
<path d="M42.7716 163.183L39.8197 164.003L38.9993 161.051L41.9512 160.231L42.7716 163.183Z" stroke="#1A2E35" stroke-width="0.601456" stroke-miterlimit="10" stroke-linecap="round" stroke-linejoin="round"/>
<path d="M48.1175 161.697L45.165 162.518L44.3452 159.566L47.2972 158.745L48.1175 161.697Z" stroke="#1A2E35" stroke-width="0.601456" stroke-miterlimit="10" stroke-linecap="round" stroke-linejoin="round"/>
<path d="M53.4635 160.211L50.5109 161.031L49.6912 158.079L52.6431 157.259L53.4635 160.211Z" stroke="#1A2E35" stroke-width="0.601456" stroke-miterlimit="10" stroke-linecap="round" stroke-linejoin="round"/>
<path d="M58.8097 158.726L55.8571 159.546L55.0374 156.593L57.9893 155.774L58.8097 158.726Z" stroke="#1A2E35" stroke-width="0.601456" stroke-miterlimit="10" stroke-linecap="round" stroke-linejoin="round"/>
<path d="M34.7416 153.816C34.8547 154.224 34.6165 154.646 34.2087 154.759C33.8009 154.872 33.3787 154.633 33.2656 154.226C33.1519 153.818 33.3907 153.396 33.7985 153.282C34.2063 153.17 34.6285 153.408 34.7416 153.816Z" fill="#1A2E35"/>
<path d="M40.5952 167.397L76.8606 157.32" stroke="#1A2E35" stroke-width="1.20291" stroke-miterlimit="10" stroke-linecap="round" stroke-linejoin="round"/>
<path d="M41.2678 169.817L77.5332 159.74" stroke="#1A2E35" stroke-width="1.20291" stroke-miterlimit="10" stroke-linecap="round" stroke-linejoin="round"/>
<path d="M42.0527 172.641L72.9832 164.046" stroke="#1A2E35" stroke-width="1.20291" stroke-miterlimit="10" stroke-linecap="round" stroke-linejoin="round"/>
<path d="M46.6947 177.302L43.7421 178.122L42.9224 175.17L45.8743 174.35L46.6947 177.302Z" stroke="#1A2E35" stroke-width="0.601456" stroke-miterlimit="10" stroke-linecap="round" stroke-linejoin="round"/>
<path d="M52.0406 175.816L49.0887 176.636L48.2683 173.684L51.2203 172.863L52.0406 175.816Z" stroke="#1A2E35" stroke-width="0.601456" stroke-miterlimit="10" stroke-linecap="round" stroke-linejoin="round"/>
<path d="M57.3866 174.33L54.434 175.149L53.6143 172.197L56.5662 171.377L57.3866 174.33Z" stroke="#1A2E35" stroke-width="0.601456" stroke-miterlimit="10" stroke-linecap="round" stroke-linejoin="round"/>
<path d="M62.7325 172.844L59.7806 173.664L58.9602 170.712L61.9122 169.892L62.7325 172.844Z" stroke="#1A2E35" stroke-width="0.601456" stroke-miterlimit="10" stroke-linecap="round" stroke-linejoin="round"/>
<path d="M38.6647 167.933C38.7778 168.341 38.5396 168.763 38.1318 168.876C37.724 168.99 37.3018 168.75 37.1887 168.343C37.075 167.935 37.3138 167.514 37.7216 167.4C38.1288 167.287 38.5516 167.525 38.6647 167.933Z" fill="#1A2E35"/>
<path d="M44.6306 181.919L80.8954 171.842" stroke="#1A2E35" stroke-width="1.20291" stroke-miterlimit="10" stroke-linecap="round" stroke-linejoin="round"/>
<path d="M45.3032 184.34L81.568 174.262" stroke="#1A2E35" stroke-width="1.20291" stroke-miterlimit="10" stroke-linecap="round" stroke-linejoin="round"/>
<path d="M46.0876 187.163L77.0181 178.569" stroke="#1A2E35" stroke-width="1.20291" stroke-miterlimit="10" stroke-linecap="round" stroke-linejoin="round"/>
<path d="M50.7299 191.822L47.7773 192.643L46.9575 189.69L49.9095 188.87L50.7299 191.822Z" stroke="#1A2E35" stroke-width="0.601456" stroke-miterlimit="10" stroke-linecap="round" stroke-linejoin="round"/>
<path d="M56.0759 190.338L53.1234 191.158L52.303 188.206L55.2555 187.386L56.0759 190.338Z" stroke="#1A2E35" stroke-width="0.601456" stroke-miterlimit="10" stroke-linecap="round" stroke-linejoin="round"/>
<path d="M61.422 188.852L58.4694 189.672L57.6497 186.72L60.6016 185.9L61.422 188.852Z" stroke="#1A2E35" stroke-width="0.601456" stroke-miterlimit="10" stroke-linecap="round" stroke-linejoin="round"/>
<path d="M66.7682 187.367L63.8156 188.187L62.9958 185.235L65.9478 184.414L66.7682 187.367Z" stroke="#1A2E35" stroke-width="0.601456" stroke-miterlimit="10" stroke-linecap="round" stroke-linejoin="round"/>
<path d="M42.7001 182.456C42.8132 182.864 42.575 183.286 42.1672 183.399C41.7594 183.513 41.3372 183.274 41.2241 182.867C41.1104 182.459 41.3492 182.037 41.757 181.923C42.1648 181.81 42.587 182.049 42.7001 182.456Z" fill="#1A2E35"/>
<path d="M41.4954 146.407L42.0896 146.93L43.0616 144.706" stroke="#1A2E35" stroke-width="1.20291" stroke-miterlimit="10" stroke-linecap="round" stroke-linejoin="round"/>
<path d="M40.0435 162.16L40.6377 162.683L41.6096 160.459" stroke="#1A2E35" stroke-width="1.20291" stroke-miterlimit="10" stroke-linecap="round" stroke-linejoin="round"/>
<path d="M43.9634 176.132L44.5576 176.654L45.5296 174.431" stroke="#1A2E35" stroke-width="1.20291" stroke-miterlimit="10" stroke-linecap="round" stroke-linejoin="round"/>
<path d="M58.6838 187.579L59.2781 188.101L60.25 185.877" stroke="#1A2E35" stroke-width="1.20291" stroke-miterlimit="10" stroke-linecap="round" stroke-linejoin="round"/>
<path d="M103.052 173.068L53.0001 177.875L45.7742 102.648L95.8262 97.841L103.052 173.068Z" fill="white"/>
<path d="M103.052 173.068L53.0001 177.875L45.7742 102.648L95.8262 97.841L103.052 173.068Z" stroke="#1A2E35" stroke-width="0.601456" stroke-miterlimit="10" stroke-linecap="round" stroke-linejoin="round"/>
<path d="M50.0415 107.23L63.066 105.979" stroke="#1A2E35" stroke-width="1.20291" stroke-miterlimit="10" stroke-linecap="round" stroke-linejoin="round"/>
<path d="M50.2817 109.73L59.1388 108.879" stroke="#1A2E35" stroke-width="1.20291" stroke-miterlimit="10" stroke-linecap="round" stroke-linejoin="round"/>
<path d="M54.0222 115.328L91.4887 111.73" stroke="#1A2E35" stroke-width="1.20291" stroke-miterlimit="10" stroke-linecap="round" stroke-linejoin="round"/>
<path d="M54.2625 117.829L91.729 114.231" stroke="#1A2E35" stroke-width="1.20291" stroke-miterlimit="10" stroke-linecap="round" stroke-linejoin="round"/>
<path d="M54.5427 120.746L86.4981 117.676" stroke="#1A2E35" stroke-width="1.20291" stroke-miterlimit="10" stroke-linecap="round" stroke-linejoin="round"/>
<path d="M58.3014 126.145L55.2514 126.438L54.9585 123.388L58.0085 123.095L58.3014 126.145Z" stroke="#1A2E35" stroke-width="0.601456" stroke-miterlimit="10" stroke-linecap="round" stroke-linejoin="round"/>
<path d="M63.8245 125.614L60.7745 125.907L60.481 122.857L63.5315 122.564L63.8245 125.614Z" stroke="#1A2E35" stroke-width="0.601456" stroke-miterlimit="10" stroke-linecap="round" stroke-linejoin="round"/>
<path d="M69.3473 125.083L66.2973 125.376L66.0044 122.326L69.0544 122.033L69.3473 125.083Z" stroke="#1A2E35" stroke-width="0.601456" stroke-miterlimit="10" stroke-linecap="round" stroke-linejoin="round"/>
<path d="M74.8705 124.552L71.8205 124.845L71.5276 121.795L74.5776 121.502L74.8705 124.552Z" stroke="#1A2E35" stroke-width="0.601456" stroke-miterlimit="10" stroke-linecap="round" stroke-linejoin="round"/>
<path d="M52.0279 115.52C52.0682 115.941 51.7596 116.315 51.3386 116.356C50.9176 116.396 50.5435 116.088 50.5026 115.667C50.4623 115.245 50.7708 114.871 51.1918 114.831C51.6135 114.79 51.9876 115.099 52.0279 115.52Z" fill="#1A2E35"/>
<path d="M55.4236 129.916L92.8901 126.317" stroke="#1A2E35" stroke-width="1.20291" stroke-miterlimit="10" stroke-linecap="round" stroke-linejoin="round"/>
<path d="M55.6636 132.415L93.1301 128.817" stroke="#1A2E35" stroke-width="1.20291" stroke-miterlimit="10" stroke-linecap="round" stroke-linejoin="round"/>
<path d="M55.9438 135.334L87.8986 132.264" stroke="#1A2E35" stroke-width="1.20291" stroke-miterlimit="10" stroke-linecap="round" stroke-linejoin="round"/>
<path d="M59.7025 140.731L56.6525 141.023L56.3596 137.973L59.4096 137.681L59.7025 140.731Z" stroke="#1A2E35" stroke-width="0.601456" stroke-miterlimit="10" stroke-linecap="round" stroke-linejoin="round"/>
<path d="M65.2256 140.201L62.1756 140.493L61.8821 137.443L64.9327 137.151L65.2256 140.201Z" stroke="#1A2E35" stroke-width="0.601456" stroke-miterlimit="10" stroke-linecap="round" stroke-linejoin="round"/>
<path d="M70.7484 139.67L67.6984 139.963L67.4055 136.913L70.4555 136.62L70.7484 139.67Z" stroke="#1A2E35" stroke-width="0.601456" stroke-miterlimit="10" stroke-linecap="round" stroke-linejoin="round"/>
<path d="M76.272 139.139L73.222 139.432L72.9285 136.382L75.9791 136.089L76.272 139.139Z" stroke="#1A2E35" stroke-width="0.601456" stroke-miterlimit="10" stroke-linecap="round" stroke-linejoin="round"/>
<path d="M53.429 130.107C53.4693 130.528 53.1607 130.902 52.7397 130.943C52.3187 130.983 51.9446 130.675 51.9037 130.253C51.8634 129.832 52.1719 129.458 52.593 129.417C53.0146 129.377 53.3887 129.686 53.429 130.107Z" fill="#1A2E35"/>
<path d="M56.8245 144.502L94.291 140.903" stroke="#1A2E35" stroke-width="1.20291" stroke-miterlimit="10" stroke-linecap="round" stroke-linejoin="round"/>
<path d="M57.0649 147.002L94.5315 143.403" stroke="#1A2E35" stroke-width="1.20291" stroke-miterlimit="10" stroke-linecap="round" stroke-linejoin="round"/>
<path d="M57.345 149.92L89.2997 146.85" stroke="#1A2E35" stroke-width="1.20291" stroke-miterlimit="10" stroke-linecap="round" stroke-linejoin="round"/>
<path d="M61.1035 155.317L58.0535 155.609L57.76 152.559L60.8106 152.267L61.1035 155.317Z" stroke="#1A2E35" stroke-width="0.601456" stroke-miterlimit="10" stroke-linecap="round" stroke-linejoin="round"/>
<path d="M66.6266 154.786L63.5766 155.079L63.2837 152.029L66.3337 151.736L66.6266 154.786Z" stroke="#1A2E35" stroke-width="0.601456" stroke-miterlimit="10" stroke-linecap="round" stroke-linejoin="round"/>
<path d="M72.1495 154.256L69.0995 154.549L68.8066 151.499L71.8566 151.206L72.1495 154.256Z" stroke="#1A2E35" stroke-width="0.601456" stroke-miterlimit="10" stroke-linecap="round" stroke-linejoin="round"/>
<path d="M77.6728 153.726L74.6229 154.019L74.3293 150.969L77.3799 150.676L77.6728 153.726Z" stroke="#1A2E35" stroke-width="0.601456" stroke-miterlimit="10" stroke-linecap="round" stroke-linejoin="round"/>
<path d="M54.8298 144.694C54.8701 145.115 54.5616 145.489 54.1406 145.53C53.7196 145.57 53.3454 145.261 53.3051 144.84C53.2642 144.419 53.5734 144.045 53.9944 144.004C54.4154 143.964 54.7895 144.273 54.8298 144.694Z" fill="#1A2E35"/>
<path d="M58.2659 159.505L95.7324 155.906" stroke="#1A2E35" stroke-width="1.20291" stroke-miterlimit="10" stroke-linecap="round" stroke-linejoin="round"/>
<path d="M58.5061 162.005L95.9726 158.406" stroke="#1A2E35" stroke-width="1.20291" stroke-miterlimit="10" stroke-linecap="round" stroke-linejoin="round"/>
<path d="M58.7861 164.923L90.7409 161.853" stroke="#1A2E35" stroke-width="1.20291" stroke-miterlimit="10" stroke-linecap="round" stroke-linejoin="round"/>
<path d="M62.5447 170.32L59.4947 170.613L59.2012 167.563L62.2518 167.27L62.5447 170.32Z" stroke="#1A2E35" stroke-width="0.601456" stroke-miterlimit="10" stroke-linecap="round" stroke-linejoin="round"/>
<path d="M68.0675 169.79L65.0175 170.083L64.7246 167.033L67.7746 166.74L68.0675 169.79Z" stroke="#1A2E35" stroke-width="0.601456" stroke-miterlimit="10" stroke-linecap="round" stroke-linejoin="round"/>
<path d="M73.5909 169.258L70.541 169.551L70.248 166.501L73.298 166.208L73.5909 169.258Z" stroke="#1A2E35" stroke-width="0.601456" stroke-miterlimit="10" stroke-linecap="round" stroke-linejoin="round"/>
<path d="M79.1139 168.728L76.0639 169.021L75.771 165.971L78.821 165.678L79.1139 168.728Z" stroke="#1A2E35" stroke-width="0.601456" stroke-miterlimit="10" stroke-linecap="round" stroke-linejoin="round"/>
<path d="M56.2715 159.696C56.3118 160.117 56.0033 160.491 55.5822 160.532C55.1606 160.572 54.7865 160.263 54.7462 159.842C54.7059 159.421 55.0145 159.047 55.4355 159.006C55.8571 158.965 56.2312 159.275 56.2715 159.696Z" fill="#1A2E35"/>
<path d="M56.1694 124.497L56.6632 125.114L58.0081 123.095" stroke="#1A2E35" stroke-width="1.20291" stroke-miterlimit="10" stroke-linecap="round" stroke-linejoin="round"/>
<path d="M68.5991 137.839L69.0929 138.457L70.4384 136.437" stroke="#1A2E35" stroke-width="1.20291" stroke-miterlimit="10" stroke-linecap="round" stroke-linejoin="round"/>
<path d="M64.5063 153.26L65.0001 153.878L66.345 151.858" stroke="#1A2E35" stroke-width="1.20291" stroke-miterlimit="10" stroke-linecap="round" stroke-linejoin="round"/>
<path d="M76.9136 167.087L77.4074 167.705L78.7522 165.685" stroke="#1A2E35" stroke-width="1.20291" stroke-miterlimit="10" stroke-linecap="round" stroke-linejoin="round"/>
<path d="M157.037 68.1777H125.964C123.679 68.1777 121.826 70.0308 121.826 72.3157V99.0066C121.826 101.292 123.679 103.145 125.964 103.145H139.737L147.626 112.657L145.649 103.145H157.037C159.323 103.145 161.175 101.292 161.175 99.0066V72.3157C161.175 70.0308 159.323 68.1777 157.037 68.1777Z" fill="white"/>
<path d="M157.037 68.1777H125.964C123.679 68.1777 121.826 70.0308 121.826 72.3157V99.0066C121.826 101.292 123.679 103.145 125.964 103.145H139.737L147.626 112.657L145.649 103.145H157.037C159.323 103.145 161.175 101.292 161.175 99.0066V72.3157C161.175 70.0308 159.323 68.1777 157.037 68.1777Z" stroke="#1A2E35" stroke-width="0.601456" stroke-miterlimit="10" stroke-linecap="round" stroke-linejoin="round"/>
<path d="M136.222 84.7018C134.408 84.7018 132.938 83.2313 132.938 81.4173C132.938 79.6027 134.408 78.1321 136.222 78.1321C138.037 78.1321 139.508 79.6027 139.508 81.4173C139.508 83.2313 138.037 84.7018 136.222 84.7018ZM143.985 82.8307V80.0033L141.868 79.821C141.741 79.3747 141.566 78.9489 141.344 78.552L142.711 76.9274L140.712 74.9282L139.088 76.2953C138.691 76.0728 138.265 75.8977 137.818 75.772L137.636 73.6543H134.809L134.627 75.772C134.18 75.8977 133.754 76.0728 133.358 76.2953L131.733 74.9282L129.734 76.9274L131.101 78.552C130.878 78.9489 130.703 79.3741 130.577 79.821L128.46 80.0033V82.8307L130.577 83.013C130.703 83.4598 130.878 83.8851 131.101 84.282L129.734 85.9066L131.733 87.9052L133.358 86.5387C133.754 86.7606 134.18 86.9357 134.627 87.062L134.809 89.1797H137.636L137.818 87.062C138.265 86.9357 138.691 86.7606 139.088 86.5387L140.712 87.9052L142.711 85.9066L141.344 84.282C141.566 83.8851 141.741 83.4598 141.868 83.013L143.985 82.8307Z" fill="#0373BA"/>
<path d="M147.815 90.4723C146.524 90.4723 145.477 89.4258 145.477 88.1344C145.477 86.8437 146.524 85.7972 147.815 85.7972C149.105 85.7972 150.152 86.8437 150.152 88.1344C150.152 89.4258 149.105 90.4723 147.815 90.4723ZM153.339 89.1407V87.1288L151.832 86.9995C151.741 86.6813 151.617 86.3782 151.459 86.0961L152.432 84.9401L151.009 83.5176L149.853 84.4902C149.571 84.332 149.268 84.2075 148.951 84.1179L148.821 82.6113H146.809L146.679 84.1179C146.361 84.2075 146.058 84.332 145.776 84.4902L144.62 83.5176L143.197 84.9401L144.17 86.0961C144.012 86.3782 143.888 86.6813 143.797 86.9995L142.291 87.1288V89.1407L143.797 89.27C143.888 89.5881 144.012 89.8913 144.17 90.1734L143.197 91.3294L144.62 92.7518L145.776 91.7793C146.058 91.9374 146.361 92.0619 146.679 92.1516L146.809 93.6582H148.821L148.951 92.1516C149.268 92.0619 149.571 91.9374 149.853 91.7793L151.009 92.7518L152.432 91.3294L151.459 90.1734C151.617 89.8913 151.741 89.5881 151.832 89.27L153.339 89.1407Z" fill="#0373BA"/>
<path d="M139.568 94.7735C138.65 94.7735 137.904 94.0289 137.904 93.1099C137.904 92.1915 138.65 91.4469 139.568 91.4469C140.486 91.4469 141.232 92.1915 141.232 93.1099C141.232 94.0289 140.486 94.7735 139.568 94.7735ZM143.498 93.8256V92.3942L142.426 92.3021C142.362 92.076 142.274 91.8607 142.161 91.6598L142.853 90.837L141.841 89.8247L141.018 90.517C140.817 90.4039 140.602 90.3155 140.376 90.2518L140.283 89.1794H138.852L138.76 90.2518C138.533 90.3155 138.318 90.4039 138.117 90.517L137.294 89.8247L136.282 90.837L136.974 91.6598C136.862 91.8607 136.774 92.076 136.709 92.3021L135.637 92.3942V93.8256L136.709 93.9183C136.774 94.1444 136.862 94.3603 136.974 94.5606L136.282 95.3834L137.294 96.3957L138.117 95.7034C138.318 95.8158 138.533 95.9049 138.76 95.9686L138.852 97.041H140.283L140.376 95.9686C140.602 95.9049 140.818 95.8158 141.018 95.7034L141.841 96.3957L142.853 95.3834L142.161 94.5606C142.274 94.3603 142.362 94.1444 142.426 93.9183L143.498 93.8256Z" fill="#0373BA"/>
<path d="M140.67 170.82L164.894 260.187H168.517L144.292 170.82H140.67Z" fill="#767676"/>
<path d="M140.67 170.82L164.894 260.187H168.517L144.292 170.82H140.67Z" stroke="#1A2E35" stroke-width="0.601456" stroke-miterlimit="10" stroke-linecap="round" stroke-linejoin="round"/>
<path d="M195.23 238.59H149.308V234.851H195.23V238.59Z" fill="#9A9A9A" stroke="#1A2E35" stroke-width="0.601456" stroke-miterlimit="10" stroke-linecap="round" stroke-linejoin="round"/>
<path d="M219.726 150.746L190.061 260.187H186.438L216.104 150.746C217.198 146.709 214.689 143.428 210.508 143.428H184.945C180.771 143.428 176.476 146.709 175.382 150.746L145.717 260.187H142.094L171.759 150.746C173.378 144.771 179.705 139.931 185.893 139.931H211.456C217.644 139.931 221.346 144.771 219.726 150.746Z" fill="#767676"/>
<path d="M219.726 150.746L190.061 260.187H186.438L216.104 150.746C217.198 146.709 214.689 143.428 210.508 143.428H184.945C180.771 143.428 176.476 146.709 175.382 150.746L145.717 260.187H142.094L171.759 150.746C173.378 144.771 179.705 139.931 185.893 139.931H211.456C217.644 139.931 221.346 144.771 219.726 150.746Z" stroke="#1A2E35" stroke-width="0.601456" stroke-miterlimit="10" stroke-linecap="round" stroke-linejoin="round"/>
<path d="M220.198 150.781L212.836 177.956C212.228 180.199 209.853 182.016 207.53 182.016H165.525C163.204 182.016 161.814 180.199 162.421 177.956L169.789 150.781C170.397 148.544 172.772 146.722 175.094 146.722H217.094C219.416 146.722 220.805 148.544 220.198 150.781Z" fill="#0373BA"/>
<g opacity="0.199997">
<g opacity="0.699997">
<path d="M220.198 150.78L212.836 177.955C212.229 180.198 209.853 182.015 207.531 182.015H165.526C163.204 182.015 161.815 180.198 162.421 177.955L169.789 150.78C170.397 148.543 172.772 146.721 175.095 146.721H196.813C206.201 156.362 205.005 174.081 204.392 179.434C206.316 178.977 208.073 177.395 208.583 175.512L215.951 148.339C216.108 147.761 216.132 147.214 216.042 146.721H217.094C219.416 146.721 220.805 148.543 220.198 150.78Z" fill="black"/>
</g>
</g>
<path d="M220.198 150.781L212.836 177.956C212.228 180.199 209.853 182.016 207.53 182.016H165.525C163.204 182.016 161.814 180.199 162.421 177.956L169.789 150.781C170.397 148.544 172.772 146.722 175.094 146.722H217.094C219.416 146.722 220.805 148.544 220.198 150.781Z" stroke="#1A2E35" stroke-width="0.601456" stroke-miterlimit="10" stroke-linecap="round" stroke-linejoin="round"/>
<path d="M195.504 209.518L209.238 260.187H212.861L199.127 209.518H195.504Z" fill="#767676"/>
<path d="M195.504 209.518L209.238 260.187H212.861L199.127 209.518H195.504Z" stroke="#1A2E35" stroke-width="0.601456" stroke-miterlimit="10" stroke-linecap="round" stroke-linejoin="round"/>
<path d="M199.141 203.703V208.659H145.058V203.703C145.058 201.688 146.688 200.058 148.703 200.058H195.49C197.174 200.058 198.594 201.195 199.015 202.747C199.099 203.048 199.141 203.372 199.141 203.703Z" fill="#0373BA"/>
<g opacity="0.199997">
<g opacity="0.699997">
<path d="M199.015 202.747C197.265 204.804 194.124 206.896 188.724 208.659H145.058V203.703C145.058 201.688 146.688 200.058 148.703 200.058H195.49C197.174 200.058 198.594 201.195 199.015 202.747Z" fill="black"/>
</g>
</g>
<path d="M199.141 203.702V208.658H145.058V203.702C145.058 201.687 146.688 200.057 148.703 200.057H195.49C197.173 200.057 198.593 201.194 199.015 202.746C199.099 203.047 199.141 203.371 199.141 203.702Z" stroke="#1A2E35" stroke-width="0.601456" stroke-miterlimit="10" stroke-linecap="round" stroke-linejoin="round"/>
<path d="M200.978 211.789H143.691C143.125 211.789 142.665 211.33 142.665 210.763V208.165C142.665 207.598 143.125 207.139 143.691 207.139H200.978C201.545 207.139 202.004 207.598 202.004 208.165V210.763C202.004 211.33 201.545 211.789 200.978 211.789Z" fill="#9A9A9A"/>
<path d="M200.978 211.789H143.691C143.125 211.789 142.665 211.33 142.665 210.763V208.165C142.665 207.598 143.125 207.139 143.691 207.139H200.978C201.545 207.139 202.004 207.598 202.004 208.165V210.763C202.004 211.33 201.545 211.789 200.978 211.789Z" stroke="#1A2E35" stroke-width="0.601456" stroke-miterlimit="10" stroke-linecap="round" stroke-linejoin="round"/>
<path d="M143.301 207.31C140.709 209.95 153.273 251.439 153.273 251.439C151.902 252.63 149.881 253.195 147.969 253.448C145.202 253.815 142.67 253.526 142.67 253.526C142.67 253.526 124.663 209.848 129.618 199.01C134.574 188.172 165.326 183.21 165.326 183.21L166.638 179.962L182.546 177.724L185.174 197.205C185.174 197.205 182.564 197.458 178.637 197.963C168.105 199.317 148.065 202.462 143.301 207.31Z" fill="#1A2E35"/>
<g opacity="0.300003">
<path d="M153.273 251.44C151.903 252.631 149.881 253.197 147.969 253.449C144.474 240.458 135.578 205.79 138.953 201.55C143.109 196.317 163.679 191.559 163.679 191.559C163.763 188.889 170.975 186.483 170.975 186.483L178.637 197.965C168.105 199.318 148.065 202.464 143.301 207.312C140.709 209.952 153.273 251.44 153.273 251.44Z" fill="black"/>
</g>
<path d="M143.301 207.31C140.709 209.95 153.273 251.439 153.273 251.439C151.902 252.63 149.881 253.195 147.969 253.448C145.202 253.815 142.67 253.526 142.67 253.526C142.67 253.526 124.663 209.848 129.618 199.01C134.574 188.172 165.326 183.21 165.326 183.21L166.638 179.962L182.546 177.724L185.174 197.205C185.174 197.205 182.564 197.458 178.637 197.963C168.105 199.317 148.065 202.462 143.301 207.31Z" stroke="#1A2E35" stroke-width="0.601456" stroke-miterlimit="10" stroke-linecap="round" stroke-linejoin="round"/>
<path d="M134.403 168.019C131.76 167.563 150.557 151.087 150.557 151.087L159.619 157.187C159.619 157.187 144.196 168.047 141.773 168.344C139.351 168.642 134.403 168.019 134.403 168.019Z" fill="white"/>
<g opacity="0.199997">
<g opacity="0.699997">
<path d="M134.404 168.018C131.761 167.562 150.558 151.086 150.558 151.086L159.62 157.186C159.62 157.186 144.197 168.046 141.775 168.343C139.352 168.641 134.404 168.018 134.404 168.018Z" fill="black"/>
</g>
</g>
<path d="M134.403 168.02C131.76 167.564 150.557 151.088 150.557 151.088L159.619 157.188C159.619 157.188 144.196 168.048 141.774 168.345C139.351 168.643 134.403 168.02 134.403 168.02Z" stroke="#1A2E35" stroke-width="0.601456" stroke-miterlimit="10" stroke-linecap="round" stroke-linejoin="round"/>
<path d="M137.716 161.089C137.716 161.089 141.657 162.069 142.86 162.909C144.064 163.751 143.724 166.715 143.724 166.715C143.724 166.715 138.461 165.213 137.716 161.089Z" fill="white"/>
<path d="M137.716 161.089C137.716 161.089 141.657 162.069 142.86 162.909C144.064 163.751 143.724 166.715 143.724 166.715C143.724 166.715 138.461 165.213 137.716 161.089Z" stroke="#1A2E35" stroke-width="0.601456" stroke-miterlimit="10" stroke-linecap="round" stroke-linejoin="round"/>
<path d="M135.189 153.545L142.512 167.591H143.38L136.424 152.852L135.189 153.545Z" fill="#1A2E35"/>
<path d="M141.792 163.7C141.792 163.7 137.173 160.415 136.044 160.415C134.915 160.415 131.528 164.416 131.528 166.419C131.528 168.421 138.909 169.535 140.355 167.831C141.074 166.984 139.646 164.94 139.646 164.94C139.646 164.94 141.792 167.164 142.408 167.498C143.024 167.831 144.153 167.395 144.153 167.395C144.153 167.395 142.613 164.94 141.792 163.7Z" fill="white"/>
<path d="M141.792 163.7C141.792 163.7 137.173 160.415 136.044 160.415C134.915 160.415 131.528 164.416 131.528 166.419C131.528 168.421 138.909 169.535 140.355 167.831C141.074 166.984 139.646 164.94 139.646 164.94C139.646 164.94 141.792 167.164 142.408 167.498C143.024 167.831 144.153 167.395 144.153 167.395C144.153 167.395 142.613 164.94 141.792 163.7V163.7Z" stroke="#1A2E35" stroke-width="0.601456" stroke-miterlimit="10" stroke-linecap="round" stroke-linejoin="round"/>
<path d="M139.646 168.306C139.646 168.306 137.891 166.026 135.787 164.939" stroke="#1A2E35" stroke-width="0.601456" stroke-miterlimit="10" stroke-linecap="round" stroke-linejoin="round"/>
<path d="M139.645 164.94C139.645 164.94 138.046 163.546 136.968 163.238" stroke="#1A2E35" stroke-width="0.601456" stroke-miterlimit="10" stroke-linecap="round" stroke-linejoin="round"/>
<path d="M134.61 166.715C134.61 166.715 137.198 168.075 137.84 168.653" stroke="#1A2E35" stroke-width="0.601456" stroke-miterlimit="10" stroke-linecap="round" stroke-linejoin="round"/>
<path d="M156.446 143.882C154.078 145.533 143.465 156.447 143.465 156.447C143.465 156.447 148.439 162.104 152.798 162.926L164.615 157.188L156.446 143.882Z" fill="#0373BA"/>
<path d="M156.446 143.882C154.078 145.533 143.465 156.447 143.465 156.447C143.465 156.447 148.439 162.104 152.798 162.926L164.615 157.188L156.446 143.882Z" stroke="#1A2E35" stroke-width="0.601456" stroke-miterlimit="10" stroke-linecap="round" stroke-linejoin="round"/>
<g opacity="0.399994">
<path d="M156.446 143.882C154.078 145.533 143.465 156.447 143.465 156.447C143.465 156.447 148.439 162.104 152.798 162.926L164.615 157.188L156.446 143.882Z" fill="white"/>
<path d="M156.446 143.882C154.078 145.533 143.465 156.447 143.465 156.447C143.465 156.447 148.439 162.104 152.798 162.926L164.615 157.188L156.446 143.882Z" stroke="#1A2E35" stroke-width="0.601456" stroke-miterlimit="10" stroke-linecap="round" stroke-linejoin="round"/>
</g>
<path d="M150.735 247.037L155.732 260.186C155.732 260.186 156.565 263.573 141.456 262.503L133.128 261.789L150.735 247.037Z" fill="#0373BA"/>
<g opacity="0.300003">
<path d="M150.735 247.037L155.732 260.186C155.732 260.186 156.565 263.573 141.456 262.503L133.128 261.789L150.735 247.037Z" fill="black"/>
</g>
<path d="M150.735 247.037L155.732 260.186C155.732 260.186 156.565 263.573 141.456 262.503L133.128 261.789L150.735 247.037Z" stroke="#1A2E35" stroke-width="0.601456" stroke-miterlimit="10" stroke-linecap="round" stroke-linejoin="round"/>
<path d="M148.832 253.342C148.832 253.342 149.903 258.458 148.832 262.265C148.832 262.265 132.89 264.763 129.321 263.811C125.752 262.859 123.59 261.081 123.482 260.186C123.482 260.186 123.61 257.743 127.18 257.03C130.749 256.316 137.861 255.84 140.67 251.796C143.479 247.75 148.832 253.342 148.832 253.342Z" fill="#0373BA"/>
<path d="M148.832 253.342C148.832 253.342 149.903 258.458 148.832 262.265C148.832 262.265 132.89 264.763 129.321 263.811C125.752 262.859 123.59 261.081 123.482 260.186C123.482 260.186 123.61 257.743 127.18 257.03C130.749 256.316 137.861 255.84 140.67 251.796C143.479 247.75 148.832 253.342 148.832 253.342Z" stroke="#1A2E35" stroke-width="0.601456" stroke-miterlimit="10" stroke-linecap="round" stroke-linejoin="round"/>
<path d="M169.874 179.455C174.969 172.188 198.387 180.933 198.387 180.933C198.387 180.933 200.622 198.424 191.294 203.088C181.966 207.752 168.516 207.504 164.884 211.287L150.099 254.942C150.099 254.942 144.79 257.164 137.064 253.666C137.064 253.666 146.453 220.698 149.207 208.994C151.932 197.413 169.576 189.548 169.576 189.548C169.576 189.548 168.091 187.869 167.544 185.893" fill="#1A2E35"/>
<path d="M169.874 179.455C174.969 172.188 198.387 180.933 198.387 180.933C198.387 180.933 200.622 198.424 191.294 203.088C181.966 207.752 168.516 207.504 164.884 211.287L150.099 254.942C150.099 254.942 144.79 257.164 137.064 253.666C137.064 253.666 146.453 220.698 149.207 208.994C151.932 197.413 169.576 189.548 169.576 189.548C169.576 189.548 168.091 187.869 167.544 185.893" stroke="#1A2E35" stroke-width="0.601456" stroke-miterlimit="10" stroke-linecap="round" stroke-linejoin="round"/>
<path d="M193.587 196.173C192.836 196.838 192.047 197.457 191.223 198.027" stroke="white" stroke-width="0.601456" stroke-miterlimit="10" stroke-linecap="round" stroke-linejoin="round"/>
<path d="M195.504 181.36C197.414 185.508 197.564 190.78 194.886 194.621" stroke="white" stroke-width="0.601456" stroke-miterlimit="10" stroke-linecap="round" stroke-linejoin="round"/>
<path d="M190.169 182.015C190.169 182.015 189.679 185.213 191.106 186.482C192.534 187.751 196.905 188.398 196.905 188.398" stroke="white" stroke-width="0.601456" stroke-miterlimit="10" stroke-linecap="round" stroke-linejoin="round"/>
<path d="M170.967 182.169C170.967 182.169 171.167 185.359 169.874 185.206C168.581 185.053 168.517 186.48 168.517 186.48" stroke="white" stroke-width="0.601456" stroke-miterlimit="10" stroke-linecap="round" stroke-linejoin="round"/>
<path d="M156.755 146.332C156.559 145.486 156.446 144.66 156.446 143.881C156.446 143.881 163.681 137.796 172.954 137.827C184.019 137.866 190.785 141.346 193.496 146.182C197.787 153.834 198.387 180.932 198.387 180.932C198.387 180.932 170.621 185.215 166.637 179.96C165.946 179.05 166.475 172.592 166.475 172.592C166.475 172.592 163.366 164.439 162.71 158.113C162.71 158.113 161.514 156.502 160.167 154.204C159.278 152.689 158.324 150.875 157.605 149.026" fill="#0373BA"/>
<path d="M156.755 146.332C156.559 145.486 156.446 144.66 156.446 143.881C156.446 143.881 163.681 137.796 172.954 137.827C184.019 137.866 190.785 141.346 193.496 146.182C197.787 153.834 198.387 180.932 198.387 180.932C198.387 180.932 170.621 185.215 166.637 179.96C165.946 179.05 166.475 172.592 166.475 172.592C166.475 172.592 163.366 164.439 162.71 158.113C162.71 158.113 161.514 156.502 160.167 154.204C159.278 152.689 158.324 150.875 157.605 149.026" stroke="#1A2E35" stroke-width="0.601456" stroke-miterlimit="10" stroke-linecap="round" stroke-linejoin="round"/>
<g opacity="0.600006">
<path d="M156.755 146.331C156.559 145.485 156.446 144.659 156.446 143.88C156.446 143.88 163.681 137.795 172.954 137.826C184.019 137.865 190.785 141.345 193.496 146.181C197.787 153.833 198.387 180.931 198.387 180.931C198.387 180.931 170.621 185.214 166.637 179.959C165.946 179.049 166.475 172.591 166.475 172.591C166.475 172.591 163.366 164.438 162.71 158.112C162.71 158.112 161.514 156.501 160.167 154.203C159.278 152.688 158.324 150.874 157.605 149.025" fill="white"/>
<path d="M156.755 146.331C156.559 145.485 156.446 144.659 156.446 143.88C156.446 143.88 163.681 137.795 172.954 137.826C184.019 137.865 190.785 141.345 193.496 146.181C197.787 153.833 198.387 180.931 198.387 180.931C198.387 180.931 170.621 185.214 166.637 179.959C165.946 179.049 166.475 172.591 166.475 172.591C166.475 172.591 163.366 164.438 162.71 158.112C162.71 158.112 161.514 156.501 160.167 154.203C159.278 152.688 158.324 150.874 157.605 149.025" stroke="#1A2E35" stroke-width="0.601456" stroke-miterlimit="10" stroke-linecap="round" stroke-linejoin="round"/>
</g>
<path d="M167.39 152.852C167.39 152.852 171.63 169.303 170.978 172.919C170.654 174.71 171.595 176.569 171.595 176.569C171.595 176.569 169.659 178.474 170.978 181.009" stroke="#1A2E35" stroke-width="0.601456" stroke-miterlimit="10" stroke-linecap="round" stroke-linejoin="round"/>
<path d="M178.64 166.458C177.812 166.388 177.053 166.191 176.51 165.787L175.252 160.277C175.252 160.277 179.13 160.704 182.699 159.757L184.047 165.787C184.047 165.787 183.048 166.078 181.739 166.286" stroke="#1A2E35" stroke-width="0.601456" stroke-miterlimit="10" stroke-linecap="round" stroke-linejoin="round"/>
<path d="M164.378 154.989C164.378 154.989 160.795 139.615 169.874 137.828C178.953 136.041 180.851 140.297 180.314 143.18C179.598 147.021 172.054 156.446 172.054 156.446L167.39 152.851L164.378 154.989Z" fill="#0373BA"/>
<path d="M164.378 154.989C164.378 154.989 160.795 139.615 169.874 137.828C178.953 136.041 180.851 140.297 180.314 143.18C179.598 147.021 172.054 156.446 172.054 156.446L167.39 152.851L164.378 154.989Z" stroke="#1A2E35" stroke-width="0.601456" stroke-miterlimit="10" stroke-linecap="round" stroke-linejoin="round"/>
<g opacity="0.399994">
<path d="M164.378 154.989C164.378 154.989 160.795 139.615 169.874 137.828C178.953 136.041 180.851 140.297 180.314 143.18C179.598 147.021 172.054 156.446 172.054 156.446L167.39 152.851L164.378 154.989Z" fill="white"/>
<path d="M164.378 154.989C164.378 154.989 160.795 139.615 169.874 137.828C178.953 136.041 180.851 140.297 180.314 143.18C179.598 147.021 172.054 156.446 172.054 156.446L167.39 152.851L164.378 154.989Z" stroke="#1A2E35" stroke-width="0.601456" stroke-miterlimit="10" stroke-linecap="round" stroke-linejoin="round"/>
</g>
<path d="M152.434 202.447C152.434 202.447 158.313 195.655 171.595 190.526C171.595 190.526 168.153 189.471 167.39 188.044" stroke="white" stroke-width="0.601456" stroke-miterlimit="10" stroke-linecap="round" stroke-linejoin="round"/>
<path d="M145.517 223.259L140.135 242.779" stroke="white" stroke-width="0.601456" stroke-miterlimit="10" stroke-linecap="round" stroke-linejoin="round"/>
<path d="M187.062 166.988C187.062 166.988 189.482 171.053 199.376 170.677C199.376 170.677 196.658 167.58 192.613 166.481C188.568 165.384 187.062 166.988 187.062 166.988Z" fill="#0373BA"/>
<path d="M187.062 166.988C187.062 166.988 189.482 171.053 199.376 170.677C199.376 170.677 196.658 167.58 192.613 166.481C188.568 165.384 187.062 166.988 187.062 166.988Z" stroke="#1A2E35" stroke-width="0.601456" stroke-miterlimit="10" stroke-linecap="round" stroke-linejoin="round"/>
<path d="M148.629 168.622C148.629 168.622 150.927 165.06 153.036 164.347C155.144 163.633 161.324 163.57 162.276 163.545C163.227 163.52 180.227 167.838 188.198 170.494L187.504 157.188L198.219 158.033C198.219 158.033 197.787 174.277 196.122 178.575C194.456 182.872 192.07 181.828 187.996 180.073C171.978 173.171 162.594 168.365 161.724 168.622C160.854 168.88 148.629 168.622 148.629 168.622Z" fill="white"/>
<path d="M148.629 168.622C148.629 168.622 150.927 165.06 153.036 164.347C155.144 163.633 161.324 163.57 162.276 163.545C163.227 163.52 180.227 167.838 188.198 170.494L187.504 157.188L198.219 158.033C198.219 158.033 197.787 174.277 196.122 178.575C194.456 182.872 192.07 181.828 187.996 180.073C171.978 173.171 162.594 168.365 161.724 168.622C160.854 168.88 148.629 168.622 148.629 168.622Z" stroke="#1A2E35" stroke-width="0.601456" stroke-miterlimit="10" stroke-linecap="round" stroke-linejoin="round"/>
<path d="M184.828 149.453C184.548 150.616 184.444 151.79 184.564 152.832C185.039 156.995 187.061 166.989 187.061 166.989C187.061 166.989 197.056 168.416 199.376 170.677C199.376 170.677 201.021 157.429 197.67 150.728C194.319 144.027 190.841 143.268 190.841 143.268C188.647 142.725 186.656 144.773 185.516 147.399" fill="#0373BA"/>
<path d="M184.828 149.453C184.548 150.616 184.444 151.79 184.564 152.832C185.039 156.995 187.061 166.989 187.061 166.989C187.061 166.989 197.056 168.416 199.376 170.677C199.376 170.677 201.021 157.429 197.67 150.728C194.319 144.027 190.841 143.268 190.841 143.268C188.647 142.725 186.656 144.773 185.516 147.399" stroke="#1A2E35" stroke-width="0.601456" stroke-miterlimit="10" stroke-linecap="round" stroke-linejoin="round"/>
<g opacity="0.399994">
<path d="M184.828 149.453C184.548 150.616 184.444 151.79 184.564 152.832C185.039 156.995 187.061 166.989 187.061 166.989C187.061 166.989 197.056 168.416 199.376 170.677C199.376 170.677 201.021 157.429 197.67 150.728C194.319 144.027 190.841 143.268 190.841 143.268C188.647 142.725 186.656 144.773 185.516 147.399" fill="white"/>
<path d="M184.828 149.453C184.548 150.616 184.444 151.79 184.564 152.832C185.039 156.995 187.061 166.989 187.061 166.989C187.061 166.989 197.056 168.416 199.376 170.677C199.376 170.677 201.021 157.429 197.67 150.728C194.319 144.027 190.841 143.268 190.841 143.268C188.647 142.725 186.656 144.773 185.516 147.399" stroke="#1A2E35" stroke-width="0.601456" stroke-miterlimit="10" stroke-linecap="round" stroke-linejoin="round"/>
</g>
<path d="M155.474 154.597C155.474 154.597 157.436 156.369 160.59 157.188" stroke="#1A2E35" stroke-width="0.601456" stroke-miterlimit="10" stroke-linecap="round" stroke-linejoin="round"/>
<path d="M187.062 154.597C187.062 154.597 190.692 161.418 195.231 162.926" stroke="#1A2E35" stroke-width="0.601456" stroke-miterlimit="10" stroke-linecap="round" stroke-linejoin="round"/>
<path d="M163.681 207.14C163.681 207.14 164.347 207.644 164.616 209.465" stroke="white" stroke-width="0.601456" stroke-miterlimit="10" stroke-linecap="round" stroke-linejoin="round"/>
<path d="M161.205 209.465C161.205 209.465 163.046 209.579 164.148 211.163" stroke="white" stroke-width="0.601456" stroke-miterlimit="10" stroke-linecap="round" stroke-linejoin="round"/>
<path d="M141.317 202.447C141.317 202.447 143.244 203.421 142.826 206.18" stroke="white" stroke-width="0.601456" stroke-miterlimit="10" stroke-linecap="round" stroke-linejoin="round"/>
<path d="M139.284 204.82C139.284 204.82 141.913 206.378 142.102 207.778" stroke="white" stroke-width="0.601456" stroke-miterlimit="10" stroke-linecap="round" stroke-linejoin="round"/>
<path d="M169.747 187.99C169.747 187.99 175.6 188.812 176.909 187.99" stroke="white" stroke-width="0.601456" stroke-miterlimit="10" stroke-linecap="round" stroke-linejoin="round"/>
<path d="M167.39 152.188C167.39 152.188 166.645 150.415 166.776 147.72C166.801 147.233 166.849 146.721 166.939 146.187L165.923 144.575L164.618 142.5L166.127 136.455C166.127 136.455 175.739 138.307 176.472 140.989C177.2 143.684 167.39 152.188 167.39 152.188Z" fill="white"/>
<g opacity="0.199997">
<g opacity="0.699997">
<path d="M166.777 147.716C166.801 147.229 166.849 146.717 166.94 146.182L165.923 144.571C167.59 144.239 169.412 143.5 170.621 141.936C170.621 141.936 170.939 146.104 166.777 147.716Z" fill="black"/>
</g>
</g>
<path d="M167.39 152.188C167.39 152.188 166.645 150.415 166.776 147.72C166.801 147.233 166.849 146.721 166.939 146.187L165.923 144.575L164.618 142.5L166.127 136.455C166.127 136.455 175.739 138.307 176.472 140.989C177.2 143.684 167.39 152.188 167.39 152.188Z" stroke="#1A2E35" stroke-width="0.601456" stroke-miterlimit="10" stroke-linecap="round" stroke-linejoin="round"/>
<path d="M173.431 136.99C176.405 129.148 174.441 115.861 160.002 118.412C151.503 119.914 150.513 130.152 153.352 134.696C156.191 139.239 153.175 139.388 157.432 142.759C159.154 144.121 160.548 146.442 162.604 146.587C165.048 146.759 168.186 144.441 170.523 141.942" fill="white"/>
<path d="M173.431 136.99C176.405 129.148 174.441 115.861 160.002 118.412C151.503 119.914 150.513 130.152 153.352 134.696C156.191 139.239 153.175 139.388 157.432 142.759C159.154 144.121 160.548 146.442 162.604 146.587C165.048 146.759 168.186 144.441 170.523 141.942" stroke="#1A2E35" stroke-width="0.601456" stroke-miterlimit="10" stroke-linecap="round" stroke-linejoin="round"/>
<path d="M159.207 134.695C159.207 134.695 161.335 132.763 163.863 133.562" stroke="#1A2E35" stroke-width="0.601456" stroke-miterlimit="10" stroke-linecap="round" stroke-linejoin="round"/>
<path d="M155.215 134.695C155.215 134.695 154.491 133.164 152.458 132.831" stroke="#1A2E35" stroke-width="0.601456" stroke-miterlimit="10" stroke-linecap="round" stroke-linejoin="round"/>
<path d="M156.622 137.485C156.622 137.485 156.318 139.046 155.916 140.624C155.526 142.154 158.439 141.338 158.309 141.094" fill="white"/>
<path d="M156.622 137.485C156.622 137.485 156.318 139.046 155.916 140.624C155.526 142.154 158.439 141.338 158.309 141.094" stroke="#1A2E35" stroke-width="0.601456" stroke-miterlimit="10" stroke-linecap="round" stroke-linejoin="round"/>
<path d="M159.829 143.096C159.829 143.096 161.695 142.649 162.998 141.019" stroke="#1A2E35" stroke-width="0.601456" stroke-miterlimit="10" stroke-linecap="round" stroke-linejoin="round"/>
<path d="M162.167 136.676C162.286 137.113 162.106 137.543 161.764 137.637C161.423 137.729 161.049 137.451 160.93 137.013C160.811 136.576 160.991 136.146 161.332 136.053C161.674 135.96 162.048 136.239 162.167 136.676Z" fill="#1A2E35"/>
<path d="M155.73 136.542C155.849 136.979 155.761 137.384 155.533 137.446C155.306 137.508 155.025 137.204 154.905 136.767C154.786 136.33 154.874 135.926 155.102 135.863C155.329 135.801 155.611 136.105 155.73 136.542Z" fill="#1A2E35"/>
<path d="M164.529 126.643C164.529 126.643 162.288 132.497 156.756 132.364C156.756 132.364 158.675 130.903 159.206 129.504C159.206 129.504 154.949 133.721 150.691 131.579C146.434 129.437 148.503 119.487 155.052 115.543C161.601 111.599 168.253 112.661 170.516 116.418C170.516 116.418 175.09 115.998 177.102 122.718C178.898 128.717 176.024 137.846 173.198 137.952C168.827 138.115 167.947 133.368 167.947 133.368C167.947 133.368 165.327 131.033 164.529 126.643Z" fill="#1A2E35"/>
<path d="M164.529 126.643C164.529 126.643 162.288 132.497 156.756 132.364C156.756 132.364 158.675 130.903 159.206 129.504C159.206 129.504 154.949 133.721 150.691 131.579C146.434 129.437 148.503 119.487 155.052 115.543C161.601 111.599 168.253 112.661 170.516 116.418C170.516 116.418 175.09 115.998 177.102 122.718C178.898 128.717 176.024 137.846 173.198 137.952C168.827 138.115 167.947 133.368 167.947 133.368C167.947 133.368 165.327 131.033 164.529 126.643V126.643Z" stroke="#1A2E35" stroke-width="0.601456" stroke-miterlimit="10" stroke-linecap="round" stroke-linejoin="round"/>
<path d="M169.318 137.021C169.318 137.021 169.185 131.499 172.312 132.165C175.438 132.83 173.176 139.216 170.814 139.15" fill="white"/>
<path d="M169.318 137.021C169.318 137.021 169.185 131.499 172.312 132.165C175.438 132.83 173.176 139.216 170.814 139.15" stroke="#1A2E35" stroke-width="0.601456" stroke-miterlimit="10" stroke-linecap="round" stroke-linejoin="round"/>
<path d="M159.61 171.669H111.111C110.57 171.669 110.131 171.23 110.131 170.689V169C110.131 168.459 110.57 168.021 111.111 168.021H159.61C160.151 168.021 160.59 168.459 160.59 169V170.689C160.59 171.23 160.151 171.669 159.61 171.669Z" fill="#0373BA"/>
<path d="M159.61 171.669H111.111C110.57 171.669 110.131 171.23 110.131 170.689V169C110.131 168.459 110.57 168.021 111.111 168.021H159.61C160.151 168.021 160.59 168.459 160.59 169V170.689C160.59 171.23 160.151 171.669 159.61 171.669Z" stroke="#1A2E35" stroke-width="0.601456" stroke-miterlimit="10" stroke-linecap="round" stroke-linejoin="round"/>
<path d="M39.5394 241.489H19.0845L21.2269 260.187H37.397L39.5394 241.489Z" fill="#1A2E35"/>
<path d="M39.5394 241.489H19.0845L21.2269 260.187H37.397L39.5394 241.489Z" stroke="#1A2E35" stroke-width="0.601456" stroke-miterlimit="10" stroke-linecap="round" stroke-linejoin="round"/>
<path d="M41.9619 228.47C41.9619 228.47 33.0278 229.175 32.6555 235.766C32.6555 235.766 41.702 239.931 41.9619 228.47Z" fill="#0373BA"/>
<path d="M41.9619 228.47C41.9619 228.47 33.0278 229.175 32.6555 235.766C32.6555 235.766 41.702 239.931 41.9619 228.47Z" stroke="#1A2E35" stroke-width="0.601456" stroke-miterlimit="10" stroke-linecap="round" stroke-linejoin="round"/>
<path d="M24.2891 230.106C24.2891 230.106 19.2982 223.359 11.2339 226.819C11.2339 226.819 16.1586 234.977 24.2891 230.106Z" fill="#0373BA"/>
<path d="M24.2891 230.106C24.2891 230.106 19.2982 223.359 11.2339 226.819C11.2339 226.819 16.1586 234.977 24.2891 230.106Z" stroke="#1A2E35" stroke-width="0.601456" stroke-miterlimit="10" stroke-linecap="round" stroke-linejoin="round"/>
<path d="M11.9174 208.802C11.9174 208.802 10.4823 221.784 22.2985 218.209C22.2985 218.209 18.546 208.665 11.9174 208.802Z" fill="#0373BA"/>
<path d="M11.9174 208.802C11.9174 208.802 10.4823 221.784 22.2985 218.209C22.2985 218.209 18.546 208.665 11.9174 208.802Z" stroke="#1A2E35" stroke-width="0.601456" stroke-miterlimit="10" stroke-linecap="round" stroke-linejoin="round"/>
<path d="M26.4258 201.576C26.4258 201.576 17.0803 206.616 23.952 214.263C23.952 214.263 30.5061 208.801 26.4258 201.576Z" fill="#0373BA"/>
<path d="M26.4258 201.576C26.4258 201.576 17.0803 206.616 23.952 214.263C23.952 214.263 30.5061 208.801 26.4258 201.576Z" stroke="#1A2E35" stroke-width="0.601456" stroke-miterlimit="10" stroke-linecap="round" stroke-linejoin="round"/>
<path d="M37.9244 213.176C37.9244 213.176 27.7634 212.151 27.7634 221.557C27.7634 221.557 37.9244 221.957 37.9244 213.176Z" fill="#0373BA"/>
<path d="M37.9244 213.176C37.9244 213.176 27.7634 212.151 27.7634 221.557C27.7634 221.557 37.9244 221.957 37.9244 213.176Z" stroke="#1A2E35" stroke-width="0.601456" stroke-miterlimit="10" stroke-linecap="round" stroke-linejoin="round"/>
<path d="M28.3429 249.192C28.3429 249.192 32.9753 239.471 28.5287 229.57C24.0821 219.669 22.5785 211.331 24.9019 205.454" stroke="#1A2E35" stroke-width="0.601456" stroke-miterlimit="10" stroke-linecap="round" stroke-linejoin="round"/>
<path d="M34.5861 215.705C34.5861 215.705 28.4957 218.124 26.4255 224.397" stroke="#1A2E35" stroke-width="0.601456" stroke-miterlimit="10" stroke-linecap="round" stroke-linejoin="round"/>
<path d="M15.1294 213.996C15.1294 213.996 18.6491 218.79 24.612 218.272" stroke="#1A2E35" stroke-width="0.601456" stroke-miterlimit="10" stroke-linecap="round" stroke-linejoin="round"/>
<path d="M15.1294 228.198C15.1294 228.198 24.8772 231.007 28.7506 230.088" stroke="#1A2E35" stroke-width="0.601456" stroke-miterlimit="10" stroke-linecap="round" stroke-linejoin="round"/>
<path d="M39.0487 231.438C39.0487 231.438 34.6918 236.22 30.3096 236.146" stroke="#1A2E35" stroke-width="0.601456" stroke-miterlimit="10" stroke-linecap="round" stroke-linejoin="round"/>
<path d="M18.2046 243.714H40.4182V241.076H18.2046V243.714Z" fill="#1A2E35" stroke="#1A2E35" stroke-width="0.601456" stroke-miterlimit="10" stroke-linecap="round" stroke-linejoin="round"/>
<path d="M201.601 224.111C201.601 224.111 194.148 228.51 188.853 237.353C183.558 246.196 179.36 258.633 185.88 260.186L192.079 259.951L204.013 255.852L202.762 253.431C202.762 253.431 192.312 258.968 190.525 258.968C188.739 258.968 186.417 259.415 185.434 258.701C184.451 257.986 188.87 241.908 198.317 236.55C207.764 231.19 201.601 224.111 201.601 224.111Z" fill="#0373BA"/>
<g opacity="0.5">
<g opacity="0.699997">
<path d="M201.601 224.109C201.601 224.109 194.147 228.508 188.853 237.351C183.557 246.194 179.359 258.631 185.88 260.184L192.078 259.949L204.012 255.85L202.762 253.429C202.762 253.429 192.311 258.966 190.525 258.966C188.738 258.966 186.416 259.413 185.433 258.699C184.451 257.984 188.87 241.907 198.317 236.548C207.764 231.188 201.601 224.109 201.601 224.109Z" fill="black"/>
</g>
</g>
<path d="M201.601 224.111C201.601 224.111 194.148 228.51 188.853 237.353C183.558 246.196 179.36 258.633 185.88 260.186L192.079 259.951L204.013 255.852L202.763 253.431C202.763 253.431 192.312 258.968 190.525 258.968C188.739 258.968 186.417 259.415 185.434 258.701C184.451 257.986 188.87 241.908 198.317 236.55C207.764 231.19 201.601 224.111 201.601 224.111Z" stroke="#1A2E35" stroke-width="0.601456" stroke-miterlimit="10" stroke-linecap="round" stroke-linejoin="round"/>
<path d="M208.389 218.328C208.389 218.328 208.389 215.737 212.319 215.38C216.249 215.023 216.804 218.811 216.804 218.811H215.451C215.451 218.811 215.484 216.542 212.597 216.369C209.71 216.194 209.818 218.811 209.818 218.811L208.389 218.328Z" fill="#0373BA"/>
<path d="M208.389 218.328C208.389 218.328 208.389 215.737 212.319 215.38C216.249 215.023 216.804 218.811 216.804 218.811H215.451C215.451 218.811 215.484 216.542 212.597 216.369C209.71 216.194 209.818 218.811 209.818 218.811L208.389 218.328Z" stroke="#1A2E35" stroke-width="0.601456" stroke-miterlimit="10" stroke-linecap="round" stroke-linejoin="round"/>
<path d="M202.583 260.186C194.277 260.186 195.854 222.934 196.807 221.078C197.76 219.222 221.861 218.31 224.237 219.092C226.612 219.874 236.14 257.004 230.884 259.951L202.583 260.186Z" fill="#0373BA"/>
<g opacity="0.199997">
<g opacity="0.699997">
<path d="M202.584 260.188C194.277 260.188 195.854 222.937 196.807 221.081C197.76 219.224 221.861 218.313 224.237 219.095C226.612 219.876 236.141 257.007 230.884 259.954L202.584 260.188Z" fill="black"/>
</g>
</g>
<path d="M202.584 260.187C194.277 260.187 195.854 222.935 196.807 221.079C197.76 219.223 221.861 218.311 224.237 219.093C226.612 219.875 236.141 257.005 230.884 259.952L202.584 260.187Z" stroke="#1A2E35" stroke-width="0.601456" stroke-miterlimit="10" stroke-linecap="round" stroke-linejoin="round"/>
<path d="M196.807 221.078C199.815 221.723 201.546 233.914 205.593 237.018C209.64 240.123 228.727 239.452 230.884 237.018C233.042 234.585 228.824 220.902 225.753 218.811C222.681 216.721 220.504 218.753 211.875 217.793C199.079 216.37 196.807 221.078 196.807 221.078Z" fill="#0373BA"/>
<path d="M196.807 221.078C199.815 221.723 201.546 233.914 205.593 237.018C209.64 240.123 228.727 239.452 230.884 237.018C233.042 234.585 228.824 220.902 225.753 218.811C222.681 216.721 220.504 218.753 211.875 217.793C199.079 216.37 196.807 221.078 196.807 221.078Z" stroke="#1A2E35" stroke-width="0.601456" stroke-miterlimit="10" stroke-linecap="round" stroke-linejoin="round"/>
<path d="M218.711 228.087L222.247 230.976C222.457 231.148 222.478 231.46 222.294 231.659L219.545 234.63C219.367 234.821 219.066 234.832 218.876 234.651L215.365 231.323C215.169 231.136 215.171 230.822 215.369 230.637L218.094 228.107C218.266 227.947 218.528 227.938 218.711 228.087Z" fill="#0373BA"/>
<g opacity="0.199997">
<g opacity="0.699997">
<path d="M218.71 228.091L222.246 230.98C222.456 231.152 222.477 231.464 222.293 231.663L219.544 234.633C219.366 234.825 219.065 234.836 218.875 234.655L215.364 231.327C215.168 231.14 215.17 230.826 215.368 230.641L218.093 228.111C218.265 227.951 218.527 227.942 218.71 228.091Z" fill="black"/>
</g>
</g>
<path d="M218.71 228.086L222.246 230.975C222.456 231.147 222.478 231.459 222.294 231.658L219.545 234.629C219.367 234.82 219.066 234.831 218.876 234.65L215.365 231.322C215.168 231.135 215.17 230.821 215.369 230.636L218.093 228.106C218.265 227.946 218.528 227.937 218.71 228.086Z" stroke="#1A2E35" stroke-width="0.601456" stroke-miterlimit="10" stroke-linecap="round" stroke-linejoin="round"/>
<path d="M207.05 243.247C207.05 243.247 223.035 244.563 230.884 242.532C230.884 242.532 232.417 243.604 233.131 245.748C233.846 247.892 235.337 255.215 230.884 257.092C226.432 258.967 210.444 258.61 208.3 256.466C206.157 254.323 207.05 243.247 207.05 243.247Z" fill="#0373BA"/>
<g opacity="0.399994">
<g opacity="0.699997">
<path d="M207.05 243.244C207.05 243.244 223.034 244.56 230.884 242.529C230.884 242.529 232.417 243.601 233.131 245.745C233.846 247.889 235.337 255.212 230.884 257.089C226.432 258.964 210.444 258.607 208.3 256.463C206.156 254.32 207.05 243.244 207.05 243.244Z" fill="black"/>
</g>
</g>
<path d="M207.05 243.247C207.05 243.247 223.035 244.563 230.885 242.532C230.885 242.532 232.417 243.604 233.132 245.748C233.846 247.892 235.337 255.215 230.885 257.092C226.433 258.967 210.445 258.61 208.3 256.466C206.157 254.323 207.05 243.247 207.05 243.247Z" stroke="#1A2E35" stroke-width="0.601456" stroke-miterlimit="10" stroke-linecap="round" stroke-linejoin="round"/>
<path d="M207.05 243.248C207.05 243.248 208.926 248.309 209.908 249.083C210.891 249.857 231.655 249.857 233.956 247.982C236.258 246.106 233.104 242.712 230.885 242.533C230.885 242.533 216.339 244.231 207.05 243.248Z" fill="#0373BA"/>
<path d="M207.05 243.248C207.05 243.248 208.926 248.309 209.908 249.083C210.891 249.857 231.655 249.857 233.956 247.982C236.258 246.106 233.104 242.712 230.885 242.533C230.885 242.533 216.339 244.231 207.05 243.248Z" stroke="#1A2E35" stroke-width="0.601456" stroke-miterlimit="10" stroke-linecap="round" stroke-linejoin="round"/>
<path d="M200.351 242.176C200.351 242.176 200.887 252.806 201.959 255.217C201.959 255.217 199.516 256.647 196.807 255.217C194.099 253.788 194.545 244.631 195.081 244.654C195.617 244.677 200.351 242.176 200.351 242.176Z" fill="#0373BA"/>
<g opacity="0.399994">
<g opacity="0.699997">
<path d="M200.352 242.18C200.352 242.18 200.888 252.81 201.96 255.221C201.96 255.221 199.516 256.651 196.807 255.221C194.099 253.792 194.546 244.635 195.081 244.658C195.618 244.681 200.352 242.18 200.352 242.18Z" fill="black"/>
</g>
</g>
<path d="M200.351 242.178C200.351 242.178 200.887 252.808 201.959 255.219C201.959 255.219 199.516 256.649 196.807 255.219C194.098 253.79 194.545 244.633 195.081 244.656C195.617 244.679 200.351 242.178 200.351 242.178Z" stroke="#1A2E35" stroke-width="0.601456" stroke-miterlimit="10" stroke-linecap="round" stroke-linejoin="round"/>
<path d="M200.351 242.177L196.327 242.981C196.327 242.981 192.491 245.928 194.188 246.911C195.885 247.894 200.262 245.482 200.351 242.177Z" fill="#0373BA"/>
<path d="M200.351 242.177L196.327 242.981C196.327 242.981 192.491 245.928 194.188 246.911C195.885 247.894 200.262 245.482 200.351 242.177Z" stroke="#1A2E35" stroke-width="0.601456" stroke-miterlimit="10" stroke-linecap="round" stroke-linejoin="round"/>
</svg>
