<svg width="18" height="23" viewBox="0 0 18 23" fill="none" xmlns="http://www.w3.org/2000/svg">
<g clip-path="url(#clip0_885_9555)">
<path d="M16.8953 8.26387C16.7191 7.92441 16.3668 7.71387 15.9844 7.71387H9.25545L11.44 2.25254C11.5676 1.93564 11.5286 1.57449 11.3366 1.2909C11.1446 1.0073 10.7894 0.838867 10.4844 0.838867H2.92186C2.40495 0.838867 1.96839 1.22155 1.90007 1.73434L0.525067 12.0468C0.484767 12.3416 0.574739 12.6381 0.770762 12.8615C0.966785 13.085 1.24995 13.2139 1.54686 13.2139H7.83319L6.03795 21.5541C5.93457 22.0362 6.18701 22.5235 6.63952 22.7181C6.77186 22.8131 6.90936 22.8389 7.04686 22.8389C7.37853 22.8389 7.70084 22.6777 7.89807 22.3903L16.8356 9.32777C17.05 9.01152 17.0758 8.60332 16.8953 8.26387Z" fill="#1F69CA"/>
</g>
<defs>
<clipPath id="clip0_885_9555">
<rect width="16.5" height="22" fill="white" transform="translate(0.515625 0.838867)"/>
</clipPath>
</defs>
</svg>
