<svg width="25" height="25" viewBox="0 0 25 25" fill="none" xmlns="http://www.w3.org/2000/svg">
<path d="M20.2397 13.5205C20.2813 13.1872 20.3126 12.8538 20.3126 12.4997C20.3126 12.1455 20.2813 11.8122 20.2397 11.4788L22.4376 9.76009C22.6355 9.60384 22.6876 9.32259 22.5626 9.09342L20.4792 5.48926C20.3855 5.32259 20.2084 5.22884 20.0209 5.22884C19.9584 5.22884 19.8959 5.23926 19.8438 5.26009L17.2501 6.30176C16.7084 5.88509 16.1251 5.54134 15.4897 5.28092L15.0938 2.52051C15.0626 2.27051 14.8438 2.08301 14.5834 2.08301H10.4167C10.1563 2.08301 9.93758 2.27051 9.90633 2.52051L9.51049 5.28092C8.87508 5.54134 8.29174 5.89551 7.75008 6.30176L5.15633 5.26009C5.09383 5.23926 5.03133 5.22884 4.96883 5.22884C4.79174 5.22884 4.61466 5.32259 4.52091 5.48926L2.43758 9.09342C2.30216 9.32259 2.36466 9.60384 2.56258 9.76009L4.76049 11.4788C4.71883 11.8122 4.68758 12.1559 4.68758 12.4997C4.68758 12.8434 4.71883 13.1872 4.76049 13.5205L2.56258 15.2393C2.36466 15.3955 2.31258 15.6768 2.43758 15.9059L4.52091 19.5101C4.61466 19.6768 4.79174 19.7705 4.97924 19.7705C5.04174 19.7705 5.10424 19.7601 5.15633 19.7393L7.75008 18.6976C8.29174 19.1143 8.87508 19.458 9.51049 19.7184L9.90633 22.4788C9.93758 22.7288 10.1563 22.9163 10.4167 22.9163H14.5834C14.8438 22.9163 15.0626 22.7288 15.0938 22.4788L15.4897 19.7184C16.1251 19.458 16.7084 19.1038 17.2501 18.6976L19.8438 19.7393C19.9063 19.7601 19.9688 19.7705 20.0313 19.7705C20.2084 19.7705 20.3855 19.6768 20.4792 19.5101L22.5626 15.9059C22.6876 15.6768 22.6355 15.3955 22.4376 15.2393L20.2397 13.5205V13.5205ZM18.1772 11.7393C18.2188 12.0622 18.2292 12.2809 18.2292 12.4997C18.2292 12.7184 18.2084 12.9476 18.1772 13.2601L18.0313 14.4372L18.9584 15.1663L20.0834 16.0413L19.3542 17.3018L18.0313 16.7705L16.948 16.333L16.0105 17.0413C15.5626 17.3747 15.1355 17.6247 14.7084 17.8018L13.6042 18.2497L13.4376 19.4268L13.2292 20.833H11.7709L11.573 19.4268L11.4063 18.2497L10.3022 17.8018C9.85424 17.6143 9.43758 17.3747 9.02091 17.0622L8.07299 16.333L6.96883 16.7809L5.64591 17.3122L4.91674 16.0518L6.04174 15.1768L6.96883 14.4476L6.82299 13.2705C6.79174 12.9476 6.77091 12.708 6.77091 12.4997C6.77091 12.2913 6.79174 12.0518 6.82299 11.7393L6.96883 10.5622L6.04174 9.83301L4.91674 8.95801L5.64591 7.69759L6.96883 8.22884L8.05216 8.66634L8.98966 7.95801C9.43758 7.62467 9.86466 7.37467 10.2917 7.19759L11.3959 6.74967L11.5626 5.57259L11.7709 4.16634H13.2188L13.4167 5.57259L13.5834 6.74967L14.6876 7.19759C15.1355 7.38509 15.5522 7.62467 15.9688 7.93717L16.9167 8.66634L18.0209 8.21842L19.3438 7.68718L20.073 8.94759L18.9584 9.83301L18.0313 10.5622L18.1772 11.7393ZM12.5001 8.33301C10.198 8.33301 8.33341 10.1976 8.33341 12.4997C8.33341 14.8018 10.198 16.6663 12.5001 16.6663C14.8022 16.6663 16.6667 14.8018 16.6667 12.4997C16.6667 10.1976 14.8022 8.33301 12.5001 8.33301ZM12.5001 14.583C11.3542 14.583 10.4167 13.6455 10.4167 12.4997C10.4167 11.3538 11.3542 10.4163 12.5001 10.4163C13.6459 10.4163 14.5834 11.3538 14.5834 12.4997C14.5834 13.6455 13.6459 14.583 12.5001 14.583Z" fill="#0053C2"/>
</svg>
