<svg width="479" height="479" viewBox="0 0 479 479" fill="none" xmlns="http://www.w3.org/2000/svg">
<path d="M470.659 239.029C470.659 269.343 464.688 299.36 453.088 327.366C441.487 355.372 424.484 380.82 403.049 402.255C381.614 423.69 356.167 440.693 328.16 452.294C300.154 463.894 270.137 469.865 239.824 469.865" stroke="#08BD80" stroke-width="8.14" stroke-linecap="round" stroke-linejoin="round" stroke-dasharray="36.6 30.6"/>
<path d="M8.98834 239.029C8.98834 269.343 14.9591 299.36 26.5596 327.366C38.1602 355.372 55.1634 380.82 76.5985 402.255C98.0336 423.69 123.481 440.693 151.487 452.294C179.493 463.894 209.51 469.865 239.824 469.865" stroke="#C4262F" stroke-width="8.14" stroke-linecap="round" stroke-linejoin="round" stroke-dasharray="36.6 30.6"/>
<path d="M8.98834 239.029C8.98834 208.715 14.9591 178.698 26.5596 150.692C38.1602 122.686 55.1634 97.2387 76.5985 75.8036C98.0336 54.3685 123.481 37.3653 151.487 25.7647C179.493 14.1641 209.51 8.19341 239.824 8.19341" stroke="#0474BA" stroke-width="8.14" stroke-linecap="round" stroke-linejoin="round" stroke-dasharray="36.6 30.6"/>
<path d="M470.659 239.029C470.659 208.715 464.688 178.698 453.088 150.692C441.487 122.686 424.484 97.2387 403.049 75.8036C381.614 54.3685 356.167 37.3653 328.16 25.7647C300.154 14.1641 270.137 8.19341 239.824 8.19341" stroke="#FCAF3C" stroke-width="8.14" stroke-linecap="round" stroke-linejoin="round" stroke-dasharray="36.6 30.6"/>
</svg>
