<svg width="70" height="70" viewBox="0 0 70 70" fill="none" xmlns="http://www.w3.org/2000/svg">
<path d="M35 70C54.33 70 70 54.33 70 35C70 15.67 54.33 0 35 0C15.67 0 0 15.67 0 35C0 54.33 15.67 70 35 70Z" fill="#0474BA"/>
<path fill-rule="evenodd" clip-rule="evenodd" d="M24.7047 12.7048H45.2968C51.9108 12.7048 57.3511 18.1529 57.3511 24.7591V45.2407C57.3511 51.8547 51.903 57.295 45.2968 57.295H24.7047C18.0907 57.295 12.6504 51.8469 12.6504 45.2407V24.7591C12.6504 18.1451 18.0985 12.7048 24.7047 12.7048ZM46.9997 20.4878C47.676 20.4971 48.3219 20.7698 48.8001 21.248C49.2783 21.7262 49.5511 22.3722 49.5603 23.0484C49.5511 23.7246 49.2783 24.3706 48.8001 24.8488C48.3219 25.327 47.676 25.5997 46.9997 25.609C46.6622 25.6136 46.3272 25.5505 46.0144 25.4235C45.7017 25.2964 45.4176 25.108 45.1789 24.8693C44.9402 24.6306 44.7517 24.3465 44.6247 24.0337C44.4976 23.721 44.4345 23.3859 44.4391 23.0484C44.4345 22.7109 44.4976 22.3758 44.6247 22.0631C44.7517 21.7503 44.9402 21.4662 45.1789 21.2275C45.4176 20.9888 45.7017 20.8004 46.0144 20.6733C46.3272 20.5463 46.6622 20.4832 46.9997 20.4878ZM34.9455 22.8383H35.0529C41.6668 22.8383 47.2146 28.386 47.2146 34.9999C47.2146 41.7197 41.6668 47.1616 35.0529 47.1616H34.9455C28.3315 47.1616 22.8912 41.7135 22.8912 34.9999C22.8912 28.386 28.3393 22.8383 34.9455 22.8383ZM34.9455 26.999H35.0529C39.4269 26.999 43.0538 30.6259 43.0538 34.9999C43.0538 39.4798 39.4269 43.1067 35.0529 43.1067H34.9455C30.5715 43.1067 26.9446 39.4798 26.9446 34.9999C26.9446 30.6259 30.5715 26.999 34.9455 26.999ZM24.8121 16.5449H45.1863C47.392 16.5478 49.5066 17.4253 51.0662 18.985C52.6259 20.5447 53.5034 22.6592 53.5063 24.8649V45.1411C53.5034 47.3468 52.6259 49.4614 51.0662 51.0211C49.5066 52.5807 47.392 53.4582 45.1863 53.4611H24.8121C22.6063 53.4582 20.4918 52.5807 18.9321 51.0211C17.3724 49.4614 16.4949 47.3468 16.4921 45.1411V24.8649C16.4949 22.6592 17.3724 20.5447 18.9321 18.985C20.4918 17.4253 22.6063 16.5478 24.8121 16.5449Z" fill="white"/>
</svg>
