<svg width="70" height="70" viewBox="0 0 70 70" fill="none" xmlns="http://www.w3.org/2000/svg">
<path d="M35 70C54.33 70 70 54.33 70 35C70 15.67 54.33 0 35 0C15.67 0 0 15.67 0 35C0 54.33 15.67 70 35 70Z" fill="#0474BA"/>
<path fill-rule="evenodd" clip-rule="evenodd" d="M14.1777 34.133C23.8053 30.0952 35.4517 24.3498 45.5462 20.4677C54.864 17.051 54.7083 17.9772 53.3105 27.2996C52.2209 34.7541 50.9756 42.2071 49.7397 49.6616C49.2727 53.2324 47.4048 55.0972 43.5289 52.9227L31.417 44.3816C29.7048 42.9807 30.1717 41.8911 31.5727 40.4995L42.7537 29.9396C45.7112 26.982 44.3103 25.9018 40.8858 28.2273L25.5129 38.6363C23.3336 40.1929 21.0096 40.1929 18.5253 39.4146L13.2453 37.5466C9.82862 36.3014 12.467 34.9004 14.1793 34.1299L14.1777 34.133Z" fill="white"/>
</svg>
