<svg width="70" height="70" viewBox="0 0 70 70" fill="none" xmlns="http://www.w3.org/2000/svg">
<path d="M35 70C54.33 70 70 54.33 70 35C70 15.67 54.33 0 35 0C15.67 0 0 15.67 0 35C0 54.33 15.67 70 35 70Z" fill="#0474BA"/>
<path fill-rule="evenodd" clip-rule="evenodd" d="M35.386 28.7783C33.6613 19.6955 44.5823 14.2926 51.0204 20.8396C51.0204 20.8396 53.8939 20.0349 56.4233 18.4254C55.6829 20.5127 54.2668 22.2932 52.3995 23.4843C52.3995 23.4843 55.849 23.0173 57.3433 22.1052C57.3433 22.1052 55.8489 25.209 53.0891 26.3593C54.585 47.1725 32.1669 59.8199 14.0093 49.4716C14.0093 49.4716 22.9768 49.9386 26.7733 45.563C26.7733 45.563 21.2552 46.03 18.4954 39.3553C18.4954 39.3553 20.5641 40.1601 22.6344 39.1249C22.6344 39.1249 16.1963 38.0898 15.6219 30.3878C15.6219 30.3878 17.6906 31.9973 19.9913 31.4229C19.9913 31.4229 12.8636 27.1687 16.8874 19.4667C16.8874 19.4667 24.4758 29.1176 35.3969 28.7783H35.386Z" fill="white"/>
</svg>
