<svg width="70" height="70" viewBox="0 0 70 70" fill="none" xmlns="http://www.w3.org/2000/svg">
<path d="M35 70C54.33 70 70 54.33 70 35C70 15.67 54.33 0 35 0C15.67 0 0 15.67 0 35C0 54.33 15.67 70 35 70Z" fill="#C4262F"/>
<path fill-rule="evenodd" clip-rule="evenodd" d="M22.1482 20.192C26.3385 19.8573 31.2838 19.6892 35.0555 19.6892C38.8271 19.6892 43.6883 19.8573 47.9627 20.192C52.908 20.6107 55.4219 21.4497 56.0928 26.395C56.4275 28.6583 56.5956 31.759 56.5956 34.9438C56.5956 38.1286 56.4275 41.3134 56.0928 43.4926C55.4219 48.522 52.908 49.2754 47.9627 49.6957C43.6883 50.1144 38.8271 50.1984 35.0555 50.1984C31.2838 50.1984 26.3385 50.1144 22.1482 49.6957C17.2029 49.2769 14.6049 48.522 13.934 43.4926C13.6434 40.6524 13.5037 37.7988 13.5153 34.9438C13.5059 32.0889 13.6457 29.2354 13.934 26.395C14.6049 21.4497 17.2029 20.6123 22.1482 20.192Z" fill="white"/>
<path fill-rule="evenodd" clip-rule="evenodd" d="M30.6973 28.4902L41.9281 34.9439L30.6973 41.4816V28.4902Z" fill="#C4262F"/>
</svg>
