<svg width="207" height="232" viewBox="0 0 207 232" fill="none" xmlns="http://www.w3.org/2000/svg">
<path d="M24.5221 227.245C20.4768 233.53 12.3759 232.891 10.0808 225.402C5.71881 211.151 2.64977 196.536 0.910799 181.734C30.4328 90.4713 100.345 24.8286 193.281 0.988979C196.089 0.339569 198.07 2.49728 196.519 4.42456C190.826 11.3762 185.609 18.704 180.904 26.3578C180.474 26.996 180.193 27.7223 180.081 28.4835C179.969 29.2447 180.029 30.0212 180.258 30.756C180.486 31.4907 180.876 32.1649 181.4 32.7288C181.923 33.2928 182.567 33.7322 183.283 34.0146C191.016 37.4625 198.502 41.4381 205.689 45.9135C207.607 47.0761 206.926 49.789 204.641 50.3127C129.343 70.0882 73.7674 122.219 49.412 196.157C40.0115 205.71 32.1201 216.205 24.5221 227.245Z" fill="#FCB03E"/>
</svg>
