<svg width="232" height="207" viewBox="0 0 232 207" fill="none" xmlns="http://www.w3.org/2000/svg">
<path d="M226.769 182.831C233.057 186.874 232.418 194.97 224.925 197.264C210.666 201.624 196.043 204.691 181.234 206.429C89.9112 176.923 24.2437 107.049 0.391312 14.1622C-0.258453 11.355 1.90039 9.37539 3.8287 10.9256C10.7841 16.6154 18.1158 21.8295 25.7737 26.5324C26.4122 26.9622 27.139 27.2433 27.9006 27.355C28.6622 27.4668 29.4391 27.4064 30.1743 27.1783C30.9094 26.9501 31.5839 26.56 32.1482 26.0367C32.7124 25.5135 33.1521 24.8703 33.4346 24.1547C36.8775 16.4264 40.8483 8.94404 45.3189 1.76054C46.4822 -0.156262 49.1965 0.52457 49.7205 2.80798C69.5067 78.0661 121.665 133.612 195.643 157.954C205.212 167.349 215.713 175.237 226.769 182.831Z" fill="#0373BA" fill-opacity="0.5"/>
</svg>
