<svg width="232" height="207" viewBox="0 0 232 207" fill="none" xmlns="http://www.w3.org/2000/svg">
<path d="M5.27403 24.117C-1.01393 20.0739 -0.374664 11.9772 7.1185 9.68336C21.3774 5.32376 36.0001 2.25635 50.8094 0.518313C142.121 29.9826 207.799 99.8989 231.652 192.775C232.301 195.582 230.142 197.562 228.214 196.011C221.259 190.322 213.927 185.108 206.269 180.405C205.631 179.975 204.904 179.694 204.142 179.582C203.381 179.47 202.604 179.531 201.869 179.759C201.134 179.987 200.459 180.377 199.895 180.9C199.33 181.424 198.891 182.067 198.608 182.782C195.16 190.526 191.182 198.022 186.703 205.218C185.54 207.135 182.825 206.454 182.301 204.171C162.547 128.902 110.378 73.3569 36.3995 49.0145C26.8208 39.5876 16.3199 31.7004 5.27403 24.117Z" fill="#156C3C" fill-opacity="0.5"/>
</svg>
