<svg width="18" height="16" viewBox="0 0 18 16" fill="none" xmlns="http://www.w3.org/2000/svg">
<path d="M16.6219 4.79537C18.4605 6.65865 18.4605 9.65396 16.6219 11.5172L12.6844 15.5004C12.3574 15.8309 11.823 15.8344 11.4926 15.5075C11.1586 15.1805 11.1586 14.6462 11.4855 14.3122L15.4195 10.3325C16.6113 9.12662 16.6113 7.186 15.4195 5.98014L10.9301 1.43689C10.5996 1.10537 10.6031 0.571348 10.9371 0.243692C11.2676 -0.0839647 11.802 -0.0808006 12.0973 0.250723L16.6219 4.79537ZM1.05469e-05 6.94342V1.68756C1.05469e-05 0.755566 0.755508 5.87043e-05 1.6875 5.87043e-05H6.94336C7.54102 5.87043e-05 8.11055 0.237012 8.53242 0.659238L14.4387 6.56373C15.3176 7.44264 15.3176 8.86998 14.4387 9.74889L9.74883 14.4387C8.86992 15.3176 7.44258 15.3176 6.56367 14.4387L0.65918 8.53248C0.237059 8.11061 0 7.54107 0 6.94342H1.05469e-05ZM3.9375 2.81256C3.31629 2.81256 2.8125 3.31529 2.8125 3.93756C2.8125 4.55982 3.31629 5.06256 3.9375 5.06256C4.55977 5.06256 5.0625 4.55982 5.0625 3.93756C5.0625 3.31529 4.55977 2.81256 3.9375 2.81256Z" fill="#344563"/>
</svg>
