<svg width="67" height="68" viewBox="0 0 67 68" fill="none" xmlns="http://www.w3.org/2000/svg">
<g filter="url(#filter0_d_223_1279)">
<path d="M26.7383 61.7288C27.4314 62.1684 27.361 63.0486 26.535 63.298C24.9633 63.772 23.3515 64.1055 21.7191 64.2944C11.6528 61.0911 4.41443 53.4898 1.78523 43.3923C1.71361 43.0871 1.95157 42.8719 2.16413 43.0405C2.9308 43.659 3.73895 44.2259 4.58308 44.7372C4.65345 44.7839 4.73357 44.8145 4.81751 44.8267C4.90146 44.8388 4.98711 44.8322 5.06814 44.8074C5.14917 44.7826 5.22352 44.7402 5.28572 44.6833C5.34791 44.6264 5.39637 44.5565 5.42752 44.4787C5.80684 43.6369 6.24453 42.8219 6.7375 42.0395C6.86572 41.8311 7.16492 41.9051 7.22267 42.1534C9.4025 50.3365 15.153 56.3754 23.3063 59.0219C24.3621 60.0468 25.5196 60.9043 26.7383 61.7288Z" fill="#C42730"/>
<path d="M38.8113 6.0955C38.1181 5.65593 38.1886 4.77567 39.0146 4.52628C40.5863 4.0523 42.1981 3.71881 43.8305 3.52985C53.8956 6.73776 61.1351 14.3345 63.7643 24.4331C63.836 24.7383 63.598 24.9535 63.3854 24.785C62.6188 24.1664 61.8106 23.5995 60.9665 23.0882C60.8961 23.0415 60.816 23.0109 60.7321 22.9988C60.6481 22.9866 60.5625 22.9932 60.4814 23.018C60.4004 23.0428 60.3261 23.0852 60.2639 23.1421C60.2017 23.199 60.1532 23.2689 60.1221 23.3467C59.7418 24.187 59.3033 25.0005 58.8098 25.7814C58.6815 25.9898 58.3823 25.9158 58.3246 25.6675C56.1436 17.4855 50.3943 11.4466 42.2398 8.80007C41.1863 7.7786 40.0288 6.9211 38.8113 6.0955Z" fill="#FCB03E"/>
<path d="M4.55561 27.9633C4.10971 28.6466 3.21676 28.5771 2.96378 27.7629C2.48297 26.2135 2.14468 24.6246 1.95299 23.0153C5.20714 13.0921 12.9134 5.95659 23.1575 3.36476C23.4671 3.29415 23.6854 3.52873 23.5145 3.73827C22.887 4.49405 22.3119 5.29072 21.7932 6.12285C21.7458 6.19222 21.7148 6.2712 21.7025 6.35395C21.6902 6.43671 21.6968 6.52114 21.722 6.60102C21.7472 6.6809 21.7902 6.75419 21.8479 6.8155C21.9056 6.87682 21.9765 6.92459 22.0555 6.95529C22.9078 7.3294 23.733 7.76088 24.5252 8.24665C24.7366 8.37306 24.6616 8.668 24.4097 8.72494C16.1097 10.8749 9.98381 16.5426 7.29917 24.5812C6.26297 25.6208 5.39312 26.7619 4.55561 27.9633Z" fill="#0373BA"/>
<path d="M60.9931 39.8623C61.439 39.179 62.3319 39.2485 62.5849 40.0627C63.0657 41.6121 63.404 43.201 63.5957 44.8102C60.3462 54.7323 52.6353 61.869 42.3923 64.4608C42.0827 64.5314 41.8644 64.2968 42.0354 64.0873C42.6629 63.3315 43.2379 62.5349 43.7566 61.7027C43.804 61.6333 43.835 61.5544 43.8473 61.4716C43.8597 61.3889 43.853 61.3044 43.8278 61.2246C43.8027 61.1447 43.7597 61.0714 43.7019 61.0101C43.6442 60.9488 43.5733 60.901 43.4944 60.8703C42.6404 60.4956 41.8137 60.0634 41.02 59.5766C40.8086 59.4502 40.8837 59.1553 41.1355 59.0984C49.4366 56.9518 55.5626 51.283 58.2472 43.2444C59.2869 42.2036 60.1567 41.0625 60.9931 39.8623Z" fill="#156C3C"/>
</g>
<path d="M34.4935 52.7099H31.1016V52.1232L34.4935 51.5947V52.7099Z" fill="#FCB03E"/>
<path d="M36.0431 49.9956L29.809 51.0964L29.5781 49.7241L35.8294 48.6958L36.0431 49.9956Z" fill="#FCB03E"/>
<path d="M36.6958 47.0649L28.8191 48.454L28.625 47.1677L36.5248 45.7559L36.6958 47.0649Z" fill="#FCB03E"/>
<path d="M39.494 36.7875C37.3752 41.4006 36.5184 43.6739 36.5184 43.6739L29.0573 45.0597C29.0573 45.0597 28.1262 40.5923 26.9958 39.3027C26.9958 39.3027 22.9711 33.1403 26.9958 28.5363C31.1693 23.763 42.4627 25.9192 39.494 36.7875Z" fill="#FCB03E" stroke="#FCB03E" stroke-width="2.74721" stroke-linecap="round" stroke-linejoin="round"/>
<path d="M29.0406 35.4188C29.0406 35.4188 27.5674 30.0529 32.4882 29.3306" stroke="white" stroke-width="1.37361" stroke-linecap="square" stroke-linejoin="round"/>
<path d="M37.7788 26.7174C34.4313 24.4003 30.752 24.4011 27.4062 26.7174L27.4567 23.6189L32.5981 22.1211L37.7284 23.6189L37.7788 26.7174Z" fill="#0373BA"/>
<path d="M38.1592 23.6052L32.5971 21.9717L27.0342 23.6052L22.8906 21.0184L32.5313 15.9121L42.3027 21.0184L38.1592 23.6052Z" fill="#0373BA"/>
<path d="M40.3535 21.9834V26.8688" stroke="#0373BA" stroke-width="0.549443" stroke-linecap="round" stroke-linejoin="round"/>
<path d="M40.3257 25.9829L39.6074 26.6901" stroke="#0373BA" stroke-width="0.549443" stroke-linecap="round" stroke-linejoin="round"/>
<path d="M40.3789 25.9829L41.0971 26.6901" stroke="#0373BA" stroke-width="0.549443" stroke-linecap="round" stroke-linejoin="round"/>
<defs>
<filter id="filter0_d_223_1279" x="1.22204" y="3.35205" width="63.1047" height="62.2205" filterUnits="userSpaceOnUse" color-interpolation-filters="sRGB">
<feFlood flood-opacity="0" result="BackgroundImageFix"/>
<feColorMatrix in="SourceAlpha" type="matrix" values="0 0 0 0 0 0 0 0 0 0 0 0 0 0 0 0 0 0 127 0" result="hardAlpha"/>
<feOffset dy="0.549443"/>
<feGaussianBlur stdDeviation="0.274721"/>
<feComposite in2="hardAlpha" operator="out"/>
<feColorMatrix type="matrix" values="0 0 0 0 0 0 0 0 0 0 0 0 0 0 0 0 0 0 0.25 0"/>
<feBlend mode="normal" in2="BackgroundImageFix" result="effect1_dropShadow_223_1279"/>
<feBlend mode="normal" in="SourceGraphic" in2="effect1_dropShadow_223_1279" result="shape"/>
</filter>
</defs>
</svg>
