<svg width="19" height="15" viewBox="0 0 19 15" fill="none" xmlns="http://www.w3.org/2000/svg">
<g id="graduation-cap-solid 1" clip-path="url(#clip0_3175_3314)">
<path id="Vector" d="M18.2549 4.01023L9.97266 1.04539C9.57041 0.901538 9.13184 0.901538 8.72959 1.04539L0.470215 4.01023C0.188613 4.11277 0 4.3823 0 4.68699C0 4.99168 0.188613 5.26268 0.470215 5.36346L2.22861 5.99363C1.88027 6.45652 1.63506 6.99442 1.50937 7.5742C1.17334 7.71629 0.9375 8.05028 0.9375 8.437C0.9375 8.72859 1.07854 8.97869 1.2873 9.15067L0.559863 13.5159C0.512109 13.8013 0.732422 14.062 1.02217 14.062H2.72783C3.01749 14.062 3.23789 13.8019 3.19014 13.5162L2.4627 9.15096C2.67158 8.97899 2.8125 8.7036 2.8125 8.437C2.8125 8.13553 2.66092 7.87947 2.43984 7.7078C2.56441 7.18748 2.81719 6.71697 3.17051 6.32996L8.75449 8.32889C9.15674 8.47274 9.59531 8.47274 9.99756 8.32889L18.2798 5.36404C18.5625 5.26121 18.75 4.99168 18.75 4.68699C18.75 4.3823 18.5625 4.11277 18.2549 4.01023ZM10.2861 9.21043C10.0107 9.31883 9.69434 9.3745 9.375 9.3745C9.05508 9.3745 8.73955 9.3198 8.4375 9.21175L4.18359 7.68992L3.75 11.8735C3.75 13.0835 6.24316 14.062 9.375 14.062C12.4541 14.062 15 13.0835 15 11.8744L14.567 7.68787L10.2861 9.21043Z" fill="#0373BA"/>
</g>
<defs>
<clipPath id="clip0_3175_3314">
<rect width="18.75" height="15" fill="white"/>
</clipPath>
</defs>
</svg>
