<svg width="248" height="237" viewBox="0 0 248 237" fill="none" xmlns="http://www.w3.org/2000/svg">
<path d="M93.9593 154.969H60.5067C59.6794 154.969 59.0088 155.639 59.0088 156.467V159.624C59.0088 160.451 59.6794 161.122 60.5067 161.122H93.9593C94.7865 161.122 95.4572 160.451 95.4572 159.624V156.467C95.4572 155.639 94.7865 154.969 93.9593 154.969Z" stroke="#DEE5F8" stroke-width="0.755" stroke-miterlimit="10"/>
<path d="M113.888 154.906H100.274C99.2381 154.906 98.3984 155.745 98.3984 156.781V159.184C98.3984 160.219 99.2381 161.059 100.274 161.059H113.888C114.924 161.059 115.763 160.219 115.763 159.184V156.781C115.763 155.745 114.924 154.906 113.888 154.906Z" stroke="#DEE5F8" stroke-width="0.56625" stroke-miterlimit="10"/>
<path d="M105.571 71.7998H91.9565C90.9207 71.7998 90.0811 72.6395 90.0811 73.6752V76.0776C90.0811 77.1134 90.9207 77.9531 91.9565 77.9531H105.571C106.606 77.9531 107.446 77.1134 107.446 76.0776V73.6752C107.446 72.6395 106.606 71.7998 105.571 71.7998Z" stroke="#DEE5F8" stroke-width="0.755" stroke-miterlimit="10"/>
<path d="M126.113 71.7998H112.498C111.463 71.7998 110.623 72.6395 110.623 73.6752V76.0776C110.623 77.1134 111.463 77.9531 112.498 77.9531H126.113C127.148 77.9531 127.988 77.1134 127.988 76.0776V73.6752C127.988 72.6395 127.148 71.7998 126.113 71.7998Z" stroke="#DEE5F8" stroke-width="0.755" stroke-miterlimit="10"/>
<path d="M178.279 127.153H164.664C163.629 127.153 162.789 127.993 162.789 129.029V131.431C162.789 132.467 163.629 133.307 164.664 133.307H178.279C179.314 133.307 180.154 132.467 180.154 131.431V129.029C180.154 127.993 179.314 127.153 178.279 127.153Z" stroke="#DEE5F8" stroke-width="0.755" stroke-miterlimit="10"/>
<path d="M243.47 50.4937V52.2664C244.067 52.2664 244.736 52.428 245.184 53.6254C245.675 54.9421 245.699 57.0184 245.249 59.4751C244.743 62.2399 243.654 65.4306 242.102 68.6997C238.901 75.4404 233.927 82.1719 227.908 87.9537L227.016 68.2588L232.27 60.9836H236.701C237.512 60.9832 238.289 60.6612 238.863 60.0882C239.436 59.5152 239.759 58.7381 239.76 57.9274V53.7794C239.889 53.6194 240.051 53.4895 240.236 53.3989C241.847 52.4627 242.886 52.2664 243.475 52.2664V50.4937H243.47ZM243.475 50.4937C242.341 50.4937 240.962 50.927 239.345 51.8662C238.603 52.2966 237.986 52.9036 237.986 53.7598V57.9274C237.986 58.2678 237.851 58.5943 237.61 58.835C237.369 59.0757 237.043 59.2109 236.702 59.2109H231.366L225.219 67.7227L226.31 91.8178C246.957 73.9017 251.811 50.4952 243.472 50.4952L243.475 50.4937Z" fill="#FBC343"/>
<path d="M179.929 50.4937V52.2664C180.518 52.2664 181.557 52.4627 183.168 53.3989C183.352 53.4895 183.515 53.6194 183.644 53.7794V57.9274C183.645 58.7376 183.967 59.5143 184.54 60.0871C185.113 60.66 185.89 60.9824 186.7 60.9836H191.129L196.384 68.2588L195.491 87.9537C189.474 82.1719 184.5 75.4404 181.297 68.6997C179.745 65.4306 178.656 62.2399 178.15 59.4751C177.697 57.0199 177.723 54.9451 178.215 53.6254C178.668 52.4265 179.333 52.2664 179.929 52.2664V50.4937ZM179.929 50.4937C171.591 50.4937 176.444 73.8986 197.09 91.8163L198.182 67.7212L192.035 59.2094H186.698C186.358 59.2094 186.032 59.0741 185.791 58.8334C185.55 58.5927 185.415 58.2663 185.415 57.9259V53.7598C185.415 52.9036 184.799 52.2966 184.056 51.8662C182.44 50.927 181.062 50.4937 179.926 50.4937H179.929Z" fill="#FBC343"/>
<path d="M229.076 134.574H194.322V152.609H229.076V134.574Z" fill="#6F3428"/>
<path d="M204.401 123.93H218.998C220.26 123.93 221.47 124.431 222.363 125.323C223.255 126.216 223.756 127.426 223.756 128.688V134.577H199.642V128.688C199.642 128.063 199.765 127.444 200.004 126.867C200.243 126.289 200.594 125.765 201.036 125.323C201.478 124.881 202.002 124.53 202.58 124.291C203.157 124.052 203.776 123.929 204.401 123.93V123.93Z" fill="#FBC343"/>
<path d="M207.154 117.303H216.241C217.027 117.303 217.781 117.615 218.336 118.171C218.892 118.727 219.204 119.48 219.204 120.266V123.929H204.191V120.266C204.191 119.48 204.504 118.727 205.059 118.171C205.615 117.615 206.368 117.303 207.154 117.303V117.303Z" fill="#FBC343"/>
<path d="M215.887 115.451L216.355 117.303H207.046L207.509 115.451C208.128 113.023 208.128 110.479 207.509 108.052L207.046 106.197H216.355L215.887 108.052C215.685 108.852 215.549 109.668 215.479 110.49C215.337 112.155 215.475 113.832 215.887 115.451V115.451Z" fill="#FBC343"/>
<path opacity="0.3" d="M216.355 106.194L215.887 108.049C215.685 108.849 215.549 109.665 215.479 110.487C214.97 107.096 207.046 106.194 207.046 106.194H216.355Z" fill="#6F3428"/>
<path d="M219.206 99.5698V103.232C219.206 103.526 219.163 103.818 219.077 104.1C218.891 104.706 218.515 105.237 218.005 105.614C217.494 105.991 216.876 106.195 216.242 106.194H207.156C206.37 106.194 205.617 105.882 205.062 105.326C204.506 104.771 204.194 104.017 204.193 103.232V99.5698H219.206Z" fill="#FBC343"/>
<path opacity="0.3" d="M219.205 99.5698V103.232C219.205 103.526 219.162 103.818 219.077 104.1C215.068 100.415 204.883 100.307 204.191 100.302V99.5698H219.205Z" fill="#6F3428"/>
<path d="M235.015 55.3153L230.712 74.1073L225.936 94.9679C225.589 96.4836 224.739 97.8368 223.523 98.806C222.307 99.7751 220.798 100.303 219.243 100.303H204.154C202.605 100.303 201.101 99.7786 199.887 98.8158C198.673 97.8531 197.821 96.5082 197.468 94.9996C197.468 94.9875 197.468 94.9815 197.468 94.9694L188.382 55.3153C188.337 55.1236 188.332 54.9248 188.365 54.7308C188.399 54.5369 188.471 54.3516 188.578 54.1861C188.685 54.0206 188.823 53.8782 188.986 53.7674C189.149 53.6566 189.332 53.5796 189.525 53.5411C204.163 50.6191 219.233 50.6191 233.871 53.5411C234.064 53.5795 234.248 53.6563 234.41 53.767C234.573 53.8778 234.712 54.0201 234.819 54.1857C234.926 54.3512 234.998 54.5365 235.032 54.7305C235.066 54.9246 235.06 55.1235 235.015 55.3153V55.3153Z" fill="#FBC343"/>
<path opacity="0.6" d="M200.596 71.7727C201.594 71.6511 202.135 69.3574 201.805 66.6496C201.475 63.9418 200.398 61.8452 199.401 61.9668C198.403 62.0884 197.862 64.3821 198.192 67.0899C198.522 69.7977 199.599 71.8943 200.596 71.7727Z" fill="white"/>
<path opacity="0.1" d="M230.712 74.1099L225.936 94.9675C225.589 96.4832 224.739 97.8364 223.523 98.8055C222.307 99.7747 220.798 100.302 219.243 100.302H204.154C202.605 100.302 201.101 99.7782 199.887 98.8154C198.673 97.8527 197.821 96.5078 197.468 94.9992C214.052 93.9513 225.083 83.4386 230.712 74.1099Z" fill="#6F3428"/>
<g opacity="0.3">
<path opacity="0.3" d="M207.046 117.304C207.807 117.121 208.581 116.992 209.361 116.918C210.138 116.833 210.919 116.798 211.7 116.785C213.26 116.785 214.839 116.886 216.355 117.304C215.568 117.325 214.797 117.324 214.022 117.328L211.704 117.351C210.164 117.358 208.613 117.377 207.046 117.304Z" fill="#6F3428"/>
</g>
<g opacity="0.3">
<path opacity="0.3" d="M204.192 123.929C206.682 123.612 209.188 123.442 211.697 123.42C212.95 123.408 214.207 123.42 215.462 123.49C216.719 123.537 217.971 123.685 219.205 123.93C217.95 123.888 216.701 123.921 215.452 123.93L211.705 123.985C209.206 124.009 206.705 124.036 204.192 123.929Z" fill="#6F3428"/>
</g>
<path d="M204.951 25.3623L206.505 36.5484C206.516 36.6821 206.482 36.8157 206.408 36.928C206.335 37.0402 206.226 37.1249 206.099 37.1685C205.973 37.2121 205.835 37.2122 205.708 37.1689C205.581 37.1255 205.472 37.0411 205.398 36.9289L199.745 27.1487C199.664 27.0076 199.615 26.8502 199.602 26.688C199.589 26.5258 199.612 26.3628 199.67 26.2106C199.728 26.0585 199.819 25.9211 199.936 25.8084C200.054 25.6956 200.194 25.6103 200.349 25.5586L203.502 24.476C203.655 24.4226 203.819 24.404 203.98 24.4213C204.142 24.4387 204.297 24.4917 204.436 24.5765C204.575 24.6612 204.693 24.7757 204.782 24.9116C204.871 25.0475 204.929 25.2014 204.951 25.3623Z" fill="#FBC343"/>
<path d="M220.565 18.6656L214.453 37.8683C214.099 38.9812 212.47 38.7924 212.379 37.6282L210.821 17.5362C210.799 17.2473 210.841 16.9571 210.945 16.6864C211.048 16.4158 211.21 16.1713 211.419 15.9707C211.628 15.7701 211.879 15.6182 212.154 15.5259C212.428 15.4337 212.72 15.4034 213.008 15.4373L218.916 16.1213C219.204 16.1541 219.481 16.2502 219.728 16.4029C219.974 16.5555 220.184 16.7608 220.341 17.0041C220.499 17.2474 220.601 17.5225 220.64 17.8098C220.678 18.0971 220.653 18.3893 220.565 18.6656V18.6656Z" fill="#FBC343"/>
<path d="M227.701 30.4301L220.409 37.3837C220.32 37.4693 220.204 37.5211 220.081 37.5302C219.957 37.5393 219.835 37.5052 219.734 37.4337C219.633 37.3622 219.56 37.2578 219.528 37.1384C219.496 37.019 219.506 36.8922 219.558 36.7797L223.7 27.5943C223.759 27.4623 223.847 27.3451 223.958 27.2512C224.068 27.1573 224.198 27.0889 224.338 27.0511C224.478 27.0133 224.624 27.0069 224.767 27.0324C224.909 27.058 225.045 27.1147 225.163 27.1987L227.589 28.9186C227.708 29.0022 227.806 29.1109 227.877 29.237C227.949 29.3631 227.991 29.5035 228.002 29.648C228.013 29.7925 227.991 29.9375 227.939 30.0728C227.887 30.208 227.806 30.33 227.701 30.4301V30.4301Z" fill="#FBC343"/>
<path d="M63.6942 87.2273C66.9664 89.2658 70.4394 86.6233 70.8199 84.3885C71.3862 81.0544 68.3496 77.216 63.6942 80.0623C63.6942 80.0623 59.6595 75.3436 55.7396 80.0155C55.7396 80.0155 49.0518 83.3813 52.7634 89.2265C56.4749 95.0717 61.1333 87.1125 61.1333 87.1125L63.6942 87.2273Z" fill="#102048"/>
<path d="M66.0674 88.686C67.8613 91.093 68.6495 92.0413 68.3958 92.7932C68.1421 93.5452 66.3498 93.6071 66.3498 93.6071L66.0674 88.686Z" fill="#E28B6D"/>
<path d="M63.2834 96.1243L62.2566 98.6913L58.2853 108.624L51.8799 101.039L57.9274 92.0972L61.5363 94.8106L63.2834 96.1243Z" fill="#F9B384"/>
<path d="M63.2834 96.1242L62.2566 98.6912C61.0425 97.4524 59.9315 96.1167 58.9346 94.6973L61.5318 94.8105L63.2834 96.1242Z" fill="#102048"/>
<path d="M67.0023 94.8377C66.9464 96.1891 66.6777 97.2416 66.0178 97.7067C64.1197 99.0506 57.1466 93.3277 57.1466 93.3277L56.6709 85.2598L66.4753 85.9589C66.4934 87.253 66.6263 88.7101 66.7653 90.1491C66.9147 91.8252 67.0627 93.4817 67.0023 94.8377Z" fill="#F9B384"/>
<path d="M57.5801 89.2175C59.9795 89.6705 60.6001 87.0159 60.6001 87.0159C63.1671 85.4425 65.2917 89.0771 67.602 87.7226L67.9584 83.0839L57.7961 82.5645L54.1328 84.9246L55.1717 87.7558L57.5801 89.2175Z" fill="#102048"/>
<path d="M59.0821 89.2689C57.791 87.8027 55.7057 88.4309 55.5064 90.0043C55.3071 91.5777 56.6072 94.2323 58.7182 92.6921L59.0821 89.2689Z" fill="#F9B384"/>
<path d="M67.0024 94.8377C66.7914 94.8989 66.5727 94.9294 66.3531 94.9283C66.023 94.9501 65.6921 94.904 65.3806 94.7928C65.0692 94.6815 64.7839 94.5075 64.5424 94.2815C64.3009 94.0555 64.1084 93.7823 63.9768 93.4789C63.8452 93.1755 63.7773 92.8483 63.7773 92.5176C63.7773 92.1868 63.8452 91.8596 63.9768 91.5562C64.1084 91.2528 64.3009 90.9796 64.5424 90.7536C64.7839 90.5276 65.0692 90.3536 65.3806 90.2424C65.6921 90.1311 66.023 90.085 66.3531 90.1068C66.4909 90.106 66.6284 90.1187 66.7638 90.1446C66.9148 91.8252 67.0628 93.4817 67.0024 94.8377Z" fill="#FC8879"/>
<path d="M58.2021 90.3139C58.1197 90.1434 57.9962 89.9961 57.8427 89.8851C57.6964 89.769 57.5286 89.6828 57.349 89.6314C57.1839 89.5762 57.0046 89.5815 56.8431 89.6465C56.6774 89.7296 56.539 89.8585 56.4445 90.018L56.3418 89.9757C56.3669 89.863 56.4141 89.7563 56.4807 89.662C56.5474 89.5676 56.632 89.4874 56.7299 89.4261C56.8358 89.3697 56.9519 89.3349 57.0714 89.3237C57.1909 89.3126 57.3114 89.3253 57.426 89.3611C57.6432 89.4277 57.8411 89.5459 58.0028 89.7054C58.1692 89.8597 58.2761 90.0676 58.3048 90.2928L58.2021 90.3139Z" fill="#102048"/>
<path d="M67.5977 114.666C69.7117 112.204 69.9261 108.689 70.7279 107.967C72.2228 106.625 71.5463 110.732 71.5463 110.732C71.5463 110.732 72.5187 107.967 74.8547 107.342C76.3843 106.931 76.6577 108.355 76.5248 109.545C76.3043 111.522 75.655 113.784 74.0574 115.098C73.3779 115.656 72.5082 116.084 72.0174 116.837C71.7284 117.271 71.5074 117.747 71.3621 118.247L67.5977 114.666Z" fill="#F9B384"/>
<path d="M67.2627 114.747L68.2472 113.419L72.2502 116.98L71.1313 118.596L67.2627 114.747Z" fill="#708CD5"/>
<path d="M54.6055 127.802L67.3438 113.608L72.0731 118.25C68.6907 125.941 64.2106 130.877 57.0275 134.65L54.6055 127.802Z" fill="#102048"/>
<path d="M72.7314 110.614C72.9743 110.579 73.2222 110.606 73.4517 110.693C73.6744 110.767 73.8886 110.864 74.0904 110.984C74.292 111.1 74.4821 111.235 74.6582 111.387C74.8527 111.539 75.008 111.734 75.1112 111.958L74.9738 112.011C74.8094 111.88 74.6363 111.761 74.4559 111.653C74.2701 111.535 74.0844 111.419 73.8957 111.307C73.7069 111.196 73.5166 111.088 73.3264 110.986C73.1401 110.885 72.9417 110.809 72.736 110.759L72.7314 110.614Z" fill="#E28B6D"/>
<path d="M71.5109 111.477C71.786 111.572 72.0277 111.744 72.207 111.973C72.3866 112.227 72.4638 112.538 72.4229 112.846C72.3848 113.138 72.2736 113.416 72.0998 113.654C71.9406 113.903 71.7016 114.091 71.4218 114.187L71.375 114.047C71.56 113.889 71.711 113.695 71.8189 113.477C71.9361 113.268 72.0143 113.039 72.05 112.802C72.0816 112.577 72.0431 112.348 71.9397 112.145C71.8082 111.938 71.6398 111.755 71.443 111.608L71.5109 111.477Z" fill="#E28B6D"/>
<path d="M27.373 127.803L13.8057 124.105C13.8709 123.866 13.9826 123.642 14.1344 123.446C14.2862 123.25 14.4751 123.085 14.6903 122.962C14.9055 122.84 15.1429 122.76 15.3888 122.729C15.6347 122.698 15.8844 122.715 16.1235 122.78L26.0487 125.486C26.2879 125.552 26.5119 125.663 26.7078 125.815C26.9038 125.967 27.068 126.156 27.191 126.371C27.3139 126.586 27.3933 126.824 27.4245 127.069C27.4558 127.315 27.4383 127.565 27.373 127.804V127.803Z" fill="#708CD5"/>
<path d="M22.1338 201.948C22.1338 201.948 24.9077 207.849 32.888 205.952L29.039 200.847L22.1338 201.948Z" fill="#1F3C88"/>
<path d="M24.8413 201.222L22.001 207.612L25.101 212.5L28.9364 209.38L30.6321 202.348L24.8413 201.222Z" fill="#F9B384"/>
<path d="M22.0016 207.612L28.937 209.382L32.8705 219.117C32.9512 219.318 32.9693 219.538 32.9223 219.75C32.8754 219.961 32.7656 220.154 32.6075 220.302C32.4493 220.45 32.2501 220.547 32.0359 220.58C31.8218 220.612 31.6027 220.58 31.4074 220.486L19.1024 214.537C18.6738 214.33 18.3433 213.963 18.1816 213.516C18.0199 213.068 18.0398 212.575 18.2371 212.142L18.3459 211.903C19.1396 210.159 20.4061 208.673 22.0016 207.612V207.612Z" fill="#1F3C88"/>
<path d="M22.0016 207.612L28.937 209.382L32.8705 219.117C32.9512 219.318 32.9693 219.538 32.9223 219.75C32.8754 219.961 32.7656 220.154 32.6075 220.302C32.4493 220.45 32.2501 220.547 32.0359 220.58C31.8218 220.612 31.6027 220.58 31.4074 220.486L19.1024 214.537C18.6738 214.33 18.3433 213.963 18.1816 213.516C18.0199 213.068 18.0398 212.575 18.2371 212.142L18.3459 211.903C19.1396 210.159 20.4061 208.673 22.0016 207.612V207.612Z" fill="#1F3C88"/>
<path d="M30.1801 212.569L28.4609 213.532L28.6454 213.861L30.3646 212.898L30.1801 212.569Z" fill="#ACBFEE"/>
<path d="M31.0501 214.709L29.332 215.674L29.5169 216.003L31.235 215.039L31.0501 214.709Z" fill="#ACBFEE"/>
<path d="M31.369 136.068C30.0266 139.226 28.2056 144.082 31.2588 149.914C32.5192 152.272 32.8942 155.004 32.3158 157.615L22.1309 201.945L32.8896 205.954L54.8963 141.758L31.369 136.068Z" fill="#102048"/>
<path d="M60.1412 104.146C62.3141 110.385 62.376 121.036 58.2461 132.274L51.877 134.086L54.444 113.27L60.1412 104.146Z" fill="#708CD5"/>
<path d="M53.1494 98.7878L54.8935 94.9268C54.8935 94.9268 59.8357 98.3711 62.4314 102.477L59.4114 108.174L53.1494 98.7878Z" fill="#708CD5"/>
<path d="M54.4338 131.451C37.5218 130.907 28.6581 140.39 28.723 140.02C31.441 130.786 34.008 123.883 36.3032 118.729C40.4633 109.378 43.7324 105.769 45.4312 104.41C46.2617 103.741 46.7177 103.614 46.7177 103.614L54.4187 97.1616C55.1046 97.531 55.7363 97.9934 56.2956 98.5357C58.467 100.574 59.7082 103.39 60.0027 106.35C61.1608 117.936 54.4338 131.451 54.4338 131.451Z" fill="#1F3C88"/>
<path d="M49.55 104.774C47.0811 106.083 42.7912 112.928 36.3027 118.729C40.4628 109.378 43.7319 105.769 45.4307 104.41L49.55 104.774Z" fill="#102048"/>
<path d="M21.732 119.146L19.014 123.015C19.014 123.015 18.6713 124.594 17.9404 125.228C17.9404 125.228 18.2666 126.849 19.541 127.416C20.9952 128.066 22.789 128.031 23.9533 126.37C25.1175 124.709 25.2685 119.786 25.2685 119.786L21.732 119.146Z" fill="#F9B384"/>
<path d="M19.8534 119.943C19.8534 120.196 19.3506 121.579 19.3506 121.579L25.2698 122.397V119.78L19.8534 119.943Z" fill="#708CD5"/>
<path d="M54.4257 97.1616C54.4257 97.1616 43.1581 95.4719 33.9984 100.215C32.7093 100.889 31.5255 101.749 30.4846 102.765C26.0649 107.048 22.1162 111.265 19.1279 120.221L26.166 121.371L33.263 110.886C33.8739 109.988 34.8018 109.355 35.8602 109.113C39.6171 108.256 48.6258 106.149 50.0391 105.325L54.4257 97.1616Z" fill="#1F3C88"/>
<path d="M64.2979 164.571C64.2979 164.571 68.5364 170.218 75.5564 167.382L70.8754 162.399L64.2979 164.571Z" fill="#1F3C88"/>
<path d="M66.8985 163.088L64.0566 169.479L67.1582 174.367L70.9921 171.247L72.6878 164.215L66.8985 163.088Z" fill="#F9B384"/>
<path d="M64.0563 169.471L70.9917 171.241L74.9252 180.976C75.0059 181.177 75.024 181.398 74.977 181.609C74.9301 181.821 74.8203 182.013 74.6622 182.161C74.504 182.309 74.3048 182.406 74.0906 182.439C73.8764 182.472 73.6574 182.439 73.462 182.345L61.1571 176.396C60.7285 176.189 60.398 175.823 60.2363 175.375C60.0746 174.927 60.0945 174.434 60.2918 174.001L60.4005 173.763C61.1943 172.019 62.4607 170.532 64.0563 169.471V169.471Z" fill="#1F3C88"/>
<path d="M72.2133 174.26L70.4941 175.223L70.6787 175.552L72.3978 174.589L72.2133 174.26Z" fill="#ACBFEE"/>
<path d="M73.0794 176.403L71.3613 177.368L71.5462 177.697L73.2643 176.732L73.0794 176.403Z" fill="#ACBFEE"/>
<path d="M31.3691 136.068C33.681 134.468 48.4321 130.601 57.7941 130.884C68.1995 131.199 76.5498 132.381 79.9443 140C83.3388 147.62 75.5653 167.381 75.5653 167.381L64.2977 164.571L67.0157 146.252C67.0157 146.252 52.7583 148.049 45.9633 148.124L31.3691 136.068Z" fill="#102048"/>
<path d="M54.8937 147.638C53.734 147.638 52.6211 147.94 51.4735 148.169C50.3213 148.398 49.1479 148.504 47.9733 148.484C46.8047 148.453 45.6387 148.357 44.4807 148.197C43.9039 148.114 43.3301 148.012 42.7548 147.92C42.184 147.803 41.6117 147.692 41.0439 147.568L41.0711 147.417C41.6479 147.488 42.2217 147.568 42.7971 147.655C43.3724 147.741 43.9477 147.806 44.523 147.864C45.6736 147.99 46.8272 148.085 47.9794 148.105C49.131 148.131 50.2824 148.046 51.4176 147.851C51.9884 147.759 52.5577 147.641 53.139 147.559C53.7219 147.487 54.3098 147.462 54.8967 147.485L54.8937 147.638Z" fill="#708CD5"/>
<path d="M33.393 136.68L29.8173 149.798L29.399 151.328C29.1864 152.105 28.6742 152.765 27.9748 153.165C27.2755 153.564 26.4462 153.669 25.6693 153.457L2.25373 147.074C1.47718 146.863 0.81655 146.351 0.417031 145.652C0.0175118 144.953 -0.0882015 144.124 0.123123 143.348L2.47872 134.715L4.11707 128.705C4.32834 127.929 4.8395 127.268 5.5381 126.868C6.2367 126.468 7.06552 126.362 7.84224 126.573L31.2623 132.956C32.0378 133.169 32.6974 133.68 33.0967 134.378C33.496 135.076 33.6025 135.903 33.393 136.68V136.68Z" fill="#ACBFEE"/>
<path d="M11.7217 131.756L13.7994 124.135C13.8647 123.896 13.9764 123.672 14.1282 123.476C14.2799 123.28 14.4688 123.116 14.6841 122.993C14.8993 122.87 15.1367 122.79 15.3826 122.759C15.6285 122.728 15.8781 122.745 16.1173 122.811V122.811L13.5503 132.253L11.7217 131.756Z" fill="#708CD5"/>
<path d="M23.5967 134.479L26.0489 125.484C26.2881 125.55 26.512 125.661 26.708 125.813C26.904 125.965 27.0682 126.154 27.1911 126.369C27.3141 126.584 27.3935 126.822 27.4247 127.068C27.456 127.313 27.4384 127.563 27.3732 127.802L25.4102 134.976L23.5967 134.479Z" fill="#708CD5"/>
<path d="M12.4978 134.121C13.3951 134.121 14.1226 133.393 14.1226 132.496C14.1226 131.599 13.3951 130.871 12.4978 130.871C11.6005 130.871 10.873 131.599 10.873 132.496C10.873 133.393 11.6005 134.121 12.4978 134.121Z" fill="#102048"/>
<path d="M24.3972 136.757C25.2946 136.757 26.022 136.029 26.022 135.132C26.022 134.235 25.2946 133.507 24.3972 133.507C23.4999 133.507 22.7725 134.235 22.7725 135.132C22.7725 136.029 23.4999 136.757 24.3972 136.757Z" fill="#102048"/>
<path opacity="0.15" d="M29.8183 149.797L29.4 151.327C29.1875 152.104 28.6752 152.764 27.9758 153.163C27.2765 153.563 26.4472 153.668 25.6703 153.456L2.25476 147.073C1.47826 146.862 0.817543 146.35 0.417756 145.652C0.0179699 144.953 -0.0881779 144.125 0.122636 143.348L3.24985 131.887C2.4571 142.721 19.3495 149.76 29.8183 149.797Z" fill="#102048"/>
<path opacity="0.2" d="M233.815 153.107V169.137L57.9516 236.115H16.6455V220.698H57.5816L57.6269 212.204L57.6767 203.687H98.7971V186.682H139.733V170.102H180.674V153.092L233.815 153.107Z" fill="black"/>
<path d="M139.291 187.123H98.9162C98.6986 187.122 98.4901 187.035 98.3362 186.881C98.1823 186.727 98.0955 186.519 98.0947 186.301V186.301C98.0955 186.084 98.1823 185.875 98.3362 185.721C98.4901 185.568 98.6986 185.481 98.9162 185.48H139.291C139.508 185.481 139.717 185.568 139.871 185.721C140.024 185.875 140.111 186.084 140.112 186.301V186.301C140.111 186.519 140.024 186.727 139.871 186.881C139.717 187.035 139.508 187.122 139.291 187.123V187.123Z" fill="#ACBFEE"/>
<path d="M180.313 170.764H139.939C139.721 170.763 139.513 170.676 139.359 170.522C139.205 170.369 139.118 170.16 139.117 169.943V169.943C139.118 169.725 139.205 169.516 139.359 169.363C139.513 169.209 139.721 169.122 139.939 169.121H180.313C180.531 169.122 180.739 169.209 180.893 169.363C181.047 169.516 181.134 169.725 181.134 169.943V169.943C181.134 170.16 181.047 170.369 180.893 170.522C180.739 170.676 180.531 170.763 180.313 170.764Z" fill="#ACBFEE"/>
<path d="M233.84 153.536H180.598C180.38 153.535 180.172 153.448 180.018 153.294C179.864 153.141 179.777 152.932 179.776 152.715V152.715C179.777 152.497 179.864 152.288 180.018 152.135C180.172 151.981 180.38 151.894 180.598 151.893H233.84C234.058 151.894 234.267 151.981 234.42 152.135C234.574 152.288 234.661 152.497 234.662 152.715V152.715C234.661 152.932 234.574 153.141 234.42 153.294C234.267 153.448 234.058 153.535 233.84 153.536V153.536Z" fill="#ACBFEE"/>
<path d="M98.3198 204.034H57.9455C57.7278 204.033 57.5194 203.946 57.3655 203.792C57.2116 203.638 57.1248 203.43 57.124 203.212V203.212C57.1248 202.994 57.2116 202.786 57.3655 202.632C57.5194 202.478 57.7278 202.391 57.9455 202.391H98.3198C98.5375 202.391 98.7459 202.478 98.8998 202.632C99.0537 202.786 99.1405 202.994 99.1413 203.212V203.212C99.1405 203.43 99.0537 203.638 98.8998 203.792C98.7459 203.946 98.5375 204.033 98.3198 204.034V204.034Z" fill="#ACBFEE"/>
<path d="M57.1919 221.04H16.8175C16.5999 221.04 16.3914 220.953 16.2376 220.799C16.0837 220.645 15.9969 220.437 15.9961 220.219V220.219C15.9969 220.001 16.0837 219.793 16.2376 219.639C16.3914 219.485 16.5999 219.398 16.8175 219.397H57.1919C57.4095 219.398 57.618 219.485 57.7719 219.639C57.9258 219.793 58.0126 220.001 58.0134 220.219V220.219C58.0126 220.437 57.9258 220.645 57.7719 220.799C57.618 220.953 57.4095 221.04 57.1919 221.04V221.04Z" fill="#ACBFEE"/>
<path d="M102.274 130.664L102.048 128.121L106.095 127.763C116.341 126.875 126.092 122.961 134.11 116.519C142.127 110.077 148.049 101.397 151.123 91.5819L156.301 75.1592L158.73 75.9248L153.552 92.3475C150.327 102.644 144.115 111.749 135.704 118.506C127.293 125.264 117.063 129.369 106.314 130.3L102.274 130.664Z" fill="#DEE5F8"/>
<path d="M157.589 90.738L156.483 78.6489L148.267 88.171L146.337 86.507L158.473 72.4443L160.126 90.5054L157.589 90.738Z" fill="#DEE5F8"/>
<path d="M63.3748 42.5341C63.3638 42.9909 63.1976 43.4302 62.9036 43.7799H16.7429C16.5652 43.3886 16.4731 42.9639 16.4727 42.5341C16.4727 40.2178 19.1635 38.3409 22.484 38.3409C23.4743 38.3331 24.4576 38.5076 25.3847 38.8558C25.8377 35.567 30.345 32.9834 35.8384 32.9834C41.5658 32.9834 46.2197 35.789 46.3314 39.2726C48.1283 38.6882 50.4235 38.3333 52.9225 38.3333C58.6953 38.3409 63.3748 40.2148 63.3748 42.5341Z" fill="#DEE5F8"/>
<path d="M143.831 11.4842C143.817 12.0304 143.618 12.5557 143.267 12.9746H88.0194C87.8068 12.5065 87.6966 11.9983 87.6963 11.4842C87.6963 8.71183 90.9171 6.46495 94.8899 6.46495C96.0761 6.45841 97.2534 6.67032 98.3629 7.09009C98.905 3.15352 104.3 0.0610352 110.875 0.0610352C117.73 0.0610352 123.299 3.41776 123.433 7.58838C125.584 6.88774 128.33 6.46495 131.322 6.46495C138.23 6.46495 143.831 8.71183 143.831 11.4842Z" fill="#DEE5F8"/>
</svg>
