<svg width="214" height="143" viewBox="0 0 214 143" fill="none" xmlns="http://www.w3.org/2000/svg">
<path d="M65.5895 84.7202C74.8866 78.8765 85.3788 75.1986 96.2897 73.9586C114.017 72.0947 141.32 88.2371 142.369 89.9186C143.417 91.6001 77.7761 121.32 64.5293 84.7202" fill="#275E82"/>
<path d="M87.7002 75.435C87.7002 75.435 97.2819 85.296 111.88 75.7143C111.885 75.72 102.52 71.3766 87.7002 75.435Z" fill="#E68C5D"/>
<path d="M104.23 65.1292V66.7309C100.713 70.7893 95.3782 72.1117 92.6764 72.5335L92.152 64.7131L92.1064 64.0234L104.23 65.1292Z" fill="#D98458"/>
<path d="M79.1557 54.1625C79.1557 54.1625 63.8227 52.1618 62.3122 33.9503C60.8017 15.7388 75.9124 27.1103 75.9124 27.1103" fill="#5E3B2B"/>
<path d="M120.652 52.2592C119.756 56.0034 117.563 59.3092 114.462 61.5901C104.527 69.0001 89.342 66.8626 84.3032 61.8295C84.2348 61.7554 77.2352 56.1295 75.5081 49.3408C75.5081 49.3408 70.7543 48.3376 69.4889 42.0448C69.4126 41.6394 69.2136 41.2673 68.9189 40.9789C68.8673 39.2857 69.003 37.592 69.3236 35.9287C73.7354 13.0318 97.1909 9.44076 109.474 13.8583C111.702 17.3294 113.693 20.9477 115.431 24.6883C116.035 25.9765 116.639 27.3502 117.215 28.7752C119.17 33.6031 120.834 39.0694 121.205 44.3248C121.448 46.9821 121.261 49.6612 120.652 52.2592V52.2592Z" fill="#FE9B67"/>
<path d="M78.2948 41.1097C78.2948 41.1097 84.143 23.1604 90.9773 19.5751C90.9773 19.5751 86.4914 11.2303 77.2973 12.4729C68.1032 13.7155 61.1891 20.7664 62.4431 33.1981C63.3152 41.8507 71.9507 50.6572 72.1331 50.794C72.3155 50.9308 75.4619 49.3462 75.4619 49.3462C75.4619 49.3462 71.9108 48.4342 70.6226 45.3562C68.3939 40.0267 70.5428 35.9854 73.6151 35.4553C77.246 34.8169 78.2948 41.1097 78.2948 41.1097Z" fill="#5E3B2B"/>
<path d="M106.345 43.5322C106.345 43.5322 107.793 47.9725 111.002 48.9073C111.002 48.9073 109.697 50.8909 106.345 52.162L108.728 49.312C108.728 49.312 106.311 48.1492 106.345 43.5322Z" fill="#C4784F"/>
<path d="M90.9727 46.3366C90.9727 46.3366 93.0418 50.9935 96.7468 49.9561C97.7847 49.7015 98.7357 49.174 99.5013 48.4284C100.267 47.6828 100.819 46.7461 101.102 45.7153C101.102 45.7153 96.6613 51.9796 90.9727 46.3366Z" fill="#C4784F"/>
<path d="M120.014 40.0098C120.014 40.0098 119.592 45.0885 115.75 45.3279C114.686 45.4281 113.615 45.2421 112.647 44.7892C111.678 44.3362 110.849 43.6327 110.244 42.7515C110.244 42.7515 116.497 47.2203 120.014 40.0098Z" fill="#C4784F"/>
<path d="M102.64 56.6704C102.64 56.6704 108.34 61.2646 112.05 55.6558C112.073 55.6615 106.932 58.3918 102.64 56.6704Z" fill="#C4784F"/>
<path d="M75.0639 12.9005C74.4668 12.4705 73.9712 11.915 73.6117 11.2729C73.2523 10.6309 73.0378 9.91788 72.9834 9.18408C72.9834 9.18408 68.9478 16.0241 74.8131 16.4915" fill="#5E3B2B"/>
<path d="M97.3898 35.8656C97.3898 35.8656 90.1052 35.5179 88.3496 40.5966C88.3496 40.6023 89.0678 31.4937 97.3898 35.8656Z" fill="#5E3B2B"/>
<path d="M118.68 34.9309C118.68 34.9309 112.672 30.787 108.5 34.1785C108.506 34.1785 113.915 26.8255 118.68 34.9309Z" fill="#5E3B2B"/>
<path d="M74.4252 44.3701C74.5107 44.3701 74.1858 43.0078 75.0921 42.6601L75.9927 42.3352C75.9927 42.3352 74.8527 36.8233 73.0002 38.2768C71.1477 39.7303 71.4099 45.0655 74.4252 44.3701Z" fill="#C4784F"/>
<path d="M117.238 28.7805C110.843 31.4994 99.9556 34.4292 90.2884 28.7805C90.2884 28.7805 86.7943 41.8905 78.3184 41.0982L85.8196 19.6206L115.46 24.6822C116.058 25.9818 116.662 27.3555 117.238 28.7805Z" fill="#D98458"/>
<path d="M75.3604 22.2255C75.3604 22.2255 90.7504 29.6355 106.904 29.6355C110.565 29.6536 114.183 28.848 117.491 27.2781C120.798 25.7083 123.71 23.4146 126.011 20.5668L119.741 20.1222C119.741 20.1222 127.373 20.5668 130.086 11.4582C130.086 11.4582 118.749 10.8369 110.267 6.07743C101.786 1.31793 80.365 1.76252 75.3661 15.4596C75.1039 16.1721 75.3604 22.2255 75.3604 22.2255Z" fill="#5E3B2B"/>
<path d="M75.9131 33.8651L76.0385 34.1387C76.5629 35.2787 78.518 39.6734 78.3185 41.1098C78.062 42.7628 90.6305 35.6264 87.6323 23.7248C84.6341 11.8232 77.2355 24.1922 77.2355 24.1922" fill="#5E3B2B"/>
<path d="M74.8125 15.1861C74.8125 15.1861 75.9867 4.6981 75.9183 5.1142C75.8499 5.5303 78.6771 5.5987 79.572 9.2353C79.6575 9.583 81.9261 1.7341 96.273 0.833496L94.563 2.7658C94.563 2.7658 103.187 -0.585797 117.933 9.2296C132.679 19.045 75.2571 15.1804 75.2571 15.1804" fill="#5E3B2B"/>
<path d="M94.1182 57.9415C97.9746 57.9415 101.101 56.2495 101.101 54.1624C101.101 52.0753 97.9746 50.3833 94.1182 50.3833C90.2619 50.3833 87.1357 52.0753 87.1357 54.1624C87.1357 56.2495 90.2619 57.9415 94.1182 57.9415Z" fill="#FE8D67"/>
<path d="M120.652 52.2588C117.329 53.1138 114.331 52.4412 113.721 50.6172C113.065 48.6393 115.499 46.0572 119.159 44.8317C119.836 44.6039 120.532 44.4361 121.239 44.3301C121.47 46.9874 121.272 49.6645 120.652 52.2588V52.2588Z" fill="#FE8D67"/>
<path d="M193.555 91.6802H186.345V125.453H193.555V91.6802Z" fill="#B3DAEB"/>
<path d="M186.344 97.665H175.885V132.23H186.344V97.665Z" fill="#E3EFFF"/>
<path d="M26.1748 91.0986H19.1182V125.453H26.1748V91.0986Z" fill="#B3DAEB"/>
<path d="M33.2304 91.0986H26.1738V125.453H33.2304V91.0986Z" fill="#E3EFFF"/>
<path d="M19.1236 102.892H8.66406V132.23H19.1236V102.892Z" fill="#E3EFFF"/>
<path d="M199.579 125.453H128.198V139.007H199.579V125.453Z" fill="#FFA41C"/>
<path d="M194.695 127.812H189.263V136.648H194.695V127.812Z" fill="white"/>
<path d="M185.318 127.812H179.886V136.648H185.318V127.812Z" fill="white"/>
<path d="M182.605 127.812H152.896V136.648H182.605V127.812Z" fill="white"/>
<path d="M161.157 95.67C157.509 95.6738 153.884 95.0966 150.418 93.96V91.8396C155.324 93.5519 160.568 94.065 165.712 93.3357C170.857 92.6064 175.752 90.6561 179.988 87.6478C184.225 84.6395 187.679 80.6606 190.063 76.0439C192.447 71.4271 193.691 66.3068 193.691 61.1109C193.691 55.915 192.447 50.7946 190.063 46.1779C187.679 41.5611 184.225 37.5822 179.988 34.5739C175.752 31.5656 170.857 29.6153 165.712 28.886C160.568 28.1568 155.324 28.6698 150.418 30.3822V28.2618C155.169 26.7091 160.2 26.2053 165.164 26.7852C170.128 27.365 174.908 29.0148 179.172 31.6206C183.437 34.2264 187.086 37.7264 189.868 41.879C192.649 46.0316 194.497 50.7381 195.283 55.6738C196.069 60.6096 195.776 65.6572 194.422 70.4685C193.069 75.2798 190.688 79.7403 187.444 83.5424C184.2 87.3445 180.17 90.3977 175.632 92.4914C171.093 94.5852 166.155 95.6696 161.157 95.67V95.67Z" fill="#B3DAEB"/>
<path d="M190.904 61.1108C190.9 65.433 189.962 69.7034 188.154 73.6293C186.346 77.5552 183.711 81.0438 180.429 83.8562C177.146 86.6686 173.295 88.7382 169.138 89.9233C164.982 91.1083 160.618 91.3809 156.346 90.7222C152.075 90.0635 147.996 88.4891 144.389 86.107C140.783 83.7248 137.734 80.5912 135.451 76.9208C133.169 73.2503 131.706 69.1299 131.165 64.8417C130.623 60.5535 131.015 56.1989 132.314 52.0763C132.519 51.4227 132.747 50.7786 132.998 50.144C135.201 44.549 139.034 39.7446 144 36.3533C148.965 32.9619 154.835 31.1398 160.848 31.1231H160.916C164.856 31.1186 168.757 31.8911 172.398 33.3966C176.038 34.902 179.345 37.1107 182.131 39.8962C184.916 42.6817 187.125 45.9893 188.631 49.6297C190.136 53.27 190.909 57.1715 190.904 61.1108Z" fill="#B3DAEB"/>
<path d="M162.131 25.0469H159.07V108.597H162.131V25.0469Z" fill="#B3DAEB"/>
<path d="M153.268 109.515C153.268 108.911 153.508 108.331 153.935 107.903C154.363 107.476 154.943 107.235 155.548 107.235H171.091C171.696 107.235 172.276 107.476 172.704 107.903C173.131 108.331 173.371 108.911 173.371 109.515C173.371 110.12 173.131 110.7 172.704 111.128C172.276 111.555 171.696 111.795 171.091 111.795H155.576C154.971 111.795 154.391 111.555 153.964 111.128C153.536 110.7 153.296 110.12 153.296 109.515H153.268Z" fill="#B3DAEB"/>
<path d="M185.774 70.3161C185.589 70.4088 185.434 70.5534 185.33 70.7322L183.62 73.1205C183.38 73.437 183.166 73.7725 182.981 74.1237C182.765 74.558 182.637 75.0306 182.605 75.5145C182.577 75.6733 182.612 75.8366 182.702 75.9705C182.792 76.0457 182.904 76.091 183.021 76.1002C183.139 76.1093 183.256 76.082 183.357 76.0218C183.71 75.826 183.989 75.5195 184.15 75.1497C184.326 74.802 184.446 74.4258 184.628 74.0838C184.992 73.5016 185.388 72.9403 185.814 72.4023C186.091 72.0189 186.275 71.5757 186.35 71.1084C186.373 70.7949 186.316 70.1109 185.774 70.3161Z" fill="#D1E4FF"/>
<path d="M162.661 36.8744C162.408 36.8423 162.151 36.8558 161.903 36.9143C161.817 36.9485 161.794 37.0853 161.743 37.1594C161.696 37.2187 161.671 37.292 161.671 37.3675C161.671 37.443 161.696 37.5162 161.743 37.5755C161.848 37.6968 161.984 37.7874 162.136 37.8377C162.52 38.0189 162.953 38.067 163.367 37.9745C163.57 37.9487 163.762 37.8643 163.917 37.7317C164.073 37.5991 164.187 37.424 164.245 37.2278C164.245 37.1708 164.291 37.1537 164.245 37.0967C164.148 36.7661 162.946 36.8744 162.661 36.8744Z" fill="#D1E4FF"/>
<path d="M168.082 40.0779C167.993 40.035 167.895 40.0127 167.797 40.0127C167.698 40.0127 167.601 40.035 167.512 40.0779C167.333 40.1914 167.178 40.3386 167.056 40.5111C166.721 40.8137 166.453 41.1825 166.269 41.5941C166.187 42.0361 166.276 42.4929 166.52 42.8709C166.566 42.9565 166.632 43.0291 166.714 43.0818C166.811 43.1559 166.816 43.4181 166.93 43.4523C167.538 43.5333 168.153 43.5333 168.76 43.4523C169.16 43.517 169.571 43.4778 169.951 43.3383C170.064 43.265 170.15 43.1569 170.196 43.0305C170.239 42.9329 170.258 42.8262 170.25 42.7198C170.242 42.6135 170.208 42.5107 170.151 42.4206C170 42.2785 169.827 42.1628 169.638 42.0786C169.467 41.9931 169.205 42.0444 169.068 41.9019C168.817 41.6226 168.903 41.1666 168.754 40.8417C168.686 40.6935 168.424 40.6479 168.355 40.494C168.287 40.3401 168.258 40.1634 168.082 40.0779Z" fill="#D1E4FF"/>
<path d="M190.306 55.12C190.261 55.1136 190.215 55.1136 190.17 55.12C190.101 55.12 189.964 55.0801 189.913 55.12C189.862 55.1599 189.913 55.3537 189.913 55.4449C189.974 55.9602 189.938 56.4823 189.805 56.9839C189.696 57.4549 189.486 57.8964 189.189 58.2778C188.619 58.9276 188.049 59.5888 187.519 60.2386C187.365 60.4096 187.114 60.6433 186.886 60.6376C186.658 60.6319 186.402 60.2899 186.277 60.0676C185.822 59.1631 185.44 58.2234 185.137 57.2575C184.783 56.3176 184.343 55.413 183.82 54.5557C183.815 54.5409 183.815 54.525 183.82 54.5101V54.5101C183.82 54.4759 183.82 54.4417 183.82 54.4132C183.816 54.3349 183.798 54.2579 183.769 54.1852L183.734 54.151C183.7 54.1168 183.609 54.2251 183.552 54.2194C183.495 54.2137 183.267 54.2194 183.256 54.322C183.244 54.4246 183.421 54.5272 183.466 54.6241C183.746 55.234 183.968 55.8724 184.19 56.5051C184.299 56.8072 184.407 57.1093 184.527 57.4114C184.886 58.3348 185.336 59.2354 185.667 60.1816C185.773 60.6295 186.023 61.0301 186.379 61.3216C186.851 61.2688 187.328 61.29 187.793 61.3843C187.924 61.3843 188.072 61.2589 188.175 61.3387C188.277 61.4185 188.237 61.6921 188.209 61.9087C188.072 62.711 187.717 63.4603 187.183 64.0747C186.629 64.6682 186.147 65.3243 185.746 66.0298C185.408 66.956 185.233 67.9337 185.228 68.9197C185.141 69.9054 184.823 70.8566 184.299 71.6956C183.926 72.2521 183.45 72.7319 182.896 73.1092C182.353 73.518 181.831 73.9557 181.335 74.4202L181.169 74.5855C180.386 75.4818 179.67 76.4344 179.026 77.4355C178.268 78.4444 177.316 79.3735 176.051 79.6072C175.629 79.6813 175.127 79.6471 174.951 79.2595C174.865 79.0828 174.951 78.9004 174.991 78.6895C175.07 77.8801 175.264 77.0764 175.276 76.267C175.234 75.3769 175.116 74.4921 174.922 73.6222C174.714 72.7743 174.752 71.8847 175.03 71.0572C175.363 70.452 175.611 69.8036 175.766 69.1306C175.874 67.9906 174.894 67.0558 174.785 65.9272C174.734 65.3572 174.973 64.7872 174.877 64.2172C174.777 63.8953 174.587 63.6088 174.329 63.3915C174.072 63.1743 173.757 63.0356 173.423 62.9917C172.55 62.9145 171.674 63.1139 170.921 63.5617C170.311 63.9009 169.657 64.1523 168.977 64.3084C168.284 64.3681 167.586 64.3336 166.902 64.2058C166.669 64.1992 166.438 64.155 166.218 64.0747C165.943 63.9994 165.684 63.8738 165.454 63.7042C164.824 63.0459 164.356 62.2496 164.086 61.3786C163.87 60.5063 163.827 59.5998 163.961 58.711C164.069 57.8246 164.312 56.9598 164.679 56.146C165.001 55.3094 165.47 54.5372 166.064 53.866C166.672 53.195 167.387 52.6288 168.179 52.1902C169.011 51.8412 169.895 51.6331 170.795 51.5746C171.572 51.4065 172.361 51.2998 173.155 51.2554C174.215 51.2259 175.266 51.463 176.21 51.9451C176.459 52.1407 176.739 52.2947 177.037 52.4011C177.932 52.5721 178.747 51.4207 179.647 51.6544C180.046 51.7684 180.263 52.2244 180.611 52.4695C180.853 52.6032 181.121 52.6844 181.397 52.708C181.673 52.7316 181.951 52.6969 182.212 52.6063C182.306 52.5898 182.396 52.5526 182.474 52.4974C182.551 52.4422 182.616 52.3704 182.663 52.2871C182.72 52.1845 182.868 52.0819 182.874 51.9622C182.918 51.6424 182.878 51.3166 182.758 51.0169C182.638 50.7171 182.442 50.4536 182.19 50.2522C181.858 50.1048 181.497 50.0365 181.135 50.0527C180.77 50.0071 180.297 49.876 180.149 49.5397C180.1 49.3432 180.108 49.1368 180.173 48.9449C180.238 48.7529 180.356 48.5836 180.514 48.4567C180.886 48.218 181.33 48.119 181.768 48.1774C182.249 48.2315 182.735 48.2315 183.216 48.1774C183.292 48.1595 183.363 48.1247 183.424 48.0757C183.485 48.0267 183.534 47.9647 183.568 47.8942C183.602 47.8237 183.62 47.7465 183.62 47.6683C183.62 47.5901 183.603 47.5128 183.569 47.4421C183.27 46.9436 182.838 46.5382 182.322 46.2714C181.805 46.0046 181.225 45.887 180.645 45.9316H180.52C180.394 45.9316 180.252 45.829 180.149 45.9316C179.932 46.1083 180.121 46.4674 180.081 46.7467C180.007 47.3167 179.186 47.6473 179.055 48.2116C178.986 48.5023 179.209 48.8329 179.197 49.1293C179.194 49.281 179.144 49.4279 179.054 49.5502C178.964 49.6725 178.839 49.7644 178.696 49.8133C178.496 49.8589 178.342 49.705 178.165 49.6195C177.772 49.4314 177.316 49.3915 176.923 49.1806C176.199 48.7987 175.543 48.28 174.82 47.8981C174.033 47.4072 173.1 47.2057 172.18 47.3281C171.999 47.3645 171.828 47.4448 171.685 47.5618C171.343 47.8924 171.445 48.4909 171.297 48.9412C171.218 49.1692 171.092 49.378 170.927 49.5538C170.762 49.7297 170.562 49.8686 170.339 49.9615C169.874 50.0824 169.388 50.1037 168.914 50.0242C168.5 50.0043 168.095 49.9011 167.722 49.7209C167.349 49.5407 167.016 49.2872 166.743 48.9754C166.213 48.3199 166.059 47.1799 166.743 46.6954C167.244 46.3534 167.991 46.627 168.584 46.4959C168.762 46.4678 168.921 46.3707 169.028 46.2255C169.135 46.0804 169.18 45.899 169.154 45.7207C169.097 45.4984 168.914 45.3103 168.926 45.0823C168.952 44.9511 169.027 44.8348 169.137 44.7574C169.387 44.5465 169.707 44.4724 169.98 44.2786C170.607 43.8169 170.716 42.8251 171.348 42.3862C171.753 42.1012 172.306 42.0442 172.488 41.5882C172.504 41.5513 172.512 41.5116 172.512 41.4714C172.512 41.4312 172.504 41.3915 172.488 41.3545C172.374 41.0011 171.998 41.1322 171.628 41.1322C171.307 41.1209 170.994 41.0345 170.712 40.8801C170.431 40.7256 170.19 40.5075 170.009 40.243C169.875 39.9632 169.812 39.6552 169.824 39.3454C169.836 39.0356 169.923 38.7334 170.077 38.4646C170.247 38.1791 170.437 37.9067 170.647 37.6495C170.966 37.1821 171.217 36.6691 171.496 36.1732L171.656 35.8939C171.851 35.4768 172.183 35.1389 172.597 34.9363C173.446 34.6057 174.358 35.1472 175.048 35.7514C175.618 36.2245 176.245 36.6691 176.946 36.4924C177.186 36.429 177.407 36.3077 177.59 36.139C184.169 40.5383 188.741 47.3619 190.306 55.12Z" fill="#D1E4FF"/>
<path d="M162.428 34.8223C162.359 35.4949 161.766 35.9623 161.219 36.3499C160.663 36.727 160.145 37.1585 159.674 37.6381C159.081 38.3649 158.577 39.1612 158.175 40.0093C158.05 40.2259 157.999 40.528 157.782 40.6534C157.531 40.7304 157.263 40.7304 157.013 40.6534C156.659 40.6081 156.319 40.4888 156.014 40.3032C155.71 40.1175 155.448 39.8698 155.246 39.5761C155.016 39.2852 154.847 38.9512 154.749 38.5937C154.651 38.2363 154.626 37.8629 154.676 37.4956C154.904 36.538 155.736 35.7343 155.656 34.7539C155.609 34.3153 155.419 33.9042 155.117 33.5832C154.814 33.2621 154.415 33.0488 153.98 32.9755C153.531 32.9158 153.074 32.9477 152.637 33.0692C152.2 33.1906 151.792 33.3992 151.438 33.6823C150.72 34.2523 150.172 35.341 150.532 36.1846C150.776 36.61 151.086 36.9946 151.449 37.3246C151.769 37.6837 152.162 38.1682 151.974 38.6128C151.888 38.818 151.569 38.875 151.404 39.046C151.125 39.3913 150.923 39.7922 150.812 40.2218C150.701 40.6514 150.683 41.0998 150.76 41.5369C150.939 42.441 151.279 43.3058 151.763 44.0905C152.031 44.5123 152.367 44.8828 152.612 45.3103C152.938 45.906 153.086 46.5824 153.04 47.2597C153.082 47.5455 153.052 47.8373 152.954 48.109C152.751 48.3656 152.49 48.571 152.193 48.7086C151.896 48.8462 151.571 48.9122 151.244 48.9013C150.617 48.9013 149.899 48.6505 149.352 48.9526C149.057 49.1439 148.777 49.3573 148.514 49.591C147.699 50.161 146.758 50.4973 145.966 51.1243C145.054 51.8482 144.775 53.0509 144.153 54.037C143.721 54.668 143.155 55.1955 142.495 55.5817C141.847 55.9796 141.119 56.227 140.363 56.3056C139.565 56.3854 138.653 56.1859 137.98 56.5792C137.006 57.1492 136.874 58.4716 136.84 59.5888C136.795 59.8299 136.795 60.0774 136.84 60.3184C136.959 60.636 137.188 60.9008 137.484 61.0651C138.096 61.4071 138.761 61.644 139.451 61.7662C140.133 61.8397 140.772 62.1316 141.275 62.5984C141.662 63.0088 141.902 63.5161 142.255 63.955C142.795 64.5962 143.544 65.0262 144.37 65.1691C145.174 65.3173 145.989 65.323 146.787 65.5054C148.016 65.749 149.129 66.3948 149.95 67.3408C150.657 68.2015 151.204 69.1876 152.048 69.9172C152.612 70.451 153.277 70.8676 154.003 71.1427C154.732 71.3821 155.57 71.3536 156.283 71.6215C157.024 71.8803 157.686 72.326 158.204 72.9154C158.329 72.8527 158.386 72.9154 158.517 72.847C158.683 73.041 158.782 73.2837 158.799 73.5386C158.815 73.7935 158.748 74.0469 158.609 74.2606C158.345 74.7135 158.106 75.1796 157.89 75.6571C157.778 76.2061 157.635 76.7484 157.463 77.2816C157.109 78.0112 156.26 78.2962 155.622 78.7864C155.464 78.9143 155.333 79.071 155.234 79.2481C155.126 79.5342 155.07 79.8373 155.069 80.143C154.869 81.4255 153.878 82.423 153.176 83.4889C152.475 84.5548 151.974 86.0995 152.606 87.2395C152.954 87.9007 153.678 88.3282 153.821 89.0578C153.461 89.0932 153.098 89.0526 152.756 88.9387C152.413 88.8248 152.098 88.6401 151.831 88.3966C151.261 87.9235 150.794 87.3649 150.258 86.8747C149.722 86.3845 149.266 86.071 148.827 85.615C148.303 85.0713 147.908 84.4168 147.67 83.6998C147.482 82.9829 147.378 82.2463 147.362 81.5053C147.311 80.6943 147.198 79.8884 147.026 79.0942C146.917 78.2754 146.511 77.525 145.886 76.9852C145.065 76.4152 143.891 76.3411 143.281 75.5431C142.825 74.9731 142.711 74.1865 142.364 73.5367C142.061 73.0009 141.708 72.5278 141.423 71.9863C141.104 71.3433 141.047 70.6015 141.263 69.9172C141.452 69.2104 141.668 68.515 141.833 67.8025C141.999 67.09 142.284 66.463 141.993 65.8303C141.583 64.924 140.54 64.5307 139.713 64.0063C138.961 63.4211 138.142 62.9274 137.273 62.5357C136.926 62.416 136.572 62.3248 136.225 62.2165C135.652 62.0086 135.16 61.6258 134.817 61.1225C134.474 60.6192 134.299 60.0208 134.315 59.4121C134.274 58.1945 133.968 57.0004 133.42 55.9123C133.13 55.2511 132.936 54.5557 132.702 53.8774C132.474 53.31 132.339 52.7094 132.303 52.099V51.9337C132.279 51.6069 132.327 51.2787 132.446 50.973C132.564 50.6674 132.749 50.3919 132.987 50.1667H133.021C133.636 49.7541 134.102 49.1545 134.349 48.4567C134.515 47.8623 134.624 47.2535 134.674 46.6384C137.262 41.9653 141.053 38.069 145.653 35.3531C150.253 32.6372 155.495 31.2003 160.837 31.1914C160.928 31.5923 161.08 31.9769 161.288 32.3314C161.778 33.0724 162.524 33.8818 162.428 34.8223Z" fill="#D1E4FF"/>
<path d="M147.374 125.453H70.5664V139.007H147.374V125.453Z" fill="#275E82"/>
<path d="M73.7012 119.872C73.7012 121.352 73.1133 122.772 72.0668 123.818C71.0203 124.865 69.6009 125.453 68.1209 125.453H29.5832C28.1032 125.453 26.6839 124.865 25.6374 123.818C24.5909 122.772 24.0029 121.352 24.0029 119.872C24.0029 118.392 24.5909 116.973 25.6374 115.926C26.6839 114.88 28.1032 114.292 29.5832 114.292H68.1209C69.6009 114.292 71.0203 114.88 72.0668 115.926C73.1133 116.973 73.7012 118.392 73.7012 119.872V119.872Z" fill="#FFA41C"/>
<path d="M29.5828 123.6C28.6503 123.527 27.7798 123.105 27.1448 122.418C26.5099 121.731 26.1572 120.83 26.1572 119.895C26.1572 118.96 26.5099 118.059 27.1448 117.372C27.7798 116.685 28.6503 116.263 29.5828 116.19H68.1205C69.0529 116.263 69.9234 116.685 70.5584 117.372C71.1933 118.059 71.546 118.96 71.546 119.895C71.546 120.83 71.1933 121.731 70.5584 122.418C69.9234 123.105 69.0529 123.527 68.1205 123.6H29.5828Z" fill="white"/>
<path d="M181.437 118.635C181.437 120.449 180.716 122.189 179.434 123.472C178.151 124.755 176.411 125.475 174.597 125.475H127.561C125.747 125.475 124.007 124.755 122.724 123.472C121.441 122.189 120.721 120.449 120.721 118.635C120.721 116.821 121.441 115.082 122.724 113.799C124.007 112.516 125.747 111.795 127.561 111.795H174.626C176.44 111.795 178.179 112.516 179.462 113.799C180.745 115.082 181.466 116.821 181.466 118.635H181.437Z" fill="#3CCBB9"/>
<path d="M127.56 123.172C126.926 123.236 126.286 123.166 125.681 122.967C125.075 122.768 124.518 122.444 124.046 122.017C123.573 121.589 123.195 121.067 122.937 120.485C122.678 119.903 122.545 119.272 122.545 118.635C122.545 117.998 122.678 117.368 122.937 116.785C123.195 116.203 123.573 115.681 124.046 115.254C124.518 114.826 125.075 114.502 125.681 114.303C126.286 114.104 126.926 114.034 127.56 114.098H174.625C175.259 114.034 175.9 114.104 176.505 114.303C177.11 114.502 177.667 114.826 178.14 115.254C178.612 115.681 178.99 116.203 179.249 116.785C179.507 117.368 179.641 117.998 179.641 118.635C179.641 119.272 179.507 119.903 179.249 120.485C178.99 121.067 178.612 121.589 178.14 122.017C177.667 122.444 177.11 122.768 176.505 122.967C175.9 123.166 175.259 123.236 174.625 123.172H127.56Z" fill="white"/>
<path d="M104.23 65.1292V74.0953C102.66 75.3318 100.812 76.1666 98.8463 76.5272C96.8806 76.8877 94.8566 76.7632 92.9499 76.1644L92.7048 72.5335L92.1804 64.7131L92.1348 64.0234L104.23 65.1292Z" fill="#E68C5D"/>
<path d="M71.4211 125.453H0.0400391V139.007H71.4211V125.453Z" fill="#3CCBB9"/>
<path d="M7.16453 127.812H4.45703V136.648H7.16453V127.812Z" fill="white"/>
<path d="M12.0845 127.812H9.37695V136.648H12.0845V127.812Z" fill="white"/>
<path d="M61.104 127.812H17.499V136.648H61.104V127.812Z" fill="white"/>
<path d="M61.0986 114.292L30.6777 114.012L30.9399 113.311L38.7375 92.5178L38.6634 82.9304L45.0303 82.3262L46.2102 91.6115L61.0986 114.292Z" fill="#B3DAEB"/>
<path d="M46.4323 81.8877C46.464 82.2309 46.3581 82.5726 46.1379 82.8377C45.9177 83.1028 45.6013 83.2695 45.2581 83.3013L38.4181 83.9397C38.075 83.9714 37.7333 83.8655 37.4682 83.6453C37.2031 83.4251 37.0363 83.1087 37.0045 82.7655C36.9728 82.4224 37.0787 82.0807 37.2989 81.8156C37.5191 81.5505 37.8356 81.3837 38.1787 81.3519L45.0187 80.7135C45.3619 80.6818 45.7036 80.7877 45.9687 81.0079C46.2338 81.2281 46.4005 81.5446 46.4323 81.8877V81.8877Z" fill="#B3DAEB"/>
<path d="M54.8057 82.7879L56.738 67.4378C56.738 67.4378 106.459 85.2731 110.318 89.6678C110.318 89.6678 115.853 81.3914 130.108 71.1827C144.364 60.974 148.479 59.1899 148.479 59.1899L152.891 88.4366C152.891 88.4366 81.8465 105.274 54.8057 82.7879Z" fill="white"/>
<path d="M51.4934 123.902L49.4414 71.981L103.021 89.1607L106.345 140.273L51.4934 123.902Z" fill="#C93838"/>
<path d="M116.046 86.0997C116.046 86.0997 118.2 138.602 117.933 138.899C116.057 140.968 159.959 109.515 159.959 109.515L156.066 60.9912L116.046 86.0997Z" fill="#C93838"/>
<path d="M102.64 89.0467C102.64 89.0467 110.471 94.4161 116.428 85.8433L119.238 138.232C119.238 138.232 114.49 145.545 106.316 140.267L102.64 89.0467Z" fill="#F04343"/>
<path d="M126.005 91.8513L127.122 109.949L151.655 94.3251L150.418 78.0801L126.005 91.8513Z" fill="#F04343"/>
<path d="M127.561 114.098V119.325L151.939 102.413L151.546 99.7568L128.199 114.018" fill="#F04343"/>
<path d="M5.90958 60.7025L3.25586 63.2305L11.7873 72.1863L14.441 69.6583L5.90958 60.7025Z" fill="#E3EFFF"/>
<path d="M11.8337 60.6248L2.87793 69.1562L5.40591 71.81L14.3617 63.2785L11.8337 60.6248Z" fill="#E3EFFF"/>
<path d="M139.604 6.64438L136.95 9.17236L145.482 18.1282L148.135 15.6002L139.604 6.64438Z" fill="white"/>
<path d="M145.529 6.55106L136.573 15.0825L139.101 17.7362L148.057 9.20478L145.529 6.55106Z" fill="white"/>
<path d="M208.367 70.4828L204.732 70.9517L206.315 83.219L209.95 82.7501L208.367 70.4828Z" fill="#E3EFFF"/>
<path d="M213.201 73.8979L200.934 75.4824L201.403 79.1173L213.67 77.5328L213.201 73.8979Z" fill="#E3EFFF"/>
<path d="M46.4387 59.3837C45.0103 59.3837 43.6141 58.9602 42.4264 58.1666C41.2388 57.3731 40.3131 56.2452 39.7665 54.9255C39.2199 53.6059 39.0769 52.1538 39.3556 50.7529C39.6342 49.352 40.322 48.0652 41.3321 47.0552C42.3421 46.0452 43.6289 45.3574 45.0298 45.0787C46.4307 44.8001 47.8828 44.9431 49.2024 45.4897C50.522 46.0363 51.6499 46.9619 52.4435 48.1496C53.237 49.3372 53.6606 50.7335 53.6606 52.1618C53.6591 54.0767 52.8977 55.9128 51.5437 57.2668C50.1897 58.6209 48.3536 59.3822 46.4387 59.3837V59.3837ZM46.4387 48.3656C45.6868 48.3656 44.9517 48.5886 44.3265 49.0064C43.7013 49.4241 43.214 50.0179 42.9262 50.7126C42.6384 51.4073 42.5632 52.1718 42.7099 52.9093C42.8566 53.6468 43.2186 54.3242 43.7503 54.8559C44.2821 55.3876 44.9595 55.7497 45.697 55.8964C46.4345 56.0431 47.1989 55.9678 47.8936 55.68C48.5883 55.3923 49.1821 54.905 49.5999 54.2798C50.0176 53.6545 50.2406 52.9195 50.2406 52.1675C50.2414 51.6678 50.1436 51.1728 49.9528 50.7109C49.7621 50.2489 49.4822 49.8292 49.1291 49.4755C48.776 49.1219 48.3566 48.8413 47.8949 48.6499C47.4333 48.4585 46.9384 48.3599 46.4387 48.3599V48.3656Z" fill="white"/>
<path d="M193.96 12.5185L187.137 24.2539L190.254 26.0665L197.077 14.3311L193.96 12.5185Z" fill="#E3EFFF"/>
<path d="M193.855 11.2768L192.026 14.4067L195.156 16.2358L196.985 13.1058L193.855 11.2768Z" fill="#E3EFFF"/>
<path d="M5.01901 21.1045L3.42188 24.3589L15.672 30.3708L17.2691 27.1163L5.01901 21.1045Z" fill="#E3EFFF"/>
<path d="M4.22075 22.7415L2.62305 25.9956L5.87718 27.5933L7.47489 24.3392L4.22075 22.7415Z" fill="#E3EFFF"/>
<path d="M51.1064 91.0415C51.1064 91.0415 48.701 90.4031 46.3583 96.0062C44.0156 101.609 51.2546 107.708 54.287 109.048C57.3194 110.387 58.8926 104.67 57.2852 98.1437C55.6778 91.6172 51.1064 91.0415 51.1064 91.0415Z" fill="#FE9B67"/>
<path d="M159.196 76.9624C159.196 76.9624 157.092 75.6343 153.177 80.2798C149.261 84.9253 154.317 92.911 156.836 95.0998C159.355 97.2886 162.536 92.3011 162.958 85.5979C163.38 78.8947 159.196 76.9624 159.196 76.9624Z" fill="#FE9B67"/>
</svg>
