<svg width="24" height="24" viewBox="0 0 24 24" fill="none" xmlns="http://www.w3.org/2000/svg">
<g clip-path="url(#clip0_1453_244)">
<path d="M10.5972 1.38904C8.72351 -0.463014 5.684 -0.463014 3.80762 1.38904C1.93125 3.2411 1.93399 6.2456 3.80762 8.10037C5.68126 9.95514 12.0017 9.48873 12.0017 9.48873C12.0017 9.48873 12.4735 3.24381 10.5972 1.38904ZM5.89523 6.03952C4.01885 4.18475 5.02288 2.58759 5.02288 2.58759C5.02288 2.58759 5.73338 2.49268 7.60976 4.34474C9.48339 6.1968 10.2625 8.62643 10.2625 8.62643C10.2625 8.62643 7.76886 7.89158 5.89523 6.03952Z" fill="#FFB43B"/>
<path d="M20.1933 1.38904C18.3196 -0.463014 15.2801 -0.463014 13.4038 1.38904C11.5274 3.2411 11.9965 9.48873 11.9965 9.48873C11.9965 9.48873 18.3169 9.95242 20.1933 8.10037C22.0697 6.24831 22.0697 3.24381 20.1933 1.38904ZM18.1084 6.03952C16.2348 7.89157 13.7768 8.65897 13.7768 8.65897C13.7768 8.65897 14.5203 6.19679 16.3939 4.34474C18.2675 2.49268 19.886 3.48243 19.886 3.48243C19.886 3.48243 19.9848 4.18475 18.1084 6.03952Z" fill="#FF823B"/>
<path d="M12.0015 13.2853C13.5923 13.2853 14.8819 12.0106 14.8819 10.4381C14.8819 8.86557 13.5923 7.59082 12.0015 7.59082C10.4107 7.59082 9.12109 8.86557 9.12109 10.4381C9.12109 12.0106 10.4107 13.2853 12.0015 13.2853Z" fill="#FFB43B"/>
<path d="M23.1777 10.4419H17.1426V24.0001H23.1777C23.6303 24.0001 24.0007 23.634 24.0007 23.1866V11.2553C24.0007 10.8079 23.6303 10.4419 23.1777 10.4419Z" fill="#0053C2"/>
<path d="M0.822972 10.4419C0.370337 10.4419 0 10.8079 0 11.2553V23.1866C0 23.634 0.370337 24.0001 0.822972 24.0001H17.1453V10.4419H0.822972Z" fill="#0474BA"/>
<path d="M24.0007 16.6704H17.1426V19.3829H24.0007V16.6704Z" fill="#FF823B"/>
<path d="M21.6696 10.4419H20.5723V24.0001H21.6696V10.4419Z" fill="#FF823B"/>
<path d="M17.1453 16.6704H0V19.3829H17.1453V16.6704Z" fill="#FFA53B"/>
<path d="M9.39559 10.4419H6.65234V24.0001H9.39559V10.4419Z" fill="#FFB93B"/>
</g>
<defs>
<clipPath id="clip0_1453_244">
<rect width="24" height="24" fill="white"/>
</clipPath>
</defs>
</svg>
