<svg width="46" height="46" viewBox="0 0 46 46" fill="none" xmlns="http://www.w3.org/2000/svg">
<g filter="url(#filter0_i_1373_9410)">
<circle cx="23" cy="23" r="23" fill="#C4262F"/>
</g>
<path d="M23.389 22.4922L28.8158 17.0591C28.9205 16.947 28.9847 16.7958 28.9847 16.6298C28.9847 16.2819 28.7031 16 28.3556 16C28.1898 16 28.0388 16.0642 27.9263 16.1693L22.4997 21.6022L17.0729 16.169C16.961 16.0642 16.81 16 16.6442 16C16.2967 16 16.0151 16.2819 16.0151 16.6298C16.0151 16.7958 16.0793 16.947 16.1842 17.0596L21.6108 22.4924L16.1839 27.9256C16.0702 28.0394 16 28.1969 16 28.3707C16 28.5445 16.0702 28.7017 16.1839 28.8158C16.2977 28.9297 16.4549 29 16.6286 29C16.8022 29 16.9592 28.9297 17.0732 28.8158L22.5 23.3827L27.9268 28.8158C28.0406 28.9297 28.1978 29 28.3714 29C28.5451 29 28.7021 28.9297 28.8161 28.8158C28.9298 28.702 29 28.5445 29 28.3707C29 28.1969 28.9298 28.0397 28.8161 27.9256L23.389 22.4922Z" fill="white"/>
<defs>
<filter id="filter0_i_1373_9410" x="0" y="0" width="46" height="62.0517" filterUnits="userSpaceOnUse" color-interpolation-filters="sRGB">
<feFlood flood-opacity="0" result="BackgroundImageFix"/>
<feBlend mode="normal" in="SourceGraphic" in2="BackgroundImageFix" result="shape"/>
<feColorMatrix in="SourceAlpha" type="matrix" values="0 0 0 0 0 0 0 0 0 0 0 0 0 0 0 0 0 0 127 0" result="hardAlpha"/>
<feMorphology radius="7.7048" operator="dilate" in="SourceAlpha" result="effect1_innerShadow_1373_9410"/>
<feOffset dy="16.0517"/>
<feGaussianBlur stdDeviation="16.0517"/>
<feComposite in2="hardAlpha" operator="arithmetic" k2="-1" k3="1"/>
<feColorMatrix type="matrix" values="0 0 0 0 0.466667 0 0 0 0 0.466667 0 0 0 0 0.466667 0 0 0 0.3 0"/>
<feBlend mode="normal" in2="shape" result="effect1_innerShadow_1373_9410"/>
</filter>
</defs>
</svg>
