<svg width="402" height="406" viewBox="0 0 402 406" fill="none" xmlns="http://www.w3.org/2000/svg">
<g filter="url(#filter0_d_814_9186)">
<path opacity="0.7" d="M54.6149 134.341C54.6149 134.341 32.1994 192.229 63.7001 250.519C95.2008 308.809 160.084 339.602 212.014 365.933C263.944 392.264 317.869 379.44 343.492 336.313C369.116 293.187 333.973 262.402 333.924 200.904C333.876 139.406 343.13 123.125 309.805 71.1703C276.479 19.2158 194.784 7.71056 133.005 46.2463C71.2255 84.782 54.6149 134.341 54.6149 134.341Z" fill="white"/>
<path opacity="0.5" d="M220.297 105.766C220.297 105.766 231.247 93.2155 247.223 93.2155C247.223 93.2155 247.753 83.463 258.656 81.3565C269.558 79.25 271.68 88.9865 271.68 88.9865C271.68 88.9865 279.72 84.7172 290.55 88.9865C301.38 93.2557 299.177 105.734 299.177 105.734C299.177 105.734 330.38 104.713 335.735 110.437H195.453C195.453 110.437 198.283 103.434 220.297 105.766Z" stroke="#263238" stroke-width="0.804" stroke-linecap="round" stroke-linejoin="round"/>
<path d="M220.297 105.766C220.297 105.766 231.247 93.2155 247.223 93.2155C247.223 93.2155 247.753 83.463 258.656 81.3565C269.558 79.25 271.68 88.9865 271.68 88.9865C271.68 88.9865 279.72 84.7172 290.55 88.9865C301.38 93.2557 299.177 105.734 299.177 105.734C299.177 105.734 330.38 104.713 335.735 110.437H195.453C195.453 110.437 198.283 103.434 220.297 105.766Z" stroke="#263238" stroke-width="0.804" stroke-linecap="round" stroke-linejoin="round"/>
<path opacity="0.5" d="M353.914 188.072C353.914 188.072 345.174 178.062 332.439 178.062C332.439 178.062 332.013 170.287 323.322 168.607C314.63 166.926 312.934 174.693 312.934 174.693C312.934 174.693 306.502 171.284 297.883 174.693C289.264 178.102 291.001 188.047 291.001 188.047C291.001 188.047 266.077 187.243 261.84 191.802H373.708C373.708 191.802 371.449 186.214 353.914 188.072Z" stroke="#263238" stroke-width="0.804" stroke-linecap="round" stroke-linejoin="round"/>
<path d="M353.913 188.072C353.913 188.072 345.173 178.062 332.438 178.062C332.438 178.062 332.012 170.287 323.321 168.607C314.63 166.926 312.933 174.693 312.933 174.693C312.933 174.693 306.501 171.284 297.882 174.693C289.263 178.102 291 188.047 291 188.047C291 188.047 266.076 187.243 261.839 191.802H373.707C373.707 191.802 371.448 186.214 353.913 188.072Z" stroke="#263238" stroke-width="0.804" stroke-linecap="round" stroke-linejoin="round"/>
<path opacity="0.5" d="M57.084 128.962C57.084 128.962 62.2618 123.012 69.8274 123.012C69.9714 121.604 70.5823 120.285 71.563 119.265C72.5436 118.245 73.8375 117.583 75.2384 117.384C80.4081 116.387 81.4131 120.994 81.4131 120.994C82.8251 120.386 84.3462 120.073 85.8833 120.073C87.4205 120.073 88.9415 120.386 90.3536 120.994C95.475 123.02 94.4379 128.929 94.4379 128.929C94.4379 128.929 109.223 128.447 111.756 131.156H45.3135C45.3135 131.156 46.632 127.836 57.084 128.962Z" stroke="#263238" stroke-width="0.804" stroke-linecap="round" stroke-linejoin="round"/>
<path d="M57.084 128.962C57.084 128.962 62.2618 123.012 69.8274 123.012C69.9714 121.604 70.5823 120.285 71.563 119.265C72.5436 118.245 73.8375 117.583 75.2384 117.384C80.4081 116.387 81.4131 120.994 81.4131 120.994C82.8251 120.386 84.3462 120.073 85.8833 120.073C87.4205 120.073 88.9415 120.386 90.3536 120.994C95.475 123.02 94.4379 128.929 94.4379 128.929C94.4379 128.929 109.223 128.447 111.756 131.156H45.3135C45.3135 131.156 46.632 127.836 57.084 128.962Z" stroke="#263238" stroke-width="0.804" stroke-linecap="round" stroke-linejoin="round"/>
<path d="M23.7422 354.621C23.7422 354.621 30.737 340.953 46.6401 343.485C47.3679 341.713 48.6787 340.243 50.3556 339.318C52.0325 338.392 53.9751 338.067 55.862 338.396C55.862 338.396 51.7294 326.947 62.5432 318.384C73.357 309.822 88.03 317.106 88.03 317.106C88.03 317.106 87.1054 310.674 93.1113 308.342L185.66 311.414C185.66 311.414 195.814 314.244 198.041 323.787C198.041 323.787 206.95 318.698 218.077 323.787C229.204 328.876 229.212 341.604 229.212 341.604C229.212 341.604 241.843 340.325 242.88 357.595C242.88 357.595 250.872 347.505 262.603 357.595" fill="white"/>
<path d="M23.7422 354.621C23.7422 354.621 30.737 340.953 46.6401 343.485C47.3679 341.713 48.6787 340.243 50.3556 339.318C52.0325 338.392 53.9751 338.067 55.862 338.396C55.862 338.396 51.7294 326.947 62.5432 318.384C73.357 309.822 88.03 317.106 88.03 317.106C88.03 317.106 87.1054 310.674 93.1113 308.342L185.66 311.414C185.66 311.414 195.814 314.244 198.041 323.787C198.041 323.787 206.95 318.698 218.077 323.787C229.204 328.876 229.212 341.604 229.212 341.604C229.212 341.604 241.843 340.325 242.88 357.595C242.88 357.595 250.872 347.505 262.603 357.595" stroke="#263238" stroke-width="0.804" stroke-linecap="round" stroke-linejoin="round"/>
<path d="M52.6859 360.023C52.4454 360.548 52.2334 361.084 52.0508 361.631" stroke="#263238" stroke-width="0.804" stroke-linecap="round" stroke-linejoin="round"/>
<path d="M90.1842 328.418C87.5149 329.48 84.8697 331.594 82.8999 335.534C82.8999 335.534 77.5533 333.226 74.6268 337.439C71.7002 341.652 76.5403 346.026 76.5403 346.026C76.5403 346.026 69.859 347.304 69.5374 353.342C69.5374 353.342 62.7115 351.397 57.3086 354.701" stroke="#263238" stroke-width="0.804" stroke-linecap="round" stroke-linejoin="round"/>
<path d="M96.1828 327.494C95.1081 327.437 94.0304 327.491 92.9668 327.654" stroke="#263238" stroke-width="0.804" stroke-linecap="round" stroke-linejoin="round"/>
<path d="M157.73 315.394L155.567 308.318H123.616L118.124 320.587C118.124 320.587 104.215 316.447 101.345 328.539C100.925 328.373 100.496 328.233 100.059 328.121" stroke="#263238" stroke-width="0.804" stroke-linecap="round" stroke-linejoin="round"/>
<path d="M198.243 333.709C193.974 336.306 192.961 341.258 192.961 341.258C189.15 334.899 182.774 338.718 182.774 338.718C182.774 338.718 181.817 327.582 174.501 323.442C169.964 320.988 164.651 320.391 159.683 321.777L158.389 317.621" stroke="#263238" stroke-width="0.804" stroke-linecap="round" stroke-linejoin="round"/>
<path d="M225.12 354.717C222.788 352.57 219.339 352.707 219.339 352.707C219.339 352.707 223.48 337.125 209.482 332.985C205.301 331.755 202.142 331.996 199.762 332.945" stroke="#263238" stroke-width="0.804" stroke-linecap="round" stroke-linejoin="round"/>
<path d="M227.227 360.024C227.227 359.194 227.111 358.368 226.881 357.571" stroke="#263238" stroke-width="0.804" stroke-linecap="round" stroke-linejoin="round"/>
<path d="M187.815 311.39H155.566L163.606 296.355H179.775L187.815 311.39Z" fill="#757575" stroke="#263238" stroke-width="0.804" stroke-linecap="round" stroke-linejoin="round"/>
<path d="M120.279 311.39H88.0303L96.0703 296.355H112.239L120.279 311.39Z" fill="#757575" stroke="#263238" stroke-width="0.804" stroke-linecap="round" stroke-linejoin="round"/>
<path d="M159.674 311.39H116.17L124.21 296.355H151.634L159.674 311.39Z" fill="#999999" stroke="#263238" stroke-width="0.804" stroke-linecap="round" stroke-linejoin="round"/>
<path d="M185.659 297.432H157.729V150.3C157.727 133.097 162.566 116.24 171.694 101.658C180.822 116.24 185.661 133.097 185.659 150.3V297.432Z" fill="#0474BA"/>
<path opacity="0.3" d="M185.563 146.329C185.619 147.631 185.659 148.942 185.659 150.252V297.432H157.729V150.3C157.729 148.99 157.729 147.679 157.817 146.377L185.563 146.329Z" fill="white"/>
<path opacity="0.2" d="M166.774 151.313V297.432H157.729V150.3C157.716 139.473 159.622 128.729 163.357 118.566C165.612 129.337 166.757 140.31 166.774 151.313Z" fill="black"/>
<path opacity="0.2" d="M185.659 150.26V297.432H181.904V151.86C181.904 134.598 178.432 117.511 171.693 101.618C180.821 116.2 185.661 133.057 185.659 150.26Z" fill="black"/>
<path d="M185.659 297.432H157.729V150.3C157.727 133.097 162.566 116.24 171.694 101.658V101.658C180.822 116.24 185.661 133.097 185.659 150.3V297.432Z" stroke="#263238" stroke-width="0.804" stroke-linecap="round" stroke-linejoin="round"/>
<path d="M118.123 297.432H90.1924V150.3C90.1904 133.097 95.03 116.24 104.158 101.658C113.286 116.24 118.125 133.097 118.123 150.3V297.432Z" fill="#0474BA"/>
<path opacity="0.3" d="M118.012 146.023C118.076 147.43 118.124 148.845 118.124 150.26V297.432H90.1934V150.3C90.1934 148.885 90.2416 147.47 90.3059 146.063L118.012 146.023Z" fill="white"/>
<path opacity="0.2" d="M114.563 124.95C116.927 133.179 118.126 141.699 118.124 150.26V297.432H109.071V151.313C109.072 144.834 109.464 138.361 110.245 131.929C110.781 127.432 111.518 122.964 112.456 118.526C113.236 120.641 113.944 122.78 114.563 124.95Z" fill="black"/>
<path opacity="0.2" d="M104.159 101.618C97.414 117.51 93.9386 134.597 93.94 151.86V297.432H90.1934V150.3C90.1838 133.083 95.0238 116.212 104.159 101.618Z" fill="black"/>
<path d="M118.123 297.432H90.1924V150.3C90.1904 133.097 95.03 116.24 104.158 101.658C113.286 116.24 118.125 133.097 118.123 150.3V297.432Z" stroke="#263238" stroke-width="0.804" stroke-linecap="round" stroke-linejoin="round"/>
<path d="M185.564 146.232H158.051" stroke="#263238" stroke-width="0.804" stroke-linecap="round" stroke-linejoin="round"/>
<path d="M157.721 177.371H185.652V175.28H157.721V177.371Z" stroke="#263238" stroke-width="0.804" stroke-linecap="round" stroke-linejoin="round"/>
<path d="M157.729 236.778H185.563V231.48H157.729V236.778Z" stroke="#263238" stroke-width="0.804" stroke-linecap="round" stroke-linejoin="round"/>
<path d="M90.2812 146.232H117.802" stroke="#263238" stroke-width="0.804" stroke-linecap="round" stroke-linejoin="round"/>
<path d="M118.123 175.281H90.1924V177.371H118.123V175.281Z" stroke="#263238" stroke-width="0.804" stroke-linecap="round" stroke-linejoin="round"/>
<path d="M118.116 231.472H90.2812V236.771H118.116V231.472Z" stroke="#263238" stroke-width="0.804" stroke-linecap="round" stroke-linejoin="round"/>
<path d="M158.05 297.432H117.802V85.3449C117.793 60.555 124.758 36.2627 137.902 15.2441C151.041 36.2618 158.006 60.5502 158.002 85.3369L158.05 297.432Z" fill="#0474BA"/>
<path opacity="0.2" d="M157.673 75.4075H118.188C119.794 54.0598 126.569 33.4229 137.927 15.2764C149.292 33.432 156.069 54.0803 157.673 75.4397V75.4075Z" fill="black" fill-opacity="0.7"/>
<g opacity="0.2">
<path opacity="0.2" d="M145.234 297.432H130.609V91.9217C130.609 67.8981 133.142 44.357 137.926 23.9917C142.702 44.357 145.234 67.8981 145.234 91.9136V297.432Z" fill="white"/>
</g>
<path opacity="0.2" d="M157.633 263.286V297.432H118.124V263.383C119.576 261.96 120.875 260.389 121.999 258.696V211.798C121.999 195.573 128.431 186.609 137.927 186.609C147.422 186.609 153.854 195.573 153.854 211.798V258.696C154.948 260.355 156.215 261.894 157.633 263.286Z" fill="black"/>
<path d="M158.05 297.432H117.802V85.3449C117.793 60.555 124.758 36.2627 137.902 15.2441V15.2441C151.041 36.2618 158.006 60.5502 158.002 85.3369L158.05 297.432Z" stroke="#263238" stroke-width="0.804" stroke-linecap="round" stroke-linejoin="round"/>
<path d="M158.051 110.397H117.803V115.808H158.051V110.397Z" stroke="#263238" stroke-width="0.804" stroke-linecap="round" stroke-linejoin="round"/>
<path d="M158.051 157.472H117.803V177.371H158.051V157.472Z" stroke="#263238" stroke-width="0.804" stroke-linecap="round" stroke-linejoin="round"/>
<path d="M158.051 251.773H117.803V267.837H158.051V251.773Z" stroke="#263238" stroke-width="0.804" stroke-linecap="round" stroke-linejoin="round"/>
<path d="M152.253 260.762V238.861H147.799V292.383H169.853V282.389C169.852 281.123 169.553 279.874 168.979 278.745C168.404 277.616 167.572 276.639 166.548 275.893L156.056 268.239C154.878 267.38 153.92 266.255 153.259 264.956C152.599 263.656 152.254 262.219 152.253 260.762Z" fill="#0474BA" stroke="#263238" stroke-width="0.804" stroke-linecap="round" stroke-linejoin="round"/>
<path d="M123.591 260.762V238.861H128.045V292.383H105.991V282.389C105.991 281.123 106.291 279.874 106.865 278.745C107.439 277.616 108.272 276.639 109.296 275.893L119.796 268.239C120.972 267.379 121.929 266.254 122.589 264.955C123.248 263.656 123.592 262.219 123.591 260.762Z" fill="#0474BA" stroke="#263238" stroke-width="0.804" stroke-linecap="round" stroke-linejoin="round"/>
<path d="M105.991 287.72H169.853" stroke="#263238" stroke-width="0.804" stroke-linecap="round" stroke-linejoin="round"/>
<path d="M144.969 297.432H130.883L128.471 290.438H147.381L144.969 297.432Z" fill="#0474BA" stroke="#263238" stroke-width="0.804" stroke-linecap="round" stroke-linejoin="round"/>
<path d="M152.318 211.894V292.383H123.695V211.894C123.706 203.951 126.344 196.234 131.197 189.945C132.002 188.907 133.035 188.066 134.215 187.488C135.395 186.91 136.692 186.609 138.007 186.609C139.321 186.609 140.618 186.91 141.798 187.488C142.978 188.066 144.011 188.907 144.816 189.945C146.216 191.756 147.438 193.698 148.467 195.742C149.214 197.211 149.856 198.732 150.388 200.293C151.666 204.027 152.318 207.947 152.318 211.894Z" fill="white"/>
<path opacity="0.3" d="M152.238 211.894V292.383H145.162V213.993C145.167 210.204 144.845 206.422 144.198 202.689C143.935 201.172 143.613 199.695 143.233 198.259C142.746 196.345 142.136 194.465 141.408 192.631C140.547 190.46 139.277 189.415 138.007 189.415C136.737 189.415 135.458 190.5 134.598 192.631C133.876 194.468 133.267 196.347 132.773 198.259C131.473 203.402 130.828 208.688 130.851 213.993V292.383H123.615V211.894C123.626 203.951 126.264 196.234 131.117 189.945C131.922 188.907 132.955 188.066 134.135 187.488C135.315 186.91 136.612 186.609 137.926 186.609C139.241 186.609 140.538 186.91 141.718 187.488C142.898 188.066 143.931 188.907 144.736 189.945C146.136 191.756 147.358 193.698 148.386 195.742C149.134 197.211 149.776 198.732 150.308 200.293C151.586 204.027 152.238 207.947 152.238 211.894Z" fill="#0474BA"/>
<path d="M152.318 211.894V292.383H123.695V211.894C123.706 203.951 126.344 196.234 131.197 189.945C132.002 188.907 133.035 188.066 134.215 187.488C135.395 186.91 136.692 186.609 138.007 186.609C139.321 186.609 140.618 186.91 141.798 187.488C142.978 188.066 144.011 188.907 144.816 189.945C146.216 191.756 147.438 193.698 148.467 195.742C149.214 197.211 149.856 198.732 150.388 200.293C151.666 204.027 152.318 207.947 152.318 211.894V211.894Z" stroke="#263238" stroke-width="0.804" stroke-linecap="round" stroke-linejoin="round"/>
<path d="M143.916 210.962C141.576 203.838 134.22 203.838 131.856 210.962L129.219 209.354C132.579 199.119 143.152 199.119 146.521 209.354L143.916 210.962Z" fill="white"/>
<path d="M143.916 210.962C141.576 203.838 134.22 203.838 131.856 210.962L129.219 209.354C132.579 199.119 143.152 199.119 146.521 209.354L143.916 210.962Z" fill="#BFBFBF" stroke="#263238" stroke-width="0.804" stroke-miterlimit="10"/>
<path d="M148.386 195.742H127.482C128.511 193.698 129.733 191.756 131.133 189.945C131.938 188.907 132.971 188.066 134.151 187.488C135.331 186.91 136.628 186.609 137.942 186.609C139.257 186.609 140.554 186.91 141.734 187.488C142.914 188.066 143.947 188.907 144.752 189.945C146.146 191.757 147.363 193.698 148.386 195.742Z" fill="#0474BA" stroke="#263238" stroke-width="0.804" stroke-linecap="round" stroke-linejoin="round"/>
<path d="M256.066 298.445C256.388 311.309 250.028 310.256 250.028 310.256C249.357 308.777 248.55 307.364 247.616 306.035C244.288 300.913 239.19 293.733 241.104 289.48C242.354 286.942 243.775 284.493 245.357 282.148C248.766 276.922 252.682 271.639 252.682 271.639L235.701 268.825C235.701 268.825 223.641 273.826 214.065 274.405H213.326C204.61 274.574 206.017 267.74 206.017 265.561C206.017 264.621 208.373 262.9 211.131 261.204C215.062 258.792 219.83 256.42 219.83 256.42L217.249 251.073C215.766 251.373 214.246 251.454 212.739 251.314C206.13 250.591 207.038 244.078 208.108 241.248C208.413 240.444 209.933 239.206 212.08 237.791C218.873 233.313 231.882 227.074 231.882 227.074H250.961L269.734 278.321C269.734 278.321 255.753 285.597 256.066 298.445Z" fill="white"/>
<path opacity="0.4" d="M256.066 298.445C256.388 311.309 250.028 310.256 250.028 310.256C249.357 308.777 248.55 307.364 247.616 306.035C244.288 300.913 239.19 293.733 241.104 289.48C242.354 286.942 243.775 284.493 245.357 282.148C248.766 276.922 252.682 271.639 252.682 271.639L235.701 268.825C235.701 268.825 223.641 273.826 214.065 274.405H213.326C204.61 274.574 206.017 267.74 206.017 265.561C206.017 264.621 208.373 262.9 211.131 261.204C215.062 258.792 219.83 256.42 219.83 256.42L217.249 251.073C215.766 251.373 214.246 251.454 212.739 251.314C206.13 250.591 207.038 244.078 208.108 241.248C208.413 240.444 209.933 239.206 212.08 237.791C218.873 233.313 231.882 227.074 231.882 227.074H250.961L269.734 278.321C269.734 278.321 255.753 285.597 256.066 298.445Z" fill="#0474BA"/>
<path opacity="0.4" d="M256.066 298.445C256.388 311.309 250.028 310.255 250.028 310.255C249.357 308.777 248.55 307.363 247.616 306.034C247.858 304.803 247.974 303.55 247.962 302.296C247.882 297.898 244.272 289.48 244.272 289.48L247.962 283.643C247.203 282.975 246.317 282.466 245.357 282.147C248.766 276.921 252.682 271.639 252.682 271.639L235.701 268.825C235.701 268.825 223.641 273.826 214.065 274.405H213.326C213.881 269.621 211.991 263.591 211.131 261.179C215.062 258.767 219.83 256.395 219.83 256.395L217.249 251.049C215.766 251.348 214.246 251.429 212.739 251.29C213.607 247.117 212.779 241.328 212.08 237.767C218.873 233.288 231.882 227.049 231.882 227.049H250.961L269.734 278.296C269.734 278.296 255.753 285.597 256.066 298.445Z" fill="#0474BA"/>
<path d="M250.977 227.074H231.898C231.898 227.074 209.386 237.871 208.124 241.248C206.862 244.625 205.816 253.131 217.265 251.073L219.846 256.42C219.846 256.42 206.033 263.286 206.033 265.561C206.033 267.837 204.546 274.976 214.073 274.405C223.601 273.834 235.709 268.825 235.709 268.825L252.69 271.639C252.69 271.639 243.669 283.812 241.12 289.48C238.571 295.148 248.436 305.978 250.044 310.256C250.044 310.256 256.404 311.293 256.082 298.445C255.761 285.597 269.75 278.345 269.75 278.345" stroke="#263238" stroke-width="0.804" stroke-linecap="round" stroke-linejoin="round"/>
<path d="M246.459 287.189C246.459 287.189 251.243 284.512 253.848 289.48" stroke="#263238" stroke-width="0.804" stroke-linecap="round" stroke-linejoin="round"/>
<path d="M252.931 149.23H254.756C255.014 149.23 255.261 149.333 255.444 149.515C255.626 149.698 255.729 149.945 255.729 150.203V189.358H251.958V150.203C251.958 150.076 251.983 149.949 252.032 149.831C252.081 149.713 252.153 149.606 252.243 149.515C252.333 149.425 252.441 149.353 252.559 149.305C252.677 149.256 252.803 149.23 252.931 149.23Z" fill="#263238"/>
<path d="M255.014 107.093H252.666V151.16H255.014V107.093Z" fill="#263238"/>
<path d="M255.367 102.727H252.312V108.701H255.367V102.727Z" fill="#757575" stroke="#263238" stroke-width="0.804" stroke-linecap="round" stroke-linejoin="round"/>
<path opacity="0.3" d="M253.067 179.099V179.895" stroke="white" stroke-width="0.804" stroke-linecap="round" stroke-linejoin="round"/>
<path opacity="0.3" d="M254.619 150.42H253.067V177.186" stroke="white" stroke-width="0.804" stroke-linecap="round" stroke-linejoin="round"/>
<path opacity="0.3" d="M253.687 135.466V136.953" stroke="white" stroke-width="0.804" stroke-linecap="round" stroke-linejoin="round"/>
<path opacity="0.3" d="M253.687 110.027V132.395" stroke="white" stroke-width="0.804" stroke-linecap="round" stroke-linejoin="round"/>
<path d="M286.844 187.187H220.843C218.428 187.187 216.47 189.145 216.47 191.561V269.935C216.47 272.35 218.428 274.308 220.843 274.308H286.844C289.259 274.308 291.218 272.35 291.218 269.935V191.561C291.218 189.145 289.259 187.187 286.844 187.187Z" fill="#757575"/>
<path opacity="0.2" d="M219.171 258.679V192.461C219.17 192.054 219.25 191.651 219.405 191.274C219.56 190.898 219.788 190.556 220.075 190.267C220.363 189.979 220.704 189.75 221.08 189.594C221.457 189.438 221.86 189.358 222.267 189.358H282.961C283.093 189.359 283.224 189.325 283.338 189.258C283.453 189.192 283.547 189.096 283.612 188.98C283.674 188.867 283.705 188.741 283.702 188.612C283.7 188.484 283.664 188.358 283.598 188.248C283.532 188.138 283.439 188.046 283.327 187.983C283.216 187.92 283.089 187.886 282.961 187.887H221.101C220.154 187.887 219.246 188.263 218.577 188.932C217.907 189.602 217.531 190.51 217.531 191.456V258.888C217.529 259.042 217.575 259.192 217.663 259.318C217.751 259.444 217.876 259.539 218.021 259.59C218.166 259.64 218.324 259.644 218.471 259.6C218.618 259.557 218.748 259.468 218.842 259.346L218.987 259.153C219.104 259.023 219.17 258.854 219.171 258.679Z" fill="white"/>
<path opacity="0.4" d="M291.217 191.561V269.935C291.217 271.095 290.756 272.207 289.936 273.028C289.116 273.848 288.003 274.309 286.843 274.309H220.843C219.817 274.309 218.823 273.947 218.037 273.288C219.16 272.457 220.391 271.784 221.695 271.286H246.844H285.292C286.145 271.286 286.963 270.947 287.566 270.344C288.169 269.741 288.508 268.923 288.508 268.07V193.161C289.125 191.975 289.941 190.904 290.92 189.993C291.117 190.492 291.218 191.024 291.217 191.561Z" fill="black" fill-opacity="0.7"/>
<path opacity="0.2" d="M291.219 252.094V269.935C291.219 271.095 290.758 272.208 289.938 273.028C289.117 273.848 288.005 274.309 286.845 274.309H247.304L246.846 271.302C247.168 270.056 246.846 264.556 246.846 264.556C244.305 257.779 246.846 247.608 246.846 247.608L262.805 237.735C262.805 237.735 273.563 243.612 275.629 245.775C277.695 247.938 279.287 261.573 279.287 261.573C281.418 261.067 285.132 257.939 288.517 254.715C289.442 253.847 290.375 252.947 291.219 252.094Z" fill="black" fill-opacity="0.7"/>
<path d="M286.844 187.187H220.843C218.428 187.187 216.47 189.145 216.47 191.561V269.935C216.47 272.35 218.428 274.308 220.843 274.308H286.844C289.259 274.308 291.218 272.35 291.218 269.935V191.561C291.218 189.145 289.259 187.187 286.844 187.187Z" stroke="#263238" stroke-width="0.804" stroke-linecap="round" stroke-linejoin="round"/>
<path d="M288.516 257.738V260.126" stroke="#263238" stroke-width="0.804" stroke-linecap="round" stroke-linejoin="round"/>
<path d="M244.287 190.162H285.516C286.312 190.162 287.074 190.478 287.637 191.04C288.199 191.603 288.515 192.366 288.515 193.161V254.562" stroke="#263238" stroke-width="0.804" stroke-linecap="round" stroke-linejoin="round"/>
<path d="M219.171 203.959V193.161C219.171 192.366 219.487 191.603 220.049 191.04C220.612 190.478 221.374 190.162 222.17 190.162H235.388" stroke="#263238" stroke-width="0.804" stroke-linecap="round" stroke-linejoin="round"/>
<path d="M219.171 211.275V209.208" stroke="#263238" stroke-width="0.804" stroke-linecap="round" stroke-linejoin="round"/>
<path d="M232.356 271.334H222.17C221.374 271.334 220.612 271.018 220.049 270.456C219.487 269.893 219.171 269.13 219.171 268.335V215.271" stroke="#263238" stroke-width="0.804" stroke-linecap="round" stroke-linejoin="round"/>
<path d="M288.516 268.335C288.516 269.13 288.2 269.893 287.638 270.456C287.075 271.018 286.312 271.334 285.517 271.334H235.388" stroke="#263238" stroke-width="0.804" stroke-linecap="round" stroke-linejoin="round"/>
<path d="M253.848 252.858C262.2 252.858 268.971 246.087 268.971 237.735C268.971 229.382 262.2 222.611 253.848 222.611C245.496 222.611 238.725 229.382 238.725 237.735C238.725 246.087 245.496 252.858 253.848 252.858Z" fill="#0474BA"/>
<path opacity="0.2" d="M268.971 237.735C268.971 240.681 268.112 243.562 266.498 246.027C264.884 248.491 262.585 250.43 259.884 251.605C257.183 252.781 254.198 253.143 251.294 252.645C248.391 252.148 245.696 250.814 243.54 248.806C244.069 247.79 244.812 246.901 245.719 246.201C245.719 246.201 254.474 253.694 262.474 245.686C268.464 239.689 263.278 230.748 263.278 230.748C263.278 230.748 264.082 229.88 266.494 229.486C268.104 231.936 268.964 234.803 268.971 237.735Z" fill="black" fill-opacity="0.7"/>
<path opacity="0.2" d="M244.98 241.144C244.814 241.215 244.628 241.222 244.457 241.164C244.287 241.106 244.143 240.987 244.055 240.83C243.877 240.558 243.77 240.246 243.741 239.922C242.712 233.49 246.113 227.411 252.971 226.841C254.25 226.728 257.53 226.841 257.064 228.931C256.867 229.598 256.432 230.17 255.842 230.539C253.82 231.823 251.867 233.21 249.988 234.696C249.061 235.48 248.248 236.393 247.576 237.405C247.231 237.92 246.073 240.694 244.98 241.144Z" fill="black" fill-opacity="0.7"/>
<path d="M253.848 252.858C262.2 252.858 268.971 246.087 268.971 237.735C268.971 229.382 262.2 222.611 253.848 222.611C245.496 222.611 238.725 229.382 238.725 237.735C238.725 246.087 245.496 252.858 253.848 252.858Z" stroke="#263238" stroke-width="0.804" stroke-linecap="round" stroke-linejoin="round"/>
<path d="M242.102 237.735C242.102 236.193 242.405 234.666 242.996 233.241C243.586 231.816 244.452 230.522 245.543 229.432C246.633 228.342 247.928 227.477 249.353 226.888C250.779 226.298 252.306 225.996 253.848 225.997" stroke="#263238" stroke-width="0.804" stroke-linecap="round" stroke-linejoin="round"/>
<path d="M250.776 249.063C248.678 248.496 246.779 247.358 245.29 245.775C243.8 244.192 242.78 242.227 242.342 240.099" stroke="#263238" stroke-width="0.804" stroke-linecap="round" stroke-linejoin="round"/>
<path d="M261.357 228.714C263.211 230.258 264.544 232.335 265.176 234.664C265.807 236.992 265.705 239.459 264.884 241.728C264.064 243.996 262.564 245.957 260.589 247.343C258.614 248.729 256.26 249.473 253.848 249.473" stroke="#263238" stroke-width="0.804" stroke-linecap="round" stroke-linejoin="round"/>
<path d="M256.211 226.229C257.184 226.428 258.127 226.752 259.017 227.194" stroke="#263238" stroke-width="0.804" stroke-linecap="round" stroke-linejoin="round"/>
<path d="M300.278 211.187C300.278 211.187 293.918 213.156 291.691 218.68" stroke="#263238" stroke-width="0.804" stroke-linecap="round" stroke-linejoin="round"/>
<path d="M329.11 386.427C328.394 374.133 327.928 361.575 327.317 351.469C326.047 330.508 325.09 316.446 323.184 302.135C321.279 287.824 321.576 266.204 320.636 258.655C319.695 251.105 316.841 249.505 314.598 240.533C312.355 231.56 310.328 213.695 306.646 211.187C302.964 208.678 291.692 203.951 291.692 203.951V254.554C285.01 264.822 277.059 267.362 277.059 267.362C271.97 252.633 272.613 246.788 267.524 241.377C262.434 235.966 258.768 228.899 250.776 231.858C246.973 233.265 244.939 234.696 246.845 247.6C248.75 260.504 252.569 264.548 252.569 264.548C253.204 268.954 252.256 281.77 250.664 288.33C249.072 294.891 255.118 312.306 257.98 323.441C260.842 334.577 276.11 357.129 276.11 357.129C276.453 365.624 276.241 374.132 275.475 382.599C275.354 383.797 275.21 385.076 275.041 386.418C275.041 386.418 282.06 397.232 289.569 397.232C317.774 397.24 329.11 386.427 329.11 386.427Z" fill="white"/>
<path opacity="0.4" d="M247.978 235.661C248.272 234.925 248.272 234.105 247.978 233.369C248.801 232.687 249.752 232.176 250.776 231.866C258.767 228.907 262.434 235.982 267.523 241.385C267.981 241.869 268.408 242.382 268.801 242.921C264.194 241.184 258.156 241.216 255.728 244.585C252.673 248.806 246.45 241.2 247.978 235.661Z" fill="#0474BA"/>
<path opacity="0.4" d="M282.493 374.013L285.01 383.443C285.01 383.443 281.464 379.97 276.166 371.544C276.423 363.319 276.109 357.137 276.109 357.137C276.109 357.137 260.833 334.576 257.979 323.449C255.125 312.322 249.071 294.891 250.663 288.338C252.255 281.786 253.203 268.962 252.568 264.556C251.821 263.637 251.199 262.623 250.719 261.541C251.378 260.857 252.213 260.368 253.131 260.126C255.774 267.28 256.83 274.923 256.226 282.525C255.238 295.245 257.416 296.306 261.629 312.844C265.842 329.383 272.837 348.108 276.101 351.436C279.366 354.765 280.821 369.96 282.493 374.013Z" fill="#0474BA"/>
<path opacity="0.4" d="M288.516 262.586C288.516 262.586 293.533 263.39 295.551 264.556C295.551 264.556 285.758 267.113 285.099 269.838C284.439 272.564 282.365 275.394 278.667 272.065C278.667 272.065 278.474 269.983 278.088 266.96C280.452 265.907 286.458 262.602 291.692 254.562V203.958C291.692 203.958 297.255 206.29 301.846 208.541C298.445 208.992 294.964 210.037 293.605 212.336C294.047 213.744 294.787 215.04 295.775 216.136C296.763 217.232 297.975 218.103 299.33 218.688C302.948 220.296 299.33 247.632 299.33 247.632C299.33 247.632 305.263 249.095 307.169 254.586C307.169 254.586 297.416 255.583 293.388 258.679C289.36 261.774 288.516 262.586 288.516 262.586Z" fill="#0474BA"/>
<path opacity="0.4" d="M327.318 351.468C327.816 359.653 328.21 369.446 328.717 379.407C327.462 360.473 323.659 327.951 323.659 327.951C323.659 327.951 320.259 339.971 320.001 338.693C319.245 334.93 321.609 313.664 321.384 306.091C321.288 302.658 321.537 293.854 321.842 285.267C322.116 291.168 322.51 297.086 323.185 302.151C325.091 316.446 326.047 330.508 327.318 351.468Z" fill="#0474BA"/>
<path d="M329.11 386.427C328.394 374.133 327.928 361.575 327.317 351.469C326.047 330.508 325.09 316.446 323.184 302.135C321.279 287.824 321.576 266.204 320.636 258.655C319.695 251.105 316.841 249.505 314.598 240.533C312.355 231.56 310.328 213.695 306.646 211.187C302.964 208.678 291.692 203.951 291.692 203.951V254.554C285.01 264.822 277.059 267.362 277.059 267.362C271.97 252.633 272.613 246.788 267.524 241.377C262.434 235.966 258.768 228.899 250.776 231.858C246.973 233.265 244.939 234.696 246.845 247.6C248.75 260.504 252.569 264.548 252.569 264.548C253.204 268.954 252.256 281.77 250.664 288.33C249.072 294.891 255.118 312.306 257.98 323.441C260.842 334.577 276.11 357.129 276.11 357.129C276.453 365.624 276.241 374.132 275.475 382.599C275.354 383.797 275.21 385.076 275.041 386.418" stroke="#263238" stroke-width="0.804" stroke-linecap="round" stroke-linejoin="round"/>
<path d="M277.059 267.37C277.059 267.37 278.667 274.461 281.834 276.053C285.002 277.645 289.593 276.053 289.593 276.053" stroke="#263238" stroke-width="0.804" stroke-linecap="round" stroke-linejoin="round"/>
<path d="M291.691 254.563C291.691 254.563 294.907 247.487 305.054 253.622" stroke="#263238" stroke-width="0.804" stroke-linecap="round" stroke-linejoin="round"/>
<path d="M291.691 225.996C291.691 225.996 292.327 222.242 297.577 221.293" stroke="#263238" stroke-width="0.804" stroke-linecap="round" stroke-linejoin="round"/>
<path d="M276.11 357.137C282.148 364.799 280.999 372.107 283.346 375.926C285.694 379.745 285.348 393.421 285.348 393.421" stroke="#263238" stroke-width="0.804" stroke-linecap="round" stroke-linejoin="round"/>
<path d="M319.993 283.643V310.255C319.909 317.882 319.164 325.487 317.766 332.985" stroke="#263238" stroke-width="0.804" stroke-linecap="round" stroke-linejoin="round"/>
<path d="M252.568 264.556C252.568 264.556 252.568 260.014 253.847 258.655" stroke="#263238" stroke-width="0.804" stroke-linecap="round" stroke-linejoin="round"/>
<path d="M256.066 250.269C256.066 250.269 258.888 240.782 267.154 244.923" stroke="#263238" stroke-width="0.804" stroke-linecap="round" stroke-linejoin="round"/>
<path d="M281.553 265.023C287.695 265.159 293.918 262.434 297.576 265.746" stroke="#263238" stroke-width="0.804" stroke-linecap="round" stroke-linejoin="round"/>
<path d="M235.925 213V203.28H238.073V211.548H240.305V213H235.925ZM244.877 213.144C244.149 213.144 243.573 213.016 243.149 212.76C242.725 212.504 242.421 212.136 242.237 211.656C242.053 211.176 241.961 210.604 241.961 209.94V206.328C241.961 205.656 242.053 205.084 242.237 204.612C242.421 204.14 242.725 203.78 243.149 203.532C243.573 203.276 244.149 203.148 244.877 203.148C245.613 203.148 246.193 203.276 246.617 203.532C247.049 203.78 247.357 204.14 247.541 204.612C247.725 205.084 247.817 205.656 247.817 206.328V209.94C247.817 210.604 247.725 211.176 247.541 211.656C247.357 212.136 247.049 212.504 246.617 212.76C246.193 213.016 245.613 213.144 244.877 213.144ZM244.877 211.62C245.101 211.62 245.265 211.564 245.369 211.452C245.473 211.34 245.541 211.196 245.573 211.02C245.605 210.844 245.621 210.664 245.621 210.48V205.8C245.621 205.608 245.605 205.428 245.573 205.26C245.541 205.084 245.473 204.94 245.369 204.828C245.265 204.716 245.101 204.66 244.877 204.66C244.669 204.66 244.513 204.716 244.409 204.828C244.305 204.94 244.237 205.084 244.205 205.26C244.173 205.428 244.157 205.608 244.157 205.8V210.48C244.157 210.664 244.169 210.844 244.193 211.02C244.225 211.196 244.289 211.34 244.385 211.452C244.489 211.564 244.653 211.62 244.877 211.62ZM252.656 213.144C251.984 213.144 251.452 213.004 251.06 212.724C250.676 212.444 250.4 212.052 250.232 211.548C250.072 211.036 249.992 210.448 249.992 209.784V206.52C249.992 205.832 250.08 205.236 250.256 204.732C250.432 204.228 250.732 203.84 251.156 203.568C251.588 203.288 252.172 203.148 252.908 203.148C253.628 203.148 254.192 203.268 254.6 203.508C255.016 203.748 255.312 204.08 255.488 204.504C255.664 204.928 255.752 205.424 255.752 205.992V206.616H253.652V205.824C253.652 205.616 253.636 205.424 253.604 205.248C253.58 205.072 253.516 204.932 253.412 204.828C253.316 204.716 253.156 204.66 252.932 204.66C252.7 204.66 252.532 204.724 252.428 204.852C252.324 204.972 252.256 205.124 252.224 205.308C252.2 205.492 252.188 205.684 252.188 205.884V210.384C252.188 210.6 252.208 210.804 252.248 210.996C252.296 211.18 252.376 211.332 252.488 211.452C252.608 211.564 252.776 211.62 252.992 211.62C253.216 211.62 253.388 211.56 253.508 211.44C253.628 211.32 253.712 211.164 253.76 210.972C253.808 210.78 253.832 210.576 253.832 210.36V209.22H252.956V207.96H255.764V213H254.348L254.228 212.196C254.1 212.468 253.912 212.696 253.664 212.88C253.416 213.056 253.08 213.144 252.656 213.144ZM262.191 213V203.28H264.339V213H262.191ZM266.788 213V203.28H268.3L270.292 207.96V203.28H272.068V213H270.616L268.624 207.96V213H266.788Z" fill="white"/>
</g>
<defs>
<filter id="filter0_d_814_9186" x="-4" y="0" width="410" height="410" filterUnits="userSpaceOnUse" color-interpolation-filters="sRGB">
<feFlood flood-opacity="0" result="BackgroundImageFix"/>
<feColorMatrix in="SourceAlpha" type="matrix" values="0 0 0 0 0 0 0 0 0 0 0 0 0 0 0 0 0 0 127 0" result="hardAlpha"/>
<feOffset dy="4"/>
<feGaussianBlur stdDeviation="2"/>
<feComposite in2="hardAlpha" operator="out"/>
<feColorMatrix type="matrix" values="0 0 0 0 0 0 0 0 0 0 0 0 0 0 0 0 0 0 0.25 0"/>
<feBlend mode="normal" in2="BackgroundImageFix" result="effect1_dropShadow_814_9186"/>
<feBlend mode="normal" in="SourceGraphic" in2="effect1_dropShadow_814_9186" result="shape"/>
</filter>
</defs>
</svg>
