<svg width="25" height="25" viewBox="0 0 25 25" fill="none" xmlns="http://www.w3.org/2000/svg">
<g id="add_circle">
<mask id="mask0_1_9527" style="mask-type:alpha" maskUnits="userSpaceOnUse" x="0" y="0" width="25" height="25">
<rect id="Bounding box" x="0.988281" y="0.582031" width="24" height="24" fill="#D9D9D9"/>
</mask>
<g mask="url(#mask0_1_9527)">
<path id="add_circle_2" d="M11.9883 17.582H13.9883V13.582H17.9883V11.582H13.9883V7.58203H11.9883V11.582H7.98828V13.582H11.9883V17.582ZM12.9883 22.582C11.6049 22.582 10.3049 22.3195 9.08828 21.7945C7.87161 21.2695 6.81328 20.557 5.91328 19.657C5.01328 18.757 4.30078 17.6987 3.77578 16.482C3.25078 15.2654 2.98828 13.9654 2.98828 12.582C2.98828 11.1987 3.25078 9.8987 3.77578 8.68203C4.30078 7.46536 5.01328 6.40703 5.91328 5.50703C6.81328 4.60703 7.87161 3.89453 9.08828 3.36953C10.3049 2.84453 11.6049 2.58203 12.9883 2.58203C14.3716 2.58203 15.6716 2.84453 16.8883 3.36953C18.1049 3.89453 19.1633 4.60703 20.0633 5.50703C20.9633 6.40703 21.6758 7.46536 22.2008 8.68203C22.7258 9.8987 22.9883 11.1987 22.9883 12.582C22.9883 13.9654 22.7258 15.2654 22.2008 16.482C21.6758 17.6987 20.9633 18.757 20.0633 19.657C19.1633 20.557 18.1049 21.2695 16.8883 21.7945C15.6716 22.3195 14.3716 22.582 12.9883 22.582ZM12.9883 20.582C15.2216 20.582 17.1133 19.807 18.6633 18.257C20.2133 16.707 20.9883 14.8154 20.9883 12.582C20.9883 10.3487 20.2133 8.45703 18.6633 6.90703C17.1133 5.35703 15.2216 4.58203 12.9883 4.58203C10.7549 4.58203 8.86328 5.35703 7.31328 6.90703C5.76328 8.45703 4.98828 10.3487 4.98828 12.582C4.98828 14.8154 5.76328 16.707 7.31328 18.257C8.86328 19.807 10.7549 20.582 12.9883 20.582Z" fill="#0373BA"/>
</g>
</g>
</svg>
