<svg width="21" height="21" viewBox="0 0 21 21" fill="none" xmlns="http://www.w3.org/2000/svg">
<g id="arrow_circle_down">
<mask id="mask0_108_8896" style="mask-type:alpha" maskUnits="userSpaceOnUse" x="0" y="0" width="21" height="21">
<rect id="Bounding box" x="0.529297" y="0.582031" width="20" height="20" fill="#D9D9D9"/>
</mask>
<g mask="url(#mask0_108_8896)">
<path id="arrow_circle_down_2" d="M10.5286 13.9147L13.862 10.5814L12.6953 9.41471L11.362 10.748V7.24805H9.69531V10.748L8.36198 9.41471L7.19531 10.5814L10.5286 13.9147ZM10.5286 18.9147C9.37587 18.9147 8.29253 18.6958 7.27865 18.258C6.26476 17.8208 5.38281 17.2272 4.63281 16.4772C3.88281 15.7272 3.2892 14.8453 2.85198 13.8314C2.4142 12.8175 2.19531 11.7342 2.19531 10.5814C2.19531 9.4286 2.4142 8.34527 2.85198 7.33138C3.2892 6.31749 3.88281 5.43555 4.63281 4.68555C5.38281 3.93555 6.26476 3.34166 7.27865 2.90388C8.29253 2.46666 9.37587 2.24805 10.5286 2.24805C11.6814 2.24805 12.7648 2.46666 13.7786 2.90388C14.7925 3.34166 15.6745 3.93555 16.4245 4.68555C17.1745 5.43555 17.7681 6.31749 18.2053 7.33138C18.6431 8.34527 18.862 9.4286 18.862 10.5814C18.862 11.7342 18.6431 12.8175 18.2053 13.8314C17.7681 14.8453 17.1745 15.7272 16.4245 16.4772C15.6745 17.2272 14.7925 17.8208 13.7786 18.258C12.7648 18.6958 11.6814 18.9147 10.5286 18.9147ZM10.5286 17.248C12.3759 17.248 13.9489 16.5989 15.2478 15.3005C16.5461 14.0017 17.1953 12.4286 17.1953 10.5814C17.1953 8.73416 16.5461 7.1611 15.2478 5.86221C13.9489 4.56388 12.3759 3.91471 10.5286 3.91471C8.68142 3.91471 7.10865 4.56388 5.81031 5.86221C4.51142 7.1611 3.86198 8.73416 3.86198 10.5814C3.86198 12.4286 4.51142 14.0017 5.81031 15.3005C7.10865 16.5989 8.68142 17.248 10.5286 17.248Z" fill="#1C1B1F"/>
</g>
</g>
</svg>
