<svg width="17" height="13" viewBox="0 0 17 13" fill="none" xmlns="http://www.w3.org/2000/svg">
<path id="folder" d="M2.14062 12.5967C1.73785 12.5967 1.38715 12.4474 1.08854 12.1488C0.789931 11.8502 0.640625 11.4995 0.640625 11.0967V2.09668C0.640625 1.68418 0.789931 1.33106 1.08854 1.03731C1.38715 0.743555 1.73785 0.59668 2.14062 0.59668H6.64062L8.64062 2.59668H15.1406C15.5531 2.59668 15.9062 2.74356 16.2 3.03731C16.4937 3.33106 16.6406 3.68418 16.6406 4.09668V11.0967C16.6406 11.4995 16.4937 11.8502 16.2 12.1488C15.9062 12.4474 15.5531 12.5967 15.1406 12.5967H2.14062ZM2.14062 11.0967H15.1406V4.09668H8.01562L6.01562 2.09668H2.14062V11.0967Z" fill="#1C1B1F"/>
</svg>
