<svg width="23" height="17" viewBox="0 0 23 17" fill="none" xmlns="http://www.w3.org/2000/svg">
<path d="M5.5293 16.582C4.01263 16.582 2.7168 16.057 1.6418 15.007C0.566797 13.957 0.0292969 12.6737 0.0292969 11.157C0.0292969 9.85703 0.420964 8.6987 1.2043 7.68203C1.98763 6.66536 3.01263 6.01536 4.2793 5.73203C4.69596 4.1987 5.5293 2.95703 6.7793 2.00703C8.0293 1.05703 9.44596 0.582031 11.0293 0.582031C12.9793 0.582031 14.6335 1.2612 15.9918 2.61953C17.3501 3.97786 18.0293 5.63203 18.0293 7.58203C19.1793 7.71536 20.1335 8.2112 20.8918 9.06953C21.6501 9.92787 22.0293 10.932 22.0293 12.082C22.0293 13.332 21.5918 14.3945 20.7168 15.2695C19.8418 16.1445 18.7793 16.582 17.5293 16.582H12.0293C11.4793 16.582 11.0085 16.3862 10.6168 15.9945C10.2251 15.6029 10.0293 15.132 10.0293 14.582V9.43203L8.4293 10.982L7.0293 9.58203L11.0293 5.58203L15.0293 9.58203L13.6293 10.982L12.0293 9.43203V14.582H17.5293C18.2293 14.582 18.821 14.3404 19.3043 13.857C19.7876 13.3737 20.0293 12.782 20.0293 12.082C20.0293 11.382 19.7876 10.7904 19.3043 10.307C18.821 9.8237 18.2293 9.58203 17.5293 9.58203H16.0293V7.58203C16.0293 6.1987 15.5418 5.01953 14.5668 4.04453C13.5918 3.06953 12.4126 2.58203 11.0293 2.58203C9.64596 2.58203 8.4668 3.06953 7.4918 4.04453C6.5168 5.01953 6.0293 6.1987 6.0293 7.58203H5.5293C4.56263 7.58203 3.73763 7.9237 3.0543 8.60703C2.37096 9.29037 2.0293 10.1154 2.0293 11.082C2.0293 12.0487 2.37096 12.8737 3.0543 13.557C3.73763 14.2404 4.56263 14.582 5.5293 14.582H8.0293V16.582H5.5293Z" fill="white"/>
</svg>
