<svg width="14" height="16" viewBox="0 0 14 16" fill="none" xmlns="http://www.w3.org/2000/svg">
<path id="Vector" d="M4.12496 1.10029C4.28854 0.782656 4.6248 0.582031 4.99135 0.582031H8.63867C9.00522 0.582031 9.34148 0.782656 9.50506 1.10029L9.72317 1.51953H12.6313C13.1675 1.51953 13.6007 1.93936 13.6007 2.45703C13.6007 2.97471 13.1675 3.39453 12.6313 3.39453H0.998685C0.463401 3.39453 0.0292969 2.97471 0.0292969 2.45703C0.0292969 1.93936 0.463401 1.51953 0.998685 1.51953H3.90685L4.12496 1.10029ZM0.971421 4.33203H12.6313V13.707C12.6313 14.7412 11.7619 15.582 10.6926 15.582H2.9102C1.86659 15.582 0.971421 14.7412 0.971421 13.707V4.33203ZM3.39489 6.67578V13.2383C3.39489 13.4961 3.64027 13.707 3.87958 13.707C4.17343 13.707 4.36428 13.4961 4.36428 13.2383V6.67578C4.36428 6.41797 4.17343 6.20703 3.87958 6.20703C3.64027 6.20703 3.39489 6.41797 3.39489 6.67578ZM6.30305 6.67578V13.2383C6.30305 13.4961 6.54843 13.707 6.78775 13.707C7.08159 13.707 7.2997 13.4961 7.2997 13.2383V6.67578C7.2997 6.41797 7.08159 6.20703 6.78775 6.20703C6.54843 6.20703 6.30305 6.41797 6.30305 6.67578ZM9.23848 6.67578V13.2383C9.23848 13.4961 9.45659 13.707 9.72317 13.707C9.98976 13.707 10.2079 13.4961 10.2079 13.2383V6.67578C10.2079 6.41797 9.98976 6.20703 9.72317 6.20703C9.45659 6.20703 9.23848 6.41797 9.23848 6.67578Z" fill="#344563"/>
</svg>
