<svg width="21" height="21" viewBox="0 0 21 21" fill="none" xmlns="http://www.w3.org/2000/svg">
<g id="Icons">
<mask id="mask0_63_8709" style="mask-type:alpha" maskUnits="userSpaceOnUse" x="0" y="0" width="21" height="21">
<rect id="Bounding box" x="0.640625" y="0.597656" width="20" height="20" fill="#D9D9D9"/>
</mask>
<g mask="url(#mask0_63_8709)">
<path id="note_alt" d="M6.64062 14.5977H8.14062L13.0365 9.70182L11.5365 8.20182L6.64062 13.0977V14.5977ZM13.7448 8.99349L14.4948 8.24349C14.6059 8.13238 14.6615 8.01432 14.6615 7.88932C14.6615 7.76432 14.6059 7.64627 14.4948 7.53516L13.7031 6.74349C13.592 6.63238 13.474 6.57682 13.349 6.57682C13.224 6.57682 13.1059 6.63238 12.9948 6.74349L12.2448 7.49349L13.7448 8.99349ZM5.14062 17.5977C4.72812 17.5977 4.375 17.4508 4.08125 17.157C3.7875 16.8633 3.64062 16.5102 3.64062 16.0977V5.09766C3.64062 4.68516 3.7875 4.33203 4.08125 4.03828C4.375 3.74453 4.72812 3.59766 5.14062 3.59766H8.70312C8.81424 3.1671 9.04688 2.80946 9.40104 2.52474C9.75521 2.24002 10.1684 2.09766 10.6406 2.09766C11.1128 2.09766 11.526 2.24002 11.8802 2.52474C12.2344 2.80946 12.467 3.1671 12.5781 3.59766H16.1406C16.5531 3.59766 16.9062 3.74453 17.2 4.03828C17.4937 4.33203 17.6406 4.68516 17.6406 5.09766V16.0977C17.6406 16.5102 17.4937 16.8633 17.2 17.157C16.9062 17.4508 16.5531 17.5977 16.1406 17.5977H5.14062ZM5.14062 16.0977H16.1406V5.09766H5.14062V16.0977ZM10.6406 4.59766C10.7851 4.59766 10.9045 4.55043 10.999 4.45599C11.0934 4.36155 11.1406 4.2421 11.1406 4.09766C11.1406 3.95321 11.0934 3.83377 10.999 3.73932C10.9045 3.64488 10.7851 3.59766 10.6406 3.59766C10.4962 3.59766 10.3767 3.64488 10.2823 3.73932C10.1878 3.83377 10.1406 3.95321 10.1406 4.09766C10.1406 4.2421 10.1878 4.36155 10.2823 4.45599C10.3767 4.55043 10.4962 4.59766 10.6406 4.59766Z" fill="#1C1B1F"/>
</g>
</g>
</svg>
