<svg width="21" height="21" viewBox="0 0 21 21" fill="none" xmlns="http://www.w3.org/2000/svg">
<g id="edit">
<mask id="mask0_108_8900" style="mask-type:alpha" maskUnits="userSpaceOnUse" x="0" y="0" width="21" height="21">
<rect id="Bounding box" x="0.529297" y="0.582031" width="20" height="20" fill="#D9D9D9"/>
</mask>
<g mask="url(#mask0_108_8900)">
<path id="edit_2" d="M4.69596 16.4147H5.86263L14.2376 8.06055L13.6543 7.45638L13.0501 6.87305L4.69596 15.248V16.4147ZM3.0293 18.0814V14.5397L14.2376 3.35221C14.5571 3.03277 14.9496 2.87305 15.4151 2.87305C15.8801 2.87305 16.2724 3.03277 16.5918 3.35221L17.7585 4.53971C18.0779 4.85916 18.2376 5.24805 18.2376 5.70638C18.2376 6.16471 18.0779 6.5536 17.7585 6.87305L6.57096 18.0814H3.0293ZM14.2376 8.06055L13.6543 7.45638L13.0501 6.87305L14.2376 8.06055Z" fill="#1C1B1F"/>
</g>
</g>
</svg>
