<svg width="21" height="21" viewBox="0 0 21 21" fill="none" xmlns="http://www.w3.org/2000/svg">
<g id="Icons">
<mask id="mask0_63_289" style="mask-type:alpha" maskUnits="userSpaceOnUse" x="0" y="0" width="21" height="21">
<rect id="Bounding box" x="0.640625" y="0.597656" width="20" height="20" fill="#D9D9D9"/>
</mask>
<g mask="url(#mask0_63_289)">
<path id="add_photo_alternate" d="M5.14062 17.5977C4.72812 17.5977 4.375 17.4508 4.08125 17.157C3.7875 16.8633 3.64062 16.5102 3.64062 16.0977V5.09766C3.64062 4.68516 3.7875 4.33203 4.08125 4.03828C4.375 3.74453 4.72812 3.59766 5.14062 3.59766H11.6406V5.09766H5.14062V16.0977H16.1406V9.59766H17.6406V16.0977C17.6406 16.5102 17.4937 16.8633 17.2 17.157C16.9062 17.4508 16.5531 17.5977 16.1406 17.5977H5.14062ZM14.6406 8.09766V6.59766H13.1406V5.09766H14.6406V3.59766H16.1406V5.09766H17.6406V6.59766H16.1406V8.09766H14.6406ZM6.14062 14.5977H15.1406L12.1406 10.5977L9.89062 13.5977L8.39062 11.5977L6.14062 14.5977Z" fill="#1C1B1F"/>
</g>
</g>
</svg>
