<svg width="21" height="21" viewBox="0 0 21 21" fill="none" xmlns="http://www.w3.org/2000/svg">
<g id="Icons">
<mask id="mask0_1_9262" style="mask-type:alpha" maskUnits="userSpaceOnUse" x="0" y="0" width="21" height="21">
<rect id="Bounding box" x="0.845703" y="0.705078" width="20" height="20" fill="#D9D9D9"/>
</mask>
<g mask="url(#mask0_1_9262)">
<path id="draft" d="M6.33981 18.7051C5.92707 18.7051 5.57487 18.5582 5.2832 18.2645C4.99154 17.9707 4.8457 17.6176 4.8457 17.2051V4.20508C4.8457 3.79258 4.99258 3.43945 5.28633 3.1457C5.58008 2.85195 5.9332 2.70508 6.3457 2.70508H12.8457L16.8457 6.70508V17.2051C16.8457 17.6176 16.6987 17.9707 16.4048 18.2645C16.1109 18.5582 15.7576 18.7051 15.3449 18.7051H6.33981ZM11.8457 7.70508V4.20508H6.3457V17.2051H15.3457V7.70508H11.8457Z" fill="#1C1B1F"/>
</g>
</g>
</svg>
