<svg width="14" height="16" viewBox="0 0 14 16" fill="none" xmlns="http://www.w3.org/2000/svg">
<g id="trash-can-solid" clip-path="url(#clip0_1_9489)">
<path id="Vector" d="M3.99023 1.10029C4.14844 0.782656 4.47363 0.582031 4.82812 0.582031H8.35547C8.70996 0.582031 9.03516 0.782656 9.19336 1.10029L9.4043 1.51953H12.2168C12.7354 1.51953 13.1543 1.93936 13.1543 2.45703C13.1543 2.97471 12.7354 3.39453 12.2168 3.39453H0.966797C0.449121 3.39453 0.0292969 2.97471 0.0292969 2.45703C0.0292969 1.93936 0.449121 1.51953 0.966797 1.51953H3.7793L3.99023 1.10029ZM0.94043 4.33203H12.2168V13.707C12.2168 14.7412 11.376 15.582 10.3418 15.582H2.81543C1.80615 15.582 0.94043 14.7412 0.94043 13.707V4.33203ZM3.28418 6.67578V13.2383C3.28418 13.4961 3.52148 13.707 3.75293 13.707C4.03711 13.707 4.22168 13.4961 4.22168 13.2383V6.67578C4.22168 6.41797 4.03711 6.20703 3.75293 6.20703C3.52148 6.20703 3.28418 6.41797 3.28418 6.67578ZM6.09668 6.67578V13.2383C6.09668 13.4961 6.33398 13.707 6.56543 13.707C6.84961 13.707 7.06055 13.4961 7.06055 13.2383V6.67578C7.06055 6.41797 6.84961 6.20703 6.56543 6.20703C6.33398 6.20703 6.09668 6.41797 6.09668 6.67578ZM8.93555 6.67578V13.2383C8.93555 13.4961 9.14648 13.707 9.4043 13.707C9.66211 13.707 9.87305 13.4961 9.87305 13.2383V6.67578C9.87305 6.41797 9.66211 6.20703 9.4043 6.20703C9.14648 6.20703 8.93555 6.41797 8.93555 6.67578Z" fill="white"/>
</g>
<defs>
<clipPath id="clip0_1_9489">
<rect width="13.125" height="15" fill="white" transform="translate(0.0292969 0.582031)"/>
</clipPath>
</defs>
</svg>
