<svg width="21" height="21" viewBox="0 0 21 21" fill="none" xmlns="http://www.w3.org/2000/svg">
<g id="Icons">
<mask id="mask0_63_3162" style="mask-type:alpha" maskUnits="userSpaceOnUse" x="0" y="0" width="21" height="21">
<rect id="Bounding box" x="0.640625" y="0.59668" width="20" height="20" fill="#D9D9D9"/>
</mask>
<g mask="url(#mask0_63_3162)">
<path id="movie" d="M5.14062 4.59668L6.64062 7.59668H8.64062L7.14062 4.59668H8.64062L10.1406 7.59668H12.1406L10.6406 4.59668H12.1406L13.6406 7.59668H15.6406L14.1406 4.59668H17.1406C17.5531 4.59668 17.9062 4.74599 18.2 5.0446C18.4937 5.34321 18.6406 5.6939 18.6406 6.09668V15.0967C18.6406 15.4995 18.4937 15.8502 18.2 16.1488C17.9062 16.4474 17.5531 16.5967 17.1406 16.5967H4.14062C3.73785 16.5967 3.38715 16.4474 3.08854 16.1488C2.78993 15.8502 2.64062 15.4995 2.64062 15.0967V6.09668C2.64062 5.6939 2.78299 5.34321 3.06771 5.0446C3.35243 4.74599 3.71007 4.59668 4.14062 4.59668H5.14062ZM4.14062 9.09668V15.0967H17.1406V9.09668H4.14062Z" fill="#1C1B1F"/>
</g>
</g>
</svg>
