<svg width="248" height="222" viewBox="0 0 248 222" fill="none" xmlns="http://www.w3.org/2000/svg">
<g filter="url(#filter0_d_564_7158)">
<path d="M0.792837 23.1045C0.367915 18.7198 3.81424 14.9233 8.21949 14.9233H137.126C140.968 14.9233 144.182 17.8409 144.553 21.6651L161.493 196.476C161.918 200.861 158.472 204.657 154.067 204.657H25.1604C21.3183 204.657 18.1044 201.74 17.7338 197.915L0.792837 23.1045Z" fill="#5EA4F7"/>
<path d="M9.26778 28.9497C9.0137 26.2867 11.1077 23.9834 13.7828 23.9834H133.211C135.549 23.9834 137.504 25.7607 137.726 28.0881L153.285 191.163C153.539 193.826 151.445 196.13 148.77 196.13H29.3419C27.0039 196.13 25.049 194.352 24.8269 192.025L9.26778 28.9497Z" fill="#F3F4F6"/>
<path d="M44.7681 11.7251H98.3306L100.462 28.2469H46.1005L44.7681 11.7251Z" fill="#2678BC"/>
<path d="M82.3421 11.1922C82.3421 17.3734 78.3971 22.3843 72.2158 22.3843C66.0346 22.3843 60.4907 17.3734 60.4907 11.1922C60.4907 5.0109 64.9687 0 71.1499 0C77.3312 0 82.3421 5.0109 82.3421 11.1922Z" fill="#2678BB"/>
<circle cx="71.6831" cy="11.1924" r="6.12904" fill="#FEA812" stroke="#FEA812" stroke-width="0.53296"/>
<rect x="20.5186" y="53.2954" width="102.861" height="1.59888" fill="#5EA4F7"/>
<rect x="26.9141" y="85.8062" width="102.861" height="1.59888" fill="#5EA4F7"/>
<rect x="32.2441" y="121.515" width="102.861" height="1.59888" fill="#5EA4F7"/>
<rect x="37.041" y="154.025" width="102.861" height="1.59888" fill="#5EA4F7"/>
<rect x="33.3101" y="57.0269" width="92.2021" height="1.59888" fill="#5EA4F7"/>
<rect x="39.7056" y="89.5376" width="92.2021" height="1.59888" fill="#5EA4F7"/>
<rect x="45.0347" y="125.246" width="92.2021" height="1.59888" fill="#5EA4F7"/>
<rect x="49.832" y="157.756" width="92.2021" height="1.59888" fill="#5EA4F7"/>
<rect x="27.98" y="60.7573" width="81.5429" height="1.59888" fill="#5EA4F7"/>
<rect x="34.3755" y="93.2676" width="81.5429" height="1.59888" fill="#5EA4F7"/>
<rect x="39.7056" y="128.977" width="81.5429" height="1.59888" fill="#5EA4F7"/>
<rect x="44.502" y="161.487" width="81.5429" height="1.59888" fill="#5EA4F7"/>
<rect x="35.9746" y="64.4883" width="86.8725" height="1.59888" fill="#5EA4F7"/>
<rect x="42.3706" y="96.999" width="86.8725" height="1.59888" fill="#5EA4F7"/>
<rect x="47.7002" y="132.707" width="86.8725" height="1.59888" fill="#5EA4F7"/>
<rect x="52.4966" y="165.218" width="86.8725" height="1.59888" fill="#5EA4F7"/>
<path d="M156.055 149.95L169.796 135.817L231.036 196.692C233.535 199.175 233.555 203.211 231.081 205.719L225.768 211.105C223.268 213.639 219.179 213.644 216.672 211.115L156.055 149.95Z" fill="#52526D"/>
<path d="M180.592 141.313C178.865 141.313 175.292 137.911 173.722 136.21C171.209 136.053 171.105 137.715 171.366 138.565L174.114 144.258L179.807 144.65C179.611 144.061 179.493 142.57 180.592 141.313Z" fill="#FFDDC2"/>
<path d="M168.03 162.513L173.133 167.421C174.18 166.701 177.334 165.497 181.574 166.439C185.814 167.381 186.482 170.888 186.285 172.524C186.482 172.524 186.304 174.394 181.574 175.469C177.256 176.45 174.115 177.235 172.544 179.002C176.627 175.861 184.322 175.076 187.267 175.805C192.074 171.988 195.714 171.328 198.063 174.684C200.144 177.656 195.823 182.623 193.025 185.087L196.493 184.891L194.333 187.246C195.053 186.527 196.924 184.616 198.652 182.732C200.811 180.376 207.878 179.002 207.878 183.713C207.878 186.624 205.255 190.135 202.185 192.902L204.148 193.135L202.97 195.098C203.46 194.376 203.967 193.722 204.481 193.135C207.88 189.254 211.592 188.315 212.785 190.191C213.884 191.918 212.72 194.837 212 196.08C209.186 199.613 202.107 206.326 196.296 204.913C190.486 203.5 190.865 199.936 191.782 198.331C189.443 198.776 187.258 198.867 186.089 198.828C185.042 198.697 182.556 197.807 180.985 195.295C179.415 192.782 180.985 190.031 181.967 188.97C181.836 188.986 181.705 189 181.574 189.013C176.863 189.484 172.348 186.461 171.563 184.498C170.582 180.965 172.544 179.002 172.544 179.002C171.04 178.348 167.598 176.136 165.87 172.524C164.143 168.912 166.59 164.345 168.03 162.513Z" fill="#F1BF95"/>
<path d="M173.133 167.421L168.03 162.513C166.59 164.345 164.143 168.912 165.87 172.524C167.598 176.136 171.04 178.348 172.544 179.002M173.133 167.421C174.18 166.701 177.334 165.497 181.574 166.439C185.814 167.381 186.482 170.888 186.285 172.524C186.482 172.524 186.304 174.394 181.574 175.469C177.256 176.45 174.115 177.235 172.544 179.002M173.133 167.421C172.937 167.617 172.466 168.167 172.152 168.795M172.544 179.002C172.544 179.002 170.582 180.965 171.563 184.498C172.348 186.461 176.863 189.484 181.574 189.013C181.705 189 181.836 188.986 181.967 188.97M172.544 179.002C176.627 175.861 184.322 175.076 187.267 175.805C187.594 175.936 186.599 176.45 184.715 178.021C190.8 172.328 195.315 170.758 198.063 174.684C200.144 177.656 195.823 182.623 193.025 185.087M181.967 188.97C186.538 188.427 190.913 186.434 192.567 185.48C192.714 185.357 192.867 185.226 193.025 185.087M181.967 188.97C180.985 190.031 179.415 192.782 180.985 195.295C182.556 197.807 185.042 198.697 186.089 198.828C187.258 198.867 189.443 198.776 191.782 198.331M193.025 185.087L196.493 184.891L194.333 187.246C195.053 186.527 196.924 184.616 198.652 182.732C200.811 180.376 207.878 179.002 207.878 183.713C207.878 186.624 205.255 190.135 202.185 192.902M191.782 198.331C193.371 198.029 195.031 197.564 196.493 196.865C198.218 196.04 200.287 194.613 202.185 192.902M191.782 198.331C190.865 199.936 190.486 203.5 196.296 204.913C202.107 206.326 209.186 199.613 212 196.08C212.72 194.837 213.884 191.918 212.785 190.191C211.592 188.315 207.88 189.254 204.481 193.135M202.97 195.098C203.46 194.376 203.967 193.722 204.481 193.135M202.97 195.098C203.913 193.842 204.37 193.266 204.481 193.135M202.97 195.098L204.148 193.135L202.185 192.902" stroke="#DBA985" stroke-width="0.53296"/>
<path d="M184.714 172.328C185.342 170.129 182.751 168.402 181.377 167.813C178.04 168.598 175.488 171.739 177.648 173.702C179.807 175.665 182.162 174.094 184.714 172.328Z" fill="#FFDDC2"/>
<path d="M190.211 180.965C187.698 177.981 191.257 175.011 193.351 173.898C196.806 173.898 197.67 176.646 197.67 178.02C196.23 180.245 192.723 183.949 190.211 180.965Z" fill="#FFDDC2"/>
<path d="M206.699 185.48C206.699 182.81 204.082 182.143 202.774 182.143C200.418 183.32 196.885 188.228 200.025 189.798C203.166 191.369 204.736 188.228 206.699 185.48Z" fill="#FFDDC2"/>
<path d="M212.392 192.743C212.078 191.486 210.822 190.649 210.233 190.387C206.503 192.154 205.718 195.491 207.288 196.668C208.859 197.846 212.785 194.313 212.392 192.743Z" fill="#FFDDC2"/>
<path d="M109.533 47.4837C126.022 45.9129 157.586 61.1459 154.289 93.0243" stroke="#A8E8E9" stroke-width="4.79664"/>
<circle cx="110.908" cy="91.4539" r="56.2788" stroke="#52526D" stroke-width="13.857"/>
<circle cx="110.907" cy="91.454" r="53.126" stroke="black" stroke-width="0.53296"/>
<path d="M151.344 139.742L155.466 136.013L159.392 131.891L167.048 138.957L159 147.202L151.344 139.742Z" fill="#939599"/>
<path d="M174.703 149.557C166.223 143.276 168.683 138.041 170.973 136.209C172.23 135.738 173.46 136.013 173.918 136.209C173.329 136.078 172.151 136.287 172.151 138.172C172.622 140.213 176.404 142.817 178.237 143.864C178.498 143.734 179.336 143.04 180.592 141.313C184.125 141.116 185.107 142.294 188.444 144.257C191.781 146.22 202.381 149.164 209.251 151.127C214.748 152.698 222.927 158.194 226.329 160.746L232.022 161.727L238.499 195.687C237.191 196.472 234.102 198.199 232.218 198.827C229.862 199.612 228.488 199.612 224.955 196.864C222.128 194.666 216.449 188.489 213.962 185.675C208.793 182.404 197.945 174.604 195.903 169.579C194.49 163.926 191.65 160.419 190.407 159.372C188.706 158.717 183.183 155.838 174.703 149.557Z" fill="#F1BF95" stroke="#DBA985" stroke-width="0.53296"/>
</g>
<defs>
<filter id="filter0_d_564_7158" x="0.757324" y="0" width="246.5" height="221.47" filterUnits="userSpaceOnUse" color-interpolation-filters="sRGB">
<feFlood flood-opacity="0" result="BackgroundImageFix"/>
<feColorMatrix in="SourceAlpha" type="matrix" values="0 0 0 0 0 0 0 0 0 0 0 0 0 0 0 0 0 0 127 0" result="hardAlpha"/>
<feOffset dx="4.23059" dy="4.23059"/>
<feGaussianBlur stdDeviation="2.11529"/>
<feComposite in2="hardAlpha" operator="out"/>
<feColorMatrix type="matrix" values="0 0 0 0 0 0 0 0 0 0 0 0 0 0 0 0 0 0 0.12 0"/>
<feBlend mode="normal" in2="BackgroundImageFix" result="effect1_dropShadow_564_7158"/>
<feBlend mode="normal" in="SourceGraphic" in2="effect1_dropShadow_564_7158" result="shape"/>
</filter>
</defs>
</svg>
