<svg width="134" height="96" viewBox="0 0 134 96" fill="none" xmlns="http://www.w3.org/2000/svg">
<mask id="mask0_297_2115" style="mask-type:alpha" maskUnits="userSpaceOnUse" x="0" y="56" width="7" height="12">
<path fill-rule="evenodd" clip-rule="evenodd" d="M0.5 56.5478H6.4V67.3478H0.5V56.5478Z" fill="white"/>
</mask>
<g mask="url(#mask0_297_2115)">
<path fill-rule="evenodd" clip-rule="evenodd" d="M1.80039 63.7478L6.30039 67.3478C6.10039 67.2478 6.00039 67.0478 5.80039 66.8478C5.00039 65.7478 5.00039 63.9478 5.10039 62.6478C5.30039 61.2478 5.60039 60.1478 5.60039 60.0478L1.10039 56.5478C1.10039 56.5478 0.700391 57.7478 0.600391 59.1478C0.500391 60.4478 0.500391 62.2478 1.40039 63.3478C1.50039 63.5478 1.70039 63.6478 1.80039 63.7478Z" fill="#25BA74"/>
</g>
<path fill-rule="evenodd" clip-rule="evenodd" d="M1.7998 63.8001L6.2998 67.4001C7.3998 68.3001 9.1998 68.3001 11.6998 67.6001C12.5998 67.3001 13.5998 66.9001 14.4998 66.6001C17.1998 65.5001 19.9998 64.4001 21.3998 65.6001L16.8998 62.0001C15.4998 60.9001 12.6998 62.0001 9.9998 63.0001C9.0998 63.3001 8.0998 63.7001 7.1998 64.0001C4.7998 64.7001 2.8998 64.7001 1.7998 63.8001Z" fill="#116A38"/>
<path fill-rule="evenodd" clip-rule="evenodd" d="M16.4002 77.5997L20.9002 81.1997L20.8002 81.0997C20.1002 80.2997 20.1002 78.4997 21.1002 75.4997C22.7002 70.0997 23.0002 66.8997 21.8002 65.5997C21.7002 65.4997 21.7002 65.4997 21.6002 65.3997L17.1002 61.7997C17.2002 61.8997 17.2002 61.8997 17.3002 61.9997C18.5002 63.2997 18.3002 66.4997 16.6002 71.8997C15.7002 74.8997 15.6002 76.6997 16.3002 77.4997C16.3002 77.5997 16.3002 77.5997 16.4002 77.5997Z" fill="#25BA74"/>
<path fill-rule="evenodd" clip-rule="evenodd" d="M16.4004 77.5996L20.9004 81.1996C21.9004 81.9996 24.1004 81.0996 26.2004 80.1996C28.3004 79.2996 30.4004 78.3996 31.4004 79.1996L26.9004 75.5996C25.9004 74.7996 23.8004 75.6996 21.7004 76.5996C19.6004 77.5996 17.4004 78.4996 16.4004 77.5996Z" fill="#116A38"/>
<path fill-rule="evenodd" clip-rule="evenodd" d="M27.5001 84.4997L32.0001 88.0997C31.2001 87.4997 31.1001 85.7997 31.8001 82.7997C32.2001 80.9997 32.1001 79.8997 31.5001 79.3997L27.0001 75.7997C27.6001 76.2997 27.7001 77.3997 27.3001 79.1997C26.6001 82.1997 26.7001 83.7997 27.5001 84.4997Z" fill="#25BA74"/>
<path fill-rule="evenodd" clip-rule="evenodd" d="M62.6585 5.5H115.341C121.805 5.5 124.244 6.10134 126.561 7.10356C129 8.10579 130.829 9.70935 132.049 11.6136C133.268 13.618 134 15.5223 134 20.8341V80.1659C134 85.4777 133.268 87.4822 132.049 89.3864C130.829 91.3909 128.878 92.8942 126.561 93.8964C124.122 94.8987 121.805 95.5 115.341 95.5H62.6585C56.1951 95.5 53.7561 94.8987 51.439 93.8964C49 92.8942 47.1707 91.2906 45.9512 89.3864C44.7317 87.382 44 85.4777 44 80.1659V20.9343C44 15.6225 44.7317 13.618 45.9512 11.7138C47.1707 9.70935 49.122 8.20601 51.439 7.20379C53.7561 6.10134 56.0732 5.5 62.6585 5.5Z" fill="#0474BA"/>
<path fill-rule="evenodd" clip-rule="evenodd" d="M56.1585 0H108.841C115.305 0 117.744 0.601337 120.061 1.60356C122.5 2.60579 124.329 4.20935 125.549 6.11359C126.768 8.11804 127.5 10.0223 127.5 15.3341V74.6659C127.5 79.9777 126.768 81.9822 125.549 83.8864C124.329 85.8909 122.378 87.3942 120.061 88.3964C117.622 89.3987 115.305 90 108.841 90H56.1585C49.6951 90 47.2561 89.3987 44.939 88.3964C42.5 87.3942 40.6707 85.7906 39.4512 83.8864C38.2317 81.882 37.5 79.9777 37.5 74.6659V15.4343C37.5 10.1225 38.2317 8.11804 39.4512 6.21381C40.6707 4.20935 42.622 2.70601 44.939 1.70379C47.2561 0.601336 49.5732 0 56.1585 0Z" fill="white"/>
<path fill-rule="evenodd" clip-rule="evenodd" d="M36.2998 65.9998C37.9998 66.6998 39.4998 67.9998 41.2998 72.0998C42.8998 70.9998 43.9998 69.5998 44.8998 67.3998C43.0998 64.5998 41.7998 62.9998 38.9998 61.2998C38.5998 63.1998 37.8998 64.1998 36.2998 65.9998Z" fill="#FCAF3D"/>
<path fill-rule="evenodd" clip-rule="evenodd" d="M9.69961 31.3002C7.99961 30.6002 6.49961 29.3002 4.69961 25.2002C3.09961 26.3002 1.99961 27.7002 1.09961 29.9002C2.89961 32.7002 4.19961 34.3002 6.99961 36.0002C7.39961 34.1002 8.09961 33.1002 9.69961 31.3002Z" fill="#C4262F"/>
<path fill-rule="evenodd" clip-rule="evenodd" d="M28.5 46.3273V36.0273C28.5 33.2273 31.3 31.0273 34.8 31.0273H89.3C92.7 31.0273 95.5 33.3273 95.5 36.0273V41.3273C95.5 44.1273 92.7 46.3273 89.2 46.3273H28.5Z" fill="#0474BA"/>
<path fill-rule="evenodd" clip-rule="evenodd" d="M28.5 46.3273V36.0273C28.5 33.2273 31.3 31.0273 34.8 31.0273H89.3C92.7 31.0273 95.5 33.3273 95.5 36.0273V41.3273C95.5 44.1273 92.7 46.3273 89.2 46.3273H28.5Z" fill="#116A38"/>
<path fill-rule="evenodd" clip-rule="evenodd" d="M43.9002 38.6275H85.3002C86.0002 38.6275 86.5002 38.1275 86.5002 37.4275C86.5002 36.7275 86.0002 36.2275 85.3002 36.2275H43.9002C43.2002 36.2275 42.7002 36.7275 42.7002 37.4275C42.7002 38.1275 43.2002 38.6275 43.9002 38.6275Z" fill="white"/>
<path opacity="0.4" fill-rule="evenodd" clip-rule="evenodd" d="M43.9002 42.2271H56.9002C57.6002 42.2271 58.1002 41.7271 58.1002 41.0271C58.1002 40.3271 57.6002 39.8271 56.9002 39.8271H43.9002C43.2002 39.8271 42.7002 40.3271 42.7002 41.0271C42.7002 41.7271 43.2002 42.2271 43.9002 42.2271Z" fill="white"/>
<g opacity="0.5">
<g opacity="0.5">
<path opacity="0.2" fill-rule="evenodd" clip-rule="evenodd" d="M61.3848 25.3V18.6C61.3848 16.1 63.1848 14 65.4848 14H103.585C105.785 14 107.685 16.1 107.685 18.6V20.6C107.685 23.1 105.885 25.2 103.585 25.2H61.3848V25.3Z" fill="url(#paint0_linear_297_2115)"/>
<path opacity="0.5" fill-rule="evenodd" clip-rule="evenodd" d="M71.185 19.4002H94.185C94.785 19.4002 95.285 18.9002 95.285 18.3002C95.285 17.7002 94.785 17.2002 94.185 17.2002H71.185C70.585 17.2002 70.085 17.7002 70.085 18.3002C70.085 18.9002 70.585 19.4002 71.185 19.4002Z" fill="url(#paint1_linear_297_2115)"/>
<path opacity="0.2" fill-rule="evenodd" clip-rule="evenodd" d="M71.185 22.7H84.785C85.385 22.7 85.885 22.2 85.885 21.6C85.885 21 85.385 20.5 84.785 20.5H71.185C70.585 20.5 70.085 21 70.085 21.6C70.085 22.2 70.585 22.7 71.185 22.7Z" fill="url(#paint2_linear_297_2115)"/>
</g>
</g>
<g opacity="0.5">
<g opacity="0.5">
<path opacity="0.2" fill-rule="evenodd" clip-rule="evenodd" d="M61.3848 63.7004V57.0004C61.3848 54.5004 63.1848 52.4004 65.4848 52.4004H103.585C105.785 52.4004 107.685 54.5004 107.685 57.0004V59.0004C107.685 61.5004 105.885 63.6004 103.585 63.6004H61.3848V63.7004Z" fill="url(#paint3_linear_297_2115)"/>
<path opacity="0.3" fill-rule="evenodd" clip-rule="evenodd" d="M71.185 57.8006H94.185C94.785 57.8006 95.285 57.3006 95.285 56.7006C95.285 56.1006 94.785 55.6006 94.185 55.6006H71.185C70.585 55.6006 70.085 56.1006 70.085 56.7006C70.085 57.3006 70.585 57.8006 71.185 57.8006Z" fill="url(#paint4_linear_297_2115)"/>
<path opacity="0.3" fill-rule="evenodd" clip-rule="evenodd" d="M71.185 61.1004H84.785C85.385 61.1004 85.885 60.6004 85.885 60.0004C85.885 59.4004 85.385 58.9004 84.785 58.9004H71.185C70.585 58.9004 70.085 59.4004 70.085 60.0004C70.085 60.6004 70.585 61.1004 71.185 61.1004Z" fill="url(#paint5_linear_297_2115)"/>
</g>
</g>
<g opacity="0.5">
<g opacity="0.5">
<path opacity="0.2" fill-rule="evenodd" clip-rule="evenodd" d="M61.3848 78.3V71.6C61.3848 69.1 63.1848 67 65.4848 67H103.585C105.785 67 107.685 69.1 107.685 71.6V73.6C107.685 76.1 105.885 78.2 103.585 78.2H61.3848V78.3Z" fill="url(#paint6_linear_297_2115)"/>
<path opacity="0.2" fill-rule="evenodd" clip-rule="evenodd" d="M71.185 72.4002H94.185C94.785 72.4002 95.285 71.9002 95.285 71.3002C95.285 70.7002 94.785 70.2002 94.185 70.2002H71.185C70.585 70.2002 70.085 70.7002 70.085 71.3002C70.085 71.9002 70.585 72.4002 71.185 72.4002Z" fill="url(#paint7_linear_297_2115)"/>
<path opacity="0.2" fill-rule="evenodd" clip-rule="evenodd" d="M71.185 75.7H84.785C85.385 75.7 85.885 75.2 85.885 74.6C85.885 74 85.385 73.5 84.785 73.5H71.185C70.585 73.5 70.085 74 70.085 74.6C70.085 75.2 70.585 75.7 71.185 75.7Z" fill="url(#paint8_linear_297_2115)"/>
</g>
</g>
<path fill-rule="evenodd" clip-rule="evenodd" d="M26.1 4H53C54.3 4 54.7 4.1 55.2 4.4C55.7 4.7 56 5 56.3 5.5C56.6 6 56.7 6.4 56.7 7.7V22.5C56.7 23.8 56.6 24.2 56.3 24.7C56.1 25.2 55.7 25.5 55.2 25.8C54.7 26.1 54.2 26 53 26H26.1C24.8 26 24.4 25.9 23.9 25.6C23.4 25.3 23.1 25 22.9 24.6C22.6 24.1 22.5 23.6 22.5 22.4V7.6C22.5 6.3 22.6 5.9 22.9 5.4C23.2 4.9 23.5 4.6 23.9 4.4C24.3 4.2 24.9 4 26.1 4Z" fill="#C4262F"/>
<path d="M29 18.6V16.3C29 14.9 29 13.4 28.9 12.7C29.3 13.6 31.2 17.1 32 18.6H33.9V11H32.5V13.9C32.5 14.9 32.5 16 32.6 16.6C32.2 15.8 30.5 12.7 29.5 11H27.5V18.6H29ZM41.2 18.6L41.4 17.3H37.4V15.4H41V14H37.4V12.3H41.2V11H35.8V18.6H41.2ZM45.7 18.6C46.1 17.1 46.8 14.5 47.1 13.2C47.4 14.5 48 17 48.4 18.6H50.1L52.1 11H50.5C50.2 12.2 49.5 15.1 49.2 16.8C48.9 15.4 48.2 12.5 47.8 11H46.5C46.1 12.8 45.3 15.5 45 16.9C44.9 16.1 44.6 14.5 43.9 11H42.2L44.1 18.6H45.7Z" fill="white"/>
<defs>
<linearGradient id="paint0_linear_297_2115" x1="104.044" y1="19.7995" x2="62.2674" y2="14.4085" gradientUnits="userSpaceOnUse">
<stop stop-color="#442F2F"/>
<stop offset="1" stop-color="#26213B"/>
</linearGradient>
<linearGradient id="paint1_linear_297_2115" x1="72.0336" y1="18.3367" x2="95.1414" y2="17.2475" gradientUnits="userSpaceOnUse">
<stop stop-color="#442F2F"/>
<stop offset="1" stop-color="#26213B"/>
</linearGradient>
<linearGradient id="paint2_linear_297_2115" x1="71.3087" y1="21.6365" x2="85.7173" y2="20.5632" gradientUnits="userSpaceOnUse">
<stop stop-color="#442F2F"/>
<stop offset="1" stop-color="#26213B"/>
</linearGradient>
<linearGradient id="paint3_linear_297_2115" x1="104.044" y1="58.1997" x2="62.2674" y2="52.8087" gradientUnits="userSpaceOnUse">
<stop stop-color="#442F2F"/>
<stop offset="1" stop-color="#26213B"/>
</linearGradient>
<linearGradient id="paint4_linear_297_2115" x1="72.0336" y1="56.7374" x2="95.1414" y2="55.6482" gradientUnits="userSpaceOnUse">
<stop stop-color="#442F2F"/>
<stop offset="1" stop-color="#26213B"/>
</linearGradient>
<linearGradient id="paint5_linear_297_2115" x1="71.3087" y1="60.0372" x2="85.7173" y2="58.9639" gradientUnits="userSpaceOnUse">
<stop stop-color="#442F2F"/>
<stop offset="1" stop-color="#26213B"/>
</linearGradient>
<linearGradient id="paint6_linear_297_2115" x1="104.044" y1="72.7993" x2="62.2674" y2="67.4083" gradientUnits="userSpaceOnUse">
<stop stop-color="#442F2F"/>
<stop offset="1" stop-color="#26213B"/>
</linearGradient>
<linearGradient id="paint7_linear_297_2115" x1="72.0336" y1="71.3371" x2="95.1414" y2="70.2479" gradientUnits="userSpaceOnUse">
<stop stop-color="#442F2F"/>
<stop offset="1" stop-color="#26213B"/>
</linearGradient>
<linearGradient id="paint8_linear_297_2115" x1="71.3087" y1="74.6369" x2="85.7173" y2="73.5636" gradientUnits="userSpaceOnUse">
<stop stop-color="#442F2F"/>
<stop offset="1" stop-color="#26213B"/>
</linearGradient>
</defs>
</svg>
