<svg width="370" height="231" viewBox="0 0 370 231" fill="none" xmlns="http://www.w3.org/2000/svg">
<g filter="url(#filter0_d_601_6060)">
<path d="M166.825 20.8999L306.406 85.8386L198.104 215.346C192.432 222.128 182.893 224.22 174.903 220.433L58.7075 165.35C54.3012 163.261 53.0484 157.577 56.1681 153.83L166.825 20.8999Z" fill="#F2F3F6"/>
<path d="M130.624 80.9868L247.439 134.356L204.519 189.964L89.1973 134.356L130.624 80.9868Z" fill="#E3E6EE"/>
<path d="M35.5319 61.9698C38.3542 58.651 43.0424 57.62 46.9967 59.4486L163.355 113.256C166.443 114.684 167.365 118.635 165.227 121.282L135.023 158.677C132.22 162.148 127.411 163.26 123.368 161.372L6.20792 106.652C3.08339 105.193 2.20461 101.16 4.43864 98.5332L35.5319 61.9698Z" fill="white"/>
<ellipse cx="50.9692" cy="93.2431" rx="15.3934" ry="17.7178" transform="rotate(48.5565 50.9692 93.2431)" fill="#E5EBF3"/>
<path d="M49.264 97.4081C43.5912 95.3181 37.4457 98.0301 35.082 99.6473C38.3663 109.799 48.642 109.848 53.3694 108.604C54.3646 105.743 54.9368 99.4981 49.264 97.4081Z" fill="#B9C7E0"/>
<path d="M57.8479 94.7956C54.2651 97.7813 51.1301 96.4128 50.0105 95.5419C49.0152 94.7955 47.6219 92.6309 50.0105 89.9438C52.399 87.2567 56.355 87.3316 57.8479 88.0777C59.7139 89.5707 61.4307 91.8099 57.8479 94.7956Z" fill="#B9C7E0"/>
<path d="M176.952 8.53924C181.09 3.52018 188.113 1.96029 193.987 4.75529L306.329 58.2085C314.691 62.1868 317.059 72.9805 311.131 80.0938L306.033 86.2117L166.452 21.273L176.952 8.53924Z" fill="#95A9D3"/>
<path d="M144.433 74.2691L144.06 71.6567L151.524 72.0299L153.39 74.6424L155.256 77.2549L158.615 70.9103L167.199 70.1638L166.452 72.7762L158.615 73.8959L155.256 79.8672L151.524 74.2691H144.433Z" fill="#C7BD00"/>
<path d="M161.974 67.1781L161.6 59.7139L160.108 66.0586L161.974 67.1781Z" fill="#C7BD00"/>
<path d="M161.6 59.7139L154.883 63.446L148.165 61.2067L149.285 67.5513L144.06 71.6566L151.524 72.0298L155.256 77.2548L158.615 70.9102L167.199 70.1638L160.108 66.0584L161.6 59.7139Z" fill="#F4DD00"/>
<path d="M167.571 85.0918L167.198 82.4795L174.662 82.8527L176.529 85.4652L178.395 88.0776L181.753 81.7331L190.337 80.9865L189.591 83.599L181.753 84.7186L178.395 90.69L174.662 85.0918H167.571Z" fill="#C7BD00"/>
<path d="M185.112 78.0008L184.739 70.5366L183.246 76.8813L185.112 78.0008Z" fill="#C7BD00"/>
<path d="M184.739 70.5366L178.021 74.2687L171.304 72.0295L172.423 78.374L167.198 82.4794L174.662 82.8526L178.395 88.0775L181.753 81.7329L190.337 80.9865L183.246 76.8812L184.739 70.5366Z" fill="#F4DD00"/>
<path d="M190.711 95.542L190.337 92.9297L197.802 93.3029L199.668 95.9154L201.534 98.5278L204.893 92.1833L213.476 91.4367L212.73 94.0492L204.893 95.1688L201.534 101.14L197.802 95.542H190.711Z" fill="#C7BD00"/>
<path d="M208.252 88.451L207.878 80.9868L206.385 87.3315L208.252 88.451Z" fill="#C7BD00"/>
<path d="M207.878 80.9868L201.161 84.7189L194.443 82.4797L195.562 88.8242L190.337 92.9296L197.802 93.3028L201.534 98.5277L204.893 92.1831L213.476 91.4367L206.385 87.3314L207.878 80.9868Z" fill="#F4DD00"/>
<path d="M213.103 106.738L212.73 104.126L220.194 104.499L222.06 107.112L223.926 109.724L227.285 103.38L235.869 102.633L235.123 105.245L227.285 106.365L223.926 112.336L220.194 106.738H213.103Z" fill="#C7BD00"/>
<path d="M230.644 99.6473L230.271 92.1831L228.778 98.5278L230.644 99.6473Z" fill="#C7BD00"/>
<path d="M230.271 92.1831L223.553 95.9152L216.835 93.6759L217.955 100.021L212.73 104.126L220.194 104.499L223.926 109.724L227.285 103.379L235.869 102.633L228.778 98.5277L230.271 92.1831Z" fill="#F4DD00"/>
<path d="M253.41 105.619L246.692 109.351L239.974 107.111L241.094 113.456L235.869 117.561L243.333 117.935L247.065 123.16L250.424 116.815L259.008 116.069L251.917 111.963L253.41 105.619Z" fill="#DCDEE5"/>
<path d="M90.3792 94.8738L89.1896 97.5506C89.0221 97.9273 89.1919 98.3685 89.5687 98.5359L92.2456 99.7247L88.8167 100.411C88.6225 100.449 88.4518 100.564 88.342 100.728L86.2742 103.83L85.9192 101.701C85.8592 101.341 85.5478 101.078 85.1829 101.078L80.6761 101.078L84.2022 99.1176C84.526 98.9376 84.6688 98.5474 84.5376 98.2009L83.5826 95.6793L86.2873 96.9449C86.5122 97.0501 86.7747 97.0366 86.9877 96.9088L90.3792 94.8738Z" fill="#4F69AA"/>
<path d="M102.757 100.55L101.567 103.227C101.4 103.604 101.57 104.045 101.947 104.212L104.624 105.401L101.195 106.087C101 106.126 100.83 106.24 100.72 106.405L98.6521 109.506L98.2971 107.378C98.2371 107.018 97.9257 106.754 97.5609 106.754L93.054 106.754L96.5801 104.794C96.9039 104.614 97.0467 104.224 96.9155 103.877L95.9605 101.356L98.6652 102.621C98.8901 102.726 99.1527 102.713 99.3656 102.585L102.757 100.55Z" fill="#4F69AA"/>
<path d="M114.7 105.775L113.51 108.452C113.342 108.829 113.512 109.27 113.889 109.437L116.566 110.626L113.137 111.312C112.943 111.351 112.772 111.465 112.662 111.63L110.595 114.731L110.24 112.603C110.179 112.243 109.868 111.979 109.503 111.979L104.996 111.979L108.523 110.019C108.846 109.839 108.989 109.449 108.858 109.102L107.903 106.581L110.608 107.846C110.833 107.951 111.095 107.938 111.308 107.81L114.7 105.775Z" fill="#4F69AA"/>
<path d="M126.642 111.746L125.453 114.423C125.285 114.8 125.455 115.241 125.832 115.408L128.509 116.597L125.08 117.283C124.886 117.322 124.715 117.436 124.605 117.601L122.537 120.703L122.182 118.574C122.122 118.214 121.811 117.95 121.446 117.95L116.939 117.95L120.465 115.99C120.789 115.81 120.932 115.42 120.801 115.073L119.846 112.552L122.55 113.817C122.775 113.923 123.038 113.909 123.251 113.781L126.642 111.746Z" fill="#4F69AA"/>
<path d="M138.896 117.266L137.707 119.943C137.539 120.319 137.709 120.761 138.086 120.928L140.763 122.117L137.334 122.803C137.14 122.841 136.969 122.956 136.859 123.12L134.791 126.222L134.436 124.093C134.376 123.734 134.065 123.47 133.7 123.47L129.193 123.47L132.719 121.51C133.043 121.33 133.186 120.939 133.055 120.593L132.1 118.071L134.804 119.337C135.029 119.442 135.292 119.429 135.505 119.301L138.896 117.266Z" fill="#E7EDF4"/>
<path d="M74.6419 106.738L132.116 133.236L128.384 137.342L71.6562 110.097L74.6419 106.738Z" fill="#CDD7EB"/>
<path d="M69.0441 113.829L101.887 129.504L98.1545 133.236L65.312 117.561L69.0441 113.829Z" fill="#CDD7EB"/>
<path d="M287.178 153.463L230 127.67C227.522 126.553 224.602 127.249 222.896 129.366L190.494 169.556C188.692 171.791 189.429 175.121 192.006 176.387L228.778 194.454L232.883 211.611L242.214 199.668L248.444 203.006C250.91 204.327 253.962 203.759 255.788 201.64L289.247 162.804C291.851 159.781 290.815 155.103 287.178 153.463Z" fill="white"/>
<g filter="url(#filter1_f_601_6060)">
<ellipse cx="238.345" cy="162.105" rx="19.0227" ry="22.3558" transform="rotate(50.8245 238.345 162.105)" fill="#CFD9EB"/>
</g>
<ellipse cx="238.973" cy="145.352" rx="19.0227" ry="22.3558" transform="rotate(50.8245 238.973 145.352)" fill="#FF932D"/>
<circle cx="235.496" cy="138.089" r="1.86605" fill="black"/>
<circle cx="246.692" cy="143.313" r="1.86605" fill="black"/>
<path d="M226.166 149.465C226.166 149.465 231.193 145.101 236.221 147.283C241.249 149.465 239.179 156.375 239.179 156.375" stroke="black" stroke-width="0.746421"/>
<path d="M168.691 36.5747L265.353 81.36L262.367 86.2117L165.333 40.3068L168.691 36.5747Z" fill="#C4C4C4"/>
<path d="M161.973 44.7852L226.166 74.642L222.807 79.1205L158.241 48.8905L161.973 44.7852Z" fill="#C4C4C4"/>
<ellipse cx="188.098" cy="16.7943" rx="3.73211" ry="2.98569" fill="#7991C2"/>
<ellipse cx="197.055" cy="21.2728" rx="3.73211" ry="2.98569" fill="#7991C2"/>
<ellipse cx="206.758" cy="25.7513" rx="3.73211" ry="2.98569" fill="#7991C2"/>
<path d="M357.715 65.7167L300.537 39.9242C298.059 38.8065 295.139 39.5033 293.433 41.6196L261.031 81.8101C259.229 84.0451 259.966 87.3745 262.543 88.6405L299.315 106.708L303.421 123.865L312.751 111.922L318.981 115.26C321.447 116.581 324.499 116.013 326.325 113.894L359.784 75.0575C362.388 72.0347 361.352 67.3573 357.715 65.7167Z" fill="white"/>
<ellipse cx="309.416" cy="75.4187" rx="18.1897" ry="21.6571" transform="rotate(75.1744 309.416 75.4187)" fill="#F4DD00"/>
<circle cx="305.033" cy="68.2562" r="1.86605" fill="black"/>
<circle cx="316.229" cy="73.4813" r="1.86605" fill="black"/>
<path d="M312.004 81.1794C312.004 81.1794 306.977 85.544 301.949 83.3616C296.921 81.1791 298.991 74.2692 298.991 74.2692" stroke="black" stroke-width="0.746421"/>
<path d="M155.256 172.423L200.787 193.696L191.084 207.131L144.433 185.112L155.256 172.423Z" fill="#8DA3CD"/>
</g>
<defs>
<filter id="filter0_d_601_6060" x="3.19287" y="3.37891" width="366.04" height="226.926" filterUnits="userSpaceOnUse" color-interpolation-filters="sRGB">
<feFlood flood-opacity="0" result="BackgroundImageFix"/>
<feColorMatrix in="SourceAlpha" type="matrix" values="0 0 0 0 0 0 0 0 0 0 0 0 0 0 0 0 0 0 127 0" result="hardAlpha"/>
<feOffset dx="4" dy="4"/>
<feGaussianBlur stdDeviation="2"/>
<feComposite in2="hardAlpha" operator="out"/>
<feColorMatrix type="matrix" values="0 0 0 0 0 0 0 0 0 0 0 0 0 0 0 0 0 0 0.12 0"/>
<feBlend mode="normal" in2="BackgroundImageFix" result="effect1_dropShadow_601_6060"/>
<feBlend mode="normal" in="SourceGraphic" in2="effect1_dropShadow_601_6060" result="shape"/>
</filter>
<filter id="filter1_f_601_6060" x="211.283" y="135.715" width="54.1244" height="52.7797" filterUnits="userSpaceOnUse" color-interpolation-filters="sRGB">
<feFlood flood-opacity="0" result="BackgroundImageFix"/>
<feBlend mode="normal" in="SourceGraphic" in2="BackgroundImageFix" result="shape"/>
<feGaussianBlur stdDeviation="2.98569" result="effect1_foregroundBlur_601_6060"/>
</filter>
</defs>
</svg>
