<svg width="109" height="100" viewBox="0 0 109 100" fill="none" xmlns="http://www.w3.org/2000/svg">
<path fill-rule="evenodd" clip-rule="evenodd" d="M21.185 9.15234H84.3951C89.0352 9.15234 90.7861 9.65327 92.4496 10.4882C94.2005 11.323 95.5138 12.6588 96.3893 14.2451C97.2647 15.9149 97.79 17.5011 97.79 21.926V86.3787C97.79 90.8036 97.2647 92.4733 96.3893 94.0596C95.5138 95.7293 94.113 96.9817 92.4496 97.8165C90.6986 98.6514 89.0352 99.1523 84.3951 99.1523H21.185C16.5449 99.1523 14.7939 98.6514 13.1305 97.8165C11.3795 96.9817 10.0663 95.6458 9.19082 94.0596C8.31533 92.3898 7.79004 90.8036 7.79004 86.3787V22.0095C7.79004 17.5846 8.31533 15.9149 9.19082 14.3286C10.0663 12.7423 11.4671 11.4065 13.1305 10.5716C14.7939 9.73676 16.4574 9.15234 21.185 9.15234Z" fill="#C4262F"/>
<path fill-rule="evenodd" clip-rule="evenodd" d="M14.185 3.15234H77.3951C82.0352 3.15234 83.7861 3.65327 85.4496 4.48815C87.2005 5.32303 88.5138 6.65884 89.3893 8.24511C90.2647 9.91487 90.79 11.5011 90.79 15.926V80.3787C90.79 84.8036 90.2647 86.4733 89.3893 88.0596C88.5138 89.7293 87.113 90.9817 85.4496 91.8165C83.6986 92.6514 82.0352 93.1523 77.3951 93.1523H14.185C9.5449 93.1523 7.79393 92.6514 6.13051 91.8165C4.37953 90.9817 3.0663 89.6458 2.19082 88.0596C1.31533 86.3898 0.790039 84.8036 0.790039 80.3787V16.0095C0.790039 11.5846 1.31533 9.91487 2.19082 8.3286C3.0663 6.74233 4.46708 5.40652 6.13051 4.57164C7.79393 3.73676 9.45735 3.15234 14.185 3.15234Z" fill="white"/>
<path fill-rule="evenodd" clip-rule="evenodd" d="M21.35 70.5118H51.05C51.77 70.5118 52.4 69.9904 52.4 69.3946C52.4 68.7987 51.77 68.2773 51.05 68.2773H21.35C20.63 68.2773 20 68.7987 20 69.3946C20 69.9904 20.63 70.5118 21.35 70.5118Z" fill="#F0F3F9"/>
<path fill-rule="evenodd" clip-rule="evenodd" d="M21.35 74.9806H42.95C43.67 74.9806 44.3 74.4592 44.3 73.8633C44.3 73.2675 43.67 72.7461 42.95 72.7461H21.35C20.63 72.7461 20 73.2675 20 73.8633C20 74.4592 20.63 74.9806 21.35 74.9806Z" fill="#F0F3F9"/>
<g opacity="0.1">
<path fill-rule="evenodd" clip-rule="evenodd" d="M28.4992 14.957C26.2145 14.957 24.2953 16.7634 24.2953 19C24.2953 21.2366 26.2145 23.043 28.5906 23.043C30.9667 23.043 32.8859 21.2366 32.8859 19C32.7945 16.7634 30.8753 14.957 28.4992 14.957ZM28.4992 27C23.8383 27 20 23.3871 20 19C20 14.5269 23.8383 11 28.4992 11C33.1601 11 36.9984 14.6129 36.9984 19C37.0898 23.3871 33.2514 27 28.4992 27Z" fill="#6B8CC9"/>
</g>
<path fill-rule="evenodd" clip-rule="evenodd" d="M37 19H33C33 16.7634 31.2128 14.957 29 14.957V11C33.4255 11 37 14.6129 37 19Z" fill="#FEBD60"/>
<path fill-rule="evenodd" clip-rule="evenodd" d="M77.1102 0.917969H102.58C104.74 0.917969 105.55 1.06693 106.27 1.43935C107.08 1.81176 107.71 2.33314 108.07 2.929C108.43 3.52487 108.7 4.19521 108.7 5.9828V16.6338C108.7 18.4214 108.52 19.0918 108.07 19.6876C107.62 20.358 106.99 20.8793 106.27 21.1773C105.55 21.4752 104.65 21.7731 102.49 21.7731H77.1102C74.9502 21.7731 74.1402 21.6242 73.4202 21.2518C72.6102 20.8793 71.9802 20.358 71.6202 19.7621C71.1702 19.0918 70.9902 18.4959 70.9902 16.7083V6.05728C70.9902 4.26969 71.1702 3.59935 71.6202 3.00349C72.0702 2.40762 72.7002 1.81176 73.4202 1.51383C74.1402 1.06693 74.9502 0.917969 77.1102 0.917969Z" fill="#116A38"/>
<path d="M81.7002 15.0694L86.2002 11.2707L93.0402 15.0694L99.7002 7.62109" stroke="white" stroke-width="3" stroke-linecap="round" stroke-linejoin="round"/>
<path d="M74.9 32.5264H20V60.085H74.9V32.5264Z" fill="#FABA5F" fill-opacity="0.1"/>
<path d="M34.3998 56.3613H26.2998V60.0855H34.3998V56.3613Z" fill="#FCAF3D"/>
<path opacity="0.4" d="M46.1 43.6992H38V60.0854H46.1V43.6992Z" fill="#FCAF3D"/>
<path d="M57.8002 54.127H49.7002V60.0856H57.8002V54.127Z" fill="#FCAF3D"/>
<path d="M69.5004 36.9951H61.4004V60.0848H69.5004V36.9951Z" fill="#FCAF3D"/>
</svg>
