<svg width="322" height="238" viewBox="0 0 322 238" fill="none" xmlns="http://www.w3.org/2000/svg">
<g filter="url(#filter0_d_567_7163)">
<path d="M303.724 7.19434H15.299C10.8828 7.19434 7.30273 10.7744 7.30273 15.1906V202.679C7.30273 207.095 10.8828 210.675 15.299 210.675H303.724C308.141 210.675 311.721 207.095 311.721 202.679V15.1906C311.721 10.7744 308.141 7.19434 303.724 7.19434Z" fill="white"/>
</g>
<path d="M172.603 37.7364C171.386 36.9576 171.514 35.3941 172.956 34.95C175.708 34.108 178.53 33.5155 181.388 33.1797C199.031 38.874 211.691 52.3736 216.29 70.29C216.418 70.8315 215.998 71.2147 215.627 70.8984C214.278 69.7892 212.855 68.7729 211.368 67.8566C211.245 67.7733 211.105 67.7186 210.958 67.6967C210.811 67.6748 210.661 67.6862 210.52 67.73C210.378 67.7738 210.247 67.8489 210.138 67.9498C210.029 68.0507 209.944 68.1747 209.89 68.3128C209.225 69.8056 208.459 71.2508 207.596 72.6383C207.545 72.72 207.469 72.7836 207.38 72.8202C207.291 72.8568 207.193 72.8646 207.099 72.8425C207.005 72.8203 206.92 72.7694 206.857 72.6968C206.793 72.6242 206.754 72.5335 206.745 72.4375C202.924 57.9037 192.856 47.1782 178.583 42.4755C176.733 40.7236 174.732 39.1378 172.603 37.7364Z" fill="#C42730"/>
<path d="M151.468 136.565C152.685 137.344 152.557 138.907 151.116 139.352C148.364 140.194 145.542 140.786 142.684 141.122C125.041 135.428 112.381 121.928 107.782 104.012C107.654 103.47 108.074 103.087 108.445 103.403C109.794 104.512 111.217 105.529 112.703 106.445C112.826 106.528 112.966 106.583 113.113 106.605C113.26 106.627 113.41 106.615 113.552 106.572C113.694 106.528 113.824 106.453 113.933 106.352C114.042 106.251 114.127 106.127 114.182 105.989C114.846 104.496 115.612 103.051 116.475 101.663C116.527 101.582 116.602 101.518 116.691 101.481C116.781 101.445 116.879 101.437 116.973 101.459C117.067 101.481 117.151 101.532 117.215 101.605C117.278 101.677 117.318 101.768 117.327 101.864C121.148 116.398 131.216 127.123 145.488 131.826C147.339 133.578 149.34 135.164 151.468 136.565Z" fill="#FCB03E"/>
<path d="M211.441 97.7281C212.219 96.5114 213.783 96.6391 214.227 98.0809C215.069 100.833 215.662 103.655 215.997 106.513C210.303 124.155 196.803 136.816 178.887 141.415C178.346 141.543 177.962 141.123 178.279 140.752C179.388 139.403 180.404 137.98 181.321 136.493C181.404 136.37 181.458 136.23 181.48 136.083C181.502 135.936 181.491 135.786 181.447 135.645C181.403 135.503 181.328 135.372 181.227 135.263C181.126 135.154 181.002 135.069 180.864 135.015C179.372 134.35 177.926 133.584 176.539 132.721C176.457 132.67 176.393 132.594 176.357 132.505C176.32 132.416 176.312 132.318 176.335 132.224C176.357 132.13 176.408 132.045 176.48 131.982C176.553 131.918 176.643 131.879 176.739 131.87C191.237 128.079 201.938 118.041 206.635 103.733C208.411 101.877 210.019 99.8677 211.441 97.7281Z" fill="#0373BA"/>
<path d="M112.63 76.5866C111.851 77.8034 110.288 77.6756 109.844 76.2338C109.002 73.482 108.409 70.6599 108.073 67.8018C113.768 50.1592 127.267 37.4991 145.184 32.8999C145.725 32.7721 146.108 33.1919 145.792 33.563C144.683 34.912 143.666 36.3348 142.75 37.8216C142.667 37.9445 142.612 38.0846 142.59 38.2315C142.568 38.3784 142.58 38.5283 142.624 38.6702C142.667 38.8121 142.742 38.9423 142.843 39.0513C142.944 39.1603 143.068 39.2453 143.206 39.2999C144.699 39.9643 146.144 40.7306 147.532 41.5934C147.614 41.6447 147.677 41.7203 147.714 41.8095C147.75 41.8987 147.758 41.9972 147.736 42.0911C147.714 42.1849 147.663 42.2695 147.59 42.333C147.518 42.3965 147.427 42.4357 147.331 42.4451C132.834 46.2535 122.133 56.3037 117.436 70.5881C115.66 72.4418 114.052 74.4492 112.63 76.5866Z" fill="#156C3C"/>
<path d="M165.338 132.264H158.828C158.627 132.264 158.433 132.183 158.291 132.041C158.148 131.898 158.068 131.705 158.068 131.503C158.068 131.323 158.133 131.149 158.25 131.012C158.367 130.875 158.529 130.784 158.707 130.755L165.216 129.727C165.324 129.71 165.435 129.717 165.54 129.747C165.645 129.777 165.743 129.829 165.826 129.9C165.909 129.971 165.976 130.059 166.022 130.158C166.068 130.258 166.092 130.366 166.092 130.475V131.503C166.092 131.704 166.013 131.896 165.872 132.039C165.73 132.181 165.538 132.262 165.338 132.264Z" fill="#FCB03E"/>
<path d="M169.026 126.107L155.77 128.48C155.572 128.515 155.369 128.471 155.203 128.358C155.038 128.244 154.925 128.069 154.888 127.872L154.59 126.089C154.558 125.893 154.603 125.693 154.717 125.53C154.83 125.368 155.003 125.256 155.198 125.219L168.485 123.005C168.681 122.971 168.883 123.016 169.047 123.129C169.211 123.243 169.324 123.417 169.361 123.613L169.622 125.243C169.653 125.436 169.608 125.634 169.497 125.795C169.386 125.956 169.217 126.068 169.026 126.107Z" fill="#FCB03E"/>
<path d="M170.595 119.068L153.445 122.11C153.247 122.145 153.044 122.101 152.879 121.988C152.713 121.874 152.6 121.699 152.563 121.502L152.326 119.914C152.297 119.72 152.344 119.523 152.458 119.363C152.571 119.203 152.742 119.093 152.934 119.056L170.108 115.941C170.209 115.923 170.313 115.926 170.414 115.949C170.514 115.972 170.609 116.015 170.692 116.076C170.775 116.137 170.845 116.214 170.897 116.303C170.949 116.392 170.983 116.49 170.996 116.592L171.209 118.222C171.234 118.415 171.185 118.61 171.07 118.768C170.956 118.925 170.786 119.032 170.595 119.068Z" fill="#FCB03E"/>
<path d="M184.094 56.1995L174.579 62.417C174.537 62.4445 174.488 62.4621 174.438 62.4684C174.387 62.4747 174.336 62.4697 174.287 62.4535L161.719 58.4201C161.651 58.3986 161.579 58.3986 161.512 58.4201L148.943 62.4414C148.895 62.4575 148.843 62.4626 148.793 62.4563C148.742 62.4499 148.694 62.4324 148.651 62.4049L139.136 56.1874C139.08 56.159 139.032 56.1155 138.999 56.0618C138.966 56.0081 138.949 55.9462 138.949 55.8832C138.949 55.8201 138.966 55.7583 138.999 55.7046C139.032 55.6509 139.08 55.6074 139.136 55.579L161.427 43.7159C161.476 43.6892 161.531 43.6753 161.588 43.6753C161.644 43.6753 161.699 43.6892 161.749 43.7159L184.039 55.6094C184.094 55.6342 184.142 55.673 184.177 55.7221C184.212 55.7711 184.233 55.8285 184.239 55.8885C184.244 55.9485 184.234 56.0089 184.208 56.0635C184.183 56.1182 184.144 56.1651 184.094 56.1995Z" fill="#0373BA"/>
<path d="M179.957 70.6604C179.85 70.6604 179.748 70.6181 179.673 70.5428C179.597 70.4675 179.555 70.3654 179.555 70.2589V58.5296C179.555 58.4223 179.598 58.3194 179.674 58.2435C179.75 58.1676 179.852 58.125 179.96 58.125C180.067 58.125 180.17 58.1676 180.246 58.2435C180.322 58.3194 180.364 58.4223 180.364 58.5296V70.2528C180.365 70.3065 180.355 70.3599 180.335 70.4097C180.315 70.4596 180.285 70.5048 180.247 70.5428C180.209 70.5808 180.163 70.6108 180.114 70.631C180.064 70.6512 180.01 70.6612 179.957 70.6604Z" fill="#0373BA"/>
<path d="M178.193 70.2286C178.111 70.2307 178.031 70.2081 177.963 70.1637C177.895 70.1194 177.842 70.0554 177.811 69.9802C177.78 69.905 177.773 69.8222 177.79 69.7427C177.807 69.6632 177.848 69.5908 177.907 69.535L179.604 67.8377C179.642 67.8001 179.686 67.7703 179.735 67.75C179.784 67.7297 179.837 67.7192 179.89 67.7192C179.943 67.7192 179.996 67.7297 180.045 67.75C180.094 67.7703 180.139 67.8001 180.176 67.8377C180.214 67.8752 180.243 67.9198 180.264 67.9689C180.284 68.0179 180.295 68.0705 180.295 68.1236C180.295 68.1767 180.284 68.2293 180.264 68.2783C180.243 68.3274 180.214 68.372 180.176 68.4095L178.46 70.113C178.389 70.1837 178.293 70.2249 178.193 70.2286Z" fill="#0373BA"/>
<path d="M181.715 70.2283C181.663 70.2289 181.61 70.2189 181.561 70.1991C181.512 70.1792 181.467 70.1499 181.43 70.1127L179.732 68.4154C179.695 68.3778 179.665 68.3333 179.645 68.2842C179.624 68.2351 179.614 68.1826 179.614 68.1295C179.614 68.0764 179.624 68.0238 179.645 67.9747C179.665 67.9257 179.695 67.8811 179.732 67.8435C179.77 67.806 179.814 67.7762 179.863 67.7559C179.912 67.7356 179.965 67.7251 180.018 67.7251C180.071 67.7251 180.124 67.7356 180.173 67.7559C180.222 67.7762 180.267 67.806 180.304 67.8435L182.001 69.5409C182.061 69.5967 182.101 69.6691 182.119 69.7486C182.136 69.8281 182.128 69.9109 182.097 69.9861C182.066 70.0613 182.013 70.1252 181.945 70.1696C181.877 70.2139 181.797 70.2365 181.715 70.2344V70.2283Z" fill="#0373BA"/>
<path d="M170.065 71.2934C163.275 67.698 153.919 69.2128 149.21 74.6759C145.523 78.9345 144.404 84.355 145.864 90.7307C146.58 93.7649 147.747 96.6747 149.325 99.3634C151.68 102.247 153.547 109.201 154.387 112.747L169.858 109.833C170.722 107.637 172.9 102.247 176.854 93.5049C179.604 83.1261 177.134 75.0349 170.065 71.2934Z" fill="#FCB03E"/>
<path d="M151.261 114.31C151.367 114.83 151.673 115.288 152.114 115.584C152.554 115.88 153.094 115.991 153.615 115.892L166.878 113.392H151.084C151.133 113.714 151.2 114.024 151.261 114.31Z" fill="#FCB03E"/>
<path d="M153.238 115.929C152.772 115.927 152.322 115.765 151.962 115.471C151.602 115.176 151.354 114.766 151.26 114.311C150.451 110.362 148.529 103.36 146.832 101.413C146.77 101.342 146.713 101.267 146.661 101.188C144.902 98.271 143.607 95.098 142.822 91.7828C141.113 84.4824 142.5 77.9668 146.832 72.9234C152.538 66.3044 163.367 64.4915 171.495 68.7926C175.342 70.8011 178.304 74.1688 179.805 78.2406C181.533 82.858 181.557 88.3516 179.884 94.563C179.856 94.6692 179.819 94.773 179.775 94.8733C174.859 105.733 172.809 111.214 172.79 111.299C172.669 111.626 172.465 111.916 172.199 112.141C171.932 112.366 171.612 112.518 171.27 112.583L153.627 115.911C153.498 115.929 153.368 115.935 153.238 115.929ZM150.007 98.8946C152.234 101.62 153.998 108.19 154.789 111.549L169.39 108.793C170.205 106.718 172.261 101.626 176.003 93.3645C178.594 83.5577 176.258 75.9105 169.584 72.3759C163.166 68.9751 154.327 70.4109 149.879 75.5698C146.4 79.6094 145.335 84.6953 146.722 90.7364C147.403 93.6067 148.51 96.3587 150.007 98.9007V98.8946Z" fill="#FCB03E"/>
<path d="M161.615 65.8663C165.186 65.8183 168.714 66.6543 171.884 68.2998C172.359 68.5513 172.817 68.8189 173.259 69.1028C173.308 69.1343 173.365 69.152 173.424 69.154C173.482 69.1561 173.54 69.1424 173.592 69.1145C173.644 69.0866 173.687 69.0454 173.717 68.9952C173.747 68.945 173.763 68.8877 173.764 68.8291V63.2199C173.764 63.148 173.74 63.0781 173.698 63.0202C173.655 62.9623 173.595 62.9193 173.527 62.8975L161.718 59.1074C161.651 59.0859 161.579 59.0859 161.511 59.1074L149.703 62.8975C149.635 62.9193 149.575 62.9623 149.532 63.0202C149.489 63.0781 149.466 63.148 149.466 63.2199V69.0542C149.466 69.115 149.483 69.1747 149.514 69.227C149.545 69.2792 149.59 69.3222 149.643 69.3514C149.696 69.3806 149.757 69.3949 149.818 69.3929C149.878 69.391 149.938 69.3727 149.989 69.3401C153.464 67.1185 157.491 65.9151 161.615 65.8663Z" fill="#0373BA"/>
<path d="M152.989 91.8805C152.86 91.9087 152.725 91.8866 152.612 91.8187C152.499 91.7509 152.416 91.6424 152.38 91.5154L152.252 91.0409C152.179 90.7672 150.494 84.3489 153.567 79.6462C155.173 77.2128 157.752 75.6797 161.238 75.1626L161.725 75.0896C161.794 75.0765 161.864 75.0777 161.933 75.0929C162.001 75.1081 162.066 75.1371 162.123 75.178C162.18 75.219 162.228 75.2711 162.264 75.3312C162.3 75.3913 162.324 75.4581 162.333 75.5276L162.479 76.501C162.492 76.5699 162.491 76.6407 162.476 76.7092C162.461 76.7776 162.432 76.8422 162.391 76.8991C162.35 76.9561 162.298 77.004 162.237 77.0402C162.177 77.0763 162.111 77.0998 162.041 77.1093L161.554 77.1823C158.665 77.6143 156.554 78.8189 155.276 80.7717C152.69 84.72 154.205 90.4691 154.224 90.5056L154.351 90.9801C154.38 91.1089 154.357 91.2437 154.29 91.3567C154.222 91.4698 154.113 91.5527 153.986 91.5885L152.989 91.8805Z" fill="white"/>
<path d="M91.8734 171.169C91.8734 172.011 91.7167 172.749 91.4034 173.384C91.09 174.019 90.6654 174.55 90.1294 174.979C89.5934 175.4 88.9666 175.717 88.2492 175.932C87.5318 176.146 86.7649 176.253 85.9485 176.253C85.396 176.253 84.8806 176.208 84.4024 176.117C83.9323 176.026 83.5159 175.919 83.1531 175.796C82.7902 175.664 82.4851 175.528 82.2377 175.387C81.9986 175.247 81.8254 175.124 81.7182 175.016C81.611 174.909 81.5327 174.757 81.4832 174.559C81.442 174.352 81.4214 174.06 81.4214 173.68C81.4214 173.425 81.4296 173.21 81.4461 173.037C81.4626 172.864 81.4873 172.724 81.5203 172.617C81.5615 172.509 81.611 172.435 81.6687 172.394C81.7347 172.345 81.8089 172.32 81.8914 172.32C82.0068 172.32 82.1676 172.39 82.3738 172.53C82.5882 172.662 82.8603 172.81 83.1902 172.975C83.52 173.14 83.9117 173.293 84.3653 173.433C84.827 173.565 85.3589 173.631 85.9609 173.631C86.3567 173.631 86.7113 173.586 87.0247 173.495C87.338 173.396 87.6019 173.26 87.8163 173.087C88.0389 172.914 88.208 172.699 88.3234 172.443C88.4389 172.188 88.4966 171.903 88.4966 171.59C88.4966 171.227 88.3977 170.918 88.1997 170.662C88.0018 170.398 87.7421 170.168 87.4205 169.97C87.1071 169.763 86.7484 169.574 86.3443 169.401C85.9403 169.219 85.5238 169.03 85.095 168.832C84.6662 168.634 84.2498 168.411 83.8457 168.164C83.4417 167.908 83.0788 167.607 82.7572 167.261C82.4439 166.906 82.1883 166.49 81.9903 166.011C81.7924 165.533 81.6935 164.96 81.6935 164.292C81.6935 163.525 81.8337 162.853 82.114 162.276C82.4027 161.69 82.7861 161.208 83.2644 160.829C83.7509 160.441 84.3199 160.153 84.9714 159.963C85.631 159.773 86.3279 159.678 87.0618 159.678C87.4411 159.678 87.8204 159.707 88.1997 159.765C88.5791 159.823 88.9337 159.901 89.2635 160C89.5934 160.099 89.8861 160.21 90.1417 160.334C90.3974 160.458 90.5664 160.561 90.6489 160.643C90.7313 160.726 90.7849 160.796 90.8097 160.853C90.8427 160.911 90.8674 160.99 90.8839 161.088C90.9086 161.179 90.9251 161.299 90.9334 161.447C90.9416 161.587 90.9457 161.765 90.9457 161.979C90.9457 162.218 90.9375 162.42 90.921 162.585C90.9127 162.75 90.8921 162.886 90.8591 162.993C90.8344 163.101 90.7932 163.179 90.7355 163.228C90.686 163.278 90.6159 163.303 90.5252 163.303C90.4345 163.303 90.2902 163.245 90.0922 163.129C89.8943 163.014 89.6511 162.89 89.3625 162.758C89.0738 162.618 88.7399 162.494 88.3605 162.387C87.9812 162.272 87.5648 162.214 87.1112 162.214C86.7567 162.214 86.4474 162.259 86.1835 162.35C85.9197 162.433 85.697 162.552 85.5156 162.709C85.3424 162.857 85.2105 163.039 85.1198 163.253C85.0373 163.467 84.9961 163.694 84.9961 163.933C84.9961 164.288 85.0909 164.597 85.2806 164.861C85.4785 165.117 85.7382 165.348 86.0598 165.554C86.3897 165.752 86.7608 165.941 87.1731 166.123C87.5854 166.296 88.006 166.481 88.4348 166.679C88.8636 166.877 89.2841 167.104 89.6964 167.36C90.1087 167.607 90.4757 167.908 90.7973 168.263C91.1189 168.609 91.3787 169.021 91.5766 169.5C91.7745 169.97 91.8734 170.526 91.8734 171.169ZM104.762 161.299C104.762 161.538 104.75 161.744 104.725 161.917C104.709 162.082 104.68 162.218 104.639 162.325C104.597 162.424 104.544 162.499 104.478 162.548C104.42 162.598 104.354 162.622 104.28 162.622H100.272V175.523C100.272 175.606 100.243 175.68 100.186 175.746C100.136 175.812 100.05 175.866 99.9259 175.907C99.8022 175.948 99.6331 175.981 99.4187 176.006C99.2126 176.031 98.9528 176.043 98.6394 176.043C98.3261 176.043 98.0622 176.031 97.8478 176.006C97.6417 175.981 97.4767 175.948 97.353 175.907C97.2293 175.866 97.1386 175.812 97.0809 175.746C97.0314 175.68 97.0067 175.606 97.0067 175.523V162.622H92.999C92.9166 162.622 92.8465 162.598 92.7888 162.548C92.731 162.499 92.6816 162.424 92.6403 162.325C92.5991 162.218 92.5661 162.082 92.5414 161.917C92.5249 161.744 92.5166 161.538 92.5166 161.299C92.5166 161.051 92.5249 160.841 92.5414 160.668C92.5661 160.495 92.5991 160.359 92.6403 160.26C92.6816 160.153 92.731 160.078 92.7888 160.037C92.8465 159.988 92.9166 159.963 92.999 159.963H104.28C104.354 159.963 104.42 159.988 104.478 160.037C104.544 160.078 104.597 160.153 104.639 160.26C104.68 160.359 104.709 160.495 104.725 160.668C104.75 160.841 104.762 161.051 104.762 161.299ZM119.717 170.007C119.717 170.988 119.572 171.866 119.284 172.641C118.995 173.417 118.571 174.072 118.01 174.608C117.449 175.144 116.756 175.552 115.932 175.833C115.107 176.113 114.159 176.253 113.087 176.253C112.081 176.253 111.178 176.13 110.378 175.882C109.578 175.627 108.902 175.243 108.349 174.732C107.797 174.221 107.372 173.586 107.075 172.827C106.787 172.06 106.642 171.165 106.642 170.143V160.408C106.642 160.326 106.667 160.251 106.717 160.186C106.766 160.12 106.853 160.066 106.976 160.025C107.108 159.983 107.277 159.95 107.484 159.926C107.69 159.901 107.954 159.889 108.275 159.889C108.588 159.889 108.848 159.901 109.054 159.926C109.261 159.95 109.425 159.983 109.549 160.025C109.673 160.066 109.759 160.12 109.809 160.186C109.867 160.251 109.896 160.326 109.896 160.408V169.858C109.896 170.493 109.974 171.046 110.131 171.516C110.287 171.978 110.51 172.361 110.798 172.666C111.095 172.971 111.446 173.202 111.85 173.359C112.262 173.507 112.72 173.581 113.223 173.581C113.734 173.581 114.192 173.503 114.596 173.346C115 173.19 115.342 172.963 115.623 172.666C115.903 172.361 116.117 171.99 116.266 171.553C116.422 171.108 116.501 170.605 116.501 170.044V160.408C116.501 160.326 116.525 160.251 116.575 160.186C116.624 160.12 116.711 160.066 116.835 160.025C116.958 159.983 117.123 159.95 117.329 159.926C117.544 159.901 117.808 159.889 118.121 159.889C118.434 159.889 118.69 159.901 118.888 159.926C119.094 159.95 119.259 159.983 119.383 160.025C119.506 160.066 119.593 160.12 119.643 160.186C119.692 160.251 119.717 160.326 119.717 160.408V170.007ZM136.502 167.731C136.502 169.199 136.308 170.456 135.921 171.503C135.541 172.542 134.993 173.392 134.275 174.052C133.558 174.711 132.684 175.198 131.653 175.511C130.631 175.816 129.41 175.969 127.992 175.969H124.17C123.898 175.969 123.667 175.89 123.477 175.734C123.296 175.569 123.205 175.305 123.205 174.942V160.99C123.205 160.627 123.296 160.367 123.477 160.21C123.667 160.045 123.898 159.963 124.17 159.963H128.276C129.703 159.963 130.911 160.132 131.901 160.47C132.898 160.8 133.735 161.295 134.412 161.954C135.096 162.606 135.615 163.414 135.97 164.379C136.325 165.344 136.502 166.461 136.502 167.731ZM133.137 167.842C133.137 167.083 133.047 166.378 132.865 165.727C132.692 165.076 132.408 164.511 132.012 164.032C131.624 163.554 131.121 163.183 130.503 162.919C129.893 162.647 129.089 162.511 128.091 162.511H126.446V173.396H128.14C129.031 173.396 129.781 173.28 130.391 173.05C131.002 172.819 131.509 172.472 131.913 172.011C132.325 171.541 132.63 170.959 132.828 170.266C133.034 169.574 133.137 168.766 133.137 167.842ZM144.963 169.895V175.523C144.963 175.606 144.934 175.68 144.876 175.746C144.826 175.812 144.74 175.866 144.616 175.907C144.492 175.948 144.323 175.981 144.109 176.006C143.903 176.031 143.643 176.043 143.33 176.043C143.008 176.043 142.744 176.031 142.538 176.006C142.332 175.981 142.163 175.948 142.031 175.907C141.907 175.866 141.821 175.812 141.771 175.746C141.722 175.68 141.697 175.606 141.697 175.523V169.895L137.318 161.175C137.162 160.87 137.059 160.635 137.009 160.47C136.968 160.297 136.993 160.169 137.083 160.087C137.182 159.996 137.36 159.942 137.615 159.926C137.871 159.901 138.225 159.889 138.679 159.889C139.058 159.889 139.359 159.897 139.582 159.913C139.813 159.93 139.994 159.963 140.126 160.012C140.258 160.054 140.353 160.111 140.411 160.186C140.477 160.26 140.538 160.355 140.596 160.47L142.377 164.403C142.551 164.783 142.72 165.183 142.884 165.603C143.058 166.024 143.231 166.465 143.404 166.927H143.429C143.585 166.481 143.746 166.049 143.911 165.628C144.076 165.207 144.237 164.808 144.394 164.428L146.15 160.519C146.191 160.388 146.241 160.284 146.298 160.21C146.364 160.128 146.459 160.062 146.583 160.012C146.707 159.963 146.876 159.93 147.09 159.913C147.304 159.897 147.589 159.889 147.944 159.889C148.414 159.889 148.776 159.901 149.032 159.926C149.296 159.942 149.473 159.996 149.564 160.087C149.663 160.169 149.688 160.297 149.638 160.47C149.589 160.643 149.49 160.878 149.341 161.175L144.963 169.895ZM170.233 162.449C170.233 162.688 170.221 162.894 170.196 163.068C170.179 163.241 170.151 163.381 170.109 163.488C170.076 163.587 170.031 163.657 169.973 163.698C169.924 163.74 169.862 163.76 169.788 163.76C169.681 163.76 169.507 163.686 169.268 163.538C169.029 163.389 168.712 163.228 168.316 163.055C167.92 162.882 167.446 162.721 166.893 162.573C166.349 162.424 165.714 162.35 164.988 162.35C164.213 162.35 163.512 162.486 162.886 162.758C162.259 163.022 161.723 163.402 161.278 163.896C160.832 164.383 160.49 164.972 160.251 165.665C160.012 166.35 159.892 167.108 159.892 167.941C159.892 168.856 160.012 169.665 160.251 170.365C160.498 171.058 160.841 171.639 161.278 172.11C161.715 172.58 162.238 172.934 162.849 173.173C163.467 173.412 164.147 173.532 164.889 173.532C165.252 173.532 165.611 173.491 165.966 173.408C166.32 173.326 166.65 173.202 166.955 173.037V169.326H163.925C163.776 169.326 163.661 169.236 163.578 169.054C163.496 168.865 163.455 168.547 163.455 168.102C163.455 167.871 163.463 167.677 163.479 167.521C163.504 167.364 163.537 167.24 163.578 167.149C163.62 167.05 163.669 166.98 163.727 166.939C163.785 166.89 163.85 166.865 163.925 166.865H169.33C169.462 166.865 169.577 166.89 169.676 166.939C169.784 166.98 169.874 167.046 169.949 167.137C170.031 167.228 170.093 167.339 170.134 167.471C170.175 167.595 170.196 167.739 170.196 167.904V174.274C170.196 174.522 170.151 174.74 170.06 174.93C169.977 175.111 169.8 175.255 169.528 175.363C169.264 175.47 168.934 175.581 168.538 175.697C168.143 175.812 167.73 175.911 167.302 175.993C166.881 176.076 166.452 176.138 166.015 176.179C165.586 176.22 165.153 176.241 164.716 176.241C163.438 176.241 162.292 176.059 161.278 175.697C160.272 175.326 159.418 174.794 158.717 174.101C158.016 173.4 157.48 172.551 157.109 171.553C156.738 170.547 156.553 169.409 156.553 168.139C156.553 166.828 156.75 165.653 157.146 164.614C157.542 163.566 158.103 162.68 158.829 161.954C159.554 161.22 160.428 160.66 161.451 160.272C162.482 159.885 163.628 159.691 164.889 159.691C165.582 159.691 166.213 159.74 166.782 159.839C167.351 159.93 167.846 160.045 168.266 160.186C168.695 160.317 169.05 160.462 169.33 160.618C169.61 160.775 169.804 160.911 169.911 161.027C170.027 161.142 170.109 161.307 170.159 161.521C170.208 161.728 170.233 162.037 170.233 162.449ZM182.343 174.608C182.343 174.856 182.33 175.066 182.305 175.239C182.289 175.404 182.26 175.544 182.219 175.66C182.178 175.767 182.124 175.845 182.058 175.895C182 175.944 181.93 175.969 181.848 175.969H174.513C174.241 175.969 174.01 175.89 173.82 175.734C173.639 175.569 173.548 175.305 173.548 174.942V160.408C173.548 160.326 173.573 160.251 173.622 160.186C173.68 160.12 173.771 160.066 173.894 160.025C174.018 159.983 174.183 159.95 174.389 159.926C174.604 159.901 174.867 159.889 175.181 159.889C175.502 159.889 175.766 159.901 175.972 159.926C176.179 159.95 176.343 159.983 176.467 160.025C176.591 160.066 176.677 160.12 176.727 160.186C176.785 160.251 176.814 160.326 176.814 160.408V173.285H181.848C181.93 173.285 182 173.309 182.058 173.359C182.124 173.4 182.178 173.474 182.219 173.581C182.26 173.68 182.289 173.816 182.305 173.99C182.33 174.155 182.343 174.361 182.343 174.608ZM198.212 167.78C198.212 169.108 198.048 170.295 197.718 171.343C197.388 172.39 196.897 173.28 196.246 174.014C195.594 174.74 194.786 175.297 193.821 175.684C192.865 176.064 191.756 176.253 190.494 176.253C189.249 176.253 188.16 176.092 187.228 175.771C186.305 175.441 185.534 174.942 184.915 174.274C184.297 173.606 183.831 172.757 183.518 171.726C183.213 170.695 183.06 169.475 183.06 168.065C183.06 166.77 183.225 165.607 183.555 164.577C183.885 163.538 184.375 162.655 185.027 161.93C185.678 161.204 186.482 160.647 187.439 160.26C188.404 159.872 189.521 159.678 190.791 159.678C192.003 159.678 193.071 159.839 193.994 160.161C194.926 160.482 195.701 160.977 196.32 161.645C196.947 162.313 197.417 163.158 197.73 164.181C198.052 165.195 198.212 166.395 198.212 167.78ZM194.798 167.953C194.798 167.112 194.733 166.35 194.601 165.665C194.469 164.972 194.242 164.383 193.92 163.896C193.607 163.402 193.186 163.022 192.659 162.758C192.131 162.486 191.471 162.35 190.68 162.35C189.88 162.35 189.212 162.503 188.676 162.808C188.14 163.105 187.707 163.505 187.377 164.008C187.047 164.511 186.812 165.1 186.672 165.776C186.54 166.444 186.474 167.154 186.474 167.904C186.474 168.778 186.54 169.566 186.672 170.266C186.804 170.959 187.026 171.553 187.34 172.048C187.653 172.542 188.074 172.922 188.601 173.186C189.129 173.441 189.793 173.569 190.593 173.569C191.393 173.569 192.061 173.421 192.597 173.124C193.133 172.827 193.566 172.423 193.896 171.912C194.225 171.4 194.456 170.807 194.588 170.13C194.728 169.446 194.798 168.72 194.798 167.953ZM217.484 175.14C217.434 175.338 217.364 175.499 217.274 175.622C217.191 175.738 217.063 175.829 216.89 175.895C216.717 175.952 216.494 175.989 216.222 176.006C215.95 176.031 215.604 176.043 215.183 176.043C214.713 176.043 214.334 176.031 214.045 176.006C213.765 175.989 213.542 175.952 213.377 175.895C213.212 175.829 213.093 175.738 213.019 175.622C212.944 175.499 212.887 175.338 212.845 175.14L210.285 164.997H210.26L207.836 175.14C207.795 175.33 207.737 175.486 207.663 175.61C207.588 175.725 207.469 175.816 207.304 175.882C207.147 175.948 206.929 175.989 206.648 176.006C206.376 176.031 206.013 176.043 205.56 176.043C205.082 176.043 204.698 176.031 204.409 176.006C204.129 175.989 203.906 175.952 203.742 175.895C203.577 175.829 203.457 175.738 203.383 175.622C203.309 175.499 203.247 175.338 203.197 175.14L199.561 161.175C199.486 160.878 199.445 160.647 199.437 160.482C199.429 160.309 199.474 160.177 199.573 160.087C199.68 159.996 199.849 159.942 200.08 159.926C200.319 159.901 200.649 159.889 201.07 159.889C201.457 159.889 201.762 159.897 201.985 159.913C202.216 159.922 202.389 159.95 202.505 160C202.62 160.041 202.698 160.107 202.74 160.198C202.781 160.28 202.814 160.4 202.839 160.557L205.646 172.815H205.659L208.578 160.643C208.611 160.486 208.652 160.359 208.702 160.26C208.759 160.161 208.85 160.087 208.974 160.037C209.106 159.979 209.283 159.942 209.506 159.926C209.728 159.901 210.025 159.889 210.396 159.889C210.792 159.889 211.105 159.897 211.336 159.913C211.575 159.93 211.757 159.967 211.881 160.025C212.012 160.074 212.107 160.148 212.165 160.247C212.223 160.346 212.268 160.478 212.301 160.643L215.319 172.815H215.344L218.152 160.594C218.177 160.462 218.209 160.35 218.251 160.26C218.292 160.161 218.37 160.087 218.486 160.037C218.601 159.979 218.766 159.942 218.981 159.926C219.195 159.901 219.496 159.889 219.883 159.889C220.246 159.889 220.527 159.901 220.725 159.926C220.931 159.942 221.079 159.996 221.17 160.087C221.261 160.177 221.298 160.313 221.281 160.495C221.273 160.668 221.232 160.907 221.158 161.212L217.484 175.14ZM232.958 171.169C232.958 172.011 232.801 172.749 232.488 173.384C232.174 174.019 231.75 174.55 231.214 174.979C230.678 175.4 230.051 175.717 229.334 175.932C228.616 176.146 227.849 176.253 227.033 176.253C226.48 176.253 225.965 176.208 225.487 176.117C225.017 176.026 224.6 175.919 224.237 175.796C223.875 175.664 223.57 175.528 223.322 175.387C223.083 175.247 222.91 175.124 222.803 175.016C222.695 174.909 222.617 174.757 222.568 174.559C222.526 174.352 222.506 174.06 222.506 173.68C222.506 173.425 222.514 173.21 222.531 173.037C222.547 172.864 222.572 172.724 222.605 172.617C222.646 172.509 222.695 172.435 222.753 172.394C222.819 172.345 222.893 172.32 222.976 172.32C223.091 172.32 223.252 172.39 223.458 172.53C223.673 172.662 223.945 172.81 224.275 172.975C224.604 173.14 224.996 173.293 225.45 173.433C225.911 173.565 226.443 173.631 227.045 173.631C227.441 173.631 227.796 173.586 228.109 173.495C228.422 173.396 228.686 173.26 228.901 173.087C229.123 172.914 229.292 172.699 229.408 172.443C229.523 172.188 229.581 171.903 229.581 171.59C229.581 171.227 229.482 170.918 229.284 170.662C229.086 170.398 228.826 170.168 228.505 169.97C228.192 169.763 227.833 169.574 227.429 169.401C227.025 169.219 226.608 169.03 226.179 168.832C225.751 168.634 225.334 168.411 224.93 168.164C224.526 167.908 224.163 167.607 223.842 167.261C223.528 166.906 223.273 166.49 223.075 166.011C222.877 165.533 222.778 164.96 222.778 164.292C222.778 163.525 222.918 162.853 223.198 162.276C223.487 161.69 223.871 161.208 224.349 160.829C224.835 160.441 225.404 160.153 226.056 159.963C226.715 159.773 227.412 159.678 228.146 159.678C228.526 159.678 228.905 159.707 229.284 159.765C229.663 159.823 230.018 159.901 230.348 160C230.678 160.099 230.971 160.21 231.226 160.334C231.482 160.458 231.651 160.561 231.733 160.643C231.816 160.726 231.869 160.796 231.894 160.853C231.927 160.911 231.952 160.99 231.968 161.088C231.993 161.179 232.01 161.299 232.018 161.447C232.026 161.587 232.03 161.765 232.03 161.979C232.03 162.218 232.022 162.42 232.005 162.585C231.997 162.75 231.977 162.886 231.944 162.993C231.919 163.101 231.878 163.179 231.82 163.228C231.77 163.278 231.7 163.303 231.61 163.303C231.519 163.303 231.375 163.245 231.177 163.129C230.979 163.014 230.735 162.89 230.447 162.758C230.158 162.618 229.824 162.494 229.445 162.387C229.066 162.272 228.649 162.214 228.196 162.214C227.841 162.214 227.532 162.259 227.268 162.35C227.004 162.433 226.781 162.552 226.6 162.709C226.427 162.857 226.295 163.039 226.204 163.253C226.122 163.467 226.081 163.694 226.081 163.933C226.081 164.288 226.175 164.597 226.365 164.861C226.563 165.117 226.823 165.348 227.144 165.554C227.474 165.752 227.845 165.941 228.257 166.123C228.67 166.296 229.09 166.481 229.519 166.679C229.948 166.877 230.369 167.104 230.781 167.36C231.193 167.607 231.56 167.908 231.882 168.263C232.203 168.609 232.463 169.021 232.661 169.5C232.859 169.97 232.958 170.526 232.958 171.169Z" fill="#0373BA"/>
<path d="M279.134 207.771H26.8936V237.861H279.134V207.771Z" fill="#C42730"/>
<path d="M275.022 211.531H26.8936V233.979H275.022V211.531Z" fill="#F5F5F5"/>
<path opacity="0.3" d="M279.134 207.771H230.118V237.861H279.134V207.771Z" fill="black"/>
<path d="M258.109 179.926H68.5903V207.765H258.109V179.926Z" fill="#0373BA"/>
<path d="M258.218 179.914H210.748V207.783H258.218V179.914Z" fill="#0373BA"/>
<path d="M258.218 183.862H215.213V203.634H258.218V183.862Z" fill="#F5F5F5"/>
<path opacity="0.3" d="M258.218 179.914H210.748V207.783H258.218V179.914Z" fill="black"/>
<path d="M262.222 169.225H87.7793V179.974H262.222V169.225Z" fill="#156C3C"/>
<path d="M262.223 170.569H223.227V178.709H262.223V170.569Z" fill="#E1E1E1"/>
<path opacity="0.3" d="M262.216 169.225H221.018V179.974H262.216V169.225Z" fill="black"/>
<path d="M205.383 173.367H100.324V175.934H205.383V173.367Z" fill="#E1E1E1"/>
<path d="M232.29 147.439H57.8472V169.225H232.29V147.439Z" fill="#C42730"/>
<defs>
<filter id="filter0_d_567_7163" x="0.766217" y="0.657818" width="321.064" height="220.126" filterUnits="userSpaceOnUse" color-interpolation-filters="sRGB">
<feFlood flood-opacity="0" result="BackgroundImageFix"/>
<feColorMatrix in="SourceAlpha" type="matrix" values="0 0 0 0 0 0 0 0 0 0 0 0 0 0 0 0 0 0 127 0" result="hardAlpha"/>
<feOffset dx="1.78645" dy="1.78645"/>
<feGaussianBlur stdDeviation="4.16149"/>
<feComposite in2="hardAlpha" operator="out"/>
<feColorMatrix type="matrix" values="0 0 0 0 0 0 0 0 0 0 0 0 0 0 0 0 0 0 0.15 0"/>
<feBlend mode="normal" in2="BackgroundImageFix" result="effect1_dropShadow_567_7163"/>
<feBlend mode="normal" in="SourceGraphic" in2="effect1_dropShadow_567_7163" result="shape"/>
</filter>
</defs>
</svg>
