<svg width="363" height="222" viewBox="0 0 363 222" fill="none" xmlns="http://www.w3.org/2000/svg">
<g clip-path="url(#clip0_299_2331)">
<g filter="url(#filter0_d_299_2331)">
<path d="M525.085 21.2385H61.9179C49.9902 21.2385 40.3208 30.8897 40.3208 42.7949V340.181C40.3208 352.086 49.9902 361.737 61.9179 361.737H525.085C537.013 361.737 546.682 352.086 546.682 340.181V42.7949C546.682 30.8897 537.013 21.2385 525.085 21.2385Z" fill="white"/>
</g>
<path d="M105.015 74.7449C104.83 74.652 104.678 74.5042 104.581 74.3217C104.484 74.1393 104.445 73.9312 104.472 73.7261C104.498 73.5211 104.587 73.3292 104.727 73.1769C104.867 73.0246 105.051 72.9193 105.253 72.8756C107.099 72.3157 108.99 71.9199 110.906 71.6929C116.623 73.4701 121.782 76.6922 125.883 81.0466C129.984 85.4009 132.888 90.7396 134.313 96.5444C134.394 96.9115 134.115 97.163 133.87 96.9658C132.971 96.2229 132.022 95.5416 131.03 94.9266C130.947 94.8732 130.853 94.8386 130.755 94.8253C130.656 94.8119 130.557 94.82 130.462 94.8492C130.367 94.8783 130.28 94.9277 130.206 94.9939C130.133 95.0601 130.075 95.1415 130.036 95.2325C129.593 96.2331 129.078 97.2008 128.497 98.1282C128.463 98.1824 128.413 98.2248 128.354 98.2493C128.295 98.2739 128.23 98.2794 128.168 98.2652C128.106 98.251 128.049 98.2177 128.007 98.1699C127.965 98.1222 127.938 98.0625 127.931 97.999C126.773 93.3188 124.426 89.0154 121.117 85.5032C117.808 81.9911 113.649 79.3886 109.04 77.9465C107.797 76.7608 106.45 75.6892 105.015 74.7449Z" fill="#C42730"/>
<path d="M90.8426 140.871C91.0276 140.964 91.1792 141.112 91.2765 141.294C91.3738 141.477 91.412 141.685 91.3858 141.89C91.3597 142.095 91.2705 142.287 91.1305 142.439C90.9905 142.592 90.8067 142.697 90.6043 142.741C88.7574 143.304 86.8633 143.7 84.9449 143.923C79.2339 142.15 74.0783 138.935 69.9775 134.59C65.8767 130.244 62.9697 124.915 61.5379 119.119C61.4562 118.759 61.7354 118.501 61.9874 118.705C62.8856 119.449 63.8345 120.131 64.8273 120.744C64.9105 120.796 65.0039 120.83 65.1013 120.842C65.1987 120.855 65.2977 120.847 65.3915 120.818C65.4853 120.789 65.5717 120.74 65.6448 120.674C65.7178 120.609 65.7758 120.528 65.8148 120.438C66.2622 119.439 66.7764 118.472 67.3539 117.542C67.3894 117.489 67.4404 117.448 67.5 117.424C67.5597 117.401 67.6251 117.396 67.6875 117.411C67.7498 117.426 67.8062 117.459 67.8488 117.507C67.8915 117.555 67.9184 117.615 67.926 117.678C69.0849 122.357 71.431 126.66 74.7385 130.172C78.046 133.684 82.2035 136.287 86.8109 137.731C88.06 138.894 89.4091 139.944 90.8426 140.871V140.871Z" fill="#FCB03E"/>
<path d="M131.058 114.891C131.151 114.706 131.299 114.555 131.482 114.458C131.664 114.361 131.873 114.323 132.078 114.349C132.284 114.375 132.476 114.464 132.629 114.604C132.781 114.743 132.887 114.927 132.93 115.129C133.495 116.97 133.891 118.858 134.115 120.771C132.335 126.477 129.107 131.627 124.744 135.72C120.382 139.814 115.033 142.712 109.217 144.134C108.856 144.215 108.597 143.937 108.802 143.692C109.546 142.794 110.229 141.847 110.845 140.857C110.898 140.774 110.933 140.68 110.946 140.582C110.96 140.484 110.951 140.385 110.922 140.29C110.893 140.196 110.844 140.109 110.777 140.035C110.711 139.962 110.629 139.904 110.538 139.865C109.536 139.421 108.567 138.908 107.637 138.329C107.582 138.295 107.54 138.244 107.516 138.185C107.491 138.126 107.486 138.06 107.501 137.998C107.516 137.935 107.551 137.879 107.6 137.837C107.648 137.795 107.709 137.77 107.773 137.764C112.462 136.607 116.773 134.264 120.291 130.961C123.81 127.659 126.418 123.508 127.864 118.908C129.045 117.666 130.114 116.322 131.058 114.891V114.891Z" fill="#0373BA"/>
<path d="M64.7932 100.766C64.7017 100.952 64.5544 101.104 64.3718 101.202C64.1893 101.3 63.9806 101.338 63.7751 101.312C63.5695 101.286 63.3772 101.196 63.2252 101.056C63.0732 100.915 62.969 100.731 62.9272 100.528C62.3601 98.6848 61.9612 96.7942 61.7354 94.8793C63.5159 89.1733 66.7442 84.0236 71.1067 79.93C75.4693 75.8365 80.8181 72.9382 86.6338 71.5164C87.0016 71.4349 87.2536 71.7136 87.0561 71.9651C86.3102 72.8616 85.6275 73.8087 85.013 74.7996C84.9607 74.8826 84.9271 74.9759 84.9144 75.0731C84.9016 75.1703 84.9101 75.2691 84.9392 75.3627C84.9683 75.4564 85.0174 75.5426 85.083 75.6155C85.1486 75.6884 85.2293 75.7463 85.3195 75.7852C86.3207 76.2303 87.29 76.7436 88.2206 77.3215C88.2739 77.3564 88.3152 77.4068 88.339 77.4658C88.3629 77.5248 88.3681 77.5896 88.354 77.6517C88.34 77.7137 88.3073 77.77 88.2603 77.813C88.2134 77.8561 88.1544 77.8838 88.0913 77.8924C83.4027 79.0479 79.0913 81.3892 75.5725 84.6906C72.0537 87.9921 69.4461 92.1424 68.0009 96.7418C66.8129 97.9844 65.7394 99.3312 64.7932 100.766V100.766Z" fill="#156C3C"/>
<path d="M100.146 138.009H95.7802C95.6452 138.007 95.5163 137.953 95.4209 137.858C95.3255 137.763 95.2712 137.634 95.2694 137.499V137.499C95.2694 137.378 95.3126 137.261 95.3912 137.169C95.4698 137.077 95.5787 137.016 95.6984 136.996L100.064 136.317C100.136 136.306 100.21 136.311 100.281 136.331C100.351 136.351 100.416 136.387 100.472 136.434C100.527 136.482 100.572 136.541 100.603 136.608C100.633 136.674 100.649 136.746 100.65 136.82V137.499C100.65 137.633 100.597 137.762 100.502 137.857C100.408 137.953 100.28 138.007 100.146 138.009V138.009Z" fill="#FCB03E"/>
<path d="M102.618 133.883L93.7234 135.473C93.6572 135.485 93.5893 135.484 93.5237 135.469C93.458 135.455 93.3959 135.427 93.3409 135.389C93.2858 135.35 93.2389 135.301 93.2029 135.245C93.1669 135.188 93.1424 135.125 93.1309 135.059L92.9334 133.862C92.9118 133.729 92.9441 133.592 93.0233 133.483C93.1024 133.373 93.222 133.299 93.3556 133.278L102.263 131.796C102.33 131.784 102.398 131.786 102.463 131.801C102.529 131.816 102.591 131.844 102.645 131.883C102.7 131.923 102.746 131.972 102.781 132.03C102.816 132.087 102.839 132.151 102.849 132.217L103.026 133.305C103.048 133.436 103.017 133.569 102.941 133.678C102.864 133.786 102.748 133.859 102.618 133.883V133.883Z" fill="#FCB03E"/>
<path d="M103.667 129.173L92.1639 131.212C92.0967 131.224 92.0279 131.222 91.9615 131.206C91.8951 131.191 91.8324 131.163 91.7772 131.123C91.722 131.083 91.6753 131.032 91.64 130.974C91.6046 130.916 91.5813 130.851 91.5714 130.784L91.4148 129.723C91.3948 129.593 91.4262 129.46 91.5024 129.352C91.5786 129.245 91.6936 129.17 91.8234 129.146L103.346 127.066C103.414 127.053 103.484 127.054 103.551 127.07C103.618 127.085 103.682 127.114 103.737 127.155C103.793 127.196 103.839 127.247 103.874 127.307C103.909 127.366 103.931 127.432 103.939 127.501L104.082 128.588C104.104 128.721 104.072 128.856 103.995 128.966C103.917 129.075 103.799 129.15 103.667 129.173Z" fill="#FCB03E"/>
<path d="M112.717 87.0965L106.336 91.2497C106.307 91.2647 106.274 91.2724 106.241 91.2724C106.208 91.2724 106.175 91.2647 106.145 91.2497L97.7143 88.5307C97.6676 88.517 97.618 88.517 97.5713 88.5307L89.1469 91.2497C89.1162 91.2647 89.0824 91.2725 89.0482 91.2725C89.014 91.2725 88.9802 91.2647 88.9494 91.2497L82.5682 87.0897C82.5344 87.069 82.5064 87.0401 82.4871 87.0055C82.4677 86.971 82.4575 86.9321 82.4575 86.8926C82.4575 86.853 82.4677 86.8141 82.4871 86.7796C82.5064 86.7451 82.5344 86.7161 82.5682 86.6954L97.5509 78.7356C97.5835 78.7189 97.6197 78.7102 97.6564 78.7102C97.6931 78.7102 97.7293 78.7189 97.762 78.7356L112.745 86.6954C112.779 86.718 112.806 86.7491 112.824 86.7857C112.843 86.8224 112.851 86.8631 112.848 86.9039C112.845 86.9446 112.832 86.9839 112.809 87.0178C112.786 87.0516 112.754 87.0788 112.717 87.0965Z" fill="#0373BA"/>
<path d="M109.946 96.7755C109.873 96.7755 109.804 96.7468 109.753 96.6959C109.702 96.6449 109.673 96.5757 109.673 96.5036V88.6525C109.673 88.5804 109.702 88.5112 109.753 88.4603C109.804 88.4093 109.873 88.3806 109.946 88.3806C110.018 88.3806 110.087 88.4093 110.138 88.4603C110.189 88.5112 110.218 88.5804 110.218 88.6525V96.5036C110.218 96.5757 110.189 96.6449 110.138 96.6959C110.087 96.7468 110.018 96.7755 109.946 96.7755V96.7755Z" fill="#0373BA"/>
<path d="M108.761 96.4831C108.725 96.4842 108.69 96.4782 108.658 96.4653C108.625 96.4525 108.595 96.4331 108.57 96.4083C108.544 96.383 108.524 96.3528 108.51 96.3196C108.496 96.2863 108.489 96.2506 108.489 96.2146C108.489 96.1785 108.496 96.1428 108.51 96.1096C108.524 96.0763 108.544 96.0462 108.57 96.0209L109.707 94.8857C109.759 94.8343 109.829 94.8054 109.901 94.8054C109.974 94.8054 110.044 94.8343 110.095 94.8857C110.147 94.937 110.176 95.0067 110.176 95.0794C110.176 95.1521 110.147 95.2217 110.095 95.2731L108.965 96.4083C108.939 96.4352 108.907 96.4559 108.871 96.4688C108.836 96.4818 108.798 96.4866 108.761 96.4831V96.4831Z" fill="#0373BA"/>
<path d="M111.124 96.483C111.088 96.4841 111.053 96.4781 111.021 96.4652C110.988 96.4524 110.958 96.433 110.933 96.4082L109.796 95.273C109.77 95.2477 109.749 95.2176 109.736 95.1843C109.722 95.1511 109.714 95.1154 109.714 95.0793C109.714 95.0433 109.722 95.0076 109.736 94.9743C109.749 94.941 109.77 94.9109 109.796 94.8856C109.847 94.8358 109.915 94.8079 109.986 94.8079C110.058 94.8079 110.126 94.8358 110.177 94.8856L111.321 96.0208C111.37 96.0735 111.397 96.1427 111.397 96.2145C111.397 96.2863 111.37 96.3555 111.321 96.4082C111.295 96.4335 111.264 96.4532 111.23 96.466C111.196 96.4789 111.16 96.4847 111.124 96.483V96.483Z" fill="#0373BA"/>
<path d="M102.999 97.9244C98.6948 95.6541 92.7834 96.6125 89.7869 100.066C87.451 102.785 86.7359 106.183 87.6689 110.221C88.1228 112.133 88.862 113.966 89.8618 115.659C91.3533 117.481 92.5383 121.879 93.0695 124.129L102.869 122.286C103.414 120.893 104.797 117.487 107.303 111.954C109.046 105.415 107.48 100.297 102.999 97.9244Z" fill="#FCB03E"/>
<path d="M90.6996 125.991C90.7636 126.296 90.9303 126.569 91.172 126.766C91.4138 126.963 91.7158 127.071 92.0277 127.072C92.1115 127.079 92.1958 127.079 92.2796 127.072L101.174 125.4H90.5771C90.6179 125.59 90.6588 125.801 90.6996 125.991Z" fill="#FCB03E"/>
<path d="M92.0276 127.072C91.7158 127.071 91.4137 126.963 91.172 126.766C90.9303 126.569 90.7636 126.296 90.6996 125.991C90.1548 123.354 88.8677 118.67 87.7303 117.358L87.6146 117.209C86.4362 115.253 85.5679 113.128 85.0403 110.908C83.8961 106.027 84.8223 101.663 87.7303 98.2984C91.5577 93.8664 98.8175 92.6565 104.266 95.5318C106.847 96.8778 108.835 99.1333 109.843 101.86C111.001 104.953 111.015 108.624 109.898 112.784C109.877 112.855 109.852 112.926 109.823 112.994C106.527 120.261 105.151 123.932 105.137 123.966C105.055 124.184 104.918 124.377 104.739 124.527C104.56 124.677 104.345 124.779 104.116 124.822L92.2796 127.052C92.1963 127.065 92.112 127.072 92.0276 127.072ZM89.896 115.679C91.3875 117.501 92.5725 121.899 93.1037 124.149L102.904 122.307C103.449 120.914 104.831 117.508 107.337 111.975C109.081 105.415 107.514 100.297 103.033 97.9245C98.729 95.6542 92.8176 96.6126 89.8211 100.066C87.4852 102.785 86.7701 106.183 87.7031 110.221C88.155 112.14 88.8943 113.98 89.896 115.679V115.679Z" fill="#FCB03E"/>
<path d="M97.646 93.567C100.04 93.5344 102.405 94.0925 104.531 95.1916C104.851 95.3615 105.158 95.5382 105.451 95.7286C105.484 95.751 105.522 95.7639 105.562 95.766C105.602 95.768 105.642 95.7591 105.677 95.7401C105.712 95.7212 105.741 95.693 105.761 95.6586C105.781 95.6242 105.792 95.5849 105.791 95.545V91.7929C105.791 91.7448 105.776 91.6981 105.748 91.6591C105.72 91.6202 105.68 91.5909 105.634 91.5753L97.7141 89.0399C97.6674 89.0261 97.6177 89.0261 97.5711 89.0399L89.6575 91.5753C89.6102 91.5887 89.5685 91.6173 89.539 91.6566C89.5095 91.6958 89.4937 91.7437 89.4941 91.7929V95.6946C89.4928 95.7363 89.5031 95.7775 89.524 95.8136C89.5448 95.8497 89.5754 95.8793 89.6121 95.8991C89.6489 95.9189 89.6905 95.928 89.7322 95.9255C89.7739 95.923 89.814 95.9089 89.8482 95.8849C92.1799 94.4013 94.881 93.5984 97.646 93.567Z" fill="#0373BA"/>
<g filter="url(#filter1_d_299_2331)">
<path d="M303.774 14.4377H166.934C164.802 14.4377 163.073 16.1633 163.073 18.2919V197.228C163.073 199.357 164.802 201.082 166.934 201.082H303.774C305.906 201.082 307.635 199.357 307.635 197.228V18.2919C307.635 16.1633 305.906 14.4377 303.774 14.4377Z" fill="white"/>
</g>
<path d="M296.194 23.4993H272.385C271.321 23.4993 270.458 24.3605 270.458 25.423V31.9825C270.458 33.0449 271.321 33.9062 272.385 33.9062H296.194C297.258 33.9062 298.121 33.0449 298.121 31.9825V25.423C298.121 24.3605 297.258 23.4993 296.194 23.4993Z" fill="#FCB03E"/>
<path d="M261.25 23.4993H252.73C251.666 23.4993 250.803 24.3605 250.803 25.423V31.9825C250.803 33.0449 251.666 33.9062 252.73 33.9062H261.25C262.314 33.9062 263.177 33.0449 263.177 31.9825V25.423C263.177 24.3605 262.314 23.4993 261.25 23.4993Z" fill="#FCB03E"/>
<path d="M268.53 55.5146H174.834C173.77 55.5146 172.907 56.3759 172.907 57.4383V61.646C172.907 62.7084 173.77 63.5696 174.834 63.5696H268.53C269.595 63.5696 270.457 62.7084 270.457 61.646V57.4383C270.457 56.3759 269.595 55.5146 268.53 55.5146Z" fill="#2EB3E8"/>
<path d="M253.861 79.9724H174.677C173.613 79.9724 172.75 80.8337 172.75 81.8961V86.1037C172.75 87.1661 173.613 88.0274 174.677 88.0274H253.861C254.925 88.0274 255.788 87.1661 255.788 86.1037V81.8961C255.788 80.8337 254.925 79.9724 253.861 79.9724Z" fill="#2EB3E8"/>
<path d="M268.374 104.423H174.677C173.613 104.423 172.75 105.284 172.75 106.347V110.554C172.75 111.617 173.613 112.478 174.677 112.478H268.374C269.438 112.478 270.301 111.617 270.301 110.554V106.347C270.301 105.284 269.438 104.423 268.374 104.423Z" fill="#2EB3E8"/>
<path d="M233.43 128.873H174.677C173.613 128.873 172.75 129.735 172.75 130.797V135.005C172.75 136.067 173.613 136.928 174.677 136.928H233.43C234.494 136.928 235.357 136.067 235.357 135.005V130.797C235.357 129.735 234.494 128.873 233.43 128.873Z" fill="#2EB3E8"/>
<path d="M240.077 179.256C238.234 184.766 237.033 187.975 236.474 188.881C235.909 189.731 235.412 189.921 234.983 189.439C234.919 189.397 234.869 189.338 234.84 189.269C234.812 189.173 234.794 189.075 234.785 188.976C234.769 188.832 234.769 188.686 234.785 188.541C234.785 188.385 234.853 188.154 234.901 187.861C234.949 187.569 235.01 187.236 235.092 186.896L235.412 185.591C235.548 185.061 235.691 184.497 235.834 183.912C235.977 183.328 236.175 182.614 236.406 181.785C237.114 179.147 237.95 175.873 238.912 171.962C239.875 168.051 240.683 164.691 241.337 161.882C241.711 160.501 242.007 159.101 242.222 157.688C241.68 157.944 241.159 158.242 240.663 158.578C239.886 159.067 239.089 159.577 238.279 160.121C237.469 160.665 236.631 161.222 235.78 161.807C234.928 162.391 234.329 162.779 234.009 162.969C233.659 163.197 233.293 163.397 232.912 163.567C232.723 163.636 232.517 163.65 232.32 163.608C232.17 163.593 232.029 163.529 231.919 163.426C231.809 163.323 231.737 163.186 231.714 163.037C231.696 162.882 231.724 162.726 231.792 162.586C231.861 162.447 231.969 162.329 232.102 162.249C232.638 161.834 233.2 161.452 233.784 161.107C234.724 160.522 235.889 159.802 237.278 158.959C238.667 158.116 239.784 157.395 240.628 156.811L242.855 155.336C242.896 155.125 243.155 154.194 243.618 152.549C244.081 150.904 244.64 149.075 245.28 147.07C245.92 145.065 246.383 143.889 246.683 143.556C246.745 143.46 246.833 143.385 246.937 143.34C247.041 143.294 247.156 143.279 247.269 143.297C247.378 143.306 247.482 143.345 247.569 143.412C247.656 143.478 247.722 143.568 247.759 143.671C247.833 143.917 247.833 144.18 247.759 144.426C247.691 144.732 247.589 144.915 247.459 144.963C247.33 145.01 246.737 146.547 245.825 149.524C245.3 151.041 244.861 152.587 244.51 154.153C244.796 153.997 245.055 153.847 245.287 153.697C245.518 153.548 245.763 153.392 246.036 153.228L246.88 152.705L247.691 152.195L248.331 151.787C248.446 151.704 248.569 151.634 248.699 151.577C249.066 150.72 249.38 150.006 249.611 149.435L250.292 147.804C250.503 147.294 251.164 145.806 252.267 143.352C253.371 140.898 254.944 137.418 257.035 132.911C260.344 125.56 262.235 121.5 262.707 120.73C263.041 120.234 263.286 120.118 263.436 120.383C263.478 120.425 263.508 120.476 263.525 120.533C263.627 120.669 263.627 121.036 263.525 121.627C263.423 122.218 263.15 123.408 262.728 125.175C262.367 126.766 262.047 128.37 261.686 129.974C261.325 131.579 261.073 133.033 260.841 134.331C260.61 135.63 260.406 136.881 260.222 138.09C260.038 139.3 259.888 140.34 259.772 141.224C259.656 142.108 259.568 142.883 259.5 143.549L259.296 145.554C259.576 145.458 259.845 145.333 260.099 145.18C260.63 144.902 261.236 144.596 261.924 144.249C262.413 143.982 262.929 143.768 263.463 143.61C263.899 143.454 264.185 143.542 264.328 143.896C264.4 144.055 264.407 144.235 264.349 144.4C264.29 144.564 264.171 144.7 264.015 144.779L263.797 144.895C262.332 145.428 260.926 146.111 259.602 146.934C259.372 147.047 259.175 147.218 259.03 147.43C258.936 147.829 258.897 148.238 258.914 148.647C258.889 149.025 258.889 149.404 258.914 149.782C258.921 149.836 258.948 149.886 258.989 149.921C259.031 149.956 259.084 149.975 259.139 149.972C259.229 149.962 259.321 149.962 259.411 149.972H260.024H260.705C262.259 149.897 263.808 150.198 265.22 150.849C266.553 151.485 267.702 152.448 268.558 153.65C269.232 154.759 269.733 155.965 270.042 157.225C270.447 158.82 270.675 160.455 270.723 162.099C270.791 163.894 270.785 165.729 270.723 167.591C270.637 169.419 270.409 171.237 270.042 173.029C269.732 174.618 269.311 176.183 268.782 177.713C268.404 178.895 267.798 179.992 266.998 180.942C266.734 181.296 266.388 181.582 265.989 181.775C265.591 181.967 265.152 182.062 264.71 182.05C263.695 181.982 262.667 181.139 261.597 179.514C260.966 178.366 260.446 177.159 260.045 175.912C259.531 174.48 259.114 173.015 258.798 171.527C258.226 168.492 257.858 165.421 257.695 162.337C257.511 159.027 257.43 156.43 257.464 154.547C257.498 152.664 257.498 151.726 257.464 151.713C257.133 151.676 256.798 151.713 256.483 151.821C255.945 151.951 255.298 152.141 254.542 152.386L252.322 153.106L250.279 153.786L249.114 154.194C249.012 154.452 248.494 155.784 247.568 158.204C246.642 160.624 245.58 163.472 244.401 166.769C243.223 170.066 241.766 174.246 240.077 179.256ZM247.35 155.091L246.186 155.696L245.246 156.199L244.565 156.546C244.393 156.622 244.228 156.716 244.075 156.824C243.99 156.881 243.908 156.942 243.829 157.008C243.829 157.008 243.7 157.497 243.475 158.367L242.624 161.8C242.277 163.207 241.895 164.75 241.48 166.443C241.064 168.135 240.656 169.841 240.254 171.5C239.852 173.159 239.478 174.715 239.137 176.109C238.797 177.502 238.415 179.059 237.979 180.806C238.066 180.774 238.769 178.803 240.09 174.892C241.33 171.289 242.549 167.836 243.748 164.533C244.946 161.229 245.818 158.873 246.363 157.463C246.928 156.077 247.248 155.274 247.35 155.091V155.091ZM257.613 149.225V148.069C256.28 148.684 254.99 149.388 253.752 150.176C251.259 151.617 250.011 152.39 250.006 152.494L250.251 152.42L251.035 152.182C251.371 152.082 251.745 151.96 252.158 151.815C252.572 151.67 253.001 151.527 253.445 151.386L254.705 150.985C255.1 150.856 255.461 150.747 255.781 150.652C256.101 150.557 256.347 150.489 256.51 150.455C256.805 150.438 257.098 150.387 257.382 150.306C257.382 150.306 257.43 150.251 257.45 150.149C257.484 150.024 257.512 149.897 257.532 149.769C257.566 149.612 257.586 149.429 257.613 149.225V149.225ZM260.501 128.302L258.737 131.973C258.002 133.563 256.467 137.032 254.133 142.38C251.797 147.736 250.687 150.36 250.803 150.272L256.136 147.185L256.503 146.988C256.618 146.941 256.728 146.882 256.83 146.812C256.919 146.757 257.007 146.703 257.103 146.655L257.348 146.526L257.552 146.411C257.61 146.374 257.672 146.345 257.736 146.322L258.015 144.215C258.197 142.348 258.424 140.427 258.696 138.451C258.969 136.475 259.225 134.864 259.466 133.618C259.697 132.367 259.924 131.196 260.147 130.103C260.378 129.009 260.494 128.404 260.501 128.302V128.302ZM267.795 154.812C267.217 153.86 266.434 153.048 265.502 152.437C264.57 151.825 263.513 151.429 262.408 151.278C261.675 151.235 260.941 151.235 260.208 151.278C259.749 151.254 259.288 151.307 258.846 151.434C258.846 151.536 258.846 152.114 258.846 153.276C258.846 154.438 258.846 155.703 258.887 157.171C258.928 158.639 258.982 159.768 259.057 160.57C259.316 166.42 260.058 171.167 261.284 174.81C262.374 178.078 263.45 179.972 264.512 180.493C264.663 180.556 264.826 180.583 264.989 180.572C265.152 180.561 265.311 180.514 265.452 180.432C265.835 180.267 266.158 179.99 266.378 179.637C267.5 178.082 268.358 175.653 268.953 172.35C269.546 169.059 269.749 165.709 269.559 162.371C269.332 159.018 268.744 156.507 267.795 154.839V154.812Z" fill="#C42730"/>
<path d="M279.107 132.34C278.991 132.707 278.555 133.02 277.806 133.319L277.227 133.489L276.301 133.747L275.375 134.005C275.082 134.087 274.891 134.141 274.796 134.182L273.938 134.502L273.365 134.726L272.807 134.957L271.997 135.27C271.986 136.056 272.146 136.835 272.466 137.554C272.541 137.758 272.616 137.941 272.684 138.104L272.93 138.736C273.067 139.093 273.18 139.459 273.27 139.831C273.367 140.206 273.483 140.575 273.617 140.939C273.744 141.2 273.787 141.495 273.74 141.782C273.679 141.972 273.474 142.135 273.12 142.264C272.969 142.345 272.803 142.394 272.632 142.408C272.461 142.422 272.288 142.401 272.126 142.346C271.852 142.123 271.652 141.822 271.554 141.483C271.486 141.299 271.404 141 271.295 140.572C271.186 140.143 271.05 139.586 270.887 138.893C270.798 138.539 270.689 138.118 270.56 137.642C270.43 137.166 270.267 136.609 270.076 135.99L269.395 136.208C269.109 136.296 268.803 136.405 268.462 136.52L267.413 136.901L266.351 137.288C266.041 137.426 265.748 137.599 265.479 137.805C265.238 137.971 264.986 138.118 264.723 138.247C264.435 138.366 264.112 138.366 263.824 138.247C263.682 138.193 263.553 138.109 263.446 138.001C263.339 137.894 263.257 137.764 263.204 137.622C263.166 137.517 263.145 137.407 263.143 137.295C263.123 137.162 263.123 137.027 263.143 136.894C263.17 136.768 263.216 136.646 263.279 136.534C263.335 136.434 263.425 136.357 263.531 136.316C263.678 136.262 263.828 136.217 263.981 136.181L264.621 136.031C264.846 135.983 265.057 135.936 265.254 135.881C265.404 135.846 265.552 135.803 265.697 135.752L265.963 135.644L266.446 135.44L267.032 135.195L267.597 134.943L268.585 134.508C268.891 134.372 269.184 134.257 269.456 134.155C269.435 133.706 269.343 133.263 269.184 132.843C269.129 132.7 269.027 132.469 268.891 132.163L268.448 131.164L268.013 130.172C267.876 129.859 267.781 129.628 267.727 129.492C267.672 129.356 267.577 129.104 267.522 128.975C267.468 128.846 267.4 128.703 267.332 128.554C267.195 128.168 267.164 127.752 267.243 127.351C267.261 127.167 267.329 126.991 267.437 126.842C267.546 126.693 267.693 126.575 267.863 126.501C267.923 126.486 267.985 126.483 268.046 126.494C268.107 126.505 268.165 126.528 268.217 126.562C268.373 126.638 268.519 126.731 268.653 126.841C268.789 126.95 268.917 127.071 269.034 127.201C269.118 127.292 269.187 127.395 269.238 127.507C269.504 128.247 269.731 129 269.919 129.764C270.178 130.715 270.362 131.361 270.492 131.701C270.688 132.239 270.915 132.766 271.173 133.278C271.64 133.202 272.097 133.072 272.535 132.891C273.059 132.693 273.624 132.462 274.23 132.211L275.272 131.789L276.028 131.497C277.193 131.062 277.956 130.96 278.33 131.212C278.68 131.517 278.947 131.905 279.107 132.34V132.34Z" fill="#C42730"/>
<path d="M290.119 65.8541C288.869 65.8541 287.646 65.484 286.607 64.7906C285.567 64.0971 284.757 63.1115 284.279 61.9585C283.801 60.8055 283.676 59.5368 283.921 58.3129C284.165 57.0891 284.768 55.9651 285.652 55.0832C286.537 54.2013 287.664 53.601 288.89 53.3584C290.116 53.1158 291.387 53.2417 292.542 53.7202C293.697 54.1986 294.683 55.0082 295.377 56.0465C296.071 57.0847 296.44 58.305 296.439 59.5529C296.437 61.2247 295.77 62.8274 294.585 64.0089C293.4 65.1905 291.794 65.8541 290.119 65.8541V65.8541Z" fill="#2EB3E8"/>
<path d="M288.975 60.6608L289.656 59.981C290.902 58.7371 292.142 57.4932 293.388 56.256C293.421 56.2186 293.461 56.1885 293.506 56.168C293.551 56.1474 293.6 56.1367 293.65 56.1367C293.7 56.1367 293.749 56.1474 293.794 56.168C293.839 56.1885 293.88 56.2186 293.912 56.256L294.627 56.9358C294.664 56.9683 294.693 57.0081 294.713 57.0526C294.733 57.0971 294.743 57.1453 294.743 57.1941C294.743 57.2428 294.733 57.291 294.713 57.3355C294.693 57.3801 294.664 57.4199 294.627 57.4524L292.714 59.3693L289.309 62.768C289.247 62.826 289.176 62.8721 289.097 62.9039C289.033 62.9226 288.964 62.9215 288.899 62.9009C288.835 62.8804 288.778 62.8412 288.736 62.7884L286.952 60.9939L285.72 59.7499C285.679 59.7182 285.645 59.6774 285.622 59.6309C285.6 59.5844 285.588 59.5332 285.588 59.4814C285.588 59.4296 285.6 59.3785 285.622 59.3319C285.645 59.2854 285.679 59.2447 285.72 59.2129L286.401 58.5332C286.434 58.4895 286.476 58.4541 286.525 58.4298C286.574 58.4054 286.628 58.3927 286.683 58.3927C286.738 58.3927 286.792 58.4054 286.841 58.4298C286.89 58.4541 286.933 58.4895 286.966 58.5332L288.934 60.5112L288.975 60.6608Z" fill="white"/>
<path d="M290.119 90.3111C288.867 90.3124 287.643 89.943 286.601 89.2497C285.56 88.5563 284.748 87.5701 284.268 86.416C283.789 85.2618 283.663 83.9915 283.907 82.7659C284.151 81.5403 284.753 80.4145 285.638 79.531C286.524 78.6474 287.652 78.0458 288.88 77.8024C290.107 77.559 291.38 77.6846 292.536 78.1634C293.693 78.6422 294.681 79.4526 295.375 80.4921C296.07 81.5316 296.44 82.7535 296.439 84.003C296.437 85.6755 295.771 87.2789 294.586 88.4615C293.401 89.6441 291.795 90.3093 290.119 90.3111Z" fill="#2EB3E8"/>
<path d="M288.975 85.1315L289.656 84.4517L293.388 80.7267C293.42 80.6893 293.461 80.6592 293.506 80.6387C293.551 80.6181 293.6 80.6074 293.65 80.6074C293.7 80.6074 293.749 80.6181 293.794 80.6387C293.839 80.6592 293.88 80.6893 293.912 80.7267L294.627 81.4065C294.664 81.4396 294.693 81.48 294.713 81.5251C294.733 81.5701 294.743 81.6189 294.743 81.6682C294.743 81.7175 294.733 81.7662 294.713 81.8113C294.693 81.8563 294.664 81.8967 294.627 81.9299L292.713 83.84L289.308 87.2387C289.25 87.3009 289.178 87.3476 289.097 87.3746C289.033 87.3931 288.965 87.3927 288.901 87.3734C288.837 87.3541 288.78 87.3168 288.736 87.2659C288.144 86.6609 287.551 86.0627 286.952 85.4646L285.719 84.2274C285.678 84.195 285.645 84.1537 285.622 84.1066C285.599 84.0595 285.587 84.0078 285.587 83.9555C285.587 83.9032 285.599 83.8516 285.622 83.8045C285.645 83.7574 285.678 83.7161 285.719 83.6836L286.4 83.0039C286.432 82.959 286.475 82.9224 286.524 82.8971C286.573 82.8719 286.628 82.8587 286.683 82.8587C286.738 82.8587 286.793 82.8719 286.842 82.8971C286.891 82.9224 286.933 82.959 286.966 83.0039L288.934 84.9819L288.975 85.1315Z" fill="white"/>
<path d="M290.119 114.762C288.867 114.763 287.642 114.394 286.601 113.7C285.559 113.006 284.747 112.02 284.268 110.865C283.788 109.711 283.663 108.44 283.907 107.214C284.152 105.988 284.755 104.863 285.641 103.979C286.527 103.096 287.655 102.495 288.884 102.252C290.112 102.01 291.385 102.136 292.541 102.616C293.697 103.096 294.685 103.907 295.379 104.948C296.073 105.988 296.442 107.211 296.439 108.461C296.437 110.132 295.77 111.735 294.585 112.917C293.4 114.098 291.794 114.762 290.119 114.762V114.762Z" fill="#2EB3E8"/>
<path d="M288.975 109.562L289.656 108.882L293.388 105.157C293.42 105.12 293.461 105.09 293.506 105.069C293.551 105.048 293.6 105.038 293.65 105.038C293.7 105.038 293.749 105.048 293.794 105.069C293.839 105.09 293.88 105.12 293.912 105.157L294.627 105.871C294.664 105.903 294.693 105.943 294.713 105.988C294.733 106.032 294.743 106.08 294.743 106.129C294.743 106.178 294.733 106.226 294.713 106.271C294.693 106.315 294.664 106.355 294.627 106.388L292.714 108.298L289.308 111.696C289.249 111.758 289.177 111.807 289.097 111.839C289.032 111.857 288.964 111.855 288.9 111.835C288.836 111.814 288.779 111.776 288.736 111.724L286.952 109.929L285.719 108.685C285.678 108.653 285.645 108.611 285.622 108.564C285.599 108.517 285.587 108.465 285.587 108.413C285.587 108.361 285.599 108.309 285.622 108.262C285.645 108.215 285.678 108.174 285.719 108.141L286.4 107.462C286.433 107.418 286.476 107.382 286.525 107.358C286.574 107.334 286.628 107.321 286.683 107.321C286.738 107.321 286.792 107.334 286.841 107.358C286.89 107.382 286.933 107.418 286.966 107.462L288.934 109.433L288.975 109.562Z" fill="white"/>
<path d="M290.119 139.212C288.869 139.212 287.646 138.842 286.607 138.149C285.567 137.455 284.757 136.47 284.279 135.317C283.801 134.164 283.676 132.895 283.921 131.671C284.165 130.447 284.768 129.323 285.652 128.441C286.537 127.559 287.664 126.959 288.89 126.717C290.116 126.474 291.387 126.6 292.542 127.078C293.697 127.557 294.683 128.366 295.377 129.405C296.071 130.443 296.44 131.663 296.439 132.911C296.437 134.583 295.77 136.186 294.585 137.367C293.4 138.549 291.794 139.212 290.119 139.212V139.212Z" fill="#2EB3E8"/>
<path d="M288.975 134.012L289.656 133.332L293.388 129.607C293.421 129.57 293.461 129.54 293.506 129.519C293.551 129.499 293.6 129.488 293.65 129.488C293.7 129.488 293.749 129.499 293.794 129.519C293.839 129.54 293.88 129.57 293.912 129.607L294.627 130.321C294.664 130.354 294.693 130.393 294.713 130.438C294.733 130.482 294.743 130.531 294.743 130.579C294.743 130.628 294.733 130.676 294.713 130.721C294.693 130.765 294.664 130.805 294.627 130.838L292.714 132.755L289.309 136.153C289.247 136.211 289.176 136.257 289.097 136.289C289.033 136.308 288.964 136.307 288.899 136.286C288.835 136.266 288.778 136.227 288.736 136.174L286.952 134.379L285.72 133.135C285.679 133.103 285.645 133.063 285.622 133.016C285.6 132.97 285.588 132.919 285.588 132.867C285.588 132.815 285.6 132.764 285.622 132.717C285.645 132.671 285.679 132.63 285.72 132.598L286.401 131.918C286.434 131.875 286.476 131.839 286.525 131.815C286.574 131.791 286.628 131.778 286.683 131.778C286.738 131.778 286.792 131.791 286.841 131.815C286.89 131.839 286.933 131.875 286.966 131.918L288.934 133.897L288.975 134.012Z" fill="white"/>
<path d="M91.8573 110.962C91.7688 110.985 91.6748 110.972 91.5958 110.926C91.5167 110.88 91.459 110.805 91.435 110.717L91.3465 110.398C91.2988 110.214 90.1683 105.918 92.225 102.771C92.8124 101.927 93.5776 101.221 94.4669 100.703C95.3563 100.185 96.3484 99.8679 97.3736 99.7731L97.7005 99.7255C97.7457 99.7188 97.7917 99.721 97.836 99.732C97.8804 99.7431 97.922 99.7627 97.9587 99.7899C97.9954 99.817 98.0264 99.8511 98.0499 99.8902C98.0733 99.9293 98.0888 99.9727 98.0955 100.018L98.1908 100.698C98.1976 100.743 98.1954 100.789 98.1843 100.833C98.1732 100.877 98.1535 100.919 98.1263 100.955C98.0991 100.992 98.065 101.023 98.0258 101.046C97.9866 101.07 97.9432 101.085 97.898 101.092L97.5711 101.139C96.7369 101.21 95.9282 101.461 95.2013 101.875C94.4744 102.29 93.8468 102.857 93.3623 103.539C91.6325 106.183 92.6472 110.03 92.6813 110.071L92.7698 110.391C92.7929 110.48 92.7802 110.575 92.7345 110.655C92.6887 110.735 92.6134 110.794 92.5247 110.819L91.8573 110.962Z" fill="white"/>
<path d="M183.743 42.2856C184.235 42.2856 184.684 42.1943 185.091 42.0117C185.506 41.8221 185.867 41.5587 186.176 41.2216C186.485 40.8775 186.738 40.4667 186.935 39.9891C187.139 39.5115 187.275 38.9813 187.346 38.3984L188.462 29.2439H191.201L190.074 38.3984C189.962 39.2973 189.723 40.1296 189.358 40.8951C188.993 41.6606 188.522 42.3207 187.946 42.8756C187.377 43.4304 186.71 43.8658 185.945 44.1818C185.186 44.4909 184.354 44.6454 183.448 44.6454C182.542 44.6454 181.745 44.4909 181.057 44.1818C180.375 43.8658 179.817 43.4304 179.382 42.8756C178.946 42.3207 178.641 41.6606 178.465 40.8951C178.29 40.1296 178.258 39.2973 178.37 38.3984L179.466 29.2439H182.205L181.088 38.3879C181.018 38.9708 181.021 39.5045 181.099 39.9891C181.183 40.4667 181.338 40.8775 181.562 41.2216C181.794 41.5587 182.089 41.8221 182.447 42.0117C182.812 42.1943 183.244 42.2856 183.743 42.2856ZM197.91 36.9552C198.451 36.9552 198.918 36.8744 199.311 36.7129C199.704 36.5513 200.027 36.3266 200.28 36.0387C200.54 35.7437 200.73 35.3961 200.849 34.9957C200.975 34.5954 201.039 34.153 201.039 33.6684C201.039 33.3243 200.989 33.0082 200.891 32.7203C200.793 32.4323 200.642 32.1901 200.438 31.9934C200.234 31.7897 199.978 31.6317 199.669 31.5194C199.367 31.407 199.005 31.3508 198.584 31.3508H196.688L196.003 36.9552H197.91ZM198.847 29.2439C199.711 29.2439 200.452 29.3492 201.07 29.5599C201.695 29.7636 202.208 30.0515 202.608 30.4238C203.009 30.796 203.304 31.2384 203.493 31.7511C203.69 32.2568 203.788 32.8151 203.788 33.4261C203.788 34.2408 203.658 34.9957 203.398 35.691C203.146 36.3793 202.763 36.9762 202.25 37.4819C201.737 37.9805 201.095 38.3738 200.322 38.6618C199.557 38.9427 198.661 39.0831 197.636 39.0831H195.74L195.076 44.4768H192.358L194.212 29.2439H198.847ZM213.702 31.9829C213.604 32.1233 213.506 32.2287 213.407 32.2989C213.316 32.3621 213.2 32.3937 213.06 32.3937C212.919 32.3937 212.775 32.3375 212.628 32.2252C212.48 32.1128 212.305 31.9899 212.101 31.8565C211.897 31.716 211.655 31.5896 211.374 31.4772C211.093 31.3649 210.756 31.3087 210.363 31.3087C209.984 31.3087 209.646 31.3649 209.351 31.4772C209.057 31.5896 208.807 31.7441 208.604 31.9407C208.407 32.1374 208.256 32.3691 208.151 32.636C208.052 32.9029 208.003 33.1908 208.003 33.4998C208.003 33.8229 208.084 34.0933 208.245 34.311C208.414 34.5217 208.632 34.7078 208.898 34.8693C209.165 35.0309 209.471 35.1748 209.815 35.3012C210.159 35.4277 210.507 35.5611 210.858 35.7016C211.216 35.842 211.567 36.0035 211.911 36.1861C212.255 36.3687 212.561 36.5935 212.828 36.8604C213.095 37.1272 213.309 37.4503 213.47 37.8295C213.639 38.2017 213.723 38.6547 213.723 39.1885C213.723 39.9329 213.593 40.6352 213.334 41.2954C213.074 41.9555 212.705 42.5349 212.227 43.0336C211.75 43.5252 211.167 43.9185 210.479 44.2134C209.79 44.5014 209.021 44.6454 208.172 44.6454C207.729 44.6454 207.294 44.5962 206.865 44.4979C206.437 44.4066 206.033 44.2731 205.654 44.0976C205.275 43.922 204.923 43.7113 204.6 43.4655C204.277 43.2197 203.996 42.9458 203.758 42.6438L204.727 41.3375C204.804 41.2392 204.902 41.1584 205.022 41.0952C205.141 41.032 205.261 41.0004 205.38 41.0004C205.492 41.0004 205.601 41.0355 205.707 41.1058C205.819 41.176 205.938 41.2638 206.065 41.3691C206.198 41.4674 206.339 41.5798 206.486 41.7062C206.641 41.8256 206.813 41.938 207.002 42.0433C207.199 42.1417 207.42 42.2259 207.666 42.2962C207.919 42.3664 208.203 42.4015 208.519 42.4015C209.32 42.4015 209.945 42.1768 210.394 41.7273C210.844 41.2778 211.069 40.6563 211.069 39.8627C211.069 39.5115 210.988 39.2236 210.826 38.9989C210.665 38.7741 210.451 38.5845 210.184 38.43C209.917 38.2755 209.611 38.1421 209.267 38.0297C208.93 37.9103 208.586 37.7874 208.235 37.661C207.884 37.5275 207.536 37.3765 207.192 37.208C206.855 37.0324 206.553 36.8112 206.286 36.5443C206.019 36.2704 205.805 35.9368 205.643 35.5435C205.482 35.1503 205.401 34.6657 205.401 34.0898C205.401 33.4366 205.52 32.8081 205.759 32.2041C206.005 31.6001 206.353 31.0699 206.802 30.6134C207.259 30.1499 207.806 29.7812 208.446 29.5073C209.092 29.2263 209.819 29.0859 210.626 29.0859C211.041 29.0859 211.437 29.128 211.817 29.2123C212.203 29.2966 212.561 29.416 212.891 29.5705C213.221 29.725 213.523 29.9111 213.797 30.1288C214.078 30.3395 214.32 30.5748 214.524 30.8346L213.702 31.9829ZM221.869 42.3278C222.298 42.3278 222.67 42.2962 222.986 42.233C223.302 42.1627 223.579 42.0749 223.818 41.9696C224.057 41.8642 224.257 41.7554 224.418 41.643C224.587 41.5236 224.735 41.4113 224.861 41.3059C224.987 41.2006 225.1 41.1163 225.198 41.0531C225.296 40.9829 225.395 40.9477 225.493 40.9477C225.584 40.9477 225.658 40.9653 225.714 41.0004C225.77 41.0355 225.816 41.0706 225.851 41.1058L226.81 42.2962C226.15 43.0546 225.374 43.6376 224.482 44.0449C223.59 44.4452 222.564 44.6454 221.406 44.6454C220.465 44.6454 219.629 44.4803 218.898 44.1502C218.168 43.8131 217.55 43.3496 217.044 42.7597C216.546 42.1697 216.163 41.471 215.896 40.6633C215.636 39.8557 215.506 38.9743 215.506 38.0192C215.506 37.1413 215.601 36.3126 215.791 35.533C215.98 34.7464 216.251 34.0231 216.602 33.3629C216.953 32.6957 217.371 32.0988 217.855 31.572C218.347 31.0453 218.891 30.5958 219.488 30.2236C220.092 29.8514 220.738 29.567 221.427 29.3703C222.122 29.1737 222.845 29.0754 223.597 29.0754C224.152 29.0754 224.657 29.128 225.114 29.2334C225.57 29.3317 225.981 29.4722 226.346 29.6547C226.719 29.8373 227.052 30.0586 227.347 30.3184C227.649 30.5713 227.919 30.8557 228.158 31.1717L227.21 32.3094C227.14 32.3937 227.056 32.4675 226.957 32.5307C226.866 32.5939 226.75 32.6255 226.61 32.6255C226.455 32.6255 226.308 32.5623 226.167 32.4359C226.027 32.3094 225.848 32.1725 225.63 32.025C225.419 31.8705 225.142 31.73 224.798 31.6036C224.461 31.4772 224.015 31.414 223.46 31.414C222.729 31.414 222.048 31.565 221.416 31.867C220.791 32.162 220.247 32.5869 219.783 33.1417C219.32 33.6965 218.955 34.3672 218.688 35.1538C218.428 35.9333 218.298 36.8112 218.298 37.7874C218.298 38.4967 218.386 39.1323 218.561 39.6941C218.744 40.256 218.993 40.7335 219.309 41.1268C219.632 41.5131 220.012 41.8116 220.447 42.0223C220.882 42.2259 221.356 42.3278 221.869 42.3278Z" fill="#156C3C"/>
</g>
<defs>
<filter id="filter0_d_299_2331" x="26.344" y="10.9889" width="534.315" height="368.452" filterUnits="userSpaceOnUse" color-interpolation-filters="sRGB">
<feFlood flood-opacity="0" result="BackgroundImageFix"/>
<feColorMatrix in="SourceAlpha" type="matrix" values="0 0 0 0 0 0 0 0 0 0 0 0 0 0 0 0 0 0 127 0" result="hardAlpha"/>
<feOffset dy="3.72715"/>
<feGaussianBlur stdDeviation="6.9884"/>
<feComposite in2="hardAlpha" operator="out"/>
<feColorMatrix type="matrix" values="0 0 0 0 0 0 0 0 0 0 0 0 0 0 0 0 0 0 0.1 0"/>
<feBlend mode="normal" in2="BackgroundImageFix" result="effect1_dropShadow_299_2331"/>
<feBlend mode="normal" in="SourceGraphic" in2="effect1_dropShadow_299_2331" result="shape"/>
</filter>
<filter id="filter1_d_299_2331" x="156.465" y="7.83001" width="161.39" height="203.472" filterUnits="userSpaceOnUse" color-interpolation-filters="sRGB">
<feFlood flood-opacity="0" result="BackgroundImageFix"/>
<feColorMatrix in="SourceAlpha" type="matrix" values="0 0 0 0 0 0 0 0 0 0 0 0 0 0 0 0 0 0 127 0" result="hardAlpha"/>
<feOffset dx="1.80592" dy="1.80592"/>
<feGaussianBlur stdDeviation="4.20682"/>
<feComposite in2="hardAlpha" operator="out"/>
<feColorMatrix type="matrix" values="0 0 0 0 0 0 0 0 0 0 0 0 0 0 0 0 0 0 0.15 0"/>
<feBlend mode="normal" in2="BackgroundImageFix" result="effect1_dropShadow_299_2331"/>
<feBlend mode="normal" in="SourceGraphic" in2="effect1_dropShadow_299_2331" result="shape"/>
</filter>
<clipPath id="clip0_299_2331">
<rect width="362.989" height="221.526" fill="white"/>
</clipPath>
</defs>
</svg>
