<svg width="207" height="233" viewBox="0 0 207 233" fill="none" xmlns="http://www.w3.org/2000/svg">
<path d="M182.521 4.69997C186.566 -1.62034 194.667 -0.977776 196.962 6.55392C201.324 20.8861 204.393 35.584 206.132 50.4695C176.61 142.251 106.698 208.266 13.7622 232.241C10.9535 232.894 8.97284 230.724 10.5239 228.786C16.2167 221.795 21.4336 214.426 26.139 206.728C26.569 206.087 26.8503 205.356 26.9621 204.591C27.074 203.825 27.0135 203.044 26.7853 202.305C26.557 201.566 26.1667 200.888 25.6431 200.321C25.1195 199.754 24.4761 199.312 23.7601 199.028C16.0271 195.561 8.54068 191.562 1.35391 187.062C-0.563922 185.892 0.117275 183.164 2.40191 182.637C77.7004 162.75 133.276 110.323 157.631 35.9644C167.032 26.3575 174.923 15.8026 182.521 4.69997Z" fill="#FCB03E" fill-opacity="0.5"/>
</svg>
