<svg width="215" height="241" viewBox="0 0 215 241" fill="none" xmlns="http://www.w3.org/2000/svg">
<g filter="url(#filter0_d_2_155)">
<path d="M28.5332 228.632C24.488 234.952 16.387 234.31 14.0918 226.778C9.72956 212.446 6.66051 197.748 4.92187 182.862C34.402 91.0706 104.356 25.0656 197.281 1.09063C200.09 0.437537 202.071 2.60747 200.52 4.54571C194.827 11.5368 189.61 18.9062 184.905 26.6036C184.475 27.2453 184.193 27.9758 184.082 28.7413C183.97 29.5068 184.03 30.2878 184.258 31.0267C184.487 31.7656 184.877 32.4436 185.401 33.0107C185.924 33.5779 186.568 34.0198 187.284 34.3038C195.03 37.7627 202.531 41.754 209.732 46.2492C211.65 47.4184 210.968 50.1467 208.684 50.6734C133.375 70.5507 77.7995 122.988 53.4441 197.336C44.0121 206.964 36.1207 217.519 28.5332 228.632Z" fill="#C42730"/>
</g>
<defs>
<filter id="filter0_d_2_155" x="0.921875" y="0.972168" width="213.928" height="239.969" filterUnits="userSpaceOnUse" color-interpolation-filters="sRGB">
<feFlood flood-opacity="0" result="BackgroundImageFix"/>
<feColorMatrix in="SourceAlpha" type="matrix" values="0 0 0 0 0 0 0 0 0 0 0 0 0 0 0 0 0 0 127 0" result="hardAlpha"/>
<feOffset dy="4"/>
<feGaussianBlur stdDeviation="2"/>
<feComposite in2="hardAlpha" operator="out"/>
<feColorMatrix type="matrix" values="0 0 0 0 0 0 0 0 0 0 0 0 0 0 0 0 0 0 0.25 0"/>
<feBlend mode="normal" in2="BackgroundImageFix" result="effect1_dropShadow_2_155"/>
<feBlend mode="normal" in="SourceGraphic" in2="effect1_dropShadow_2_155" result="shape"/>
</filter>
</defs>
</svg>
