<svg width="232" height="208" viewBox="0 0 232 208" fill="none" xmlns="http://www.w3.org/2000/svg">
<path d="M5.27397 24.3508C-1.01401 20.2847 -0.374719 12.1421 7.11845 9.83522C21.3773 5.45085 36 2.36603 50.8094 0.618116C142.132 30.2919 207.799 100.563 231.651 193.977C232.301 196.8 230.142 198.791 228.214 197.232C221.259 191.51 213.927 186.266 206.269 181.537C205.631 181.104 204.904 180.822 204.142 180.709C203.381 180.597 202.604 180.658 201.869 180.887C201.133 181.117 200.459 181.509 199.895 182.035C199.33 182.561 198.891 183.208 198.608 183.928C195.165 191.7 191.194 199.225 186.724 206.449C185.561 208.377 182.846 207.692 182.322 205.396C162.536 129.71 110.377 73.8493 36.3994 49.3687C26.8312 39.9198 16.3303 31.9878 5.27397 24.3508Z" fill="#0373BA" fill-opacity="0.5"/>
</svg>
