<svg width="232" height="208" viewBox="0 0 232 208" fill="none" xmlns="http://www.w3.org/2000/svg">
<path d="M226.769 183.971C233.057 188.037 232.418 196.179 224.924 198.486C210.666 202.871 196.043 205.955 181.234 207.703C89.9217 178.072 24.2438 107.758 0.391377 14.3549C-0.258381 11.5319 1.90049 9.54099 3.8288 11.1C10.7842 16.8221 18.1158 22.0658 25.7738 26.7954C26.4123 27.2276 27.1391 27.5103 27.9006 27.6227C28.6622 27.7352 29.4392 27.6744 30.1743 27.445C30.9094 27.2155 31.584 26.8232 32.1482 26.2969C32.7125 25.7707 33.1521 25.1239 33.4347 24.4042C36.8827 16.6171 40.8605 9.07809 45.3399 1.84076C46.5032 -0.0869314 49.2175 0.597761 49.7415 2.89415C69.4962 78.5902 121.665 134.451 195.643 158.932C205.222 168.412 215.723 176.344 226.769 183.971Z" fill="#156C3C" fill-opacity="0.5"/>
</svg>
