<svg width="232" height="207" viewBox="0 0 232 207" fill="none" xmlns="http://www.w3.org/2000/svg">
<path d="M5.2741 24.1065C-1.01387 20.0634 -0.374602 11.9668 7.11856 9.67287C21.3774 5.31327 36.0001 2.24586 50.8095 0.507821C142.121 30.014 207.799 99.8884 231.652 192.775C232.301 195.582 230.142 197.562 228.214 196.011C221.259 190.322 213.927 185.108 206.269 180.405C205.631 179.975 204.904 179.694 204.142 179.582C203.381 179.47 202.604 179.531 201.869 179.759C201.134 179.987 200.459 180.377 199.895 180.9C199.33 181.424 198.891 182.067 198.608 182.782C195.159 190.511 191.181 197.994 186.703 205.176C185.54 207.093 182.825 206.412 182.301 204.129C162.515 128.871 110.357 73.3254 36.3786 48.983C26.8209 39.5876 16.32 31.7004 5.2741 24.1065Z" fill="#FCB03E" fill-opacity="0.5"/>
</svg>
