<svg width="232" height="207" viewBox="0 0 232 207" fill="none" xmlns="http://www.w3.org/2000/svg">
<path d="M226.769 182.82C233.057 186.863 232.418 194.96 224.925 197.254C210.666 201.614 196.043 204.681 181.234 206.419C89.9112 176.954 24.2438 107.038 0.391424 14.1622C-0.258334 11.355 1.9005 9.37538 3.82882 10.9256C10.7842 16.6154 18.1159 21.8295 25.7738 26.5324C26.4123 26.9621 27.1391 27.2432 27.9007 27.355C28.6623 27.4668 29.4392 27.4064 30.1744 27.1782C30.9095 26.9501 31.584 26.56 32.1483 26.0367C32.7125 25.5134 33.1522 24.8703 33.4347 24.1547C36.8759 16.4121 40.8468 8.91568 45.319 1.71863C46.4823 -0.198171 49.1966 0.482661 49.7206 2.76607C69.4963 78.0347 121.665 133.58 195.633 157.922C205.212 167.349 215.713 175.237 226.769 182.82Z" fill="#C42730" fill-opacity="0.5"/>
</svg>
