<svg width="207" height="232" viewBox="0 0 207 232" fill="none" xmlns="http://www.w3.org/2000/svg">
<path d="M182.51 4.6917C186.555 -1.59291 194.656 -0.953982 196.952 6.53517C201.314 20.7864 204.383 35.4013 206.122 50.2027C176.641 141.466 106.688 207.108 13.7619 230.948C10.9533 231.597 8.97259 229.44 10.5236 227.512C16.2165 220.561 21.4334 213.233 26.1388 205.579C26.5688 204.941 26.85 204.215 26.9619 203.454C27.0737 202.692 27.0133 201.916 26.785 201.181C26.5567 200.446 26.1664 199.772 25.6429 199.208C25.1193 198.644 24.4758 198.205 23.7598 197.922C16.0125 194.476 8.51206 190.501 1.31174 186.024C-0.606091 184.861 0.0751066 182.148 2.35974 181.624C77.6687 161.88 133.244 109.739 157.599 35.8005C167.031 26.2269 174.923 15.7317 182.51 4.6917Z" fill="#156C3C" fill-opacity="0.5"/>
</svg>
