<svg width="284" height="195" viewBox="0 0 284 195" fill="none" xmlns="http://www.w3.org/2000/svg">
<g clip-path="url(#clip0_290_2453)">
<path d="M150.522 33.6664C149.54 33.0382 149.644 31.777 150.807 31.4188C153.026 30.7395 155.303 30.2616 157.608 29.9907C171.84 34.5841 182.052 45.4736 185.762 59.9259C185.865 60.3627 185.527 60.6718 185.227 60.4166C184.139 59.5219 182.991 58.7021 181.792 57.9629C181.693 57.8957 181.58 57.8517 181.461 57.834C181.343 57.8164 181.222 57.8255 181.107 57.8609C180.993 57.8962 180.888 57.9568 180.8 58.0381C180.712 58.1195 180.644 58.2196 180.599 58.331C180.064 59.5351 179.445 60.7009 178.749 61.8202C178.708 61.8861 178.647 61.9374 178.575 61.9669C178.503 61.9964 178.424 62.0027 178.348 61.9848C178.272 61.967 178.204 61.9259 178.153 61.8673C178.102 61.8088 178.07 61.7356 178.062 61.6582C174.98 49.9344 166.859 41.2827 155.346 37.4892C153.853 36.076 152.239 34.7968 150.522 33.6664V33.6664Z" fill="#C42730"/>
<path d="M133.474 113.387C134.455 114.015 134.352 115.276 133.189 115.635C130.969 116.314 128.693 116.792 126.388 117.063C112.156 112.469 101.944 101.58 98.2337 87.1275C98.1307 86.6907 98.4693 86.3816 98.7686 86.6367C99.8568 87.5315 101.004 88.3513 102.204 89.0904C102.303 89.1576 102.416 89.2017 102.534 89.2194C102.653 89.237 102.774 89.2279 102.888 89.1925C103.003 89.1572 103.108 89.0966 103.196 89.0152C103.284 88.9339 103.352 88.8338 103.396 88.7224C103.932 87.5183 104.55 86.3525 105.246 85.2332C105.288 85.1673 105.349 85.116 105.421 85.0865C105.493 85.057 105.572 85.0507 105.648 85.0685C105.724 85.0864 105.792 85.1275 105.843 85.186C105.894 85.2446 105.926 85.3177 105.933 85.3952C109.015 97.119 117.137 105.771 128.65 109.564C130.143 110.977 131.757 112.257 133.474 113.387Z" fill="#FCB03E"/>
<path d="M181.852 82.0586C182.48 81.0771 183.741 81.1802 184.099 82.3432C184.779 84.563 185.257 86.8394 185.528 89.1449C180.934 103.376 170.045 113.589 155.592 117.299C155.156 117.402 154.846 117.063 155.102 116.764C155.996 115.676 156.816 114.528 157.555 113.329C157.622 113.229 157.667 113.116 157.684 112.998C157.702 112.879 157.693 112.758 157.657 112.644C157.622 112.53 157.561 112.424 157.48 112.337C157.399 112.249 157.299 112.18 157.187 112.136C155.983 111.6 154.817 110.982 153.698 110.286C153.632 110.245 153.581 110.184 153.551 110.112C153.522 110.04 153.516 109.96 153.533 109.885C153.551 109.809 153.592 109.741 153.651 109.689C153.709 109.638 153.783 109.607 153.86 109.599C165.554 106.542 174.186 98.4444 177.975 86.9022C179.408 85.4054 180.705 83.7845 181.852 82.0586V82.0586Z" fill="#0373BA"/>
<path d="M102.144 65.0051C101.516 65.9865 100.255 65.8835 99.8968 64.7204C99.2176 62.5007 98.7396 60.2243 98.4688 57.9188C103.062 43.6873 113.952 33.475 128.404 29.765C128.841 29.6619 129.15 30.0005 128.895 30.2999C128 31.388 127.18 32.5357 126.441 33.7351C126.374 33.8342 126.33 33.9472 126.312 34.0657C126.294 34.1842 126.304 34.3052 126.339 34.4196C126.374 34.5341 126.435 34.6392 126.516 34.7271C126.598 34.815 126.698 34.8835 126.809 34.9276C128.013 35.4635 129.179 36.0817 130.298 36.7777C130.364 36.819 130.415 36.88 130.445 36.952C130.474 37.0239 130.481 37.1034 130.463 37.1791C130.445 37.2548 130.404 37.3231 130.345 37.3743C130.287 37.4255 130.214 37.4571 130.136 37.4647C118.442 40.5367 109.81 48.6438 106.021 60.1664C104.589 61.6616 103.291 63.2809 102.144 65.0051V65.0051Z" fill="#156C3C"/>
<path d="M144.661 109.918H139.41C139.248 109.918 139.092 109.853 138.977 109.738C138.862 109.623 138.797 109.467 138.797 109.304C138.797 109.159 138.849 109.019 138.944 108.908C139.038 108.797 139.169 108.724 139.312 108.701L144.563 107.871C144.65 107.858 144.739 107.864 144.824 107.888C144.909 107.912 144.988 107.954 145.055 108.011C145.122 108.069 145.176 108.14 145.213 108.22C145.25 108.3 145.269 108.387 145.27 108.475V109.304C145.27 109.466 145.206 109.621 145.092 109.736C144.978 109.851 144.823 109.916 144.661 109.918V109.918Z" fill="#FCB03E"/>
<path d="M147.636 104.951L136.943 106.865C136.783 106.894 136.619 106.858 136.486 106.766C136.352 106.674 136.261 106.533 136.231 106.374L135.99 104.936C135.965 104.779 136.001 104.617 136.093 104.486C136.185 104.355 136.324 104.264 136.481 104.235L147.199 102.448C147.358 102.421 147.521 102.457 147.653 102.549C147.785 102.641 147.876 102.781 147.906 102.939L148.117 104.254C148.141 104.41 148.105 104.569 148.016 104.699C147.926 104.829 147.79 104.919 147.636 104.951Z" fill="#FCB03E"/>
<path d="M148.902 99.2732L135.068 101.727C134.908 101.756 134.744 101.72 134.611 101.628C134.478 101.536 134.386 101.395 134.356 101.236L134.165 99.9553C134.142 99.799 134.18 99.6398 134.271 99.5109C134.363 99.382 134.5 99.2933 134.656 99.2634L148.509 96.7508C148.591 96.7362 148.675 96.7383 148.756 96.757C148.837 96.7758 148.913 96.8108 148.98 96.8599C149.047 96.909 149.103 96.9712 149.145 97.0427C149.188 97.1142 149.215 97.1935 149.226 97.2759L149.397 98.5911C149.418 98.7466 149.378 98.904 149.285 99.0308C149.193 99.1577 149.056 99.2444 148.902 99.2732V99.2732Z" fill="#FCB03E"/>
<path d="M159.792 48.5602L152.117 53.5756C152.082 53.5978 152.043 53.612 152.002 53.6171C151.961 53.6222 151.92 53.6181 151.881 53.605L141.742 50.3514C141.688 50.3341 141.63 50.3341 141.576 50.3514L131.437 53.5952C131.398 53.6082 131.356 53.6124 131.316 53.6073C131.275 53.6022 131.236 53.588 131.201 53.5658L123.526 48.5504C123.481 48.5275 123.442 48.4924 123.416 48.4491C123.389 48.4058 123.375 48.3559 123.375 48.305C123.375 48.2542 123.389 48.2043 123.416 48.161C123.442 48.1177 123.481 48.0826 123.526 48.0597L141.507 38.4902C141.547 38.4688 141.591 38.4575 141.637 38.4575C141.682 38.4575 141.727 38.4688 141.767 38.4902L159.748 48.0842C159.792 48.1042 159.83 48.1355 159.858 48.1751C159.887 48.2146 159.904 48.261 159.908 48.3094C159.913 48.3577 159.904 48.4065 159.884 48.4505C159.863 48.4946 159.832 48.5325 159.792 48.5602V48.5602Z" fill="#0373BA"/>
<path d="M156.455 60.225C156.369 60.225 156.286 60.1909 156.226 60.1301C156.165 60.0694 156.131 59.987 156.131 59.9011V50.4396C156.131 50.3531 156.165 50.2701 156.226 50.2089C156.288 50.1477 156.371 50.1133 156.457 50.1133C156.544 50.1133 156.627 50.1477 156.688 50.2089C156.749 50.2701 156.784 50.3531 156.784 50.4396V59.8962C156.784 59.9396 156.776 59.9826 156.76 60.0228C156.744 60.063 156.719 60.0995 156.689 60.1302C156.658 60.1608 156.622 60.185 156.581 60.2013C156.541 60.2176 156.498 60.2257 156.455 60.225V60.225Z" fill="#0373BA"/>
<path d="M155.032 59.8767C154.966 59.8784 154.901 59.8602 154.846 59.8244C154.791 59.7886 154.749 59.737 154.724 59.6764C154.699 59.6157 154.693 59.5489 154.706 59.4848C154.72 59.4207 154.753 59.3622 154.801 59.3172L156.17 57.9481C156.2 57.9178 156.236 57.8938 156.276 57.8774C156.315 57.861 156.358 57.8525 156.401 57.8525C156.444 57.8525 156.486 57.861 156.526 57.8774C156.565 57.8938 156.601 57.9178 156.631 57.9481C156.662 57.9784 156.686 58.0143 156.702 58.0539C156.718 58.0935 156.727 58.1359 156.727 58.1787C156.727 58.2216 156.718 58.264 156.702 58.3035C156.686 58.3431 156.662 58.3791 156.631 58.4094L155.247 59.7834C155.19 59.8405 155.113 59.8738 155.032 59.8767V59.8767Z" fill="#0373BA"/>
<path d="M157.873 59.8767C157.83 59.8771 157.788 59.8691 157.748 59.8531C157.709 59.8371 157.673 59.8134 157.642 59.7834L156.273 58.4143C156.243 58.384 156.219 58.348 156.203 58.3084C156.186 58.2689 156.178 58.2264 156.178 58.1836C156.178 58.1408 156.186 58.0984 156.203 58.0588C156.219 58.0192 156.243 57.9833 156.273 57.953C156.304 57.9227 156.34 57.8986 156.379 57.8823C156.419 57.8659 156.461 57.8574 156.504 57.8574C156.547 57.8574 156.589 57.8659 156.629 57.8823C156.668 57.8986 156.704 57.9227 156.735 57.953L158.104 59.3221C158.151 59.3671 158.184 59.4255 158.198 59.4897C158.212 59.5538 158.206 59.6206 158.181 59.6812C158.156 59.7419 158.113 59.7935 158.058 59.8293C158.003 59.8651 157.939 59.8833 157.873 59.8816V59.8767Z" fill="#0373BA"/>
<path d="M148.475 60.7355C142.998 57.8352 135.451 59.0572 131.652 63.464C128.679 66.8992 127.776 71.2717 128.953 76.4147C129.531 78.8622 130.473 81.2094 131.746 83.3783C133.645 85.7044 135.151 91.3135 135.829 94.1746L148.308 91.8239C149.005 90.0524 150.762 85.7044 153.952 78.6524C156.17 70.2804 154.177 63.7536 148.475 60.7355Z" fill="#FCB03E"/>
<path d="M133.306 95.4354C133.392 95.8549 133.639 96.224 133.994 96.4628C134.35 96.7015 134.785 96.7908 135.206 96.7113L145.904 94.6943H133.164C133.203 94.9544 133.257 95.2047 133.306 95.4354Z" fill="#FCB03E"/>
<path d="M134.901 96.7412C134.525 96.7399 134.162 96.6094 133.872 96.3717C133.581 96.134 133.381 95.8035 133.306 95.4359C132.653 92.251 131.102 86.6025 129.733 85.0322C129.683 84.9749 129.637 84.9142 129.596 84.8506C128.177 82.4975 127.132 79.9379 126.499 77.2637C125.12 71.3748 126.239 66.119 129.733 62.0508C134.336 56.7115 143.072 55.2491 149.628 58.7186C152.731 60.3388 155.121 63.0553 156.331 66.3398C157.725 70.0646 157.745 74.496 156.395 79.5064C156.373 79.5921 156.343 79.6758 156.307 79.7567C152.342 88.5164 150.688 92.938 150.673 93.0067C150.575 93.2703 150.411 93.5041 150.196 93.6855C149.981 93.8669 149.723 93.9897 149.446 94.0422L135.215 96.7265C135.111 96.7415 135.006 96.7464 134.901 96.7412V96.7412ZM132.295 83.0005C134.091 85.199 135.514 90.499 136.152 93.2079L147.93 90.9848C148.588 89.3114 150.246 85.2039 153.264 78.5397C155.355 70.6289 153.47 64.4603 148.087 61.6091C142.91 58.8659 135.779 60.024 132.192 64.1855C129.385 67.444 128.526 71.5466 129.645 76.4197C130.194 78.735 131.088 80.9549 132.295 83.0054V83.0005Z" fill="#FCB03E"/>
<path d="M141.659 56.3582C144.54 56.3194 147.386 56.9938 149.943 58.3211C150.326 58.524 150.696 58.7399 151.052 58.9689C151.092 58.9943 151.138 59.0085 151.185 59.0102C151.232 59.0119 151.279 59.0009 151.321 58.9783C151.362 58.9558 151.397 58.9226 151.422 58.8821C151.446 58.8416 151.459 58.7953 151.46 58.7481V54.2234C151.459 54.1654 151.44 54.109 151.406 54.0623C151.372 54.0156 151.323 53.981 151.268 53.9633L141.743 50.906C141.689 50.8887 141.63 50.8887 141.576 50.906L132.051 53.9633C131.995 53.981 131.947 54.0156 131.913 54.0623C131.878 54.109 131.86 54.1654 131.859 54.2234V58.9296C131.86 58.9787 131.873 59.0269 131.898 59.069C131.923 59.1112 131.959 59.1458 132.002 59.1694C132.045 59.1929 132.094 59.2045 132.143 59.2029C132.192 59.2013 132.24 59.1866 132.281 59.1603C135.084 57.3682 138.333 56.3975 141.659 56.3582V56.3582Z" fill="#0373BA"/>
<path d="M134.7 77.3422C134.596 77.365 134.487 77.3472 134.396 77.2924C134.305 77.2377 134.238 77.1502 134.209 77.0478L134.106 76.665C134.047 76.4442 132.688 71.2669 135.166 67.4734C136.462 65.5105 138.543 64.2738 141.354 63.8567L141.747 63.7978C141.803 63.7873 141.86 63.7882 141.915 63.8005C141.97 63.8127 142.022 63.8361 142.068 63.8691C142.114 63.9022 142.153 63.9442 142.182 63.9927C142.211 64.0412 142.23 64.0951 142.238 64.1511L142.356 64.9363C142.366 64.9919 142.365 65.049 142.353 65.1042C142.341 65.1594 142.317 65.2116 142.284 65.2575C142.251 65.3034 142.209 65.3421 142.161 65.3712C142.112 65.4004 142.058 65.4194 142.002 65.427L141.61 65.4859C139.279 65.8344 137.576 66.806 136.545 68.3813C134.46 71.5662 135.682 76.2037 135.696 76.2332L135.799 76.6159C135.822 76.7199 135.804 76.8285 135.75 76.9198C135.695 77.011 135.607 77.0778 135.505 77.1067L134.7 77.3422Z" fill="white"/>
<path d="M85.4035 141.556C85.4035 142.234 85.2772 142.83 85.0244 143.342C84.7716 143.854 84.4291 144.283 83.9967 144.629C83.5643 144.968 83.0588 145.224 82.4801 145.397C81.9014 145.57 81.2827 145.657 80.6242 145.657C80.1785 145.657 79.7628 145.62 79.377 145.547C78.9978 145.474 78.6619 145.387 78.3692 145.288C78.0766 145.181 77.8304 145.071 77.6309 144.958C77.438 144.845 77.2983 144.745 77.2118 144.659C77.1253 144.572 77.0621 144.449 77.0222 144.29C76.989 144.123 76.9723 143.887 76.9723 143.581C76.9723 143.375 76.979 143.202 76.9923 143.063C77.0056 142.923 77.0256 142.81 77.0522 142.723C77.0854 142.637 77.1253 142.577 77.1719 142.544C77.2251 142.504 77.285 142.484 77.3515 142.484C77.4446 142.484 77.5743 142.54 77.7406 142.653C77.9136 142.76 78.1331 142.88 78.3992 143.013C78.6652 143.146 78.9812 143.269 79.3471 143.382C79.7196 143.488 80.1486 143.541 80.6342 143.541C80.9535 143.541 81.2395 143.505 81.4923 143.432C81.745 143.352 81.9579 143.242 82.1308 143.102C82.3104 142.963 82.4468 142.79 82.5399 142.584C82.6331 142.377 82.6796 142.148 82.6796 141.895C82.6796 141.602 82.5998 141.353 82.4402 141.147C82.2805 140.934 82.071 140.748 81.8116 140.588C81.5588 140.422 81.2694 140.269 80.9435 140.129C80.6176 139.983 80.2816 139.83 79.9357 139.67C79.5898 139.51 79.2539 139.331 78.928 139.131C78.602 138.925 78.3094 138.682 78.0499 138.403C77.7972 138.117 77.591 137.781 77.4313 137.395C77.2717 137.009 77.1919 136.547 77.1919 136.008C77.1919 135.39 77.3049 134.848 77.5311 134.382C77.7639 133.91 78.0732 133.52 78.459 133.214C78.8515 132.902 79.3105 132.669 79.836 132.516C80.3681 132.363 80.9302 132.287 81.5222 132.287C81.8282 132.287 82.1342 132.31 82.4402 132.356C82.7461 132.403 83.0322 132.466 83.2982 132.546C83.5643 132.626 83.8005 132.716 84.0067 132.815C84.2129 132.915 84.3492 132.998 84.4158 133.065C84.4823 133.131 84.5255 133.188 84.5455 133.234C84.5721 133.281 84.592 133.344 84.6053 133.424C84.6253 133.497 84.6386 133.594 84.6452 133.713C84.6519 133.826 84.6552 133.969 84.6552 134.142C84.6552 134.335 84.6486 134.498 84.6353 134.631C84.6286 134.764 84.612 134.874 84.5854 134.961C84.5654 135.047 84.5322 135.11 84.4856 135.15C84.4457 135.19 84.3891 135.21 84.316 135.21C84.2428 135.21 84.1264 135.163 83.9668 135.07C83.8071 134.977 83.6109 134.877 83.3781 134.771C83.1453 134.658 82.8759 134.558 82.5699 134.472C82.2639 134.379 81.928 134.332 81.5621 134.332C81.2761 134.332 81.0266 134.369 80.8138 134.442C80.6009 134.508 80.4213 134.605 80.275 134.731C80.1353 134.851 80.0289 134.997 79.9557 135.17C79.8892 135.343 79.8559 135.526 79.8559 135.719C79.8559 136.005 79.9324 136.254 80.0854 136.467C80.2451 136.673 80.4546 136.86 80.714 137.026C80.9801 137.186 81.2794 137.339 81.612 137.485C81.9446 137.625 82.2838 137.774 82.6297 137.934C82.9756 138.094 83.3149 138.277 83.6475 138.483C83.9801 138.682 84.2761 138.925 84.5355 139.211C84.7949 139.49 85.0044 139.823 85.1641 140.209C85.3237 140.588 85.4035 141.037 85.4035 141.556ZM95.8004 133.594C95.8004 133.787 95.7904 133.953 95.7704 134.093C95.7571 134.226 95.7339 134.335 95.7006 134.422C95.6673 134.502 95.6241 134.561 95.5709 134.601C95.5243 134.641 95.4711 134.661 95.4112 134.661H92.1784V145.068C92.1784 145.135 92.1552 145.194 92.1086 145.248C92.0687 145.301 91.9988 145.344 91.8991 145.377C91.7993 145.411 91.6629 145.437 91.49 145.457C91.3237 145.477 91.1142 145.487 90.8614 145.487C90.6086 145.487 90.3958 145.477 90.2228 145.457C90.0565 145.437 89.9235 145.411 89.8237 145.377C89.7239 145.344 89.6507 145.301 89.6042 145.248C89.5643 145.194 89.5443 145.135 89.5443 145.068V134.661H86.3115C86.245 134.661 86.1885 134.641 86.1419 134.601C86.0953 134.561 86.0554 134.502 86.0222 134.422C85.9889 134.335 85.9623 134.226 85.9423 134.093C85.929 133.953 85.9224 133.787 85.9224 133.594C85.9224 133.394 85.929 133.224 85.9423 133.085C85.9623 132.945 85.9889 132.835 86.0222 132.755C86.0554 132.669 86.0953 132.609 86.1419 132.576C86.1885 132.536 86.245 132.516 86.3115 132.516H95.4112C95.4711 132.516 95.5243 132.536 95.5709 132.576C95.6241 132.609 95.6673 132.669 95.7006 132.755C95.7339 132.835 95.7571 132.945 95.7704 133.085C95.7904 133.224 95.8004 133.394 95.8004 133.594ZM107.863 140.618C107.863 141.41 107.747 142.118 107.514 142.743C107.281 143.369 106.939 143.897 106.487 144.33C106.034 144.762 105.475 145.091 104.81 145.317C104.145 145.544 103.38 145.657 102.515 145.657C101.704 145.657 100.975 145.557 100.33 145.357C99.685 145.151 99.1396 144.842 98.6939 144.429C98.2482 144.017 97.9057 143.505 97.6662 142.893C97.4334 142.274 97.317 141.553 97.317 140.728V132.875C97.317 132.809 97.3369 132.749 97.3769 132.696C97.4168 132.642 97.4866 132.599 97.5864 132.566C97.6928 132.533 97.8292 132.506 97.9955 132.486C98.1618 132.466 98.3746 132.456 98.6341 132.456C98.8868 132.456 99.0964 132.466 99.2626 132.486C99.4289 132.506 99.562 132.533 99.6618 132.566C99.7615 132.599 99.8314 132.642 99.8713 132.696C99.9179 132.749 99.9411 132.809 99.9411 132.875V140.498C99.9411 141.01 100.004 141.456 100.131 141.835C100.257 142.208 100.437 142.517 100.67 142.763C100.909 143.009 101.192 143.196 101.518 143.322C101.85 143.442 102.219 143.502 102.625 143.502C103.038 143.502 103.407 143.438 103.733 143.312C104.059 143.186 104.335 143.003 104.561 142.763C104.787 142.517 104.96 142.218 105.08 141.865C105.206 141.506 105.269 141.1 105.269 140.648V132.875C105.269 132.809 105.289 132.749 105.329 132.696C105.369 132.642 105.439 132.599 105.539 132.566C105.638 132.533 105.771 132.506 105.938 132.486C106.111 132.466 106.324 132.456 106.576 132.456C106.829 132.456 107.035 132.466 107.195 132.486C107.361 132.506 107.494 132.533 107.594 132.566C107.694 132.599 107.764 132.642 107.804 132.696C107.844 132.749 107.863 132.809 107.863 132.875V140.618ZM121.403 138.782C121.403 139.966 121.247 140.98 120.934 141.825C120.628 142.663 120.186 143.349 119.607 143.881C119.029 144.413 118.323 144.805 117.492 145.058C116.667 145.304 115.683 145.427 114.539 145.427H111.455C111.236 145.427 111.05 145.364 110.897 145.238C110.75 145.105 110.677 144.892 110.677 144.599V133.344C110.677 133.052 110.75 132.842 110.897 132.716C111.05 132.583 111.236 132.516 111.455 132.516H114.768C115.919 132.516 116.893 132.652 117.692 132.925C118.496 133.191 119.172 133.59 119.717 134.122C120.269 134.648 120.688 135.3 120.974 136.078C121.26 136.856 121.403 137.758 121.403 138.782ZM118.689 138.872C118.689 138.26 118.616 137.691 118.47 137.166C118.33 136.64 118.101 136.185 117.781 135.799C117.469 135.413 117.063 135.114 116.564 134.901C116.072 134.681 115.423 134.571 114.618 134.571H113.291V143.352H114.658C115.377 143.352 115.982 143.259 116.474 143.072C116.967 142.886 117.376 142.607 117.702 142.234C118.034 141.855 118.28 141.386 118.44 140.828C118.606 140.269 118.689 139.617 118.689 138.872ZM128.228 140.528V145.068C128.228 145.135 128.205 145.194 128.158 145.248C128.118 145.301 128.048 145.344 127.949 145.377C127.849 145.411 127.713 145.437 127.54 145.457C127.373 145.477 127.164 145.487 126.911 145.487C126.652 145.487 126.439 145.477 126.272 145.457C126.106 145.437 125.97 145.411 125.863 145.377C125.764 145.344 125.694 145.301 125.654 145.248C125.614 145.194 125.594 145.135 125.594 145.068V140.528L122.062 133.494C121.935 133.248 121.852 133.058 121.812 132.925C121.779 132.785 121.799 132.682 121.872 132.616C121.952 132.543 122.095 132.499 122.301 132.486C122.507 132.466 122.794 132.456 123.159 132.456C123.465 132.456 123.708 132.463 123.888 132.476C124.074 132.489 124.22 132.516 124.327 132.556C124.433 132.589 124.51 132.636 124.556 132.696C124.609 132.755 124.659 132.832 124.706 132.925L126.143 136.098C126.282 136.404 126.419 136.727 126.552 137.066C126.691 137.405 126.831 137.761 126.971 138.134H126.991C127.117 137.774 127.247 137.425 127.38 137.086C127.513 136.747 127.643 136.424 127.769 136.118L129.186 132.965C129.219 132.859 129.259 132.775 129.306 132.716C129.359 132.649 129.435 132.596 129.535 132.556C129.635 132.516 129.771 132.489 129.944 132.476C130.117 132.463 130.347 132.456 130.633 132.456C131.012 132.456 131.305 132.466 131.511 132.486C131.724 132.499 131.867 132.543 131.94 132.616C132.02 132.682 132.04 132.785 132 132.925C131.96 133.065 131.88 133.254 131.76 133.494L128.228 140.528ZM148.613 134.522C148.613 134.714 148.603 134.881 148.583 135.02C148.569 135.16 148.546 135.273 148.513 135.36C148.486 135.44 148.45 135.496 148.403 135.529C148.363 135.563 148.313 135.579 148.253 135.579C148.167 135.579 148.027 135.519 147.834 135.4C147.641 135.28 147.385 135.15 147.066 135.01C146.747 134.871 146.364 134.741 145.919 134.621C145.48 134.502 144.967 134.442 144.382 134.442C143.757 134.442 143.191 134.551 142.686 134.771C142.18 134.984 141.748 135.29 141.389 135.689C141.03 136.081 140.753 136.557 140.561 137.116C140.368 137.668 140.271 138.28 140.271 138.952C140.271 139.69 140.368 140.342 140.561 140.907C140.76 141.466 141.036 141.935 141.389 142.314C141.741 142.693 142.164 142.979 142.656 143.172C143.155 143.365 143.704 143.462 144.302 143.462C144.595 143.462 144.884 143.428 145.17 143.362C145.456 143.295 145.722 143.196 145.969 143.063V140.069H143.524C143.404 140.069 143.311 139.996 143.245 139.85C143.178 139.697 143.145 139.441 143.145 139.081C143.145 138.895 143.151 138.739 143.165 138.612C143.185 138.486 143.211 138.386 143.245 138.313C143.278 138.233 143.318 138.177 143.364 138.143C143.411 138.104 143.464 138.084 143.524 138.084H147.884C147.991 138.084 148.084 138.104 148.164 138.143C148.25 138.177 148.323 138.23 148.383 138.303C148.45 138.376 148.5 138.466 148.533 138.573C148.566 138.672 148.583 138.789 148.583 138.922V144.06C148.583 144.26 148.546 144.436 148.473 144.589C148.406 144.735 148.263 144.852 148.044 144.938C147.831 145.025 147.565 145.115 147.246 145.208C146.926 145.301 146.594 145.381 146.248 145.447C145.909 145.514 145.563 145.564 145.21 145.597C144.864 145.63 144.515 145.647 144.163 145.647C143.132 145.647 142.207 145.5 141.389 145.208C140.577 144.908 139.889 144.479 139.323 143.921C138.758 143.355 138.326 142.67 138.026 141.865C137.727 141.054 137.577 140.136 137.577 139.111C137.577 138.054 137.737 137.106 138.056 136.268C138.375 135.423 138.828 134.708 139.413 134.122C139.998 133.53 140.704 133.078 141.528 132.765C142.36 132.453 143.284 132.297 144.302 132.297C144.861 132.297 145.37 132.336 145.829 132.416C146.288 132.489 146.687 132.583 147.026 132.696C147.372 132.802 147.658 132.918 147.884 133.045C148.11 133.171 148.267 133.281 148.353 133.374C148.446 133.467 148.513 133.6 148.553 133.773C148.593 133.94 148.613 134.189 148.613 134.522ZM158.381 144.33C158.381 144.529 158.371 144.699 158.351 144.839C158.338 144.972 158.314 145.085 158.281 145.178C158.248 145.264 158.205 145.327 158.151 145.367C158.105 145.407 158.048 145.427 157.982 145.427H152.065C151.845 145.427 151.659 145.364 151.506 145.238C151.36 145.105 151.287 144.892 151.287 144.599V132.875C151.287 132.809 151.307 132.749 151.347 132.696C151.393 132.642 151.466 132.599 151.566 132.566C151.666 132.533 151.799 132.506 151.965 132.486C152.138 132.466 152.351 132.456 152.604 132.456C152.863 132.456 153.076 132.466 153.242 132.486C153.409 132.506 153.542 132.533 153.641 132.566C153.741 132.599 153.811 132.642 153.851 132.696C153.897 132.749 153.921 132.809 153.921 132.875V143.262H157.982C158.048 143.262 158.105 143.282 158.151 143.322C158.205 143.355 158.248 143.415 158.281 143.502C158.314 143.581 158.338 143.691 158.351 143.831C158.371 143.964 158.381 144.13 158.381 144.33ZM171.182 138.822C171.182 139.893 171.049 140.851 170.783 141.696C170.517 142.54 170.121 143.259 169.596 143.851C169.07 144.436 168.418 144.885 167.64 145.198C166.869 145.504 165.974 145.657 164.956 145.657C163.952 145.657 163.074 145.527 162.322 145.268C161.577 145.002 160.955 144.599 160.456 144.06C159.957 143.521 159.581 142.836 159.329 142.005C159.083 141.173 158.96 140.189 158.96 139.051C158.96 138.007 159.093 137.069 159.359 136.238C159.625 135.4 160.021 134.688 160.546 134.102C161.072 133.517 161.72 133.068 162.492 132.755C163.27 132.443 164.171 132.287 165.196 132.287C166.173 132.287 167.035 132.416 167.78 132.676C168.532 132.935 169.157 133.334 169.656 133.873C170.161 134.412 170.54 135.094 170.793 135.918C171.053 136.737 171.182 137.704 171.182 138.822ZM168.428 138.962C168.428 138.283 168.375 137.668 168.269 137.116C168.162 136.557 167.979 136.081 167.72 135.689C167.467 135.29 167.128 134.984 166.702 134.771C166.277 134.551 165.744 134.442 165.106 134.442C164.461 134.442 163.922 134.565 163.489 134.811C163.057 135.05 162.708 135.373 162.442 135.779C162.176 136.185 161.986 136.66 161.873 137.206C161.767 137.744 161.713 138.316 161.713 138.922C161.713 139.627 161.767 140.262 161.873 140.828C161.979 141.386 162.159 141.865 162.412 142.264C162.665 142.663 163.004 142.969 163.43 143.182C163.855 143.388 164.391 143.492 165.036 143.492C165.681 143.492 166.22 143.372 166.652 143.132C167.085 142.893 167.434 142.567 167.7 142.155C167.966 141.742 168.152 141.263 168.259 140.718C168.372 140.166 168.428 139.58 168.428 138.962ZM186.728 144.759C186.688 144.918 186.631 145.048 186.558 145.148C186.491 145.241 186.388 145.314 186.249 145.367C186.109 145.414 185.929 145.444 185.71 145.457C185.49 145.477 185.211 145.487 184.872 145.487C184.493 145.487 184.187 145.477 183.954 145.457C183.728 145.444 183.548 145.414 183.415 145.367C183.282 145.314 183.186 145.241 183.126 145.148C183.066 145.048 183.019 144.918 182.986 144.759L180.921 136.577H180.901L178.945 144.759C178.912 144.912 178.865 145.038 178.805 145.138C178.745 145.231 178.649 145.304 178.516 145.357C178.39 145.411 178.213 145.444 177.987 145.457C177.768 145.477 177.475 145.487 177.109 145.487C176.723 145.487 176.414 145.477 176.181 145.457C175.955 145.444 175.775 145.414 175.642 145.367C175.509 145.314 175.413 145.241 175.353 145.148C175.293 145.048 175.243 144.918 175.203 144.759L172.27 133.494C172.21 133.254 172.177 133.068 172.17 132.935C172.163 132.795 172.2 132.689 172.28 132.616C172.366 132.543 172.503 132.499 172.689 132.486C172.882 132.466 173.148 132.456 173.487 132.456C173.8 132.456 174.046 132.463 174.226 132.476C174.412 132.483 174.551 132.506 174.645 132.546C174.738 132.579 174.801 132.632 174.834 132.706C174.867 132.772 174.894 132.869 174.914 132.995L177.179 142.883H177.189L179.544 133.065C179.57 132.938 179.604 132.835 179.643 132.755C179.69 132.676 179.763 132.616 179.863 132.576C179.969 132.529 180.112 132.499 180.292 132.486C180.472 132.466 180.711 132.456 181.01 132.456C181.33 132.456 181.582 132.463 181.769 132.476C181.962 132.489 182.108 132.519 182.208 132.566C182.314 132.606 182.391 132.666 182.437 132.746C182.484 132.825 182.52 132.932 182.547 133.065L184.982 142.883H185.001L187.266 133.025C187.286 132.918 187.313 132.829 187.346 132.755C187.38 132.676 187.443 132.616 187.536 132.576C187.629 132.529 187.762 132.499 187.935 132.486C188.108 132.466 188.351 132.456 188.663 132.456C188.956 132.456 189.182 132.466 189.342 132.486C189.508 132.499 189.628 132.543 189.701 132.616C189.774 132.689 189.804 132.799 189.791 132.945C189.784 133.085 189.751 133.278 189.691 133.524L186.728 144.759ZM199.21 141.556C199.21 142.234 199.083 142.83 198.831 143.342C198.578 143.854 198.235 144.283 197.803 144.629C197.371 144.968 196.865 145.224 196.286 145.397C195.708 145.57 195.089 145.657 194.43 145.657C193.985 145.657 193.569 145.62 193.183 145.547C192.804 145.474 192.468 145.387 192.175 145.288C191.883 145.181 191.637 145.071 191.437 144.958C191.244 144.845 191.105 144.745 191.018 144.659C190.932 144.572 190.868 144.449 190.828 144.29C190.795 144.123 190.779 143.887 190.779 143.581C190.779 143.375 190.785 143.202 190.799 143.063C190.812 142.923 190.832 142.81 190.858 142.723C190.892 142.637 190.932 142.577 190.978 142.544C191.031 142.504 191.091 142.484 191.158 142.484C191.251 142.484 191.381 142.54 191.547 142.653C191.72 142.76 191.939 142.88 192.205 143.013C192.471 143.146 192.787 143.269 193.153 143.382C193.526 143.488 193.955 143.541 194.44 143.541C194.76 143.541 195.046 143.505 195.299 143.432C195.551 143.352 195.764 143.242 195.937 143.102C196.117 142.963 196.253 142.79 196.346 142.584C196.439 142.377 196.486 142.148 196.486 141.895C196.486 141.602 196.406 141.353 196.246 141.147C196.087 140.934 195.877 140.748 195.618 140.588C195.365 140.422 195.076 140.269 194.75 140.129C194.424 139.983 194.088 139.83 193.742 139.67C193.396 139.51 193.06 139.331 192.734 139.131C192.408 138.925 192.116 138.682 191.856 138.403C191.603 138.117 191.397 137.781 191.238 137.395C191.078 137.009 190.998 136.547 190.998 136.008C190.998 135.39 191.111 134.848 191.337 134.382C191.57 133.91 191.879 133.52 192.265 133.214C192.658 132.902 193.117 132.669 193.642 132.516C194.174 132.363 194.736 132.287 195.328 132.287C195.634 132.287 195.94 132.31 196.246 132.356C196.552 132.403 196.838 132.466 197.104 132.546C197.371 132.626 197.607 132.716 197.813 132.815C198.019 132.915 198.155 132.998 198.222 133.065C198.289 133.131 198.332 133.188 198.352 133.234C198.378 133.281 198.398 133.344 198.412 133.424C198.432 133.497 198.445 133.594 198.451 133.713C198.458 133.826 198.461 133.969 198.461 134.142C198.461 134.335 198.455 134.498 198.442 134.631C198.435 134.764 198.418 134.874 198.392 134.961C198.372 135.047 198.338 135.11 198.292 135.15C198.252 135.19 198.195 135.21 198.122 135.21C198.049 135.21 197.933 135.163 197.773 135.07C197.613 134.977 197.417 134.877 197.184 134.771C196.952 134.658 196.682 134.558 196.376 134.472C196.07 134.379 195.734 134.332 195.368 134.332C195.082 134.332 194.833 134.369 194.62 134.442C194.407 134.508 194.228 134.605 194.081 134.731C193.942 134.851 193.835 134.997 193.762 135.17C193.695 135.343 193.662 135.526 193.662 135.719C193.662 136.005 193.739 136.254 193.892 136.467C194.051 136.673 194.261 136.86 194.52 137.026C194.786 137.186 195.086 137.339 195.418 137.485C195.751 137.625 196.09 137.774 196.436 137.934C196.782 138.094 197.121 138.277 197.454 138.483C197.786 138.682 198.082 138.925 198.342 139.211C198.601 139.49 198.811 139.823 198.97 140.209C199.13 140.588 199.21 141.037 199.21 141.556Z" fill="#0373BA"/>
<path d="M236.457 170.826H32.9863V195.098H236.457V170.826Z" fill="#C42730"/>
<path d="M233.14 173.859H32.9863V191.967H233.14V173.859Z" fill="#F5F5F5"/>
<path opacity="0.3" d="M236.457 170.826H196.918V195.098H236.457V170.826Z" fill="black"/>
<path d="M219.497 148.365H66.6211V170.821H219.497V148.365Z" fill="#0373BA"/>
<path d="M219.585 148.355H181.293V170.836H219.585V148.355Z" fill="#0373BA"/>
<path d="M219.585 151.54H184.895V167.489H219.585V151.54Z" fill="#F5F5F5"/>
<path opacity="0.3" d="M219.585 148.355H181.293V170.836H219.585V148.355Z" fill="black"/>
<path d="M222.815 139.733H82.0996V148.404H222.815V139.733Z" fill="#156C3C"/>
<path d="M222.814 140.817H191.357V147.383H222.814V140.817Z" fill="#E1E1E1"/>
<path opacity="0.3" d="M222.809 139.733H189.576V148.404H222.809V139.733Z" fill="black"/>
<path d="M176.965 143.075H92.2188V145.146H176.965V143.075Z" fill="#E1E1E1"/>
<path d="M198.67 122.159H57.9551V139.733H198.67V122.159Z" fill="#C42730"/>
</g>
<defs>
<clipPath id="clip0_290_2453">
<rect width="284" height="195" fill="white"/>
</clipPath>
</defs>
</svg>
