<svg width="49" height="49" viewBox="0 0 49 49" fill="none" xmlns="http://www.w3.org/2000/svg">
<path d="M0.515625 8.83887C0.515625 4.42059 4.09735 0.838867 8.51562 0.838867H40.5156C44.9339 0.838867 48.5156 4.42059 48.5156 8.83887V40.8389C48.5156 45.2571 44.9339 48.8389 40.5156 48.8389H8.51563C4.09735 48.8389 0.515625 45.2571 0.515625 40.8389V8.83887Z" fill="#EEF4F8"/>
<g clip-path="url(#clip0_413_4984)">
<path d="M16.6406 15.0889C17.2641 15.0889 17.7656 15.5928 17.7656 16.2139V18.4639C17.7656 19.0873 17.2641 19.5889 16.6406 19.5889H14.3906C13.7695 19.5889 13.2656 19.0873 13.2656 18.4639V16.2139C13.2656 15.5928 13.7695 15.0889 14.3906 15.0889H16.6406ZM35.0156 15.8389C35.8453 15.8389 36.5156 16.5106 36.5156 17.3389C36.5156 18.1686 35.8453 18.8389 35.0156 18.8389H21.5156C20.6859 18.8389 20.0156 18.1686 20.0156 17.3389C20.0156 16.5106 20.6859 15.8389 21.5156 15.8389H35.0156ZM35.0156 23.3389C35.8453 23.3389 36.5156 24.0092 36.5156 24.8389C36.5156 25.6686 35.8453 26.3389 35.0156 26.3389H21.5156C20.6859 26.3389 20.0156 25.6686 20.0156 24.8389C20.0156 24.0092 20.6859 23.3389 21.5156 23.3389H35.0156ZM35.0156 30.8389C35.8453 30.8389 36.5156 31.5092 36.5156 32.3389C36.5156 33.1686 35.8453 33.8389 35.0156 33.8389H21.5156C20.6859 33.8389 20.0156 33.1686 20.0156 32.3389C20.0156 31.5092 20.6859 30.8389 21.5156 30.8389H35.0156ZM13.2656 23.7139C13.2656 23.0904 13.7695 22.5889 14.3906 22.5889H16.6406C17.2641 22.5889 17.7656 23.0904 17.7656 23.7139V25.9639C17.7656 26.5873 17.2641 27.0889 16.6406 27.0889H14.3906C13.7695 27.0889 13.2656 26.5873 13.2656 25.9639V23.7139ZM16.6406 30.0889C17.2641 30.0889 17.7656 30.5904 17.7656 31.2139V33.4639C17.7656 34.0873 17.2641 34.5889 16.6406 34.5889H14.3906C13.7695 34.5889 13.2656 34.0873 13.2656 33.4639V31.2139C13.2656 30.5904 13.7695 30.0889 14.3906 30.0889H16.6406Z" fill="black"/>
</g>
<defs>
<clipPath id="clip0_413_4984">
<rect width="24" height="24" fill="white" transform="translate(12.5156 12.8389)"/>
</clipPath>
</defs>
</svg>
