<svg width="405" height="405" viewBox="0 0 405 405" fill="none" xmlns="http://www.w3.org/2000/svg">
<path d="M100.035 306.569C102.465 305.759 106.775 301.798 106.775 301.79C106.775 301.782 103.308 299.773 103.073 299.676C100.343 298.525 94.3897 297.91 92.227 300.429C91.8849 300.857 91.6362 301.353 91.4967 301.883C91.3572 302.414 91.33 302.967 91.417 303.509C91.5039 304.05 91.703 304.567 92.0015 305.027C92.3 305.487 92.6913 305.88 93.1504 306.18C95.062 307.541 97.9294 307.249 100.035 306.569Z" fill="#9C9C9C"/>
<path d="M144.917 268.385C144.974 268.385 143.135 264.797 142.989 264.578C141.369 262.148 136.72 258.317 133.529 259.224C133.002 259.39 132.517 259.664 132.104 260.029C131.69 260.394 131.358 260.842 131.129 261.344C130.9 261.846 130.779 262.39 130.774 262.942C130.768 263.493 130.879 264.04 131.099 264.546C131.965 266.717 134.517 268.061 136.655 268.653C139.166 269.349 144.909 268.393 144.917 268.385Z" fill="#9C9C9C"/>
<path d="M112.744 317.836C114.834 316.467 117.718 311.89 117.944 311.526C120.559 313.18 123.281 314.658 126.093 315.949C127.713 316.71 129.398 317.431 131.083 318.127C130.273 317.917 129.535 317.747 129.463 317.731C126.522 317.342 120.617 318.322 119.2 321.319C118.978 321.825 118.865 322.373 118.869 322.925C118.873 323.478 118.993 324.024 119.223 324.527C119.452 325.03 119.785 325.479 120.2 325.845C120.615 326.21 121.102 326.484 121.63 326.649C123.833 327.459 126.49 326.397 128.377 325.183C130.264 323.968 132.792 320.088 133.448 319.059L135.392 319.869C138.51 321.108 141.621 322.299 144.642 323.627C145.703 324.081 146.732 324.575 147.769 325.053C147.04 324.875 146.432 324.729 146.335 324.721C143.395 324.332 137.498 325.312 136.072 328.309C135.85 328.815 135.737 329.362 135.741 329.914C135.745 330.466 135.866 331.012 136.095 331.514C136.325 332.017 136.658 332.465 137.073 332.83C137.487 333.194 137.974 333.467 138.502 333.631C140.713 334.441 143.403 333.38 145.249 332.165C147.096 330.95 149.413 327.451 150.207 326.236C151.243 326.762 152.288 327.289 153.277 327.856C153.941 328.252 154.613 328.585 155.261 329.022L157.189 330.261C158.38 331.071 159.619 331.946 160.769 332.788C161.579 333.372 162.324 333.939 163.086 334.506C162.033 334.044 159.951 333.169 159.765 333.121C156.922 332.311 150.936 332.367 149.081 335.113C148.784 335.578 148.588 336.1 148.506 336.646C148.425 337.191 148.459 337.748 148.607 338.279C148.756 338.811 149.015 339.305 149.367 339.729C149.719 340.154 150.157 340.499 150.652 340.743C152.71 341.852 155.512 341.237 157.545 340.313C159.757 339.301 163.215 335.389 163.604 334.894C164.86 335.842 166.075 336.774 167.2 337.673C170.489 340.273 173.227 342.614 175.3 344.444L176.92 342.97C174.75 341.14 171.85 338.758 168.359 336.118C167.087 335.154 165.71 334.141 164.309 333.121C165.056 331.624 165.716 330.085 166.285 328.512C168.772 328.763 173.454 327.475 174.061 327.305C174.588 328.787 175.082 330.237 175.527 331.606C176.807 335.518 177.787 338.896 178.508 341.577L180.322 339.957C179.569 337.454 178.597 334.4 177.39 330.958C176.864 329.451 176.272 327.855 175.641 326.219C176.2 325.903 180.703 323.279 182.121 321.303C183.409 319.504 184.551 316.856 183.854 314.612C183.707 314.081 183.45 313.587 183.1 313.162C182.751 312.737 182.315 312.39 181.823 312.143C181.331 311.897 180.792 311.756 180.242 311.731C179.692 311.705 179.143 311.796 178.63 311.996C175.576 313.3 174.361 319.156 174.628 322.105C174.628 322.283 175.033 324.154 175.292 325.345C175.033 324.672 174.79 324.024 174.482 323.344C173.948 321.983 173.373 320.646 172.765 319.205C172.441 318.516 172.125 317.828 171.793 317.131C171.461 316.435 171.072 315.73 170.708 315.017C169.841 313.397 168.877 311.777 167.865 310.157C169.055 309.687 173.243 307.954 174.798 306.366C176.353 304.779 177.876 302.316 177.52 300.024C177.457 299.477 177.28 298.949 177 298.474C176.719 298 176.342 297.59 175.893 297.271C175.443 296.953 174.932 296.732 174.391 296.625C173.851 296.517 173.294 296.524 172.757 296.646C169.517 297.456 167.452 303.078 167.273 306.034C167.273 306.212 167.371 308.351 167.452 309.525C166.836 308.569 166.228 307.614 165.58 306.666C163.701 303.936 161.709 301.231 159.74 298.525C159.133 297.715 158.542 296.865 157.95 296.031C158.371 295.869 163.393 293.917 165.135 292.143C166.682 290.523 168.213 288.093 167.865 285.792C167.801 285.245 167.623 284.716 167.341 284.242C167.06 283.768 166.682 283.358 166.232 283.039C165.782 282.721 165.27 282.501 164.73 282.393C164.189 282.285 163.631 282.293 163.094 282.415C159.854 283.225 157.788 288.846 157.61 291.802C157.61 292.029 157.756 295.099 157.837 295.852C156.525 294.014 155.237 292.175 154.038 290.312C152.404 287.806 150.937 285.195 149.648 282.496C149.842 282.423 155.091 280.406 156.873 278.583C158.42 276.963 159.951 274.533 159.603 272.241C159.54 271.694 159.363 271.166 159.082 270.691C158.802 270.217 158.425 269.807 157.975 269.489C157.526 269.17 157.015 268.949 156.474 268.842C155.934 268.734 155.377 268.741 154.84 268.863C151.6 269.673 149.534 275.295 149.356 278.251C149.356 278.446 149.461 280.786 149.542 281.896L149.364 281.945C148.132 279.196 147.15 276.341 146.432 273.415C146.019 271.795 145.711 270.248 145.444 268.734C146.456 268.458 151.114 267.154 152.88 265.688C154.645 264.222 156.379 262.019 156.29 259.678C156.285 259.127 156.165 258.583 155.937 258.081C155.709 257.579 155.378 257.131 154.966 256.765C154.553 256.399 154.069 256.124 153.543 255.958C153.018 255.791 152.463 255.737 151.916 255.798C148.635 256.26 145.938 261.606 145.436 264.53C145.436 264.684 145.306 266.328 145.249 267.527C145.144 266.838 145.015 266.134 144.925 265.469C144.577 262.983 144.407 260.69 144.269 258.657C144.205 257.499 144.172 256.446 144.148 255.466C144.998 254.656 148.417 251.416 149.308 249.367C150.199 247.317 150.725 244.507 149.567 242.465C149.31 241.977 148.954 241.548 148.52 241.206C148.087 240.865 147.587 240.618 147.052 240.483C146.517 240.348 145.959 240.327 145.416 240.421C144.872 240.516 144.355 240.724 143.897 241.032C141.191 242.959 141.264 248.945 142.163 251.772C142.244 252.015 143.889 255.693 143.937 255.652L143.986 255.604C143.986 256.543 143.986 257.556 144.051 258.665C144.14 260.707 144.253 263.015 144.553 265.518C144.845 268.215 145.294 270.892 145.897 273.537C146.559 276.506 147.486 279.409 148.668 282.212L148.716 282.309C148.084 281.572 146.246 279.571 146.084 279.434C143.848 277.49 138.381 275.052 135.554 276.769C135.09 277.066 134.693 277.458 134.391 277.919C134.089 278.38 133.887 278.9 133.799 279.444C133.711 279.989 133.739 280.545 133.881 281.078C134.023 281.611 134.275 282.108 134.622 282.536C136.032 284.407 138.842 285.031 141.062 285.039C143.557 285.039 148.481 282.811 148.878 282.609C150.147 285.433 151.603 288.168 153.236 290.798C154.176 292.329 155.172 293.852 156.193 295.358C155.626 294.743 155.115 294.192 155.034 294.119C152.799 292.183 147.331 289.737 144.504 291.454C144.04 291.752 143.644 292.144 143.342 292.605C143.039 293.066 142.838 293.585 142.75 294.13C142.662 294.674 142.69 295.23 142.831 295.763C142.973 296.296 143.226 296.793 143.573 297.221C144.974 299.101 147.793 299.716 150.012 299.724C152.232 299.732 156.492 297.91 157.61 297.416C158.007 297.991 158.42 298.574 158.801 299.149C160.712 301.895 162.632 304.641 164.471 307.379C165.111 308.351 165.702 309.323 166.293 310.295C165.791 309.744 165.362 309.29 165.289 309.226C163.053 307.282 157.586 304.843 154.759 306.561C154.295 306.859 153.9 307.251 153.598 307.713C153.297 308.174 153.096 308.694 153.009 309.238C152.922 309.782 152.95 310.339 153.093 310.871C153.235 311.403 153.488 311.9 153.835 312.328C155.237 314.199 158.056 314.823 160.267 314.831C162.478 314.839 166.342 313.211 167.67 312.611C168.253 313.624 168.837 314.636 169.347 315.649C169.687 316.345 170.06 316.993 170.351 317.714C170.643 318.435 170.975 319.124 171.275 319.812C171.817 321.173 172.376 322.566 172.895 323.903C173.243 324.826 173.559 325.717 173.875 326.608C173.259 325.636 171.996 323.765 171.874 323.619C170.109 321.693 167.877 320.253 165.394 319.44C165.21 319.215 165.003 319.008 164.779 318.824C164.364 318.461 163.878 318.19 163.351 318.027C162.825 317.865 162.27 317.815 161.724 317.88C161.177 317.946 160.65 318.126 160.177 318.409C159.704 318.691 159.296 319.07 158.979 319.521C157.148 322.291 159.368 327.847 161.223 330.164C161.328 330.302 162.681 331.646 163.547 332.481L161.717 331.29C160.526 330.48 159.287 329.67 158.007 328.787L156.055 327.588C155.407 327.175 154.678 326.819 153.981 326.43C152.361 325.555 150.668 324.745 148.951 324C149.68 322.955 152.191 319.205 152.637 317.018C153.082 314.831 152.977 311.963 151.414 310.222C151.058 309.8 150.619 309.459 150.123 309.218C149.627 308.978 149.086 308.845 148.535 308.827C147.984 308.81 147.436 308.908 146.926 309.116C146.415 309.324 145.955 309.638 145.573 310.036C143.346 312.466 144.699 318.322 146.173 320.89C146.27 321.052 147.534 322.769 148.255 323.7C147.218 323.247 146.181 322.785 145.12 322.356C142.042 321.116 138.891 319.926 135.756 318.784C134.792 318.427 133.837 318.055 132.881 317.69C133.148 317.326 136.258 312.927 136.728 310.481C137.149 308.31 137.077 305.427 135.505 303.685C135.15 303.264 134.71 302.922 134.214 302.682C133.718 302.441 133.177 302.308 132.627 302.29C132.076 302.273 131.527 302.371 131.017 302.58C130.507 302.788 130.046 303.101 129.665 303.499C127.438 305.929 128.79 311.785 130.273 314.353C130.378 314.547 132.208 317.018 132.703 317.593C130.597 316.783 128.507 315.973 126.474 315.074C123.729 313.885 121.066 312.516 118.503 310.975C118.625 310.805 121.897 306.229 122.375 303.726C122.788 301.555 122.715 298.671 121.152 296.93C120.797 296.508 120.357 296.166 119.861 295.926C119.365 295.686 118.824 295.553 118.273 295.535C117.723 295.518 117.174 295.616 116.664 295.824C116.154 296.032 115.693 296.346 115.312 296.743C113.084 299.173 114.437 305.03 115.911 307.597C116.008 307.768 117.402 309.655 118.09 310.538L117.961 310.675C115.42 309.059 113.029 307.218 110.816 305.176C109.577 304.066 108.459 302.94 107.398 301.814C108.095 301.004 111.238 297.383 111.926 295.172C112.615 292.961 112.817 290.182 111.456 288.287C111.147 287.83 110.746 287.444 110.278 287.152C109.81 286.86 109.287 286.67 108.741 286.594C108.195 286.517 107.639 286.557 107.109 286.709C106.579 286.861 106.087 287.123 105.665 287.477C103.186 289.68 103.891 295.626 105.073 298.339C105.138 298.485 105.964 299.911 106.58 300.939C106.11 300.429 105.616 299.911 105.171 299.408C103.551 297.529 102.101 295.707 100.87 294.079C100.173 293.147 99.5654 292.297 98.9984 291.495C99.2819 290.361 100.351 285.784 99.9461 283.557C99.5411 281.329 98.4395 278.697 96.3497 277.66C95.8673 277.395 95.3345 277.234 94.7859 277.188C94.2373 277.143 93.6852 277.213 93.1656 277.395C92.646 277.577 92.1705 277.866 91.7701 278.244C91.3697 278.622 91.0534 279.079 90.8417 279.588C89.651 282.682 93.0125 287.631 95.3129 289.494C95.5154 289.656 98.9174 291.811 98.9336 291.754C98.9353 291.73 98.9353 291.705 98.9336 291.681C99.4601 292.491 100.035 293.301 100.675 294.208C101.874 295.828 103.251 297.724 104.879 299.643C106.613 301.732 108.466 303.72 110.428 305.597C112.619 307.691 114.99 309.589 117.515 311.267L117.612 311.323C116.681 311.056 114.04 310.4 113.83 310.376C110.889 309.987 104.992 310.967 103.567 313.964C103.345 314.47 103.232 315.018 103.236 315.571C103.24 316.124 103.36 316.669 103.59 317.172C103.819 317.676 104.152 318.125 104.567 318.49C104.982 318.856 105.469 319.13 105.997 319.294C108.208 320.088 110.897 319.059 112.744 317.836Z" fill="#9C9C9C"/>
<path d="M264.287 112.355C266.02 115.255 272.266 119.507 272.274 119.507C272.282 119.507 273.829 114.542 273.894 114.21C274.558 110.427 273.618 102.716 269.844 100.707C269.202 100.391 268.501 100.213 267.787 100.185C267.072 100.158 266.359 100.281 265.696 100.547C265.032 100.813 264.431 101.215 263.933 101.729C263.435 102.242 263.051 102.854 262.805 103.526C261.63 106.345 262.813 109.893 264.287 112.355Z" fill="#9C9C9C"/>
<path d="M325.531 158.153C325.531 158.226 329.581 154.864 329.8 154.621C332.448 151.827 335.915 144.901 333.85 141.102C333.489 140.484 333.003 139.949 332.422 139.532C331.841 139.114 331.178 138.824 330.477 138.68C329.777 138.535 329.053 138.54 328.355 138.694C327.656 138.847 326.997 139.146 326.422 139.571C323.919 141.297 322.955 144.909 322.818 147.777C322.664 151.146 325.531 158.145 325.531 158.153Z" fill="#9C9C9C"/>
<path d="M253.684 131.69C256.025 133.934 262.651 136.266 263.177 136.445C261.841 140.232 260.759 144.104 259.937 148.036C259.443 150.32 259.014 152.645 258.617 154.977C258.617 153.884 258.617 152.904 258.617 152.766C258.261 148.943 255.32 141.75 251.117 140.819C250.414 140.682 249.691 140.695 248.993 140.856C248.296 141.018 247.64 141.324 247.07 141.756C246.499 142.188 246.025 142.735 245.68 143.362C245.335 143.989 245.126 144.682 245.066 145.395C244.709 148.416 246.799 151.527 248.873 153.495C250.946 155.463 256.584 157.618 258.074 158.153C257.929 159.044 257.775 159.943 257.637 160.834C256.965 165.135 256.317 169.428 255.547 173.624C255.28 175.098 254.956 176.548 254.64 177.998C254.64 177.026 254.64 176.207 254.64 176.086C254.284 172.255 251.343 165.07 247.139 164.13C246.437 163.995 245.714 164.009 245.017 164.171C244.32 164.334 243.665 164.642 243.095 165.074C242.525 165.507 242.052 166.054 241.708 166.682C241.364 167.309 241.156 168.002 241.097 168.715C240.74 171.728 242.822 174.839 244.896 176.815C246.969 178.791 252.064 180.719 253.806 181.367C253.441 182.841 253.077 184.316 252.656 185.725C252.34 186.681 252.113 187.62 251.748 188.568L250.728 191.363C250.023 193.112 249.302 194.927 248.565 196.628C248.063 197.802 247.561 198.92 247.058 200.046C247.342 198.58 247.868 195.696 247.868 195.453C248.095 191.614 246.248 184.064 242.263 182.493C241.589 182.251 240.872 182.155 240.158 182.209C239.444 182.263 238.749 182.468 238.119 182.809C237.489 183.149 236.939 183.619 236.503 184.187C236.067 184.755 235.755 185.409 235.589 186.106C234.779 189.03 236.399 192.424 238.116 194.7C240.044 197.211 245.981 200.418 246.726 200.815C245.916 202.67 245.058 204.476 244.248 206.161C241.899 211.078 239.728 215.209 238.011 218.376L240.352 220.045C242.053 216.805 244.223 212.423 246.556 207.239C247.415 205.351 248.298 203.318 249.181 201.22C251.288 201.741 253.425 202.133 255.58 202.395C255.985 205.635 258.957 211.175 259.346 211.888C257.621 212.981 255.936 214.026 254.324 214.982C249.748 217.736 245.722 219.956 242.571 221.632L245.123 223.455C248.079 221.786 251.659 219.68 255.653 217.161C257.41 216.059 259.265 214.844 261.152 213.581C261.711 214.196 266.328 219.137 269.252 220.369C271.901 221.478 275.579 222.167 278.211 220.636C278.843 220.3 279.396 219.834 279.835 219.269C280.274 218.704 280.59 218.053 280.76 217.358C280.931 216.663 280.952 215.94 280.825 215.236C280.697 214.532 280.422 213.863 280.017 213.273C277.49 209.782 269.73 209.936 266.069 211.127C265.859 211.199 263.599 212.22 262.189 212.892C262.959 212.374 263.712 211.872 264.498 211.329C266.061 210.26 267.592 209.15 269.236 207.968L271.585 206.145C272.395 205.546 273.149 204.825 273.942 204.161C275.749 202.589 277.506 200.921 279.232 199.171C280.171 200.532 283.573 205.335 286.028 206.842C288.482 208.348 292.013 209.579 294.84 208.462C295.516 208.225 296.133 207.848 296.653 207.356C297.173 206.864 297.584 206.268 297.858 205.607C298.133 204.946 298.265 204.235 298.246 203.52C298.227 202.804 298.057 202.101 297.748 201.455C295.78 197.624 288.077 196.595 284.286 197.219C284.051 197.259 281.378 198.029 279.92 198.45C280.949 197.405 281.986 196.36 282.99 195.259C285.906 192.1 288.757 188.779 291.608 185.539C292.483 184.534 293.374 183.546 294.249 182.558C294.581 183.044 298.493 188.835 301.247 190.528C303.677 192.027 307.233 193.266 310.068 192.148C310.743 191.91 311.36 191.533 311.879 191.041C312.398 190.549 312.808 189.953 313.081 189.292C313.355 188.631 313.486 187.92 313.467 187.205C313.447 186.49 313.277 185.787 312.968 185.142C311 181.31 303.297 180.282 299.506 180.905C299.222 180.946 295.375 182.039 294.411 182.363C296.355 180.176 298.307 178.014 300.324 175.956C303.028 173.17 305.91 170.562 308.951 168.148C309.104 168.375 313.163 174.442 315.981 176.175C318.411 177.674 321.967 178.905 324.802 177.795C325.477 177.557 326.094 177.18 326.613 176.688C327.132 176.195 327.542 175.6 327.815 174.939C328.089 174.278 328.22 173.567 328.201 172.852C328.181 172.137 328.011 171.434 327.702 170.789C325.734 166.957 318.031 165.929 314.24 166.56C313.989 166.56 311.065 167.427 309.68 167.848L309.566 167.63C312.695 165.284 316.027 163.221 319.521 161.465C321.433 160.477 323.312 159.643 325.191 158.865C325.831 160.072 328.82 165.556 331.185 167.395C333.55 169.233 336.855 170.772 339.771 169.979C340.467 169.816 341.122 169.509 341.692 169.077C342.261 168.645 342.734 168.098 343.079 167.472C343.423 166.846 343.632 166.154 343.691 165.441C343.751 164.729 343.66 164.011 343.424 163.337C341.885 159.287 334.352 157.44 330.513 157.667C330.302 157.667 328.188 158.031 326.657 158.298C327.467 157.966 328.358 157.602 329.168 157.294C332.214 156.136 335.065 155.261 337.608 154.508C339.05 154.086 340.37 153.698 341.602 153.422C342.849 154.281 347.912 157.675 350.811 158.201C353.711 158.728 357.38 158.598 359.616 156.541C360.16 156.075 360.599 155.501 360.906 154.855C361.213 154.208 361.38 153.505 361.397 152.79C361.413 152.074 361.28 151.364 361.003 150.704C360.727 150.044 360.315 149.449 359.794 148.959C356.554 146.1 349.029 147.914 345.716 149.858C345.425 150.028 341.253 153.179 341.318 153.228L341.391 153.276C340.2 153.552 338.921 153.868 337.527 154.232C334.976 154.937 332.084 155.755 329.006 156.848C325.675 158.009 322.413 159.361 319.238 160.898C315.674 162.593 312.267 164.599 309.056 166.892L308.951 166.982C309.696 165.969 311.705 163.069 311.834 162.826C313.649 159.432 315.163 151.818 312.174 148.716C311.662 148.217 311.051 147.831 310.38 147.582C309.709 147.334 308.993 147.23 308.28 147.276C307.566 147.321 306.869 147.516 306.236 147.848C305.602 148.18 305.045 148.641 304.601 149.202C302.641 151.527 302.665 155.269 303.297 158.072C304.01 161.231 308.246 166.828 308.586 167.273C305.38 169.692 302.338 172.322 299.482 175.146C297.805 176.766 296.177 178.484 294.557 180.209C295.181 179.31 295.723 178.5 295.788 178.378C297.602 174.992 299.117 167.37 296.128 164.276C295.618 163.775 295.008 163.387 294.337 163.137C293.667 162.887 292.951 162.782 292.237 162.828C291.523 162.874 290.827 163.07 290.194 163.403C289.561 163.736 289.005 164.2 288.563 164.762C286.595 167.079 286.619 170.821 287.251 173.624C287.882 176.426 291.414 181.319 292.362 182.582L290.515 184.583C287.583 187.823 284.675 191.022 281.718 194.092C280.682 195.178 279.612 196.206 278.551 197.243C279.102 196.433 279.564 195.769 279.62 195.623C281.435 192.237 282.95 184.615 279.961 181.521C279.45 181.02 278.839 180.632 278.168 180.383C277.497 180.133 276.782 180.028 276.067 180.073C275.353 180.118 274.656 180.313 274.022 180.644C273.388 180.976 272.831 181.438 272.387 181.999C270.427 184.324 270.451 188.066 271.083 190.868C271.715 193.671 274.898 198.086 276.024 199.6C274.906 200.621 273.788 201.65 272.654 202.597C271.844 203.221 271.156 203.877 270.33 204.468L267.94 206.234C266.385 207.311 264.781 208.421 263.234 209.434C262.157 210.138 261.128 210.794 260.083 211.459C261.136 210.389 263.145 208.259 263.323 208.065C265.25 205.282 266.432 202.053 266.758 198.685C266.986 198.385 267.187 198.066 267.357 197.729C267.697 197.099 267.9 196.405 267.954 195.691C268.007 194.977 267.91 194.26 267.669 193.587C267.428 192.913 267.047 192.298 266.553 191.78C266.058 191.263 265.46 190.856 264.797 190.585C260.747 189.07 254.373 193.477 251.983 196.49C251.837 196.668 250.525 198.766 249.715 200.102C250.072 199.244 250.428 198.418 250.784 197.527C251.497 195.777 252.161 194.011 252.874 192.108C253.19 191.176 253.514 190.237 253.83 189.289C254.146 188.341 254.405 187.329 254.705 186.341C255.345 184.024 255.879 181.659 256.365 179.253C257.896 179.877 263.38 182.007 266.264 181.91C269.147 181.813 272.744 180.889 274.517 178.403C274.949 177.832 275.255 177.176 275.416 176.479C275.577 175.782 275.59 175.059 275.453 174.357C275.317 173.655 275.033 172.989 274.622 172.404C274.211 171.818 273.682 171.326 273.068 170.959C269.317 168.845 262.327 172.238 259.508 174.847C259.33 175.017 257.516 177.115 256.544 178.289C256.819 176.847 257.111 175.406 257.354 173.931C258.034 169.679 258.593 165.362 259.176 161.052C259.346 159.732 259.541 158.42 259.727 157.108C260.27 157.334 266.733 160.007 269.965 159.894C272.833 159.797 276.445 158.873 278.211 156.387C278.643 155.816 278.949 155.162 279.111 154.465C279.273 153.768 279.286 153.045 279.15 152.343C279.014 151.641 278.732 150.975 278.322 150.389C277.912 149.804 277.383 149.311 276.769 148.943C273.011 146.837 266.021 150.223 263.202 152.839C262.991 153.033 260.383 156.079 259.759 156.889C260.172 153.997 260.569 151.114 261.152 148.287C261.879 144.467 262.85 140.698 264.06 137.003C264.311 137.109 271.043 139.936 274.355 139.822C277.223 139.717 280.835 138.802 282.601 136.315C283.033 135.744 283.34 135.089 283.502 134.391C283.664 133.694 283.677 132.97 283.541 132.268C283.405 131.565 283.123 130.898 282.713 130.312C282.302 129.725 281.773 129.232 281.159 128.863C277.401 126.757 270.419 130.143 267.592 132.759C267.406 132.929 265.421 135.238 264.498 136.355L264.287 136.234C265.587 132.553 267.213 128.997 269.147 125.607C270.2 123.728 271.302 121.986 272.387 120.317C273.586 120.974 279.102 123.898 282.107 124.133C284.975 124.343 288.676 123.825 290.693 121.549C291.184 121.029 291.561 120.411 291.797 119.736C292.034 119.061 292.126 118.344 292.067 117.631C292.008 116.918 291.8 116.225 291.456 115.598C291.112 114.971 290.639 114.424 290.069 113.991C286.57 111.48 279.256 114.08 276.162 116.373C276 116.494 274.428 117.944 273.302 119.021C273.813 118.276 274.331 117.499 274.841 116.794C276.737 114.153 278.64 111.845 280.333 109.812C281.313 108.67 282.221 107.649 283.071 106.709C284.586 106.709 290.685 106.774 293.39 105.616C296.096 104.458 299.06 102.319 299.822 99.3708C300.019 98.6817 300.068 97.9589 299.967 97.2495C299.865 96.5401 299.615 95.86 299.233 95.2538C298.851 94.6476 298.345 94.1289 297.748 93.7315C297.152 93.3341 296.478 93.0669 295.772 92.9475C291.511 92.3319 286.214 98.0181 284.521 101.469C284.375 101.768 282.634 106.701 282.707 106.701H282.804C281.994 107.592 281.062 108.556 280.106 109.634C278.365 111.626 276.405 113.902 274.436 116.51C272.29 119.306 270.307 122.225 268.499 125.25C266.463 128.63 264.731 132.183 263.323 135.869L263.275 136.007C263.348 134.744 263.412 131.22 263.388 130.945C263.032 127.113 260.091 119.929 255.887 118.997C255.185 118.862 254.463 118.875 253.767 119.038C253.07 119.2 252.416 119.507 251.846 119.938C251.276 120.37 250.803 120.917 250.458 121.543C250.114 122.169 249.905 122.861 249.845 123.574C249.529 126.595 251.611 129.705 253.684 131.69Z" fill="#9C9C9C"/>
<path d="M302.673 274.274V271.561C302.673 257.588 320.363 256.981 320.363 247.034C320.363 242.717 316.847 239.898 311.615 239.898C305.888 239.898 302.268 243.016 302.268 247.439V248.549C302.268 249.65 301.668 250.169 300.558 250.169L289.81 249.764C288.805 249.764 288.101 249.262 288.101 248.565V247.455C288.101 235.305 297.748 226.954 311.923 226.954C325.79 226.954 334.732 234.795 334.732 246.548C334.732 263.234 316.742 263.339 316.742 272.468V274.274C316.77 274.505 316.744 274.74 316.668 274.959C316.592 275.179 316.467 275.379 316.302 275.543C316.138 275.708 315.938 275.833 315.718 275.909C315.498 275.985 315.264 276.011 315.033 275.983H304.382C304.151 276.011 303.916 275.985 303.697 275.909C303.477 275.833 303.277 275.708 303.113 275.543C302.948 275.379 302.823 275.179 302.747 274.959C302.671 274.74 302.645 274.505 302.673 274.274ZM301.765 290.474C301.765 286.052 305.686 282.431 310.408 282.431C314.936 282.431 318.953 286.052 318.953 290.474C318.953 294.897 314.904 298.518 310.311 298.518C305.718 298.518 301.765 294.881 301.765 290.458V290.474Z" fill="#263238"/>
<path d="M90.2906 159.173V156.816C90.2906 144.666 105.681 144.156 105.681 135.513C105.681 131.755 102.627 129.317 98.0909 129.317C93.1094 129.317 89.9909 132.022 89.9909 135.862V136.825C89.9909 137.781 89.4725 138.219 88.5086 138.219L79.1693 137.87C78.2945 137.87 77.687 137.433 77.687 136.825V135.862C77.687 125.332 86.0624 118.042 98.3744 118.042C110.419 118.042 118.195 124.854 118.195 135.052C118.195 149.542 102.562 149.632 102.562 157.578V159.149C102.585 159.349 102.563 159.552 102.497 159.743C102.431 159.933 102.322 160.106 102.18 160.249C102.037 160.391 101.864 160.5 101.674 160.566C101.483 160.632 101.28 160.655 101.08 160.631H91.7729C91.5749 160.654 91.3742 160.632 91.1857 160.567C90.9973 160.502 90.8257 160.396 90.6835 160.256C90.5414 160.117 90.4324 159.947 90.3644 159.759C90.2964 159.572 90.2712 159.372 90.2906 159.173ZM89.4806 173.227C89.4806 169.387 92.8826 166.245 96.9812 166.245C100.91 166.245 104.409 169.387 104.409 173.227C104.409 177.066 100.91 180.209 96.9002 180.209C94.9955 180.257 93.1491 179.55 91.7637 178.242C90.3783 176.934 89.5663 175.131 89.5049 173.227H89.4806Z" fill="#0474BA"/>
<path d="M285.793 66.2257V65.035C285.793 58.9033 293.552 58.636 293.552 54.2701C293.552 52.3747 292.005 51.1354 289.713 51.1354C287.202 51.1354 285.614 52.5043 285.614 54.4483V54.9343C285.614 55.4203 285.347 55.639 284.861 55.639L280.147 55.4608C279.701 55.4608 279.394 55.2421 279.394 54.9343V54.4483C279.394 49.1104 283.63 45.4492 289.851 45.4492C295.934 45.4492 299.862 48.8917 299.862 54.0514C299.862 61.3414 291.965 61.4143 291.965 65.3914V66.2014C291.977 66.3029 291.965 66.4057 291.932 66.5021C291.898 66.5985 291.842 66.6859 291.77 66.7577C291.697 66.8296 291.609 66.8839 291.512 66.9166C291.416 66.9494 291.313 66.9596 291.211 66.9466H286.538C286.439 66.9592 286.339 66.9494 286.244 66.918C286.15 66.8866 286.064 66.8343 285.992 66.7651C285.92 66.6959 285.865 66.6115 285.831 66.5181C285.796 66.4248 285.783 66.3248 285.793 66.2257ZM285.396 73.3294C285.344 72.572 285.521 71.8165 285.904 71.1611C286.287 70.5058 286.858 69.9808 287.544 69.6546C288.229 69.3284 288.997 69.2159 289.748 69.3319C290.498 69.448 291.196 69.787 291.751 70.3051C292.306 70.8231 292.692 71.4961 292.859 72.2366C293.026 72.9771 292.967 73.7508 292.689 74.4571C292.41 75.1634 291.926 75.7696 291.298 76.1969C290.671 76.6242 289.929 76.8528 289.17 76.8529C288.691 76.8702 288.213 76.7927 287.763 76.6249C287.314 76.4571 286.902 76.2022 286.551 75.8748C286.201 75.5475 285.918 75.1541 285.72 74.7173C285.522 74.2805 285.411 73.8089 285.396 73.3294Z" fill="#0474BA"/>
<path d="M58.3201 230.04V228.542C58.3201 220.814 68.1049 220.482 68.1049 214.974C68.1049 212.585 66.1609 211.029 63.2449 211.029C60.0778 211.029 58.0771 212.755 58.0771 215.201V215.808C58.0771 216.424 57.745 216.699 57.1294 216.699L51.184 216.481C50.6251 216.481 50.2363 216.197 50.2363 215.808V215.201C50.2363 208.478 55.5742 203.861 63.415 203.861C71.0857 203.861 76.0267 208.194 76.0267 214.699C76.0267 223.925 66.0799 223.981 66.0799 229.044V230.04C66.0957 230.168 66.082 230.298 66.0399 230.421C65.9978 230.543 65.9285 230.654 65.8371 230.745C65.7458 230.836 65.6349 230.906 65.5127 230.948C65.3906 230.99 65.2605 231.003 65.1322 230.988H59.2516C59.1247 231.001 58.9964 230.985 58.8763 230.942C58.7562 230.899 58.6474 230.829 58.558 230.738C58.4685 230.647 58.4007 230.537 58.3595 230.416C58.3183 230.295 58.3049 230.167 58.3201 230.04V230.04ZM57.8179 238.991C57.7545 238.036 57.9798 237.085 58.4646 236.261C58.9494 235.436 59.6711 234.777 60.5359 234.368C61.4006 233.96 62.3684 233.821 63.313 233.97C64.2577 234.119 65.1356 234.549 65.8325 235.205C66.5293 235.86 67.0128 236.709 67.2199 237.643C67.4271 238.577 67.3484 239.551 66.9941 240.439C66.6397 241.328 66.0261 242.089 65.2332 242.624C64.4403 243.158 63.5047 243.442 62.5483 243.437C61.3293 243.477 60.1446 243.03 59.2545 242.197C58.3644 241.363 57.8419 240.21 57.8017 238.991H57.8179Z" stroke="#263238" stroke-miterlimit="10"/>
<path d="M132.84 90.2177V89.189C132.84 83.8754 139.571 83.6405 139.571 79.8578C139.571 78.2378 138.235 77.1443 136.242 77.1443C134.063 77.1443 132.686 78.3269 132.686 80.0117V80.4329C132.686 80.8541 132.46 81.0404 132.038 81.0404L127.988 80.8865C127.608 80.8865 127.34 80.7002 127.34 80.4329V80.0117C127.34 75.3866 131.01 72.2114 136.396 72.2114C141.783 72.2114 144.99 75.1922 144.99 79.6634C144.99 86.0138 138.146 86.0543 138.146 89.5292V90.2177C138.156 90.3053 138.147 90.3942 138.118 90.4775C138.089 90.5609 138.041 90.6366 137.979 90.699C137.917 90.7614 137.841 90.8088 137.758 90.8377C137.674 90.8666 137.585 90.8761 137.498 90.8657H133.448C133.363 90.8698 133.279 90.8555 133.201 90.8237C133.123 90.792 133.052 90.7437 132.994 90.6821C132.937 90.6204 132.893 90.547 132.866 90.4668C132.84 90.3867 132.831 90.3017 132.84 90.2177ZM132.5 96.3737C132.464 95.7265 132.624 95.0835 132.957 94.5277C133.291 93.972 133.784 93.5292 134.372 93.2564C134.96 92.9836 135.616 92.8935 136.256 92.9976C136.896 93.1018 137.489 93.3955 137.96 93.8407C138.432 94.2859 138.758 94.8621 138.898 95.495C139.039 96.1279 138.986 96.7882 138.747 97.3907C138.508 97.9932 138.093 98.5101 137.557 98.8746C137.021 99.2392 136.388 99.4345 135.74 99.4355C134.903 99.4639 134.09 99.1592 133.478 98.5881C132.866 98.0171 132.505 97.2265 132.476 96.3899L132.5 96.3737Z" fill="#263238"/>
<path d="M252.72 312.279V311.251C252.72 305.937 259.451 305.71 259.451 301.919C259.451 300.299 258.115 299.206 256.122 299.206C253.943 299.206 252.566 300.388 252.566 302.073V302.494C252.566 302.916 252.339 303.11 251.918 303.11L247.868 302.956C247.488 302.956 247.22 302.762 247.22 302.494V302.073C247.22 297.448 250.89 294.273 256.276 294.273C261.663 294.273 264.959 297.254 264.959 301.733C264.959 308.075 258.115 308.116 258.115 311.591V312.279C258.125 312.367 258.115 312.456 258.086 312.54C258.058 312.624 258.01 312.7 257.948 312.763C257.886 312.826 257.81 312.874 257.727 312.904C257.644 312.934 257.555 312.944 257.467 312.935H253.417C253.325 312.953 253.23 312.948 253.141 312.922C253.051 312.896 252.969 312.849 252.901 312.785C252.833 312.721 252.781 312.642 252.75 312.554C252.718 312.466 252.708 312.372 252.72 312.279V312.279ZM252.38 318.435C252.344 317.788 252.504 317.145 252.837 316.589C253.171 316.034 253.664 315.591 254.252 315.318C254.84 315.045 255.496 314.955 256.136 315.059C256.775 315.163 257.369 315.457 257.84 315.902C258.311 316.347 258.638 316.924 258.778 317.557C258.919 318.189 258.866 318.85 258.627 319.452C258.387 320.055 257.973 320.572 257.437 320.936C256.901 321.301 256.268 321.496 255.62 321.497C254.786 321.517 253.978 321.206 253.373 320.632C252.768 320.059 252.413 319.269 252.388 318.435H252.38Z" stroke="#263238" stroke-miterlimit="10"/>
<path d="M221.008 330.715C220.952 330.545 220.895 330.375 220.83 330.205C220.765 330.035 220.717 329.856 220.652 329.686C220.587 329.516 220.539 329.346 220.474 329.176C220.409 329.006 220.36 328.828 220.296 328.658C220.231 328.487 220.182 328.317 220.117 328.147C220.053 327.977 220.004 327.799 219.939 327.629L219.761 327.119C219.704 326.94 219.639 326.77 219.583 326.6L219.405 326.09C219.348 325.912 219.283 325.742 219.226 325.571L219.048 325.061C218.991 324.883 218.927 324.713 218.87 324.543L218.7 324C218.643 323.822 218.578 323.652 218.522 323.482L218.335 322.971C218.279 322.793 218.222 322.623 218.157 322.453C218.092 322.283 218.044 322.113 217.979 321.943C217.914 321.773 217.866 321.594 217.801 321.424C217.736 321.254 217.687 321.084 217.623 320.914C214.982 312.879 206.817 306.982 197.834 306.982C189.127 306.982 181.553 312.053 178.394 319.197C178.313 319.359 178.24 319.529 178.167 319.691L177.949 320.193C177.868 320.355 177.795 320.517 177.722 320.687C177.649 320.857 177.568 321.019 177.495 321.181L177.276 321.675C177.195 321.845 177.123 322.007 177.05 322.178C176.977 322.348 176.896 322.502 176.823 322.672C176.75 322.842 176.669 322.996 176.596 323.166L176.377 323.66C176.296 323.822 176.223 323.992 176.151 324.154C176.078 324.316 175.997 324.486 175.924 324.648L175.705 325.15C175.624 325.312 175.551 325.474 175.478 325.644C175.405 325.814 175.324 325.976 175.251 326.138L175.033 326.633C174.952 326.803 174.879 326.965 174.806 327.135C174.733 327.305 174.652 327.459 174.579 327.629L174.36 328.123C174.279 328.285 174.207 328.455 174.134 328.617C174.061 328.779 173.98 328.949 173.907 329.119C172.517 332.079 171.803 335.31 171.817 338.58C171.817 351.621 183.076 362.281 197 362.281C210.624 362.281 222.474 351.621 222.474 338.58C222.472 336.094 222.036 333.627 221.187 331.29C221.13 331.055 221.073 330.885 221.008 330.715Z" fill="#263238"/>
<path d="M201.739 151.308C159.967 151.308 131.528 175.892 131.528 211.742V214.982C131.535 215.518 131.681 216.042 131.951 216.505C132.22 216.967 132.605 217.352 133.067 217.623C133.242 217.791 133.431 217.943 133.634 218.076C133.809 218.247 134.002 218.399 134.209 218.53C134.384 218.701 134.577 218.853 134.784 218.984C134.958 219.156 135.151 219.308 135.359 219.437C135.532 219.608 135.722 219.76 135.926 219.891C136.101 220.064 136.294 220.219 136.501 220.353C136.679 220.521 136.871 220.673 137.076 220.806C137.252 220.976 137.445 221.128 137.651 221.26C137.825 221.43 138.015 221.582 138.218 221.713C138.409 221.897 138.618 222.06 138.842 222.199C139.007 222.35 139.183 222.488 139.369 222.612C139.546 222.781 139.739 222.932 139.944 223.066C140.119 223.234 140.308 223.386 140.511 223.52C140.688 223.688 140.881 223.84 141.086 223.973C141.262 224.143 141.454 224.295 141.661 224.427C141.834 224.597 142.024 224.749 142.228 224.88C142.404 225.051 142.597 225.202 142.803 225.334C142.976 225.504 143.166 225.656 143.37 225.788C143.548 225.956 143.74 226.108 143.945 226.241C144.118 226.411 144.308 226.563 144.512 226.695C145.448 227.518 146.669 227.943 147.914 227.877L173.964 228.849C176.645 228.849 178.103 227.634 178.103 224.953V222.28C178.103 211.564 186.867 204.023 200.783 204.023C213.443 204.023 221.964 210.835 221.964 221.308C221.965 222.502 221.851 223.692 221.624 224.864C208.551 242.004 174.523 249.561 174.523 282.828V290.831C174.523 294.071 176.297 295.861 179.561 295.861H210.924C214.164 295.861 215.962 294.087 215.962 290.831V285.493C215.962 258.536 268.993 258.236 268.993 209.061C268.993 174.409 242.619 151.308 201.739 151.308Z" fill="#263238"/>
<path d="M174.482 290.847V282.844C174.482 241.663 226.622 239.914 226.622 210.559C226.622 197.818 216.254 189.499 200.848 189.499C183.959 189.499 173.308 198.685 173.308 211.718V214.958C173.308 218.198 171.526 219.704 168.27 219.704L136.566 218.514C133.61 218.514 131.536 217.031 131.536 214.958V211.718C131.536 175.867 159.975 151.284 201.747 151.284C242.628 151.284 268.977 174.385 268.977 209.053C268.977 258.228 215.946 258.528 215.946 285.484V290.822C215.946 294.062 214.164 295.852 210.908 295.852H179.521C176.256 295.877 174.482 294.103 174.482 290.847ZM171.817 338.58C171.817 325.547 183.368 314.879 197.292 314.879C210.625 314.879 222.475 325.547 222.475 338.58C222.475 351.613 210.6 362.24 197 362.24C183.06 362.24 171.817 351.58 171.817 338.58Z" fill="#0474BA" stroke="#0474BA" stroke-miterlimit="10"/>
<path d="M195.704 388.8C220.134 388.8 239.938 384.372 239.938 378.91C239.938 373.448 220.134 369.02 195.704 369.02C171.274 369.02 151.47 373.448 151.47 378.91C151.47 384.372 171.274 388.8 195.704 388.8Z" fill="#263238"/>
<path d="M161.894 154.588L160.202 158.282C160.202 158.282 150.368 159.343 150.368 160.08C150.368 160.817 150.473 165.896 151.008 166.107C151.414 166.265 151.865 166.265 152.272 166.107L166.754 162.405L168.131 155.852L161.894 154.588Z" fill="white" stroke="#263238" stroke-linecap="round" stroke-linejoin="round"/>
<path d="M159.14 161.19C157.342 162.663 155.402 163.955 153.349 165.046C151.008 166.099 150.919 167.694 151.664 167.694C152.409 167.694 159.019 164.924 159.019 164.924C159.019 164.924 165.021 163.353 165.888 162.875C166.754 162.397 166.852 159.74 166.852 159.74" fill="white"/>
<path d="M159.14 161.19C157.342 162.663 155.402 163.955 153.349 165.046C151.008 166.099 150.919 167.694 151.664 167.694C152.409 167.694 159.019 164.924 159.019 164.924C159.019 164.924 165.021 163.353 165.888 162.875C166.754 162.397 166.852 159.74 166.852 159.74" stroke="#263238" stroke-linecap="round" stroke-linejoin="round"/>
<path d="M170.545 83.6162L164.503 129.932L160.299 155.01L169.63 157.213L176.588 127.551L179.885 108.88L170.545 83.6162Z" fill="#7D7D7D" stroke="#263238" stroke-linecap="round" stroke-linejoin="round"/>
<path d="M219.307 50.0821L215.622 49.4989L208.073 46.6396L207.797 55.6063L219.502 56.6837L219.307 50.0821Z" fill="white" stroke="#263238" stroke-linecap="round" stroke-linejoin="round"/>
<path d="M176.223 214.326C173.477 217.528 170.91 220.882 168.537 224.37C165.418 229.133 166.52 234.252 170.367 235.54C174.215 236.828 179.148 233.336 180.435 230.591C181.723 227.845 181.351 226.387 183.36 223.641C185.368 220.895 187.021 218.149 186.292 214.488C185.563 210.827 178.2 211.766 176.223 214.326Z" fill="#7D7D7D" stroke="#263238" stroke-linecap="round" stroke-linejoin="round"/>
<path d="M180.063 231.279C179.803 230.728 179.504 230.145 179.147 229.521C176.207 224.346 171.047 224.759 167.807 225.723C165.677 230.072 166.892 234.398 170.383 235.564C173.874 236.73 178.378 233.879 180.063 231.279Z" fill="white" stroke="#263238" stroke-linecap="round" stroke-linejoin="round"/>
<path d="M179.148 229.521C178.054 231.141 176.588 235.564 170.91 233.733C169.326 233.327 167.91 232.435 166.86 231.182C166.983 232.17 167.379 233.104 168.005 233.878C168.63 234.652 169.46 235.236 170.4 235.564C174.239 236.844 179.18 233.361 180.468 230.615C181.756 227.869 181.383 226.411 183.392 223.665C185.401 220.919 187.053 218.173 186.324 214.512C186.324 218.902 184.704 219.631 182.663 222.013C180.622 224.394 180.249 227.869 179.148 229.521Z" fill="white" stroke="#263238" stroke-linecap="round" stroke-linejoin="round"/>
<path d="M230.242 214.326C232.989 217.528 235.555 220.882 237.929 224.37C241.048 229.133 239.946 234.252 236.099 235.54C232.251 236.828 227.318 233.336 226.03 230.591C224.742 227.845 225.115 226.387 223.106 223.641C221.097 220.895 219.445 218.149 220.174 214.488C220.903 210.827 228.233 211.766 230.242 214.326Z" fill="#7D7D7D" stroke="#263238" stroke-linecap="round" stroke-linejoin="round"/>
<path d="M226.411 231.279C226.662 230.728 226.962 230.145 227.318 229.521C230.259 224.346 235.418 224.759 238.658 225.723C240.789 230.072 239.574 234.398 236.083 235.564C232.591 236.73 228.088 233.879 226.411 231.279Z" fill="white" stroke="#263238" stroke-linecap="round" stroke-linejoin="round"/>
<path d="M227.318 229.521C228.412 231.141 229.878 235.564 235.556 233.733C237.139 233.327 238.556 232.435 239.606 231.182C239.483 232.17 239.087 233.104 238.461 233.878C237.836 234.652 237.006 235.236 236.066 235.564C232.227 236.844 227.286 233.361 225.998 230.615C224.71 227.869 225.083 226.411 223.074 223.665C221.065 220.919 219.413 218.173 220.142 214.512C220.142 218.902 221.762 219.631 223.803 222.013C225.844 224.394 226.217 227.869 227.318 229.521Z" fill="white" stroke="#263238" stroke-linecap="round" stroke-linejoin="round"/>
<path d="M238.828 151.17C238.828 147.873 233.158 144.212 233.158 144.212C224.613 135.521 209.19 136.671 203.496 137.449C197.826 136.639 182.387 135.521 173.842 144.212C173.842 144.212 168.172 147.873 168.172 151.17C168.172 154.467 175.316 213.961 175.316 213.961C175.316 213.961 175.13 217.072 180.257 217.436C185.384 217.801 187.547 214.876 187.547 214.876L189.564 164.535C189.564 164.535 197.802 158.671 199.284 158.492C199.819 158.419 200.515 158.306 201.293 158.209V158.306C202.743 158.004 204.241 158.004 205.691 158.306V158.209C206.501 158.306 207.157 158.419 207.7 158.492C209.166 158.671 217.42 164.535 217.42 164.535L219.437 214.876C219.437 214.876 221.632 217.801 226.727 217.436C231.822 217.072 231.668 213.961 231.668 213.961C231.668 213.961 238.828 154.467 238.828 151.17Z" fill="#263238" stroke="#263238" stroke-linecap="round" stroke-linejoin="round"/>
<path d="M217.412 164.535C217.412 164.535 216.31 152.45 221.624 147.874" stroke="#707070" stroke-linecap="round" stroke-linejoin="round"/>
<path d="M189.588 164.535C189.588 164.535 190.139 154.467 189.038 150.806C187.936 147.144 186.105 145.678 186.105 145.678" stroke="#707070" stroke-linecap="round" stroke-linejoin="round"/>
<path d="M196.36 140.551C196.36 140.551 202.216 147.323 203.318 153.001" stroke="#707070" stroke-linecap="round" stroke-linejoin="round"/>
<path d="M209.174 140.94C209.174 140.94 205.878 144.601 205.513 147.347" stroke="#707070" stroke-linecap="round" stroke-linejoin="round"/>
<path d="M200.936 69.7087C200.936 69.7087 195.631 68.9716 193.8 70.8022C191.97 72.6328 185.741 79.3801 185.741 79.3801L189.037 137.595C189.037 137.595 196.546 140.527 202.953 140.527C209.36 140.527 216.683 138.146 218.343 136.866C220.004 135.586 218.53 73.1593 218.53 73.1593C218.53 73.1593 204.93 69.1579 200.936 69.7087Z" fill="#0474BA" stroke="#263238" stroke-linecap="round" stroke-linejoin="round"/>
<path d="M210.64 70.9883C213.427 70.5652 216.238 70.319 219.056 70.2512C222.717 70.2512 226.346 70.4375 226.346 70.4375L235.499 61.649L217.08 57.437L218.546 49.0211C218.546 49.0211 232.089 48.1058 238.86 49.3856C245.632 50.6654 256.251 53.9621 256.802 53.9621C257.353 53.9621 258.082 55.979 257.531 57.437C256.98 58.895 239.76 77.9462 234.616 82.8872C231.251 86.1846 228.074 89.6677 225.099 93.32L222.75 134.144C222.75 134.144 228.792 137.441 229.894 138.534C230.995 139.628 232.275 144.026 232.275 144.026C232.275 144.026 221.105 139.45 218.173 139.085C215.241 138.721 213.418 138.534 212.868 137.465C212.317 136.396 207.74 87.488 207.74 87.488L207.927 71.9279C207.927 71.9279 207.894 70.9883 210.64 70.9883Z" fill="#7D7D7D" stroke="#263238" stroke-linecap="round" stroke-linejoin="round"/>
<path d="M221.624 96.0659L211.734 97.3457L212.649 101.007L217.598 102.287L222.353 100.092L221.624 96.0659Z" stroke="#263238" stroke-linecap="round" stroke-linejoin="round"/>
<path d="M227.294 74.0986L225.099 93.3199L230.777 77.0308" stroke="#263238" stroke-linecap="round" stroke-linejoin="round"/>
<path d="M235.532 61.649C235.532 61.649 240.108 62.5643 247.066 59.8184" stroke="#263238" stroke-linecap="round" stroke-linejoin="round"/>
<path d="M240.294 62.9287C243.301 63.0124 246.308 62.768 249.261 62.1997" stroke="#263238" stroke-linecap="round" stroke-linejoin="round"/>
<path d="M194.716 69.522L195.631 82.887C196.466 83.9844 197.546 84.8706 198.785 85.4741C200.025 86.0777 201.389 86.3818 202.767 86.3619C207.344 86.1837 207.895 82.887 207.895 82.887V71.9034L194.716 69.522Z" fill="white" stroke="#263238" stroke-linecap="round" stroke-linejoin="round"/>
<path d="M208.073 76.4799L207.708 87.4797L211.555 81.4371C211.555 81.4371 215.768 86.7426 216.861 86.5644C217.954 86.3862 216.132 84.183 215.767 82.1742C215.403 80.1654 212.285 73.0131 211.92 71.0043C211.556 68.9955 208.073 68.6229 207.87 69.5382C207.768 70.3288 207.768 71.1291 207.87 71.9196L208.073 76.4799Z" fill="#7D7D7D" stroke="#263238" stroke-linecap="round" stroke-linejoin="round"/>
<path d="M195.445 86.3619C195.445 86.3619 196.174 137.619 194.343 138.202C192.513 138.785 185.19 138.939 180.573 141.134C175.956 143.329 173.802 144.244 173.802 144.244C173.802 144.244 175.997 138.939 178.564 136.558C180.271 135.024 182.179 133.729 184.234 132.71L179.48 108.183C179.48 108.183 170.691 84.9282 170.505 83.6484C170.319 82.3686 187.167 72.8511 190.642 71.1987C194.116 69.5463 195.04 71.0205 195.04 71.0205L195.445 86.3619Z" fill="#7D7D7D" stroke="#263238" stroke-linecap="round" stroke-linejoin="round"/>
<path d="M190.868 68.607C190.868 68.607 186.478 82.5228 186.105 84.3534C185.733 86.184 186.105 86.184 187.393 84.8961C188.681 83.6082 191.97 80.5059 191.97 80.5059L195.445 86.3623L195.258 75.5649V69.336C195.258 69.336 195.08 66.7764 190.868 68.607Z" fill="#7D7D7D" stroke="#263238" stroke-linecap="round" stroke-linejoin="round"/>
<path d="M182.266 98.6338H193.063L192.885 103.024L188.122 104.668L182.08 103.024L182.266 98.6338Z" stroke="#263238" stroke-linecap="round" stroke-linejoin="round"/>
<path d="M211.92 50.4869C211.92 50.4869 214.48 61.6487 215.031 63.4469C215.581 65.2451 212.106 72.4217 210.98 74.066C210.552 74.7792 209.963 75.3821 209.259 75.8266C208.556 76.271 207.758 76.5447 206.931 76.6256C205.651 76.6256 198.693 74.2523 197.04 73.1507C195.388 72.0491 193.752 70.7693 193.752 70.7693C192.973 71.1244 192.108 71.2445 191.262 71.115C190.416 70.9856 189.626 70.6121 188.989 70.0403C186.794 68.0234 183.862 65.642 184.591 63.9977C184.946 63.1909 185.54 62.5126 186.294 62.0548C187.047 61.597 187.923 61.3817 188.803 61.4381C190.82 61.4381 190.091 61.2518 190.091 61.2518C190.091 61.2518 186.429 55.9463 186.429 51.7343C186.429 47.5223 194.295 44.4443 198.871 44.4443C202.035 44.5762 205.144 45.3217 208.024 46.6394L211.92 50.4869Z" fill="white" stroke="#263238" stroke-linecap="round" stroke-linejoin="round"/>
<path d="M205.513 54.6909L208.81 60.9198L205.513 63.1149L204.047 61.2843" stroke="#263238" stroke-linecap="round" stroke-linejoin="round"/>
<path d="M211.555 60.3691C211.555 60.3691 211.734 61.8352 209.539 64.2166" stroke="#263238" stroke-linecap="round" stroke-linejoin="round"/>
<path d="M202.038 56.9834C202.038 57.842 201.665 58.5386 201.228 58.5386C200.791 58.5386 200.418 57.842 200.418 56.9834C200.418 56.1248 200.791 55.4282 201.228 55.4282C201.665 55.4282 202.038 56.1248 202.038 56.9834Z" fill="#263238"/>
<path d="M207.797 55.6065C208.254 55.6065 208.624 54.9102 208.624 54.0513C208.624 53.1924 208.254 52.4961 207.797 52.4961C207.341 52.4961 206.971 53.1924 206.971 54.0513C206.971 54.9102 207.341 55.6065 207.797 55.6065Z" fill="#263238"/>
<path d="M192.148 40.9616C192.148 40.9616 180.63 45.1736 180.249 50.4872C179.869 55.8008 190.504 63.1151 191.055 64.0304C191.605 64.9457 193.25 62.9288 193.25 62.9288C192.884 62.4369 192.628 61.8718 192.501 61.272C192.374 60.6722 192.378 60.052 192.513 59.4539C193.063 57.6233 195.445 55.4039 195.445 54.5129C195.445 53.6219 192.699 55.2419 192.699 52.496C192.699 49.7501 199.471 48.1058 203.496 48.284C207.522 48.4622 211.005 55.2419 213.937 51.9452C216.869 48.6485 212.649 47.7413 212.649 47.7413C212.649 47.7413 218.319 47.0042 218.319 44.0801C218.319 41.156 215.387 39.131 214.107 39.131C212.827 39.131 209.353 41.3342 209.353 38.9528C209.353 36.5714 212.827 35.4698 209.531 31.6628C206.234 27.8558 202.03 31.6628 202.03 33.1289C202.03 34.595 200.929 37.3328 200.2 37.3328C199.471 37.3328 197.267 34.0442 194.708 35.8748C193.938 36.4867 193.311 37.2585 192.869 38.1368C192.427 39.0151 192.181 39.9789 192.148 40.9616Z" fill="#263238" stroke="#263238" stroke-linecap="round" stroke-linejoin="round"/>
<path d="M196.911 55.0636L202.767 52.8604" stroke="#263238" stroke-linecap="round" stroke-linejoin="round"/>
<path d="M203.682 50.301C203.57 49.7264 203.662 49.1306 203.941 48.6162" stroke="#263238" stroke-linecap="round" stroke-linejoin="round"/>
<path d="M203.941 48.5999C204.355 47.7899 205.286 46.745 207.343 45.8945" stroke="white" stroke-linecap="round" stroke-linejoin="round"/>
</svg>
