<svg width="376" height="376" viewBox="0 0 376 376" fill="none" xmlns="http://www.w3.org/2000/svg">
<path d="M318.575 116.038C316.381 108.763 312.537 102.069 307.025 95.9564C301.493 89.8439 293.975 84.8002 284.431 80.8064C274.887 76.8127 262.756 74.8252 248.056 74.8252C236.318 74.8252 224.375 76.4002 212.187 79.5689C200 82.7377 189.425 87.2564 180.443 93.1252L192.125 125.188L185.862 130.25L194.937 132.913C203.9 128.225 212.056 124.813 219.425 122.694C226.775 120.575 234.593 119.525 242.881 119.525C251.15 119.525 257.412 121.513 261.668 125.506C265.925 129.5 268.043 134.319 268.043 139.944C268.043 146.75 265.85 152.788 261.5 158.075C257.112 163.363 252.293 168.706 247.006 174.106C243.331 177.856 239.768 181.738 236.318 185.713C232.868 189.706 229.812 193.981 227.187 198.575C224.543 203.15 222.425 208.081 220.812 213.369C219.2 218.656 218.393 224.581 218.393 231.144C218.393 233.263 218.431 235.794 218.562 238.719C218.581 239.263 218.618 239.788 218.637 240.313H210.05L219.406 246.65H264.931C264.687 245.244 264.575 243.594 264.575 241.719C264.575 239.844 264.575 238.438 264.575 237.481C264.575 233.488 265.381 229.55 266.993 225.688C268.606 221.806 270.612 218.113 273.031 214.588C275.45 211.063 278.131 207.725 281.131 204.556C284.112 201.388 287 198.388 289.756 195.575C293.431 191.825 297.218 187.831 301.137 183.613C305.037 179.375 308.506 174.931 311.487 170.225C314.468 165.519 316.943 160.419 318.893 154.888C320.843 149.375 321.837 143.338 321.837 136.756C321.856 130.25 320.75 123.313 318.575 116.038Z" fill="#E49B31"/>
<path d="M233.226 117.332C225.032 117.332 217.307 118.344 210.051 120.388C202.776 122.432 194.713 125.732 185.845 130.269L171.52 91.7568C180.388 86.0756 190.832 81.7068 202.888 78.6318C214.926 75.5756 226.738 74.0381 238.345 74.0381C252.876 74.0381 264.857 75.9693 274.288 79.8318C283.72 83.6943 291.163 88.5693 296.62 94.4943C302.076 100.401 305.882 106.869 308.038 113.919C310.195 120.969 311.282 127.663 311.282 134.019C311.282 140.394 310.307 146.244 308.376 151.569C306.445 156.913 304.007 161.863 301.045 166.401C298.082 170.938 294.67 175.251 290.807 179.357C286.945 183.444 283.195 187.307 279.576 190.944C276.838 193.682 274.007 196.569 271.063 199.644C268.101 202.701 265.438 205.944 263.057 209.357C260.676 212.769 258.67 216.351 257.095 220.101C255.501 223.851 254.713 227.657 254.713 231.519C254.713 232.438 254.713 233.788 254.713 235.607C254.713 237.426 254.826 239.019 255.051 240.369H210.051C209.582 238.101 209.301 235.551 209.188 232.701C209.057 229.869 209.02 227.413 209.02 225.369C209.02 219.013 209.807 213.276 211.401 208.157C212.995 203.038 215.076 198.276 217.701 193.851C220.307 189.407 223.326 185.282 226.738 181.401C230.151 177.538 233.676 173.788 237.295 170.169C242.526 164.938 247.288 159.782 251.62 154.663C255.932 149.544 258.088 143.694 258.088 137.113C258.088 131.657 255.988 127.007 251.788 123.126C247.588 119.244 241.401 117.332 233.226 117.332Z" fill="#FBC343"/>
<path d="M268.045 290.901C268.045 299.114 265.382 305.451 260.076 309.914C254.77 314.395 248.751 316.626 242.057 316.626C235.345 316.626 229.326 314.395 224.02 309.914C218.713 305.451 216.051 299.114 216.051 290.901C216.051 282.707 218.713 276.37 224.02 271.889C232.195 264.989 244.307 263.451 253.888 268.289C262.382 272.601 268.045 281.32 268.045 290.901Z" fill="#E49B31"/>
<path d="M259.138 290.901C259.138 299.113 256.476 305.451 251.17 309.913C245.863 314.395 239.845 316.626 233.151 316.626C226.438 316.626 220.42 314.395 215.113 309.913C209.807 305.451 207.145 299.113 207.145 290.901C207.145 282.707 209.807 276.37 215.113 271.888C220.42 267.426 226.438 265.176 233.151 265.176C239.863 265.176 245.863 267.407 251.17 271.888C256.495 276.37 259.138 282.707 259.138 290.901Z" fill="#FBC343"/>
<path d="M122.306 177.683C124.537 176.157 125.108 173.112 123.581 170.881C122.055 168.65 119.01 168.079 116.779 169.606C114.548 171.132 113.977 174.177 115.504 176.408C117.03 178.639 120.075 179.21 122.306 177.683Z" fill="#D3DFFF"/>
<path d="M126.703 183.742C126.983 182.246 125.99 180.804 124.483 180.522C122.977 180.239 121.528 181.223 121.248 182.72C120.968 184.216 121.961 185.658 123.468 185.94C124.974 186.222 126.423 185.238 126.703 183.742Z" fill="#D3DFFF"/>
<path d="M126.424 152.488C128.389 142.004 121.483 131.913 110.999 129.948C100.516 127.984 90.4244 134.89 88.4597 145.373C86.495 155.857 93.401 165.948 103.885 167.913C114.368 169.878 124.46 162.972 126.424 152.488Z" fill="#D3DFFF"/>
<path d="M100.023 151.381C101.37 151.381 102.461 150.29 102.461 148.943C102.461 147.597 101.37 146.506 100.023 146.506C98.6772 146.506 97.5859 147.597 97.5859 148.943C97.5859 150.29 98.6772 151.381 100.023 151.381Z" fill="white"/>
<path d="M107.447 151.381C108.793 151.381 109.885 150.29 109.885 148.943C109.885 147.597 108.793 146.506 107.447 146.506C106.101 146.506 105.01 147.597 105.01 148.943C105.01 150.29 106.101 151.381 107.447 151.381Z" fill="white"/>
<path d="M114.855 151.381C116.202 151.381 117.293 150.29 117.293 148.943C117.293 147.597 116.202 146.506 114.855 146.506C113.509 146.506 112.418 147.597 112.418 148.943C112.418 150.29 113.509 151.381 114.855 151.381Z" fill="white"/>
<path d="M93.6139 306.952L95.4139 313.908C95.8826 315.727 97.6451 316.946 99.5764 316.815C105.483 316.421 117.783 314.958 124.833 309.765L122.826 299.733C113.133 299.19 104.058 299.733 96.2014 302.377C94.2514 303.033 93.1076 305.021 93.6139 306.952Z" fill="#102048"/>
<path d="M104.919 312.484C104.825 312.484 104.732 312.409 104.694 312.315L102.275 303.634C102.238 303.502 102.313 303.371 102.444 303.352C102.575 303.315 102.707 303.39 102.725 303.521L105.144 312.202C105.182 312.334 105.107 312.465 104.975 312.484C104.957 312.484 104.938 312.484 104.919 312.484Z" fill="white"/>
<path d="M110.151 311.322C110.058 311.322 109.964 311.247 109.926 311.153L107.508 302.472C107.47 302.34 107.545 302.209 107.676 302.19C107.808 302.153 107.939 302.228 107.958 302.359L110.376 311.04C110.414 311.172 110.339 311.303 110.208 311.322C110.189 311.322 110.17 311.322 110.151 311.322Z" fill="white"/>
<path d="M116.227 269.358L93.6895 276.051L110.433 298.983L134.452 300.895L167.602 286.889L155.002 267.933L116.227 269.358Z" fill="#FBC343"/>
<path d="M144.013 272.545C193.513 257.902 201.463 301.645 124.232 309.595C121.513 306.52 118.326 301.195 117.051 296.752L157.832 277.908L144.013 272.545Z" fill="#FBC343"/>
<path d="M146.112 303.895C143.806 303.145 141.575 301.683 141.575 301.683L133.625 304.176L135.444 312.839L143.712 314.526C146.225 309.914 146.375 306.145 146.112 303.895Z" fill="#F9B384"/>
<path d="M117.239 297.07L116.883 296.47C125.395 291.52 147.183 279.651 165.745 276.145L165.877 276.838C147.427 280.307 125.714 292.138 117.239 297.07Z" fill="#E49B31"/>
<path d="M116.226 269.358C70.1574 260.601 58.2324 304.87 135.445 312.839C138.164 309.764 140.32 306.145 141.576 301.683C129.707 293.751 116.451 286.195 101.92 279.014L116.226 269.358Z" fill="#FBC343"/>
<path d="M141.389 302.001C139.195 300.614 136.908 299.133 134.489 297.576C122.358 289.739 108.595 280.851 96.9141 275.789L97.1953 275.151C108.933 280.233 122.714 289.139 134.883 296.995C137.302 298.551 139.589 300.033 141.764 301.42L141.389 302.001Z" fill="#E49B31"/>
<path d="M82.4195 291.314L81.8008 290.977C83.5258 287.845 86.3008 285.727 90.032 284.695L90.2195 285.37C86.6383 286.383 84.0883 288.314 82.4195 291.314Z" fill="#E49B31"/>
<path d="M178.589 288.651C176.939 285.651 174.37 283.701 170.789 282.707L170.977 282.032C174.708 283.063 177.483 285.182 179.208 288.313L178.589 288.651Z" fill="#E49B31"/>
<path d="M131.131 312.464L130.625 311.976C134.319 308.02 136.569 303.858 137.544 299.245L138.237 299.395C137.225 304.139 134.919 308.414 131.131 312.464Z" fill="#E49B31"/>
<path d="M169.101 301.326C163.195 297.688 151.757 303.988 148.889 304.307C148.045 304.401 147.089 304.213 146.132 303.913C146.395 306.144 146.245 309.932 143.732 314.526L145.139 314.807C145.139 314.807 154.851 318.369 165.145 316.288C174.614 314.376 173.732 304.194 169.101 301.326Z" fill="#102048"/>
<path d="M161.057 313.25C161.038 313.25 161.001 313.25 160.982 313.232C160.851 313.194 160.795 313.063 160.832 312.932C161.526 310.719 161.845 306.35 159.801 303.407C159.726 303.294 159.745 303.163 159.857 303.088C159.97 303.013 160.101 303.032 160.176 303.144C162.295 306.219 161.995 310.775 161.263 313.082C161.245 313.194 161.151 313.25 161.057 313.25Z" fill="white"/>
<path d="M156.426 314.132C156.407 314.132 156.37 314.132 156.351 314.114C156.22 314.076 156.164 313.945 156.201 313.814C156.895 311.601 157.214 307.232 155.17 304.289C155.095 304.176 155.114 304.045 155.226 303.97C155.339 303.895 155.47 303.914 155.545 304.026C157.664 307.101 157.364 311.657 156.632 313.964C156.614 314.076 156.52 314.132 156.426 314.132Z" fill="white"/>
<path d="M108.07 212.282C108.07 212.282 119.676 202.419 119.245 200.544C118.945 199.213 115.645 201.163 115.645 201.163C115.645 201.163 120.257 195.688 120.013 195.032C119.601 193.85 116.413 196.063 116.413 196.063C116.413 196.063 118.57 192.969 117.538 192.463C116.507 191.957 114.257 193.869 114.257 193.869C114.257 193.869 115.57 192.144 114.951 191.694C114.332 191.244 111.67 193.1 111.67 193.1C111.67 193.1 112.626 190.925 110.601 191.75C108.576 192.575 94.3633 205.625 94.3633 205.625L108.07 212.282Z" fill="#F9B384"/>
<path d="M112.833 200.582C112.777 200.582 112.72 200.563 112.683 200.525C110.695 198.707 109.814 198.257 107.62 197.582C107.489 197.544 107.433 197.413 107.47 197.282C107.508 197.15 107.639 197.094 107.77 197.132C110.039 197.825 110.958 198.294 113.02 200.169C113.114 200.263 113.114 200.413 113.039 200.507C112.945 200.544 112.889 200.582 112.833 200.582Z" fill="#E28B6D"/>
<path d="M109.326 205.925C109.307 205.925 109.307 205.925 109.289 205.925C109.157 205.906 109.064 205.794 109.082 205.662C109.307 204.031 109.832 203.019 110.657 202.55C111.37 202.156 112.289 202.194 113.395 202.662C113.507 202.719 113.564 202.85 113.526 202.962C113.47 203.075 113.339 203.131 113.226 203.094C112.251 202.681 111.482 202.625 110.901 202.944C110.226 203.319 109.776 204.256 109.57 205.719C109.551 205.85 109.439 205.925 109.326 205.925Z" fill="#E28B6D"/>
<path d="M108.782 196.063C108.726 196.063 108.651 196.044 108.613 195.988C108.519 195.894 108.519 195.744 108.632 195.65L111.538 192.913C111.632 192.819 111.782 192.819 111.876 192.932C111.969 193.025 111.969 193.175 111.857 193.269L108.951 196.007C108.894 196.044 108.838 196.063 108.782 196.063Z" fill="#E28B6D"/>
<path d="M111.483 197C111.427 197 111.371 196.981 111.314 196.944C111.221 196.85 111.221 196.7 111.314 196.606L114.108 193.7C114.202 193.606 114.352 193.606 114.446 193.7C114.539 193.794 114.539 193.944 114.446 194.038L111.652 196.944C111.596 196.981 111.539 197 111.483 197Z" fill="#E28B6D"/>
<path d="M114.24 198.65C114.183 198.65 114.127 198.632 114.071 198.594C113.977 198.5 113.977 198.35 114.052 198.257L116.246 195.894C116.34 195.8 116.49 195.8 116.583 195.875C116.677 195.969 116.677 196.119 116.602 196.213L114.408 198.575C114.352 198.613 114.296 198.65 114.24 198.65Z" fill="#E28B6D"/>
<path d="M151.908 278.262L109.477 279.912L104.789 241.231C104.789 241.231 118.983 227.769 124.458 222.8L133.683 222.331C162.314 235.344 157.627 251.581 151.908 278.262Z" fill="#3A6BEA"/>
<path d="M133.682 222.331C133.682 222.331 166.419 225.125 176.75 247.569C186.857 269.525 145.344 277.344 145.344 277.344L133.682 222.331Z" fill="#3A6BEA"/>
<path d="M96.2571 227.15L109.795 210.687L97.1384 203.019C91.8696 206.694 81.6509 215 73.0071 224.412C71.0946 226.494 69.6134 228.912 68.8634 231.594C68.2259 233.881 68.1134 236.131 68.4696 238.325C69.4071 244.081 73.9259 248.506 79.9634 249.219C85.1196 249.819 104.807 248.281 120.745 243.594L125.432 225.5C123.013 224.131 105.107 223.887 96.2571 227.15Z" fill="#3A6BEA"/>
<g opacity="0.8">
<path opacity="0.8" d="M161.019 231.238C161.094 231.22 161.169 231.201 161.225 231.182C161.075 231.088 160.925 231.013 160.775 230.92C158.375 231.463 155.9 232.045 153.462 232.326C152 232.495 147.087 232.832 145.662 229.57C144.95 227.938 145.494 226.138 146.3 224.863C146.187 224.826 146.075 224.788 145.944 224.77C145.119 226.12 144.594 227.995 145.344 229.701C146.881 233.188 151.981 232.851 153.5 232.682C156.012 232.382 158.562 231.801 161.019 231.238Z" fill="white"/>
<path opacity="0.8" d="M176.281 256.532C174.724 255.932 173.093 255.294 171.406 255.463C168.424 255.744 165.874 258.688 165.724 262.026C165.612 264.294 166.493 266.694 168.143 268.794C168.237 268.738 168.349 268.663 168.443 268.607C166.831 266.563 165.968 264.257 166.081 262.044C166.231 258.876 168.631 256.082 171.443 255.801C173.056 255.651 174.574 256.232 176.168 256.851C176.731 257.076 177.312 257.301 177.912 257.488C177.949 257.376 177.968 257.263 178.006 257.151C177.406 256.963 176.843 256.757 176.281 256.532Z" fill="white"/>
<path opacity="0.8" d="M93.6496 245.358C91.6059 243.67 88.4371 243.22 84.9309 244.12C81.8184 244.927 79.1559 246.52 77.3184 248.639C77.4309 248.677 77.5621 248.714 77.6746 248.752C79.4559 246.745 82.0246 245.245 85.0246 244.458C88.3996 243.577 91.4746 244.008 93.4246 245.62C94.3621 246.389 95.0184 247.383 95.4871 248.47C95.5996 248.452 95.7309 248.452 95.8434 248.433C95.3559 247.27 94.6621 246.183 93.6496 245.358Z" fill="white"/>
<path opacity="0.8" d="M75.1621 222.107C78.9871 221.151 82.7371 219.82 86.1684 217.832C87.4621 217.082 88.9434 216.126 89.9746 214.72C91.0809 213.22 91.4371 211.438 90.9496 209.957C90.7621 209.376 90.4246 208.87 89.9934 208.457C89.8996 208.532 89.8059 208.607 89.7309 208.682C90.1246 209.057 90.4434 209.526 90.6121 210.07C91.0621 211.438 90.7246 213.107 89.6934 214.513C88.6996 215.863 87.2559 216.801 85.9996 217.532C82.7559 219.407 79.2309 220.701 75.6121 221.638C75.4809 221.788 75.3309 221.938 75.1621 222.107Z" fill="white"/>
</g>
<path d="M136.681 213.745V214.345L136.587 223.663L136.568 224.676C136.55 226.251 135.912 227.695 134.862 228.726C133.831 229.757 132.387 230.413 130.812 230.413C127.606 230.432 125 227.863 124.962 224.657L124.85 213.126L136.681 213.745Z" fill="#F9B384"/>
<path d="M136.682 214.345L136.588 223.663C131.413 221.545 129.275 215.938 129.275 215.938L136.682 214.345Z" fill="#102048"/>
<path d="M138.725 198.069C140.582 200.3 146 212.919 140.507 217.231C134.319 222.088 124.907 214.119 124.907 214.119L123.65 199.419L131.825 197.263L138.725 198.069Z" fill="#F9B384"/>
<path d="M119.488 197.263C119.488 197.263 101.357 206.713 116.151 233.956C118.044 237.463 122.244 238.981 125.844 237.275C129.707 235.438 131.169 230.731 129.069 227C126.651 222.706 124.326 217.175 125.319 213.069L119.488 197.263Z" fill="#102048"/>
<path d="M121.195 206.619C123.897 206.619 126.088 204.428 126.088 201.725C126.088 199.022 123.897 196.831 121.195 196.831C118.492 196.831 116.301 199.022 116.301 201.725C116.301 204.428 118.492 206.619 121.195 206.619Z" fill="#FBC343"/>
<path d="M127.232 207.613C126.707 204.556 126.388 202.456 129.463 200.881C129.463 200.881 140.357 202.869 142.438 198.744C144.52 194.638 141.351 188.15 134.713 192.65C117.726 189.331 115.457 205.231 120.595 210.538L125.676 209.75C126.707 209.6 127.401 208.644 127.232 207.613Z" fill="#102048"/>
<path d="M135.669 208.363C136.073 208.363 136.4 208.036 136.4 207.632C136.4 207.228 136.073 206.9 135.669 206.9C135.265 206.9 134.938 207.228 134.938 207.632C134.938 208.036 135.265 208.363 135.669 208.363Z" fill="#102048"/>
<path d="M140.561 205.945C140.965 205.945 141.293 205.618 141.293 205.214C141.293 204.81 140.965 204.482 140.561 204.482C140.157 204.482 139.83 204.81 139.83 205.214C139.83 205.618 140.157 205.945 140.561 205.945Z" fill="#102048"/>
<path d="M140.057 209.864C140.001 209.864 139.963 209.845 139.907 209.807C139.832 209.732 139.813 209.601 139.907 209.526C140.188 209.226 140.507 208.795 140.376 208.476C140.245 208.157 139.645 208.007 139.382 208.007C138.801 208.007 138.52 206.976 138.482 206.77C138.463 206.657 138.52 206.545 138.632 206.526C138.745 206.507 138.857 206.564 138.876 206.676C138.988 207.107 139.213 207.595 139.382 207.595C139.663 207.595 140.507 207.726 140.751 208.307C140.938 208.72 140.751 209.226 140.188 209.807C140.17 209.845 140.113 209.864 140.057 209.864Z" fill="#102048"/>
<path d="M140.094 212.601C140.057 212.601 140.019 212.582 139.982 212.563C138.613 211.645 137.244 212.413 137.226 212.413C137.132 212.47 137.001 212.432 136.944 212.338C136.888 212.245 136.926 212.113 137.019 212.057C137.076 212.02 138.632 211.157 140.207 212.207C140.301 212.264 140.319 212.395 140.263 212.489C140.226 212.582 140.169 212.601 140.094 212.601Z" fill="#102048"/>
<path d="M135.35 204.5C135.762 205.269 135.05 205.438 134.206 205.888C133.362 206.338 132.5 206.506 132.312 206.131C132.125 205.756 132.631 205.1 133.475 204.65C134.319 204.2 135.031 203.9 135.35 204.5Z" fill="#102048"/>
<path d="M138.405 203.094C138.592 203.788 139.099 203.488 139.849 203.282C140.599 203.076 141.199 202.701 141.124 202.382C141.03 202.044 140.355 201.951 139.605 202.138C138.874 202.344 138.274 202.551 138.405 203.094Z" fill="#102048"/>
<path opacity="0.4" d="M132.313 213.144C133.494 213.144 134.451 212.187 134.451 211.007C134.451 209.826 133.494 208.869 132.313 208.869C131.133 208.869 130.176 209.826 130.176 211.007C130.176 212.187 131.133 213.144 132.313 213.144Z" fill="#EB5D60"/>
<path d="M126.817 213.01C127.791 211.748 127.418 209.827 125.983 208.72C124.548 207.612 122.596 207.739 121.621 209.001C120.647 210.264 121.02 212.185 122.455 213.292C123.89 214.399 125.843 214.273 126.817 213.01Z" fill="#F9B384"/>
<path d="M125.489 212.095C125.377 212.095 125.283 212.001 125.283 211.888C125.283 211.288 124.983 210.726 124.496 210.388C124.064 210.107 123.577 210.032 123.146 210.201C123.033 210.238 122.921 210.201 122.883 210.088C122.846 209.976 122.883 209.863 122.996 209.826C123.539 209.601 124.196 209.676 124.721 210.051C125.321 210.463 125.696 211.138 125.696 211.888C125.696 212.001 125.602 212.095 125.489 212.095Z" fill="#102048"/>
<path d="M96.0724 226.977L88.6777 234.977L89.0219 235.295L96.4166 227.295L96.0724 226.977Z" fill="#102048"/>
<path d="M148.231 261.387L148.1 260.937C153.481 259.287 158.712 257.337 163.456 251.412L163.831 251.712C158.993 257.731 153.687 259.718 148.231 261.387Z" fill="#102048"/>
<path d="M151.496 243.237H105.671C104.021 243.237 102.689 244.681 102.689 246.462V279.181C102.689 280.962 104.021 282.406 105.671 282.406H151.496C153.146 282.406 154.477 280.962 154.477 279.181V246.462C154.496 244.681 153.146 243.237 151.496 243.237Z" fill="#D3DFFF"/>
<path d="M131.002 260.75C131.171 260.75 131.321 260.9 131.321 261.088V264.538C131.321 264.725 131.171 264.875 131.002 264.875H126.164C125.996 264.875 125.846 264.725 125.846 264.538V261.088C125.846 260.9 125.996 260.75 126.164 260.75H131.002ZM131.002 259.812H126.164C125.471 259.812 124.908 260.394 124.908 261.088V264.538C124.908 265.25 125.471 265.812 126.164 265.812H131.002C131.696 265.812 132.258 265.231 132.258 264.538V261.088C132.258 260.394 131.696 259.812 131.002 259.812Z" fill="#1F3C88"/>
<path d="M329.375 316.232H53.0566V317.17H329.375V316.232Z" fill="#102048"/>
</svg>
