<svg width="49" height="49" viewBox="0 0 49 49" fill="none" xmlns="http://www.w3.org/2000/svg">
<path d="M0.515625 8.33887C0.515625 3.92059 4.09735 0.338867 8.51563 0.338867H40.5156C44.9339 0.338867 48.5156 3.92059 48.5156 8.33887V40.3389C48.5156 44.7571 44.9339 48.3389 40.5156 48.3389H8.51563C4.09735 48.3389 0.515625 44.7571 0.515625 40.3389V8.33887Z" fill="#EEF4F8"/>
<path d="M30.4588 17.3281L29.8107 19.7962H17.9055L18.5447 17.3281H30.4588ZM24.271 31L18.1985 23.7734L18.2074 21.554H21.2081C21.8769 21.554 22.4362 21.4297 22.886 21.1811C23.3358 20.9325 23.6732 20.5952 23.8981 20.169C24.123 19.7429 24.2384 19.2576 24.2443 18.7131C24.2384 17.8963 23.9987 17.2305 23.5252 16.7156C23.0576 16.1947 22.2853 15.9343 21.2081 15.9343H17.9055L18.6335 12.8182H21.2081C22.7173 12.8182 23.975 13.046 24.9812 13.5018C25.9933 13.9516 26.7508 14.5937 27.2539 15.4283C27.7629 16.2628 28.0204 17.2571 28.0263 18.4112C28.0204 19.4351 27.8487 20.3288 27.5114 21.0923C27.1799 21.8558 26.6561 22.4921 25.94 23.0011C25.2298 23.5101 24.3035 23.8888 23.1612 24.1374L23.0192 24.1907L28.4524 30.8402V31H24.271ZM30.4766 12.8182L29.8107 15.3217H20.0096L20.6754 12.8182H30.4766Z" fill="black"/>
</svg>
