<svg width="49" height="49" viewBox="0 0 49 49" fill="none" xmlns="http://www.w3.org/2000/svg">
<path d="M0.515625 8.83887C0.515625 4.42059 4.09735 0.838867 8.51562 0.838867H40.5156C44.9339 0.838867 48.5156 4.42059 48.5156 8.83887V40.8389C48.5156 45.2571 44.9339 48.8389 40.5156 48.8389H8.51563C4.09735 48.8389 0.515625 45.2571 0.515625 40.8389V8.83887Z" fill="#EEF4F8"/>
<g clip-path="url(#clip0_413_4988)">
<path d="M34.8953 22.2639C34.7191 21.9244 34.3668 21.7139 33.9844 21.7139H27.2555L29.44 16.2525C29.5676 15.9356 29.5286 15.5745 29.3366 15.2909C29.1446 15.0073 28.7894 14.8389 28.4844 14.8389H20.9219C20.4049 14.8389 19.9684 15.2215 19.9001 15.7343L18.5251 26.0468C18.4848 26.3416 18.5747 26.6381 18.7708 26.8615C18.9668 27.085 19.2499 27.2139 19.5469 27.2139H25.8332L24.038 35.5541C23.9346 36.0362 24.187 36.5235 24.6395 36.7181C24.7719 36.8131 24.9094 36.8389 25.0469 36.8389C25.3785 36.8389 25.7008 36.6777 25.8981 36.3903L34.8356 23.3278C35.05 23.0115 35.0758 22.6033 34.8953 22.2639Z" fill="black"/>
</g>
<defs>
<clipPath id="clip0_413_4988">
<rect width="16.5" height="22" fill="white" transform="translate(18.5156 14.8389)"/>
</clipPath>
</defs>
</svg>
