<svg width="18" height="20" viewBox="0 0 18 20" fill="none" xmlns="http://www.w3.org/2000/svg">
<path fill-rule="evenodd" clip-rule="evenodd" d="M4.32532 5.46642C4.32532 4.23912 4.81286 3.06208 5.6807 2.19425C6.54853 1.32641 7.72557 0.838867 8.95287 0.838867C10.1802 0.838867 11.3572 1.32641 12.225 2.19425C13.0929 3.06208 13.5804 4.23912 13.5804 5.46642C13.5804 6.69372 13.0929 7.87076 12.225 8.73859C11.3572 9.60642 10.1802 10.094 8.95287 10.094C7.72557 10.094 6.54853 9.60642 5.6807 8.73859C4.81286 7.87076 4.32532 6.69372 4.32532 5.46642ZM8.95287 2.47197C8.15869 2.47197 7.39704 2.78745 6.83547 3.34902C6.27391 3.91059 5.95842 4.67224 5.95842 5.46642C5.95842 6.2606 6.27391 7.02225 6.83547 7.58382C7.39704 8.14538 8.15869 8.46087 8.95287 8.46087C9.73605 8.44451 10.4816 8.1219 11.0297 7.56224C11.5778 7.00258 11.8848 6.25042 11.8848 5.46707C11.8848 4.68373 11.5778 3.93157 11.0297 3.3719C10.4816 2.81224 9.73605 2.48963 8.95287 2.47327V2.47197ZM4.59837 13.3602C3.24486 13.3602 2.14872 14.4576 2.14872 15.8098V17.1032C2.14872 17.1228 2.16179 17.1398 2.18139 17.1424C6.66653 17.8741 11.2392 17.8741 15.723 17.1424C15.7325 17.1412 15.7412 17.1365 15.7474 17.1293C15.7537 17.122 15.7571 17.1128 15.757 17.1032V15.8098C15.757 14.4563 14.6596 13.3602 13.3074 13.3602H12.9363C12.9079 13.3601 12.8797 13.3645 12.8527 13.3732L11.9094 13.6816C9.98831 14.3089 7.91743 14.3089 5.99631 13.6816L5.05303 13.3732C5.02601 13.3646 4.9978 13.3602 4.96941 13.3602H4.59837ZM0.515625 15.8098C0.515625 13.5548 2.34339 11.7271 4.59837 11.7271H4.96941C5.16931 11.7271 5.3692 11.7584 5.55994 11.8211L6.50322 12.1282C8.09499 12.6478 9.81075 12.6478 11.4025 12.1282L12.3458 11.8211C12.5365 11.7584 12.7364 11.7271 12.9363 11.7271H13.3074C15.5624 11.7271 17.3901 13.5548 17.3901 15.8098V17.1032C17.3903 17.5003 17.2493 17.8844 16.9922 18.187C16.7351 18.4895 16.3788 18.6907 15.987 18.7546C11.3284 19.5151 6.57734 19.5151 1.91878 18.7546C1.52694 18.6907 1.17061 18.4895 0.913533 18.187C0.656459 17.8844 0.515413 17.5003 0.515625 17.1032V15.8098Z" fill="#0A033C"/>
</svg>
