<svg width="26" height="26" viewBox="0 0 26 26" fill="none" xmlns="http://www.w3.org/2000/svg">
<path d="M17.4268 0.0888672H3.26009C1.70176 0.0888672 0.440924 1.36387 0.440924 2.9222L0.426758 22.7555C0.426758 24.3139 1.68759 25.5889 3.24592 25.5889H23.0934C24.6518 25.5889 25.9268 24.3139 25.9268 22.7555V8.58887L17.4268 0.0888672ZM3.26009 22.7555V2.9222H16.0101V10.0055H23.0934V22.7555H3.26009ZM8.92676 7.1722C8.92676 7.95137 8.28926 8.58887 7.51009 8.58887C6.73092 8.58887 6.09342 7.95137 6.09342 7.1722C6.09342 6.39303 6.73092 5.75553 7.51009 5.75553C8.28926 5.75553 8.92676 6.39303 8.92676 7.1722ZM8.92676 12.8389C8.92676 13.618 8.28926 14.2555 7.51009 14.2555C6.73092 14.2555 6.09342 13.618 6.09342 12.8389C6.09342 12.0597 6.73092 11.4222 7.51009 11.4222C8.28926 11.4222 8.92676 12.0597 8.92676 12.8389ZM8.92676 18.5055C8.92676 19.2847 8.28926 19.9222 7.51009 19.9222C6.73092 19.9222 6.09342 19.2847 6.09342 18.5055C6.09342 17.7264 6.73092 17.0889 7.51009 17.0889C8.28926 17.0889 8.92676 17.7264 8.92676 18.5055Z" fill="black"/>
</svg>
