<svg width="49" height="49" viewBox="0 0 49 49" fill="none" xmlns="http://www.w3.org/2000/svg">
<path d="M0.515625 8.33887C0.515625 3.92059 4.09735 0.338867 8.51562 0.338867H40.5156C44.9339 0.338867 48.5156 3.92059 48.5156 8.33887V40.3389C48.5156 44.7571 44.9339 48.3389 40.5156 48.3389H8.51563C4.09735 48.3389 0.515625 44.7571 0.515625 40.3389V8.33887Z" fill="#EEF4F8"/>
<path d="M33.2958 20.3088C33.3636 20.3781 33.4179 20.4597 33.4557 20.5488C33.4956 20.6403 33.516 20.739 33.5157 20.8389V34.089C33.513 34.287 33.4332 34.4763 33.2931 34.6164C33.153 34.7565 32.9637 34.8363 32.7657 34.839H17.2695C17.0715 34.8363 16.8822 34.7565 16.7421 34.6164C16.602 34.4763 16.5222 34.287 16.5195 34.089L16.5156 15.5889C16.5183 15.3909 16.5981 15.2016 16.7382 15.0615C16.8783 14.9214 17.0676 14.8416 17.2656 14.8389H27.5157C27.6156 14.8386 27.7143 14.859 27.8058 14.8989C27.8952 14.9367 27.9765 14.991 28.0458 15.0588L33.2958 20.3088ZM30.7056 20.0886L28.2657 17.6487V20.0886H30.7056ZM29.2656 24.0888H20.2656C20.0667 24.0888 19.8759 24.1677 19.7352 24.3084C19.5945 24.4491 19.5156 24.6399 19.5156 24.8388C19.5156 25.0377 19.5945 25.2285 19.7352 25.3692C19.8759 25.5099 20.0667 25.5888 20.2656 25.5888H29.2656C29.4645 25.5888 29.6553 25.5099 29.796 25.3692C29.9367 25.2285 30.0156 25.0377 30.0156 24.8388C30.0156 24.6399 29.9367 24.4491 29.796 24.3084C29.6553 24.1677 29.4645 24.0888 29.2656 24.0888ZM26.2656 27.8388H20.2656C20.0667 27.8388 19.8759 27.9177 19.7352 28.0584C19.5945 28.1991 19.5156 28.3899 19.5156 28.5888C19.5156 28.7877 19.5945 28.9785 19.7352 29.1192C19.8759 29.2599 20.0667 29.3388 20.2656 29.3388H26.2656C26.4645 29.3388 26.6553 29.2599 26.796 29.1192C26.9367 28.9785 27.0156 28.7877 27.0156 28.5888C27.0156 28.3899 26.9367 28.1991 26.796 28.0584C26.6553 27.9177 26.4645 27.8388 26.2656 27.8388Z" fill="black"/>
</svg>
