<svg width="292" height="198" viewBox="0 0 292 198" fill="none" xmlns="http://www.w3.org/2000/svg">
<path d="M285.253 2.38379H6.43676C3.79925 2.38379 1.66113 4.52191 1.66113 7.15942V190.921C1.66113 193.559 3.79925 195.697 6.43676 195.697H285.253C287.89 195.697 290.029 193.559 290.029 190.921V7.15942C290.029 4.52191 287.89 2.38379 285.253 2.38379Z" fill="white"/>
<path d="M285.25 3.85703C286.127 3.85703 286.967 4.20534 287.587 4.82532C288.207 5.44531 288.556 6.28619 288.556 7.16298V190.922C288.556 191.798 288.207 192.639 287.587 193.259C286.967 193.879 286.127 194.228 285.25 194.228H6.43691C5.56012 194.228 4.71924 193.879 4.09925 193.259C3.47926 192.639 3.13096 191.798 3.13096 190.922V7.16298C3.13096 6.28619 3.47926 5.44531 4.09925 4.82532C4.71924 4.20534 5.56012 3.85703 6.43691 3.85703H285.25ZM285.25 0.911134H6.43691C5.61578 0.910703 4.80263 1.07212 4.04392 1.38615C3.28522 1.70018 2.59585 2.16067 2.01523 2.7413C1.4346 3.32192 0.97411 4.01129 0.660077 4.76999C0.346045 5.5287 0.184629 6.34186 0.185059 7.16298V190.922C0.184629 191.743 0.346045 192.556 0.660077 193.315C0.97411 194.073 1.4346 194.763 2.01523 195.343C2.59585 195.924 3.28522 196.384 4.04392 196.698C4.80263 197.012 5.61578 197.174 6.43691 197.173H285.25C286.071 197.174 286.884 197.012 287.643 196.698C288.402 196.384 289.091 195.924 289.672 195.343C290.252 194.763 290.713 194.073 291.027 193.315C291.341 192.556 291.502 191.743 291.502 190.922V7.16298C291.502 6.34186 291.341 5.5287 291.027 4.76999C290.713 4.01129 290.252 3.32192 289.672 2.7413C289.091 2.16067 288.402 1.70018 287.643 1.38615C286.884 1.07212 286.071 0.910703 285.25 0.911134Z" fill="#FCB03E"/>
<path d="M263.816 195.701V2.38428H285.249C286.516 2.38601 287.73 2.89016 288.626 3.7861C289.521 4.68204 290.024 5.89657 290.025 7.16318V190.922C290.024 192.188 289.521 193.403 288.626 194.299C287.73 195.195 286.516 195.699 285.249 195.701H263.816Z" fill="#FCB03E"/>
<path d="M285.249 3.85703C286.126 3.85703 286.967 4.20534 287.587 4.82532C288.207 5.44531 288.555 6.28619 288.555 7.16298V190.922C288.555 191.798 288.207 192.639 287.587 193.259C286.967 193.879 286.126 194.228 285.249 194.228H265.283V3.85703H285.249ZM285.249 0.911134H262.337V197.173H285.249C286.071 197.174 286.884 197.012 287.642 196.698C288.401 196.384 289.091 195.924 289.671 195.343C290.252 194.763 290.712 194.073 291.026 193.315C291.34 192.556 291.502 191.743 291.501 190.922V7.16298C291.502 6.34186 291.34 5.5287 291.026 4.76999C290.712 4.01129 290.252 3.32192 289.671 2.7413C289.091 2.16067 288.401 1.70018 287.642 1.38615C286.884 1.07212 286.071 0.910703 285.249 0.911134Z" fill="#FCB03E"/>
<path d="M276.923 106.423C280.999 106.423 284.304 103.118 284.304 99.0418C284.304 94.9653 280.999 91.6606 276.923 91.6606C272.846 91.6606 269.542 94.9653 269.542 99.0418C269.542 103.118 272.846 106.423 276.923 106.423Z" fill="white"/>
<path d="M199.468 7.24805H68.6703C67.7664 7.24805 67.0337 7.98078 67.0337 8.88466V186.853C67.0337 187.757 67.7664 188.49 68.6703 188.49H199.468C200.372 188.49 201.105 187.757 201.105 186.853V8.88466C201.105 7.98078 200.372 7.24805 199.468 7.24805Z" fill="#F2F2F2"/>
<path d="M194.097 12.832H74.0355C73.1317 12.832 72.3989 13.5648 72.3989 14.4686V45.2565C72.3989 46.1604 73.1317 46.8932 74.0355 46.8932H194.097C195.001 46.8932 195.734 46.1604 195.734 45.2565V14.4686C195.734 13.5648 195.001 12.832 194.097 12.832Z" fill="#FCB03E"/>
<path d="M112.114 33.9536C112.114 34.1756 112.076 34.3735 111.998 34.5472C111.921 34.721 111.815 34.8658 111.68 34.9816C111.554 35.0974 111.4 35.1843 111.216 35.2422C111.043 35.2905 110.864 35.3146 110.681 35.3146H109.059C108.721 35.3146 108.427 35.2808 108.176 35.2133C107.935 35.1457 107.708 35.025 107.495 34.8513C107.293 34.6679 107.095 34.4266 106.902 34.1274C106.709 33.8185 106.492 33.4227 106.25 32.9401L101.588 24.1806C101.318 23.6594 101.043 23.0995 100.763 22.5011C100.483 21.893 100.232 21.3042 100.01 20.7347H99.9811C100.02 21.4297 100.049 22.1246 100.068 22.8196C100.087 23.5049 100.097 24.2144 100.097 24.948V34.7499C100.097 34.8465 100.068 34.9333 100.01 35.0106C99.9618 35.0878 99.8701 35.1553 99.735 35.2133C99.6095 35.2615 99.4357 35.3001 99.2137 35.3291C98.9917 35.358 98.707 35.3725 98.3595 35.3725C98.0217 35.3725 97.7417 35.358 97.5197 35.3291C97.2977 35.3001 97.124 35.2615 96.9985 35.2133C96.873 35.1553 96.7862 35.0878 96.7379 35.0106C96.6896 34.9333 96.6655 34.8465 96.6655 34.7499V17.9114C96.6655 17.4577 96.7958 17.1199 97.0564 16.8979C97.3267 16.6662 97.6549 16.5504 98.041 16.5504H100.082C100.449 16.5504 100.758 16.5842 101.009 16.6517C101.26 16.7096 101.482 16.811 101.675 16.9558C101.878 17.1006 102.066 17.3033 102.24 17.5639C102.413 17.8148 102.592 18.1285 102.775 18.505L106.424 25.3534C106.636 25.7684 106.844 26.1786 107.047 26.584C107.259 26.9798 107.462 27.3803 107.655 27.7857C107.848 28.1815 108.036 28.5724 108.219 28.9585C108.403 29.3446 108.581 29.7307 108.755 30.1168H108.77C108.741 29.4411 108.716 28.7365 108.697 28.0029C108.688 27.2693 108.683 26.5695 108.683 25.9035V17.115C108.683 17.0185 108.712 16.9317 108.77 16.8544C108.827 16.7772 108.924 16.7096 109.059 16.6517C109.194 16.5938 109.373 16.5552 109.595 16.5359C109.817 16.5069 110.102 16.4925 110.449 16.4925C110.777 16.4925 111.052 16.5069 111.274 16.5359C111.496 16.5552 111.665 16.5938 111.781 16.6517C111.907 16.7096 111.993 16.7772 112.042 16.8544C112.09 16.9317 112.114 17.0185 112.114 17.115V33.9536ZM127.317 33.7944C127.317 34.0743 127.302 34.3108 127.273 34.5038C127.254 34.6872 127.22 34.8368 127.172 34.9526C127.124 35.0685 127.061 35.1553 126.984 35.2133C126.916 35.2615 126.839 35.2856 126.752 35.2856H117.341C117.022 35.2856 116.752 35.1939 116.53 35.0106C116.318 34.8175 116.212 34.5086 116.212 34.0839V17.7521C116.212 17.3274 116.318 17.0233 116.53 16.84C116.752 16.6469 117.022 16.5504 117.341 16.5504H126.694C126.781 16.5504 126.858 16.5745 126.926 16.6228C126.993 16.671 127.051 16.7579 127.099 16.8834C127.148 16.9992 127.181 17.1537 127.201 17.3467C127.23 17.5301 127.244 17.7666 127.244 18.0562C127.244 18.3264 127.23 18.5581 127.201 18.7511C127.181 18.9345 127.148 19.0841 127.099 19.2C127.051 19.3158 126.993 19.4027 126.926 19.4606C126.858 19.5088 126.781 19.533 126.694 19.533H120.005V24.1082H125.666C125.753 24.1082 125.83 24.1372 125.898 24.1951C125.975 24.2433 126.038 24.3254 126.086 24.4412C126.134 24.5474 126.168 24.697 126.187 24.89C126.216 25.0734 126.231 25.3003 126.231 25.5705C126.231 25.8504 126.216 26.0821 126.187 26.2655C126.168 26.4489 126.134 26.5985 126.086 26.7143C126.038 26.8205 125.975 26.8977 125.898 26.946C125.83 26.9943 125.753 27.0184 125.666 27.0184H120.005V32.3031H126.752C126.839 32.3031 126.916 32.332 126.984 32.3899C127.061 32.4382 127.124 32.5202 127.172 32.6361C127.22 32.7519 127.254 32.9063 127.273 33.0994C127.302 33.2828 127.317 33.5144 127.317 33.7944ZM150.41 34.3156C150.352 34.5472 150.27 34.7355 150.164 34.8802C150.067 35.0154 149.918 35.1216 149.715 35.1988C149.512 35.2663 149.252 35.3098 148.933 35.3291C148.615 35.358 148.209 35.3725 147.717 35.3725C147.167 35.3725 146.723 35.358 146.385 35.3291C146.057 35.3098 145.796 35.2663 145.603 35.1988C145.41 35.1216 145.27 35.0154 145.183 34.8802C145.096 34.7355 145.029 34.5472 144.98 34.3156L141.983 22.4432H141.954L139.117 34.3156C139.068 34.5376 139.001 34.721 138.914 34.8658C138.827 35.0009 138.687 35.1071 138.494 35.1843C138.311 35.2615 138.055 35.3098 137.727 35.3291C137.408 35.358 136.983 35.3725 136.453 35.3725C135.893 35.3725 135.444 35.358 135.106 35.3291C134.778 35.3098 134.517 35.2663 134.324 35.1988C134.131 35.1216 133.991 35.0154 133.904 34.8802C133.817 34.7355 133.745 34.5472 133.687 34.3156L129.43 17.9693C129.344 17.6218 129.295 17.3515 129.286 17.1585C129.276 16.9558 129.329 16.8013 129.445 16.6952C129.57 16.589 129.768 16.5263 130.039 16.5069C130.319 16.478 130.705 16.4635 131.197 16.4635C131.651 16.4635 132.008 16.4732 132.268 16.4925C132.539 16.5021 132.741 16.5359 132.876 16.5938C133.012 16.6421 133.103 16.7193 133.151 16.8255C133.2 16.922 133.238 17.062 133.267 17.2454L136.554 31.5936H136.568L139.985 17.3467C140.024 17.1633 140.072 17.0137 140.13 16.8979C140.198 16.782 140.304 16.6952 140.449 16.6373C140.603 16.5697 140.811 16.5263 141.071 16.5069C141.332 16.478 141.679 16.4635 142.114 16.4635C142.577 16.4635 142.944 16.4732 143.214 16.4925C143.494 16.5118 143.706 16.5552 143.851 16.6228C144.006 16.6807 144.117 16.7676 144.184 16.8834C144.252 16.9992 144.305 17.1537 144.343 17.3467L147.876 31.5936H147.905L151.192 17.2888C151.221 17.1344 151.259 17.004 151.308 16.8979C151.356 16.782 151.448 16.6952 151.583 16.6373C151.718 16.5697 151.911 16.5263 152.162 16.5069C152.413 16.478 152.765 16.4635 153.219 16.4635C153.643 16.4635 153.972 16.478 154.203 16.5069C154.445 16.5263 154.618 16.589 154.725 16.6952C154.831 16.8013 154.874 16.9606 154.855 17.173C154.845 17.3757 154.797 17.6556 154.71 18.0127L150.41 34.3156ZM168.523 29.668C168.523 30.6525 168.339 31.5164 167.972 32.2596C167.606 33.0029 167.109 33.6254 166.481 34.1274C165.854 34.6196 165.12 34.9912 164.28 35.2422C163.441 35.4932 162.543 35.6187 161.587 35.6187C160.941 35.6187 160.337 35.5656 159.778 35.4594C159.227 35.3532 158.74 35.2277 158.315 35.0829C157.891 34.9285 157.533 34.7692 157.244 34.6052C156.964 34.4411 156.761 34.2963 156.636 34.1708C156.51 34.0453 156.419 33.8667 156.361 33.6351C156.312 33.3938 156.288 33.0511 156.288 32.6071C156.288 32.3079 156.298 32.0569 156.317 31.8542C156.336 31.6515 156.365 31.4874 156.404 31.362C156.452 31.2365 156.51 31.1496 156.578 31.1013C156.655 31.0434 156.742 31.0145 156.838 31.0145C156.974 31.0145 157.162 31.0965 157.403 31.2606C157.654 31.415 157.973 31.5888 158.359 31.7818C158.745 31.9749 159.203 32.1534 159.734 32.3175C160.275 32.472 160.897 32.5492 161.602 32.5492C162.065 32.5492 162.48 32.4961 162.847 32.3899C163.214 32.2741 163.523 32.1148 163.774 31.9121C164.034 31.7094 164.232 31.4585 164.367 31.1593C164.502 30.86 164.57 30.527 164.57 30.1602C164.57 29.7355 164.454 29.3736 164.222 29.0743C163.991 28.7655 163.687 28.4952 163.31 28.2635C162.944 28.0222 162.524 27.8002 162.051 27.5975C161.578 27.3852 161.09 27.1632 160.588 26.9315C160.086 26.6999 159.599 26.4392 159.126 26.1497C158.653 25.8504 158.228 25.4981 157.852 25.0927C157.485 24.6777 157.186 24.1902 156.954 23.6304C156.723 23.0706 156.607 22.3997 156.607 21.6179C156.607 20.7202 156.771 19.9335 157.099 19.2579C157.437 18.5726 157.886 18.0079 158.446 17.5639C159.015 17.1102 159.681 16.7724 160.444 16.5504C161.216 16.3284 162.031 16.2174 162.89 16.2174C163.334 16.2174 163.778 16.2512 164.222 16.3187C164.666 16.3863 165.082 16.478 165.468 16.5938C165.854 16.7096 166.196 16.84 166.496 16.9847C166.795 17.1295 166.993 17.2502 167.089 17.3467C167.186 17.4432 167.248 17.5253 167.277 17.5928C167.316 17.6604 167.345 17.7521 167.364 17.8679C167.393 17.9741 167.413 18.1141 167.422 18.2878C167.432 18.4519 167.437 18.6594 167.437 18.9104C167.437 19.1903 167.427 19.4268 167.408 19.6198C167.398 19.8129 167.374 19.9722 167.335 20.0976C167.306 20.2231 167.258 20.3148 167.191 20.3727C167.133 20.4306 167.051 20.4596 166.944 20.4596C166.838 20.4596 166.669 20.392 166.438 20.2569C166.206 20.1218 165.921 19.977 165.583 19.8225C165.246 19.6584 164.855 19.5137 164.411 19.3882C163.967 19.253 163.479 19.1855 162.948 19.1855C162.533 19.1855 162.171 19.2386 161.862 19.3447C161.554 19.4413 161.293 19.5812 161.081 19.7646C160.878 19.9384 160.723 20.1507 160.617 20.4017C160.521 20.6526 160.473 20.9181 160.473 21.198C160.473 21.6131 160.584 21.975 160.806 22.2839C161.037 22.5831 161.341 22.8534 161.718 23.0947C162.104 23.3264 162.538 23.5484 163.021 23.7607C163.503 23.9634 163.996 24.1806 164.498 24.4122C164.999 24.6439 165.492 24.9093 165.974 25.2086C166.457 25.4981 166.887 25.8504 167.263 26.2655C167.639 26.6709 167.943 27.1535 168.175 27.7134C168.407 28.2635 168.523 28.9151 168.523 29.668Z" fill="white"/>
<path d="M147.3 55.5151H73.4297V62.1074H147.3V55.5151Z" fill="#3CAF6A"/>
<path d="M195.763 55.5151H153.84V92.3421H195.763V55.5151Z" fill="#3CAF6A"/>
<path d="M147.3 70.6338H73.4297V77.2261H147.3V70.6338Z" fill="#3CAF6A"/>
<path d="M147.3 85.7495H73.4297V92.3418H147.3V85.7495Z" fill="#3CAF6A"/>
<path d="M195.308 141.074H73.4297V147.666H195.308V141.074Z" fill="#76CE99"/>
<path d="M195.308 156.192H73.4297V162.785H195.308V156.192Z" fill="#76CE99"/>
<path d="M195.308 171.309H73.4297V177.901H195.308V171.309Z" fill="#76CE99"/>
<path d="M195.645 100.869H73.4297V132.55H195.645V100.869Z" fill="#76CE99"/>
<path d="M47.9739 27.9972C47.1732 25.6623 45.9628 23.4887 44.3995 21.5784C43.4571 20.3865 42.2517 19.4286 40.8776 18.7798C38.8285 17.8797 36.8089 18.3936 35.6011 20.0891C35.3257 20.4752 35.025 20.8426 34.701 21.1889C32.9052 23.0899 30.9052 24.787 28.7372 26.2493C26.3083 27.9433 23.692 29.3513 20.9404 30.4456C20.5068 30.5985 20.1134 30.8476 19.7898 31.1741C19.4661 31.5006 19.2205 31.8961 19.0714 32.331C18.7763 33.1613 18.6647 34.0457 18.744 34.9234C18.8637 36.5519 19.3314 38.1358 20.1155 39.5681C20.6819 40.7225 21.5379 41.7104 22.5999 42.4354C22.9425 42.6766 23.3294 42.8477 23.7384 42.9387C24.1473 43.0297 24.5703 43.0389 24.9828 42.9657C26.0597 42.7594 27.1399 42.5565 28.2135 42.3438C28.423 42.3012 28.5113 42.3896 28.5932 42.5663C29.1889 43.8396 29.8043 45.1064 30.3967 46.3764C30.4725 46.5566 30.5872 46.7179 30.7326 46.8486C30.8781 46.9794 31.0506 47.0763 31.2379 47.1325C32.3279 47.4925 33.4146 47.8788 34.5111 48.2454C34.6301 48.2778 34.7555 48.2778 34.8745 48.2454C34.9985 48.2258 35.1175 48.1821 35.2246 48.1165C35.3317 48.051 35.4248 47.965 35.4987 47.8635C35.5725 47.762 35.6257 47.6469 35.655 47.5249C35.6844 47.4028 35.6895 47.2761 35.6699 47.1521C35.6437 46.6906 35.5651 46.2258 35.5095 45.7675C35.3327 44.3175 35.1592 42.874 34.9727 41.3945C35.061 41.3945 35.1134 41.3749 35.1625 41.3749C37.1821 41.3094 39.1951 41.221 41.2147 41.2014C42.0914 41.1899 42.9674 41.2535 43.8333 41.3912C45.3881 41.6433 46.6777 41.2341 47.6793 40.0067C48.5927 38.8281 49.1176 37.395 49.1817 35.9053C49.3556 33.213 48.9436 30.5149 47.9739 27.9972ZM32.233 45.2896C32.1572 45.2596 32.0954 45.2025 32.0595 45.1293C31.5751 44.0786 31.1005 43.0213 30.5996 41.9182L32.9269 41.6073C33.1004 42.9624 33.2542 44.2946 33.4343 45.6693C33.0022 45.5319 32.6127 45.4173 32.2264 45.2864L32.233 45.2896ZM39.6206 39.2637C37.3037 39.2566 34.9882 39.3779 32.6847 39.627C30.0662 39.8911 27.4681 40.3285 24.9075 40.9363C24.6544 41.0109 24.3864 41.0201 24.1288 40.9628C23.8711 40.9056 23.6323 40.7838 23.4346 40.6089C22.7225 39.9902 22.1425 39.2344 21.7292 38.3864C20.996 37.0423 20.6557 35.5189 20.7473 33.9905C20.7638 33.7703 20.7955 33.5516 20.8422 33.3358C20.8803 33.1029 20.9825 32.8851 21.1375 32.7071C21.2924 32.529 21.4939 32.3976 21.7194 32.3277C26.1176 30.5459 30.1851 28.0374 33.7518 24.9073L34.2329 24.4785C34.2035 30.1412 35.9972 35.051 39.7581 39.2473C39.7109 39.2583 39.6625 39.2627 39.6141 39.2604L39.6206 39.2637ZM39.781 34.6419C39.6933 34.9578 39.5839 35.2673 39.4537 35.5682C37.7885 33.0167 36.7293 30.1179 36.3572 27.0938C36.8318 27.1888 37.262 27.4373 37.5814 27.8008C38.5708 28.8761 39.2634 30.1902 39.5912 31.6141C39.8828 32.5947 39.9511 33.6282 39.7909 34.6386L39.781 34.6419ZM46.6548 37.5878C45.9478 39.4731 44.5698 39.9608 42.8382 38.9363C42.0201 38.4273 41.2904 37.7882 40.6779 37.0444C41.9512 35.7351 42.0821 34.1149 41.8661 32.4455C41.5847 30.3255 40.697 28.3319 39.3097 26.7043C38.5372 25.7682 37.5912 25.1037 36.2492 25.0415C36.3081 24.5964 36.3572 24.1774 36.4129 23.7551C36.4931 22.9848 36.7316 22.2393 37.1134 21.5654C37.7975 20.4295 38.75 20.1088 39.9774 20.6128C40.7925 20.9756 41.5261 21.4988 42.1345 22.1513C43.7711 23.7879 44.8807 25.7845 45.735 27.9187C46.6381 30.0012 47.1124 32.2444 47.1294 34.5142C47.1457 35.5606 46.9796 36.6017 46.6384 37.591L46.6548 37.5878Z" fill="#0373BA"/>
</svg>
