<svg width="628" height="403" viewBox="0 0 628 403" fill="none" xmlns="http://www.w3.org/2000/svg">
<g clip-path="url(#clip0_2097_22096)">
<g opacity="0.300003">
<path d="M569.449 237.35L321.474 215.575C317.25 215.205 314.127 211.484 314.5 207.267L329.517 36.6956C329.889 32.4774 333.614 29.3587 337.838 29.7304L585.813 51.504C590.037 51.8756 593.159 55.5951 592.787 59.8133L577.768 230.385C577.397 234.603 573.673 237.72 569.449 237.35Z" fill="#413569"/>
</g>
<g opacity="0.300003">
<path d="M40.8494 180.456L269.226 98.309C273.619 96.7279 278.478 98.8943 280.234 103.215L340.622 251.81C345.51 263.837 339.449 277.517 327.248 281.992L107.225 362.717C93.437 367.776 78.0642 361.483 71.7966 348.217L19.4772 237.467C17.066 232.365 19.4478 226.287 24.6873 224.173L45.1834 215.908L35.7013 191.805C33.9088 187.249 36.2379 182.114 40.8494 180.456Z" fill="#413569"/>
</g>
<path d="M562.568 224.881L314.594 203.106C310.37 202.736 307.247 199.015 307.619 194.798L322.637 24.2266C323.009 20.0084 326.733 16.8897 330.957 17.2614L578.932 39.035C583.156 39.4066 586.279 43.1261 585.907 47.3443L570.887 217.916C570.517 222.134 566.792 225.253 562.568 224.881Z" fill="#E8E7EA"/>
<path d="M585.907 47.344C586.279 43.1258 583.156 39.4063 578.932 39.0362L330.957 17.261C326.733 16.8894 323.009 20.0081 322.637 24.2263L321.35 38.8442L584.62 61.9619L585.907 47.344Z" fill="#545074"/>
<path d="M546.643 47.4136C546.345 50.7986 543.356 53.301 539.968 53.0022C536.578 52.7048 534.072 49.7209 534.37 46.3358C534.668 42.9508 537.657 40.4499 541.047 40.7472C544.435 41.0446 546.941 44.0285 546.643 47.4136Z" fill="#FFFDFF"/>
<path d="M563.536 48.897C563.238 52.282 560.249 54.7844 556.861 54.4856C553.471 54.1882 550.965 51.2043 551.263 47.8192C551.561 44.4342 554.55 41.9333 557.94 42.2306C561.328 42.528 563.834 45.5119 563.536 48.897Z" fill="#FFFDFF"/>
<path d="M580.429 50.3804C580.131 53.7654 577.142 56.2678 573.754 55.969C570.364 55.6716 567.858 52.6877 568.156 49.3026C568.454 45.9176 571.443 43.4152 574.833 43.714C578.221 44.0113 580.727 46.9953 580.429 50.3804Z" fill="#FFFDFF"/>
<path d="M468.061 171.483L329.451 159.312L336.604 78.085L475.212 90.2562L468.061 171.483Z" fill="#FFC5A5"/>
<path d="M552.503 103.65L493.519 98.4938L494.093 91.9375L553.078 97.094L552.503 103.65Z" fill="#8D8294"/>
<path d="M551.193 118.595L492.209 113.438L492.783 106.882L551.768 112.038L551.193 118.595Z" fill="#8D8294"/>
<path d="M549.883 133.54L490.899 128.383L491.473 121.827L550.458 126.984L549.883 133.54Z" fill="#8D8294"/>
<path d="M548.573 148.485L489.589 143.329L490.163 136.772L549.148 141.929L548.573 148.485Z" fill="#8D8294"/>
<path d="M547.268 163.367L488.284 158.211L488.858 151.654L547.844 156.811L547.268 163.367Z" fill="#8D8294"/>
<path d="M545.958 178.312L486.974 173.155L487.548 166.599L546.534 171.755L545.958 178.312Z" fill="#8D8294"/>
<path d="M543.877 201.619L484.893 196.463L485.467 189.906L544.452 195.063L543.877 201.619Z" fill="#8D8294"/>
<path d="M542.567 216.563L483.583 211.407L484.156 204.851L543.142 210.007L542.567 216.563Z" fill="#8D8294"/>
<path d="M465.981 194.777L406.997 189.621L407.571 183.064L466.556 188.221L465.981 194.777Z" fill="#8D8294"/>
<path d="M464.67 209.724L405.687 204.567L406.26 198.011L465.246 203.167L464.67 209.724Z" fill="#8D8294"/>
<path d="M387.235 187.864L328.251 182.708L328.824 176.151L387.81 181.308L387.235 187.864Z" fill="#8D8294"/>
<path d="M385.925 202.809L326.941 197.652L327.514 191.096L386.5 196.252L385.925 202.809Z" fill="#8D8294"/>
<path d="M336.777 63.9002L338.059 49.2775L345.538 49.9313C347.46 50.0993 348.863 50.5799 349.748 51.3729C350.634 52.152 351.027 53.1126 350.927 54.2545C350.861 55.0065 350.601 55.6504 350.147 56.1861C349.708 56.709 349.112 57.106 348.358 57.3769C347.62 57.6351 346.756 57.721 345.768 57.6345L346.273 56.6684C347.304 56.7585 348.188 56.9971 348.926 57.3844C349.665 57.7578 350.217 58.2621 350.583 58.8975C350.963 59.5201 351.116 60.2562 351.042 61.1057C350.931 62.373 350.329 63.3167 349.236 63.9369C348.158 64.5443 346.637 64.7622 344.674 64.5905L336.777 63.9002ZM341.134 61.2709L344.601 61.5741C345.312 61.6362 345.858 61.5647 346.241 61.3596C346.639 61.1418 346.86 60.7822 346.904 60.2809C346.948 59.7795 346.792 59.394 346.437 59.1244C346.097 58.8421 345.572 58.6699 344.861 58.6078L341.101 58.279L341.352 55.4172L344.486 55.6911C345.182 55.752 345.715 55.6793 346.083 55.473C346.452 55.2667 346.658 54.9268 346.699 54.4533C346.741 53.9798 346.597 53.6164 346.268 53.3631C345.941 53.0959 345.429 52.9319 344.733 52.871L341.892 52.6227L341.134 61.2709ZM352.832 65.3038L354.114 50.6811L360.799 51.2656C362.136 51.3824 363.266 51.6987 364.189 52.2145C365.126 52.7314 365.823 53.4239 366.28 54.2918C366.739 55.1458 366.919 56.1298 366.822 57.2439C366.725 58.3441 366.377 59.2749 365.777 60.0364C365.178 60.7839 364.372 61.3309 363.36 61.6774C362.362 62.0112 361.195 62.1197 359.858 62.0028L355.471 61.6192L357.461 60.0461L356.969 65.6654L352.832 65.3038ZM361.878 66.0946L358.71 60.45L363.118 60.8353L366.306 66.4818L361.878 66.0946ZM357.423 60.4848L355.751 58.4231L359.887 58.7848C360.751 58.8602 361.408 58.7282 361.859 58.3888C362.323 58.0505 362.585 57.5471 362.644 56.8787C362.703 56.1963 362.534 55.6482 362.135 55.2344C361.75 54.8219 361.126 54.5779 360.263 54.5024L356.126 54.1408L358.131 52.4006L357.423 60.4848ZM372.883 58.0265L379.673 58.6201L379.402 61.7117L372.612 61.1181L372.883 58.0265ZM372.67 63.8176L380.316 64.486L380.036 67.6821L368.296 66.6557L369.578 52.033L381.046 53.0357L380.766 56.2318L373.392 55.5871L372.67 63.8176ZM380.577 67.7294L388.313 53.671L392.387 54.0272L397.581 69.216L393.278 68.8398L389.326 55.8014L390.956 55.9439L384.796 68.0983L380.577 67.7294ZM384.356 65.197L385.689 62.2403L392.833 62.8649L393.631 66.0079L384.356 65.197ZM402.735 66.4039L402.912 61.7463L409.791 55.5488L414.345 55.9469L407.483 62.1881L404.974 64.3895L402.735 66.4039ZM398.754 69.3185L400.035 54.6959L404.13 55.0538L402.848 69.6765L398.754 69.3185ZM408.572 70.1769L404.338 63.7234L407.286 61.0763L413.376 70.5969L408.572 70.1769ZM414.462 70.6918L415.744 56.0692L419.88 56.4308L418.598 71.0534L414.462 70.6918ZM421.541 71.3107L422.823 56.6881L426.228 56.9857L433.438 67.4252L431.829 67.2846L432.683 57.5501L436.735 57.9044L435.453 72.5271L432.048 72.2294L424.838 61.7899L426.447 61.9305L425.593 71.665L421.541 71.3107ZM445.657 73.7138C444.501 73.6127 443.444 73.3379 442.487 72.8894C441.532 72.427 440.721 71.8229 440.057 71.0772C439.407 70.3327 438.92 69.4832 438.597 68.5288C438.274 67.5604 438.162 66.5192 438.26 65.4051C438.358 64.2909 438.649 63.292 439.133 62.4081C439.619 61.5104 440.254 60.752 441.038 60.1329C441.822 59.5138 442.724 59.0665 443.744 58.7908C444.78 58.5025 445.89 58.41 447.074 58.5135C448.452 58.6341 449.665 58.9716 450.711 59.5262C451.757 60.0807 452.597 60.8207 453.231 61.7463L450.391 63.8975C449.937 63.3106 449.429 62.8592 448.867 62.5435C448.321 62.215 447.692 62.0198 446.982 61.9577C446.355 61.9029 445.776 61.9505 445.244 62.1004C444.711 62.2503 444.247 62.4974 443.852 62.8418C443.459 63.1722 443.135 63.5859 442.881 64.0829C442.642 64.5672 442.494 65.1297 442.438 65.7703C442.384 66.3831 442.432 66.9556 442.582 67.4879C442.746 68.0215 442.992 68.4921 443.321 68.8997C443.652 69.2935 444.058 69.6167 444.541 69.8695C445.04 70.1095 445.595 70.2563 446.208 70.3098C446.821 70.3634 447.428 70.3183 448.03 70.1744C448.633 70.0167 449.256 69.7203 449.897 69.2852L451.961 72.3916C451.073 72.9174 450.065 73.2923 448.937 73.5164C447.809 73.7405 446.715 73.8063 445.657 73.7138ZM448.353 71.5288L448.837 66.014L452.493 66.3336L451.961 72.3916L448.353 71.5288ZM460.526 74.719L461.808 60.0964L465.213 60.3941L472.423 70.8336L470.814 70.6929L471.668 60.9584L475.72 61.3127L474.438 75.9354L471.033 75.6377L463.823 65.1982L465.432 65.3388L464.578 75.0734L460.526 74.719ZM481.944 67.5612L488.733 68.1548L488.462 71.2465L481.673 70.6529L481.944 67.5612ZM481.731 73.3523L489.376 74.0208L489.096 77.2169L477.356 76.1905L478.638 61.5678L490.107 62.5705L489.826 65.7665L482.452 65.1219L481.731 73.3523ZM494.801 77.7156L491.341 62.6784L495.603 63.051L498.483 76.0589L496.331 75.8707L501.64 63.5788L505.442 63.9112L508.301 76.9172L506.233 76.7364L511.458 64.4372L515.407 64.7823L509.383 78.9904L504.954 78.6032L502.513 67.5493L503.704 67.6534L499.23 78.1028L494.801 77.7156ZM520.72 80.2763C519.522 80.1716 518.379 79.9243 517.291 79.5345C516.217 79.1319 515.353 78.6634 514.698 78.129L516.324 75.1979C516.942 75.6729 517.663 76.0868 518.488 76.4396C519.328 76.7797 520.173 76.9869 521.023 77.0611C521.594 77.1111 522.058 77.1025 522.414 77.0355C522.772 76.9545 523.035 76.8371 523.203 76.6834C523.386 76.517 523.488 76.3154 523.509 76.0786C523.538 75.7444 523.408 75.4664 523.119 75.2447C522.829 75.0229 522.447 74.8281 521.97 74.6601C521.494 74.4922 520.962 74.3193 520.374 74.1416C519.8 73.9652 519.222 73.7533 518.64 73.5059C518.072 73.2598 517.558 72.9623 517.098 72.6133C516.638 72.2504 516.277 71.8048 516.015 71.2767C515.754 70.7346 515.657 70.0737 515.726 69.2938C515.802 68.4164 516.109 67.6433 516.645 66.9745C517.194 66.3069 517.969 65.7992 518.967 65.4515C519.966 65.1038 521.183 64.9926 522.617 65.118C523.578 65.2021 524.508 65.3957 525.408 65.6988C526.323 65.9893 527.124 66.3751 527.811 66.8562L526.268 69.8156C525.605 69.3787 524.94 69.0399 524.273 68.7992C523.608 68.5445 522.955 68.3892 522.314 68.3332C521.743 68.2833 521.278 68.3058 520.919 68.4007C520.561 68.4816 520.297 68.6129 520.127 68.7945C519.956 68.9761 519.86 69.1922 519.838 69.4429C519.81 69.7632 519.934 70.0336 520.209 70.2541C520.5 70.462 520.883 70.6499 521.36 70.8178C521.851 70.9731 522.384 71.1389 522.958 71.3154C523.546 71.4931 524.124 71.705 524.692 71.9511C525.274 72.1845 525.796 72.4826 526.255 72.8456C526.716 73.1946 527.069 73.6395 527.317 74.1803C527.579 74.7084 527.677 75.3555 527.61 76.1214C527.535 76.9709 527.223 77.7365 526.672 78.418C526.136 79.0869 525.369 79.5952 524.37 79.9429C523.385 80.2918 522.168 80.4029 520.72 80.2763Z" fill="#8D8294"/>
<path d="M410.479 121.498C409.016 138.101 394.354 150.378 377.728 148.917C361.101 147.457 348.807 132.814 350.27 116.211C351.732 99.608 366.396 87.3314 383.022 88.7917C399.647 90.2504 411.941 104.895 410.479 121.498Z" fill="#FF8D7E"/>
<path d="M451.998 149.058L385.292 143.2L386.888 125.085L453.594 130.943L451.998 149.058Z" fill="#6EA8DC"/>
<path d="M393.697 122.901L415.626 91.6546L431.758 126.242L393.697 122.901Z" fill="#62AA53"/>
<g opacity="0.300003">
<path d="M111.051 328.932C111.051 328.932 88.1765 280.579 54.2599 281.737C52.3743 281.8 50.557 281.913 48.7847 282.058L59.4095 304.545C66.0492 305.4 73.2472 310.541 73.2472 310.541C77.0214 312.87 78.1751 315.897 73.2472 318.502C71.7043 319.318 69.2947 319.706 66.5485 319.658L77.1036 342.002C83.3712 355.27 98.7456 361.561 112.534 356.502L132.799 349.068C132.647 348.78 132.549 348.445 132.529 348.03C132.383 344.991 137.891 341.517 146.06 341.313C148.095 341.262 149.824 341.646 151.248 342.299L162.612 338.129C139.198 323.708 111.051 328.932 111.051 328.932Z" fill="#413569"/>
</g>
<g opacity="0.300003">
<path d="M111.276 166.294C126.114 168.897 138.208 154.483 133.048 140.348L127.985 126.485L48.1161 155.214L111.276 166.294Z" fill="#413569"/>
</g>
<path d="M46.1574 162.332L274.534 80.1849C278.927 78.6039 283.786 80.7703 285.542 85.0906L345.93 233.686C350.818 245.713 344.757 259.393 332.556 263.868L112.533 344.593C98.745 349.652 83.3722 343.359 77.1046 330.093L24.7852 219.343C22.374 214.241 24.7558 208.163 29.9953 206.049L50.4914 197.784L41.0093 173.681C39.2168 169.125 41.5458 163.99 46.1574 162.332Z" fill="#FFFDFF"/>
<path d="M50.4912 197.784L29.9952 206.05C24.7556 208.164 22.3739 214.242 24.7851 219.344L77.1045 330.094C79.4475 335.053 83.065 339.036 87.3944 341.817C109.799 337.776 96.7275 305.909 96.7275 305.909L50.4912 197.784Z" fill="#D2CED4"/>
<path d="M183.88 273.998L109.686 303.87L79.7731 229.775L153.967 199.905L183.88 273.998Z" fill="#6EA8DC"/>
<path d="M173.241 247.643L99.0468 277.516L109.686 303.868L183.879 273.997L173.241 247.643Z" fill="#ACDF92"/>
<path d="M111.811 262.829L164.98 227.184L173.241 247.644L115.126 271.042L111.811 262.829Z" fill="#2B5434"/>
<path d="M131.207 264.567L92.4154 261.089L99.0474 277.516L131.207 264.567Z" fill="#62AA53"/>
<path d="M120.197 237.295C122.233 242.34 119.79 248.078 114.739 250.112C109.687 252.146 103.941 249.705 101.905 244.66C99.8689 239.615 102.313 233.878 107.363 231.845C112.415 229.81 118.161 232.25 120.197 237.295Z" fill="#FFC76D"/>
<path d="M219.086 180.611L164.171 202.721L161.766 196.764L216.681 174.654L219.086 180.611Z" fill="#8D8294"/>
<path d="M224.569 194.191L169.654 216.301L167.249 210.344L222.164 188.234L224.569 194.191Z" fill="#8D8294"/>
<path d="M230.051 207.771L175.136 229.881L172.731 223.924L227.646 201.814L230.051 207.771Z" fill="#8D8294"/>
<path d="M235.533 221.351L180.618 243.461L178.213 237.504L233.128 215.394L235.533 221.351Z" fill="#8D8294"/>
<path d="M240.992 234.873L186.077 256.982L183.672 251.025L238.587 228.916L240.992 234.873Z" fill="#8D8294"/>
<path d="M246.475 248.452L191.559 270.562L189.154 264.604L244.07 242.495L246.475 248.452Z" fill="#8D8294"/>
<path d="M288.725 152.574L233.81 174.684L231.405 168.726L286.32 146.617L288.725 152.574Z" fill="#8D8294"/>
<path d="M294.208 166.154L239.293 188.264L236.888 182.307L291.803 160.197L294.208 166.154Z" fill="#8D8294"/>
<path d="M299.69 179.733L244.775 201.843L242.37 195.886L297.285 173.776L299.69 179.733Z" fill="#8D8294"/>
<path d="M305.172 193.312L250.257 215.422L247.852 209.465L302.767 187.355L305.172 193.312Z" fill="#8D8294"/>
<path d="M310.631 206.836L255.716 228.945L253.311 222.988L308.226 200.879L310.631 206.836Z" fill="#8D8294"/>
<path d="M316.114 220.415L261.199 242.524L258.794 236.567L313.709 214.458L316.114 220.415Z" fill="#8D8294"/>
<path d="M256.712 273.811L201.797 295.921L199.392 289.964L254.307 267.854L256.712 273.811Z" fill="#8D8294"/>
<path d="M174.72 306.823L119.804 328.933L117.399 322.975L172.315 300.866L174.72 306.823Z" fill="#8D8294"/>
<path d="M281.59 134.899L75.0432 218.057L72.6382 212.101L279.185 128.941L281.59 134.899Z" fill="#8D8294"/>
<path d="M326.351 245.773L271.436 267.883L269.031 261.926L323.946 239.816L326.351 245.773Z" fill="#8D8294"/>
<path d="M67.0112 192.544L59.1311 173.024L63.678 171.194L79.6915 179.853L77.5436 180.718L72.2977 167.723L77.7094 165.544L85.5894 185.064L81.0425 186.894L65.029 178.235L67.177 177.371L72.4229 190.365L67.0112 192.544ZM89.733 169.489L98.799 165.839L100.465 169.965L91.3991 173.616L89.733 169.489ZM93.2305 177.028L103.44 172.917L105.163 177.183L89.4854 183.495L81.6053 163.976L96.9198 157.81L98.6422 162.076L88.7952 166.041L93.2305 177.028ZM112.781 174.116L98.5687 157.146L104.259 154.855L116.409 169.608L113.536 170.765L112.321 151.609L117.398 149.565L129.52 164.33L126.758 165.441L125.432 146.331L130.704 144.208L132.252 166.277L126.338 168.658L116.022 156.117L117.612 155.476L118.695 171.735L112.781 174.116ZM147.583 160.558C145.984 161.202 144.361 161.628 142.716 161.837C141.082 162.019 139.672 161.982 138.487 161.724L138.657 156.923C139.756 157.129 140.948 157.189 142.232 157.104C143.528 156.993 144.743 156.709 145.877 156.253C146.64 155.946 147.227 155.634 147.64 155.316C148.045 154.98 148.304 154.66 148.419 154.354C148.544 154.023 148.543 153.699 148.416 153.383C148.236 152.937 147.888 152.666 147.374 152.57C146.86 152.475 146.244 152.475 145.525 152.569C144.807 152.664 144.014 152.789 143.147 152.943C142.298 153.091 141.422 153.195 140.517 153.257C139.631 153.311 138.78 153.264 137.964 153.118C137.14 152.952 136.389 152.617 135.709 152.113C135.023 151.589 134.469 150.807 134.049 149.766C133.576 148.595 133.464 147.408 133.714 146.206C133.982 144.996 134.641 143.844 135.692 142.751C136.742 141.658 138.225 140.726 140.141 139.955C141.424 139.438 142.739 139.082 144.087 138.885C145.445 138.662 146.721 138.635 147.913 138.803L147.866 143.587C146.734 143.46 145.663 143.459 144.654 143.584C143.638 143.69 142.702 143.916 141.847 144.26C141.084 144.567 140.504 144.898 140.107 145.253C139.702 145.588 139.45 145.928 139.35 146.27C139.251 146.613 139.269 146.952 139.404 147.286C139.576 147.714 139.91 147.979 140.406 148.082C140.913 148.159 141.525 148.15 142.244 148.055C142.973 147.935 143.762 147.801 144.611 147.653C145.478 147.499 146.355 147.394 147.241 147.34C148.138 147.26 148.999 147.302 149.822 147.468C150.638 147.615 151.38 147.954 152.048 148.484C152.728 148.989 153.274 149.752 153.686 150.775C154.144 151.909 154.243 153.09 153.982 154.319C153.733 155.521 153.083 156.669 152.032 157.762C151 158.847 149.517 159.78 147.583 160.558Z" fill="#8D8294"/>
<path d="M65.9702 274.701L80.8251 268.721L78.2992 262.812L63.5652 268.744L65.9702 274.701Z" fill="#8D8294"/>
<path d="M71.4293 288.224L86.5602 282.132L84.0343 276.224L69.0243 282.267L71.4293 288.224Z" fill="#8D8294"/>
<path d="M60.488 261.122L75.0654 255.253L72.5394 249.344L58.083 255.165L60.488 261.122Z" fill="#8D8294"/>
<path d="M49.5233 233.962L63.5471 228.316L61.0211 222.407L47.1183 228.005L49.5233 233.962Z" fill="#8D8294"/>
<path d="M89.7929 289.691L74.507 295.845L76.912 301.802L92.3189 295.598L89.7929 289.691Z" fill="#8D8294"/>
<path d="M55.0057 247.541L69.3071 241.784L66.7796 235.875L52.6007 241.584L55.0057 247.541Z" fill="#8D8294"/>
<path d="M614.849 238.019L578.233 228.222L588.044 264.789L595.702 257.14L611.57 272.986L623.058 261.513L607.191 245.667L614.849 238.019Z" fill="#FFFDFF"/>
<path d="M287.469 46.1008C287.469 49.1328 285.008 51.5918 281.971 51.5918C278.935 51.5918 276.474 49.1328 276.474 46.1008C276.474 43.0688 278.935 40.6098 281.971 40.6098C285.008 40.6098 287.469 43.0688 287.469 46.1008Z" fill="#FFFDFF"/>
<path d="M628.556 67.1135C628.556 70.1455 626.095 72.6045 623.058 72.6045C620.022 72.6045 617.561 70.1455 617.561 67.1135C617.561 64.0815 620.022 61.6225 623.058 61.6225C626.095 61.6225 628.556 64.0815 628.556 67.1135Z" fill="#FFFDFF"/>
<path d="M622.943 197.784C622.943 199.639 621.437 201.143 619.579 201.143C617.722 201.143 616.216 199.639 616.216 197.784C616.216 195.929 617.722 194.425 619.579 194.425C621.437 194.425 622.943 195.929 622.943 197.784Z" fill="#FFFDFF"/>
<path d="M6.38515 238.912C6.38515 240.767 4.8795 242.271 3.02186 242.271C1.16422 242.271 -0.341431 240.767 -0.341431 238.912C-0.341431 237.057 1.16422 235.553 3.02186 235.553C4.8795 235.553 6.38515 237.057 6.38515 238.912Z" fill="#FFFDFF"/>
<path d="M488.255 3.89812C488.255 5.75323 486.75 7.25684 484.892 7.25684C483.034 7.25684 481.529 5.75323 481.529 3.89812C481.529 2.043 483.034 0.539396 484.892 0.539396C486.75 0.539396 488.255 2.043 488.255 3.89812Z" fill="#FFFDFF"/>
<path d="M170.611 80.7018C170.611 82.5569 169.106 84.0605 167.248 84.0605C165.391 84.0605 163.885 82.5569 163.885 80.7018C163.885 78.8467 165.391 77.3431 167.248 77.3431C169.106 77.3431 170.611 78.8467 170.611 80.7018Z" fill="#FFFDFF"/>
<g opacity="0.300003">
<path d="M173.915 298.686L317.116 128.037C330.712 111.832 356.774 116.404 364.027 136.266L440.416 345.436C447.669 365.298 430.672 385.552 409.822 381.894L190.235 343.373C169.385 339.715 160.319 314.89 173.915 298.686Z" fill="#413569"/>
</g>
<path d="M185.698 287.328L328.898 116.679C342.494 100.475 368.556 105.047 375.81 124.909L452.198 334.079C459.452 353.941 442.454 374.194 421.604 370.537L202.018 332.016C181.168 328.358 172.101 303.533 185.698 287.328Z" fill="#545074"/>
<path d="M350.504 131.311C352.242 131.616 352.683 132.821 352.848 133.274L429.236 342.443C429.402 342.896 429.842 344.101 428.707 345.453C427.574 346.804 426.308 346.584 425.833 346.499L206.247 307.979C205.77 307.896 204.506 307.674 203.9 306.016C203.297 304.36 204.12 303.376 204.43 303.006L347.63 132.358C347.939 131.988 348.765 131.006 350.504 131.311Z" fill="#FFC76D"/>
<path d="M335.211 269.881L317.592 266.789C313.034 265.99 309.922 261.743 310.539 257.162L317.96 202.026C319.461 190.883 329.942 183.226 341.03 185.171C352.117 187.116 359.357 197.883 356.965 208.867L345.127 263.231C344.144 267.746 339.767 270.679 335.211 269.881Z" fill="#545074"/>
<path d="M338.987 296.208C337.342 305.565 328.411 311.818 319.042 310.175C309.67 308.53 303.408 299.613 305.055 290.255C306.7 280.898 315.632 274.644 325.001 276.289C334.372 277.932 340.632 286.851 338.987 296.208Z" fill="#545074"/>
</g>
<defs>
<clipPath id="clip0_2097_22096">
<rect width="628" height="403" fill="white"/>
</clipPath>
</defs>
</svg>
