<svg width="25" height="26" viewBox="0 0 25 26" fill="none" xmlns="http://www.w3.org/2000/svg">
<path d="M21.875 5.1875H3.125C2.7106 5.1875 2.31317 5.35212 2.02015 5.64515C1.72712 5.93817 1.5625 6.3356 1.5625 6.75V19.25C1.5625 19.6644 1.72712 20.0618 2.02015 20.3549C2.31317 20.6479 2.7106 20.8125 3.125 20.8125H21.875C22.2894 20.8125 22.6868 20.6479 22.9799 20.3549C23.2729 20.0618 23.4375 19.6644 23.4375 19.25V6.75C23.4375 6.3356 23.2729 5.93817 22.9799 5.64515C22.6868 5.35212 22.2894 5.1875 21.875 5.1875ZM20.1562 6.75L12.5 12.0469L4.84375 6.75H20.1562ZM3.125 19.25V7.46094L12.0547 13.6406C12.1855 13.7313 12.3408 13.78 12.5 13.78C12.6592 13.78 12.8145 13.7313 12.9453 13.6406L21.875 7.46094V19.25H3.125Z" fill="#696984"/>
</svg>
