<svg width="25" height="25" viewBox="0 0 25 25" fill="none" xmlns="http://www.w3.org/2000/svg">
<path d="M12.4997 16.6668C14.8009 16.6668 16.6663 14.8013 16.6663 12.5002C16.6663 10.199 14.8009 8.3335 12.4997 8.3335C10.1985 8.3335 8.33301 10.199 8.33301 12.5002C8.33301 14.8013 10.1985 16.6668 12.4997 16.6668Z" fill="#696984"/>
<path d="M13.5413 4.2387V2.0835H11.458V4.2387C9.62499 4.47275 7.92152 5.30868 6.61485 6.61534C5.30819 7.92201 4.47226 9.62547 4.23822 11.4585H2.08301V13.5418H4.23822C4.47192 15.375 5.30773 17.0786 6.61446 18.3854C7.92119 19.6921 9.62485 20.5279 11.458 20.7616V22.9168H13.5413V20.7616C15.3746 20.5281 17.0783 19.6923 18.3851 18.3856C19.6918 17.0788 20.5276 15.3751 20.7611 13.5418H22.9163V11.4585H20.7611C20.5274 9.62534 19.6916 7.92168 18.3849 6.61495C17.0782 5.30822 15.3745 4.47241 13.5413 4.2387ZM12.4997 18.7502C9.0528 18.7502 6.24967 15.947 6.24967 12.5002C6.24967 9.05329 9.0528 6.25016 12.4997 6.25016C15.9466 6.25016 18.7497 9.05329 18.7497 12.5002C18.7497 15.947 15.9466 18.7502 12.4997 18.7502Z" fill="#696984"/>
</svg>
