<svg width="21" height="22" viewBox="0 0 21 22" fill="none" xmlns="http://www.w3.org/2000/svg">
<path d="M2 20C2.46765 18.3157 3.53887 16.8162 5.04871 15.7324C6.55855 14.6486 8.42327 14.0405 10.3557 14.002C12.2881 13.9634 14.1811 14.4964 15.7431 15.5188C17.3051 16.5413 18.4495 17.9966 19 19.6605" stroke="#696984" stroke-width="2.35003" stroke-linecap="round" stroke-linejoin="round"/>
<path d="M10.9281 10H10.0672C8.98853 10 7.95401 9.6125 7.19126 8.92273C6.42851 8.23296 6 7.29743 6 6.32194V5.98528C6 4.92832 6.4643 3.91464 7.29076 3.16725C8.11722 2.41987 9.23814 2 10.4069 2C11.0103 1.99945 11.6078 2.10652 12.1653 2.31506C12.7229 2.5236 13.2295 2.82953 13.6561 3.21534C14.0827 3.60114 14.421 4.05925 14.6516 4.56344C14.8822 5.06763 15.0006 5.60799 15 6.1536V6.32194C15 7.29743 14.5715 8.23296 13.8087 8.92273C13.046 9.6125 12.0115 10 10.9328 10H10.9281Z" stroke="#696984" stroke-width="2.35003" stroke-linecap="round" stroke-linejoin="round"/>
</svg>
